<?xml version="1.0" encoding="utf-8" standalone="no"?>
<!DOCTYPE svg PUBLIC "-//W3C//DTD SVG 1.1//EN"
  "http://www.w3.org/Graphics/SVG/1.1/DTD/svg11.dtd">
<!-- Created with matplotlib (https://matplotlib.org/) -->
<svg height="337.59625pt" version="1.1" viewBox="0 0 453.295625 337.59625" width="453.295625pt" xmlns="http://www.w3.org/2000/svg" xmlns:xlink="http://www.w3.org/1999/xlink">
 <defs>
  <style type="text/css">
*{stroke-linecap:butt;stroke-linejoin:round;}
  </style>
 </defs>
 <g id="figure_1">
  <g id="patch_1">
   <path d="M 0 337.59625 
L 453.295625 337.59625 
L 453.295625 0 
L 0 0 
z
" style="fill:none;"/>
  </g>
  <g id="axes_1">
   <g id="patch_2">
    <path d="M 43.465625 303.54 
L 446.095625 303.54 
L 446.095625 7.2 
L 43.465625 7.2 
z
" style="fill:none;"/>
   </g>
   <g id="matplotlib.axis_1">
    <g id="xtick_1">
     <g id="line2d_1">
      <path clip-path="url(#p92357de0d7)" d="M 45.453795 303.54 
L 45.453795 7.2 
" style="fill:none;stroke:#b2b2b2;stroke-dasharray:0.8,1.32;stroke-dashoffset:0;stroke-width:0.8;"/>
     </g>
     <g id="line2d_2">
      <defs>
       <path d="M 0 0 
L 0 -3.5 
" id="mcfc6772575" style="stroke:#000000;stroke-width:0.8;"/>
      </defs>
      <g>
       <use style="stroke:#000000;stroke-width:0.8;" x="45.453795" xlink:href="#mcfc6772575" y="303.54"/>
      </g>
     </g>
     <g id="line2d_3">
      <defs>
       <path d="M 0 0 
L 0 3.5 
" id="m0299695b6d" style="stroke:#000000;stroke-width:0.8;"/>
      </defs>
      <g>
       <use style="stroke:#000000;stroke-width:0.8;" x="45.453795" xlink:href="#m0299695b6d" y="7.2"/>
      </g>
     </g>
     <g id="text_1">
      <!-- 0 -->
      <defs>
       <path d="M 31.78125 66.40625 
Q 24.171875 66.40625 20.328125 58.90625 
Q 16.5 51.421875 16.5 36.375 
Q 16.5 21.390625 20.328125 13.890625 
Q 24.171875 6.390625 31.78125 6.390625 
Q 39.453125 6.390625 43.28125 13.890625 
Q 47.125 21.390625 47.125 36.375 
Q 47.125 51.421875 43.28125 58.90625 
Q 39.453125 66.40625 31.78125 66.40625 
z
M 31.78125 74.21875 
Q 44.046875 74.21875 50.515625 64.515625 
Q 56.984375 54.828125 56.984375 36.375 
Q 56.984375 17.96875 50.515625 8.265625 
Q 44.046875 -1.421875 31.78125 -1.421875 
Q 19.53125 -1.421875 13.0625 8.265625 
Q 6.59375 17.96875 6.59375 36.375 
Q 6.59375 54.828125 13.0625 64.515625 
Q 19.53125 74.21875 31.78125 74.21875 
z
" id="DejaVuSans-48"/>
      </defs>
      <g transform="translate(42.272545 314.638437)scale(0.1 -0.1)">
       <use xlink:href="#DejaVuSans-48"/>
      </g>
     </g>
    </g>
    <g id="xtick_2">
     <g id="line2d_4">
      <path clip-path="url(#p92357de0d7)" d="M 96.432524 303.54 
L 96.432524 7.2 
" style="fill:none;stroke:#b2b2b2;stroke-dasharray:0.8,1.32;stroke-dashoffset:0;stroke-width:0.8;"/>
     </g>
     <g id="line2d_5">
      <g>
       <use style="stroke:#000000;stroke-width:0.8;" x="96.432524" xlink:href="#mcfc6772575" y="303.54"/>
      </g>
     </g>
     <g id="line2d_6">
      <g>
       <use style="stroke:#000000;stroke-width:0.8;" x="96.432524" xlink:href="#m0299695b6d" y="7.2"/>
      </g>
     </g>
     <g id="text_2">
      <!-- 200 -->
      <defs>
       <path d="M 19.1875 8.296875 
L 53.609375 8.296875 
L 53.609375 0 
L 7.328125 0 
L 7.328125 8.296875 
Q 12.9375 14.109375 22.625 23.890625 
Q 32.328125 33.6875 34.8125 36.53125 
Q 39.546875 41.84375 41.421875 45.53125 
Q 43.3125 49.21875 43.3125 52.78125 
Q 43.3125 58.59375 39.234375 62.25 
Q 35.15625 65.921875 28.609375 65.921875 
Q 23.96875 65.921875 18.8125 64.3125 
Q 13.671875 62.703125 7.8125 59.421875 
L 7.8125 69.390625 
Q 13.765625 71.78125 18.9375 73 
Q 24.125 74.21875 28.421875 74.21875 
Q 39.75 74.21875 46.484375 68.546875 
Q 53.21875 62.890625 53.21875 53.421875 
Q 53.21875 48.921875 51.53125 44.890625 
Q 49.859375 40.875 45.40625 35.40625 
Q 44.1875 33.984375 37.640625 27.21875 
Q 31.109375 20.453125 19.1875 8.296875 
z
" id="DejaVuSans-50"/>
      </defs>
      <g transform="translate(86.888774 314.638437)scale(0.1 -0.1)">
       <use xlink:href="#DejaVuSans-50"/>
       <use x="63.623047" xlink:href="#DejaVuSans-48"/>
       <use x="127.246094" xlink:href="#DejaVuSans-48"/>
      </g>
     </g>
    </g>
    <g id="xtick_3">
     <g id="line2d_7">
      <path clip-path="url(#p92357de0d7)" d="M 147.411253 303.54 
L 147.411253 7.2 
" style="fill:none;stroke:#b2b2b2;stroke-dasharray:0.8,1.32;stroke-dashoffset:0;stroke-width:0.8;"/>
     </g>
     <g id="line2d_8">
      <g>
       <use style="stroke:#000000;stroke-width:0.8;" x="147.411253" xlink:href="#mcfc6772575" y="303.54"/>
      </g>
     </g>
     <g id="line2d_9">
      <g>
       <use style="stroke:#000000;stroke-width:0.8;" x="147.411253" xlink:href="#m0299695b6d" y="7.2"/>
      </g>
     </g>
     <g id="text_3">
      <!-- 400 -->
      <defs>
       <path d="M 37.796875 64.3125 
L 12.890625 25.390625 
L 37.796875 25.390625 
z
M 35.203125 72.90625 
L 47.609375 72.90625 
L 47.609375 25.390625 
L 58.015625 25.390625 
L 58.015625 17.1875 
L 47.609375 17.1875 
L 47.609375 0 
L 37.796875 0 
L 37.796875 17.1875 
L 4.890625 17.1875 
L 4.890625 26.703125 
z
" id="DejaVuSans-52"/>
      </defs>
      <g transform="translate(137.867503 314.638437)scale(0.1 -0.1)">
       <use xlink:href="#DejaVuSans-52"/>
       <use x="63.623047" xlink:href="#DejaVuSans-48"/>
       <use x="127.246094" xlink:href="#DejaVuSans-48"/>
      </g>
     </g>
    </g>
    <g id="xtick_4">
     <g id="line2d_10">
      <path clip-path="url(#p92357de0d7)" d="M 198.389982 303.54 
L 198.389982 7.2 
" style="fill:none;stroke:#b2b2b2;stroke-dasharray:0.8,1.32;stroke-dashoffset:0;stroke-width:0.8;"/>
     </g>
     <g id="line2d_11">
      <g>
       <use style="stroke:#000000;stroke-width:0.8;" x="198.389982" xlink:href="#mcfc6772575" y="303.54"/>
      </g>
     </g>
     <g id="line2d_12">
      <g>
       <use style="stroke:#000000;stroke-width:0.8;" x="198.389982" xlink:href="#m0299695b6d" y="7.2"/>
      </g>
     </g>
     <g id="text_4">
      <!-- 600 -->
      <defs>
       <path d="M 33.015625 40.375 
Q 26.375 40.375 22.484375 35.828125 
Q 18.609375 31.296875 18.609375 23.390625 
Q 18.609375 15.53125 22.484375 10.953125 
Q 26.375 6.390625 33.015625 6.390625 
Q 39.65625 6.390625 43.53125 10.953125 
Q 47.40625 15.53125 47.40625 23.390625 
Q 47.40625 31.296875 43.53125 35.828125 
Q 39.65625 40.375 33.015625 40.375 
z
M 52.59375 71.296875 
L 52.59375 62.3125 
Q 48.875 64.0625 45.09375 64.984375 
Q 41.3125 65.921875 37.59375 65.921875 
Q 27.828125 65.921875 22.671875 59.328125 
Q 17.53125 52.734375 16.796875 39.40625 
Q 19.671875 43.65625 24.015625 45.921875 
Q 28.375 48.1875 33.59375 48.1875 
Q 44.578125 48.1875 50.953125 41.515625 
Q 57.328125 34.859375 57.328125 23.390625 
Q 57.328125 12.15625 50.6875 5.359375 
Q 44.046875 -1.421875 33.015625 -1.421875 
Q 20.359375 -1.421875 13.671875 8.265625 
Q 6.984375 17.96875 6.984375 36.375 
Q 6.984375 53.65625 15.1875 63.9375 
Q 23.390625 74.21875 37.203125 74.21875 
Q 40.921875 74.21875 44.703125 73.484375 
Q 48.484375 72.75 52.59375 71.296875 
z
" id="DejaVuSans-54"/>
      </defs>
      <g transform="translate(188.846232 314.638437)scale(0.1 -0.1)">
       <use xlink:href="#DejaVuSans-54"/>
       <use x="63.623047" xlink:href="#DejaVuSans-48"/>
       <use x="127.246094" xlink:href="#DejaVuSans-48"/>
      </g>
     </g>
    </g>
    <g id="xtick_5">
     <g id="line2d_13">
      <path clip-path="url(#p92357de0d7)" d="M 249.368711 303.54 
L 249.368711 7.2 
" style="fill:none;stroke:#b2b2b2;stroke-dasharray:0.8,1.32;stroke-dashoffset:0;stroke-width:0.8;"/>
     </g>
     <g id="line2d_14">
      <g>
       <use style="stroke:#000000;stroke-width:0.8;" x="249.368711" xlink:href="#mcfc6772575" y="303.54"/>
      </g>
     </g>
     <g id="line2d_15">
      <g>
       <use style="stroke:#000000;stroke-width:0.8;" x="249.368711" xlink:href="#m0299695b6d" y="7.2"/>
      </g>
     </g>
     <g id="text_5">
      <!-- 800 -->
      <defs>
       <path d="M 31.78125 34.625 
Q 24.75 34.625 20.71875 30.859375 
Q 16.703125 27.09375 16.703125 20.515625 
Q 16.703125 13.921875 20.71875 10.15625 
Q 24.75 6.390625 31.78125 6.390625 
Q 38.8125 6.390625 42.859375 10.171875 
Q 46.921875 13.96875 46.921875 20.515625 
Q 46.921875 27.09375 42.890625 30.859375 
Q 38.875 34.625 31.78125 34.625 
z
M 21.921875 38.8125 
Q 15.578125 40.375 12.03125 44.71875 
Q 8.5 49.078125 8.5 55.328125 
Q 8.5 64.0625 14.71875 69.140625 
Q 20.953125 74.21875 31.78125 74.21875 
Q 42.671875 74.21875 48.875 69.140625 
Q 55.078125 64.0625 55.078125 55.328125 
Q 55.078125 49.078125 51.53125 44.71875 
Q 48 40.375 41.703125 38.8125 
Q 48.828125 37.15625 52.796875 32.3125 
Q 56.78125 27.484375 56.78125 20.515625 
Q 56.78125 9.90625 50.3125 4.234375 
Q 43.84375 -1.421875 31.78125 -1.421875 
Q 19.734375 -1.421875 13.25 4.234375 
Q 6.78125 9.90625 6.78125 20.515625 
Q 6.78125 27.484375 10.78125 32.3125 
Q 14.796875 37.15625 21.921875 38.8125 
z
M 18.3125 54.390625 
Q 18.3125 48.734375 21.84375 45.5625 
Q 25.390625 42.390625 31.78125 42.390625 
Q 38.140625 42.390625 41.71875 45.5625 
Q 45.3125 48.734375 45.3125 54.390625 
Q 45.3125 60.0625 41.71875 63.234375 
Q 38.140625 66.40625 31.78125 66.40625 
Q 25.390625 66.40625 21.84375 63.234375 
Q 18.3125 60.0625 18.3125 54.390625 
z
" id="DejaVuSans-56"/>
      </defs>
      <g transform="translate(239.824961 314.638437)scale(0.1 -0.1)">
       <use xlink:href="#DejaVuSans-56"/>
       <use x="63.623047" xlink:href="#DejaVuSans-48"/>
       <use x="127.246094" xlink:href="#DejaVuSans-48"/>
      </g>
     </g>
    </g>
    <g id="xtick_6">
     <g id="line2d_16">
      <path clip-path="url(#p92357de0d7)" d="M 300.347439 303.54 
L 300.347439 7.2 
" style="fill:none;stroke:#b2b2b2;stroke-dasharray:0.8,1.32;stroke-dashoffset:0;stroke-width:0.8;"/>
     </g>
     <g id="line2d_17">
      <g>
       <use style="stroke:#000000;stroke-width:0.8;" x="300.347439" xlink:href="#mcfc6772575" y="303.54"/>
      </g>
     </g>
     <g id="line2d_18">
      <g>
       <use style="stroke:#000000;stroke-width:0.8;" x="300.347439" xlink:href="#m0299695b6d" y="7.2"/>
      </g>
     </g>
     <g id="text_6">
      <!-- 1000 -->
      <defs>
       <path d="M 12.40625 8.296875 
L 28.515625 8.296875 
L 28.515625 63.921875 
L 10.984375 60.40625 
L 10.984375 69.390625 
L 28.421875 72.90625 
L 38.28125 72.90625 
L 38.28125 8.296875 
L 54.390625 8.296875 
L 54.390625 0 
L 12.40625 0 
z
" id="DejaVuSans-49"/>
      </defs>
      <g transform="translate(287.622439 314.638437)scale(0.1 -0.1)">
       <use xlink:href="#DejaVuSans-49"/>
       <use x="63.623047" xlink:href="#DejaVuSans-48"/>
       <use x="127.246094" xlink:href="#DejaVuSans-48"/>
       <use x="190.869141" xlink:href="#DejaVuSans-48"/>
      </g>
     </g>
    </g>
    <g id="xtick_7">
     <g id="line2d_19">
      <path clip-path="url(#p92357de0d7)" d="M 351.326168 303.54 
L 351.326168 7.2 
" style="fill:none;stroke:#b2b2b2;stroke-dasharray:0.8,1.32;stroke-dashoffset:0;stroke-width:0.8;"/>
     </g>
     <g id="line2d_20">
      <g>
       <use style="stroke:#000000;stroke-width:0.8;" x="351.326168" xlink:href="#mcfc6772575" y="303.54"/>
      </g>
     </g>
     <g id="line2d_21">
      <g>
       <use style="stroke:#000000;stroke-width:0.8;" x="351.326168" xlink:href="#m0299695b6d" y="7.2"/>
      </g>
     </g>
     <g id="text_7">
      <!-- 1200 -->
      <g transform="translate(338.601168 314.638437)scale(0.1 -0.1)">
       <use xlink:href="#DejaVuSans-49"/>
       <use x="63.623047" xlink:href="#DejaVuSans-50"/>
       <use x="127.246094" xlink:href="#DejaVuSans-48"/>
       <use x="190.869141" xlink:href="#DejaVuSans-48"/>
      </g>
     </g>
    </g>
    <g id="xtick_8">
     <g id="line2d_22">
      <path clip-path="url(#p92357de0d7)" d="M 402.304897 303.54 
L 402.304897 7.2 
" style="fill:none;stroke:#b2b2b2;stroke-dasharray:0.8,1.32;stroke-dashoffset:0;stroke-width:0.8;"/>
     </g>
     <g id="line2d_23">
      <g>
       <use style="stroke:#000000;stroke-width:0.8;" x="402.304897" xlink:href="#mcfc6772575" y="303.54"/>
      </g>
     </g>
     <g id="line2d_24">
      <g>
       <use style="stroke:#000000;stroke-width:0.8;" x="402.304897" xlink:href="#m0299695b6d" y="7.2"/>
      </g>
     </g>
     <g id="text_8">
      <!-- 1400 -->
      <g transform="translate(389.579897 314.638437)scale(0.1 -0.1)">
       <use xlink:href="#DejaVuSans-49"/>
       <use x="63.623047" xlink:href="#DejaVuSans-52"/>
       <use x="127.246094" xlink:href="#DejaVuSans-48"/>
       <use x="190.869141" xlink:href="#DejaVuSans-48"/>
      </g>
     </g>
    </g>
    <g id="text_9">
     <!-- Packet length (Bytes) -->
     <defs>
      <path d="M 19.671875 64.796875 
L 19.671875 37.40625 
L 32.078125 37.40625 
Q 38.96875 37.40625 42.71875 40.96875 
Q 46.484375 44.53125 46.484375 51.125 
Q 46.484375 57.671875 42.71875 61.234375 
Q 38.96875 64.796875 32.078125 64.796875 
z
M 9.8125 72.90625 
L 32.078125 72.90625 
Q 44.34375 72.90625 50.609375 67.359375 
Q 56.890625 61.8125 56.890625 51.125 
Q 56.890625 40.328125 50.609375 34.8125 
Q 44.34375 29.296875 32.078125 29.296875 
L 19.671875 29.296875 
L 19.671875 0 
L 9.8125 0 
z
" id="DejaVuSans-80"/>
      <path d="M 34.28125 27.484375 
Q 23.390625 27.484375 19.1875 25 
Q 14.984375 22.515625 14.984375 16.5 
Q 14.984375 11.71875 18.140625 8.90625 
Q 21.296875 6.109375 26.703125 6.109375 
Q 34.1875 6.109375 38.703125 11.40625 
Q 43.21875 16.703125 43.21875 25.484375 
L 43.21875 27.484375 
z
M 52.203125 31.203125 
L 52.203125 0 
L 43.21875 0 
L 43.21875 8.296875 
Q 40.140625 3.328125 35.546875 0.953125 
Q 30.953125 -1.421875 24.3125 -1.421875 
Q 15.921875 -1.421875 10.953125 3.296875 
Q 6 8.015625 6 15.921875 
Q 6 25.140625 12.171875 29.828125 
Q 18.359375 34.515625 30.609375 34.515625 
L 43.21875 34.515625 
L 43.21875 35.40625 
Q 43.21875 41.609375 39.140625 45 
Q 35.0625 48.390625 27.6875 48.390625 
Q 23 48.390625 18.546875 47.265625 
Q 14.109375 46.140625 10.015625 43.890625 
L 10.015625 52.203125 
Q 14.9375 54.109375 19.578125 55.046875 
Q 24.21875 56 28.609375 56 
Q 40.484375 56 46.34375 49.84375 
Q 52.203125 43.703125 52.203125 31.203125 
z
" id="DejaVuSans-97"/>
      <path d="M 48.78125 52.59375 
L 48.78125 44.1875 
Q 44.96875 46.296875 41.140625 47.34375 
Q 37.3125 48.390625 33.40625 48.390625 
Q 24.65625 48.390625 19.8125 42.84375 
Q 14.984375 37.3125 14.984375 27.296875 
Q 14.984375 17.28125 19.8125 11.734375 
Q 24.65625 6.203125 33.40625 6.203125 
Q 37.3125 6.203125 41.140625 7.25 
Q 44.96875 8.296875 48.78125 10.40625 
L 48.78125 2.09375 
Q 45.015625 0.34375 40.984375 -0.53125 
Q 36.96875 -1.421875 32.421875 -1.421875 
Q 20.0625 -1.421875 12.78125 6.34375 
Q 5.515625 14.109375 5.515625 27.296875 
Q 5.515625 40.671875 12.859375 48.328125 
Q 20.21875 56 33.015625 56 
Q 37.15625 56 41.109375 55.140625 
Q 45.0625 54.296875 48.78125 52.59375 
z
" id="DejaVuSans-99"/>
      <path d="M 9.078125 75.984375 
L 18.109375 75.984375 
L 18.109375 31.109375 
L 44.921875 54.6875 
L 56.390625 54.6875 
L 27.390625 29.109375 
L 57.625 0 
L 45.90625 0 
L 18.109375 26.703125 
L 18.109375 0 
L 9.078125 0 
z
" id="DejaVuSans-107"/>
      <path d="M 56.203125 29.59375 
L 56.203125 25.203125 
L 14.890625 25.203125 
Q 15.484375 15.921875 20.484375 11.0625 
Q 25.484375 6.203125 34.421875 6.203125 
Q 39.59375 6.203125 44.453125 7.46875 
Q 49.3125 8.734375 54.109375 11.28125 
L 54.109375 2.78125 
Q 49.265625 0.734375 44.1875 -0.34375 
Q 39.109375 -1.421875 33.890625 -1.421875 
Q 20.796875 -1.421875 13.15625 6.1875 
Q 5.515625 13.8125 5.515625 26.8125 
Q 5.515625 40.234375 12.765625 48.109375 
Q 20.015625 56 32.328125 56 
Q 43.359375 56 49.78125 48.890625 
Q 56.203125 41.796875 56.203125 29.59375 
z
M 47.21875 32.234375 
Q 47.125 39.59375 43.09375 43.984375 
Q 39.0625 48.390625 32.421875 48.390625 
Q 24.90625 48.390625 20.390625 44.140625 
Q 15.875 39.890625 15.1875 32.171875 
z
" id="DejaVuSans-101"/>
      <path d="M 18.3125 70.21875 
L 18.3125 54.6875 
L 36.8125 54.6875 
L 36.8125 47.703125 
L 18.3125 47.703125 
L 18.3125 18.015625 
Q 18.3125 11.328125 20.140625 9.421875 
Q 21.96875 7.515625 27.59375 7.515625 
L 36.8125 7.515625 
L 36.8125 0 
L 27.59375 0 
Q 17.1875 0 13.234375 3.875 
Q 9.28125 7.765625 9.28125 18.015625 
L 9.28125 47.703125 
L 2.6875 47.703125 
L 2.6875 54.6875 
L 9.28125 54.6875 
L 9.28125 70.21875 
z
" id="DejaVuSans-116"/>
      <path id="DejaVuSans-32"/>
      <path d="M 9.421875 75.984375 
L 18.40625 75.984375 
L 18.40625 0 
L 9.421875 0 
z
" id="DejaVuSans-108"/>
      <path d="M 54.890625 33.015625 
L 54.890625 0 
L 45.90625 0 
L 45.90625 32.71875 
Q 45.90625 40.484375 42.875 44.328125 
Q 39.84375 48.1875 33.796875 48.1875 
Q 26.515625 48.1875 22.3125 43.546875 
Q 18.109375 38.921875 18.109375 30.90625 
L 18.109375 0 
L 9.078125 0 
L 9.078125 54.6875 
L 18.109375 54.6875 
L 18.109375 46.1875 
Q 21.34375 51.125 25.703125 53.5625 
Q 30.078125 56 35.796875 56 
Q 45.21875 56 50.046875 50.171875 
Q 54.890625 44.34375 54.890625 33.015625 
z
" id="DejaVuSans-110"/>
      <path d="M 45.40625 27.984375 
Q 45.40625 37.75 41.375 43.109375 
Q 37.359375 48.484375 30.078125 48.484375 
Q 22.859375 48.484375 18.828125 43.109375 
Q 14.796875 37.75 14.796875 27.984375 
Q 14.796875 18.265625 18.828125 12.890625 
Q 22.859375 7.515625 30.078125 7.515625 
Q 37.359375 7.515625 41.375 12.890625 
Q 45.40625 18.265625 45.40625 27.984375 
z
M 54.390625 6.78125 
Q 54.390625 -7.171875 48.1875 -13.984375 
Q 42 -20.796875 29.203125 -20.796875 
Q 24.46875 -20.796875 20.265625 -20.09375 
Q 16.0625 -19.390625 12.109375 -17.921875 
L 12.109375 -9.1875 
Q 16.0625 -11.328125 19.921875 -12.34375 
Q 23.78125 -13.375 27.78125 -13.375 
Q 36.625 -13.375 41.015625 -8.765625 
Q 45.40625 -4.15625 45.40625 5.171875 
L 45.40625 9.625 
Q 42.625 4.78125 38.28125 2.390625 
Q 33.9375 0 27.875 0 
Q 17.828125 0 11.671875 7.65625 
Q 5.515625 15.328125 5.515625 27.984375 
Q 5.515625 40.671875 11.671875 48.328125 
Q 17.828125 56 27.875 56 
Q 33.9375 56 38.28125 53.609375 
Q 42.625 51.21875 45.40625 46.390625 
L 45.40625 54.6875 
L 54.390625 54.6875 
z
" id="DejaVuSans-103"/>
      <path d="M 54.890625 33.015625 
L 54.890625 0 
L 45.90625 0 
L 45.90625 32.71875 
Q 45.90625 40.484375 42.875 44.328125 
Q 39.84375 48.1875 33.796875 48.1875 
Q 26.515625 48.1875 22.3125 43.546875 
Q 18.109375 38.921875 18.109375 30.90625 
L 18.109375 0 
L 9.078125 0 
L 9.078125 75.984375 
L 18.109375 75.984375 
L 18.109375 46.1875 
Q 21.34375 51.125 25.703125 53.5625 
Q 30.078125 56 35.796875 56 
Q 45.21875 56 50.046875 50.171875 
Q 54.890625 44.34375 54.890625 33.015625 
z
" id="DejaVuSans-104"/>
      <path d="M 31 75.875 
Q 24.46875 64.65625 21.28125 53.65625 
Q 18.109375 42.671875 18.109375 31.390625 
Q 18.109375 20.125 21.3125 9.0625 
Q 24.515625 -2 31 -13.1875 
L 23.1875 -13.1875 
Q 15.875 -1.703125 12.234375 9.375 
Q 8.59375 20.453125 8.59375 31.390625 
Q 8.59375 42.28125 12.203125 53.3125 
Q 15.828125 64.359375 23.1875 75.875 
z
" id="DejaVuSans-40"/>
      <path d="M 19.671875 34.8125 
L 19.671875 8.109375 
L 35.5 8.109375 
Q 43.453125 8.109375 47.28125 11.40625 
Q 51.125 14.703125 51.125 21.484375 
Q 51.125 28.328125 47.28125 31.5625 
Q 43.453125 34.8125 35.5 34.8125 
z
M 19.671875 64.796875 
L 19.671875 42.828125 
L 34.28125 42.828125 
Q 41.5 42.828125 45.03125 45.53125 
Q 48.578125 48.25 48.578125 53.8125 
Q 48.578125 59.328125 45.03125 62.0625 
Q 41.5 64.796875 34.28125 64.796875 
z
M 9.8125 72.90625 
L 35.015625 72.90625 
Q 46.296875 72.90625 52.390625 68.21875 
Q 58.5 63.53125 58.5 54.890625 
Q 58.5 48.1875 55.375 44.234375 
Q 52.25 40.28125 46.1875 39.3125 
Q 53.46875 37.75 57.5 32.78125 
Q 61.53125 27.828125 61.53125 20.40625 
Q 61.53125 10.640625 54.890625 5.3125 
Q 48.25 0 35.984375 0 
L 9.8125 0 
z
" id="DejaVuSans-66"/>
      <path d="M 32.171875 -5.078125 
Q 28.375 -14.84375 24.75 -17.8125 
Q 21.140625 -20.796875 15.09375 -20.796875 
L 7.90625 -20.796875 
L 7.90625 -13.28125 
L 13.1875 -13.28125 
Q 16.890625 -13.28125 18.9375 -11.515625 
Q 21 -9.765625 23.484375 -3.21875 
L 25.09375 0.875 
L 2.984375 54.6875 
L 12.5 54.6875 
L 29.59375 11.921875 
L 46.6875 54.6875 
L 56.203125 54.6875 
z
" id="DejaVuSans-121"/>
      <path d="M 44.28125 53.078125 
L 44.28125 44.578125 
Q 40.484375 46.53125 36.375 47.5 
Q 32.28125 48.484375 27.875 48.484375 
Q 21.1875 48.484375 17.84375 46.4375 
Q 14.5 44.390625 14.5 40.28125 
Q 14.5 37.15625 16.890625 35.375 
Q 19.28125 33.59375 26.515625 31.984375 
L 29.59375 31.296875 
Q 39.15625 29.25 43.1875 25.515625 
Q 47.21875 21.78125 47.21875 15.09375 
Q 47.21875 7.46875 41.1875 3.015625 
Q 35.15625 -1.421875 24.609375 -1.421875 
Q 20.21875 -1.421875 15.453125 -0.5625 
Q 10.6875 0.296875 5.421875 2 
L 5.421875 11.28125 
Q 10.40625 8.6875 15.234375 7.390625 
Q 20.0625 6.109375 24.8125 6.109375 
Q 31.15625 6.109375 34.5625 8.28125 
Q 37.984375 10.453125 37.984375 14.40625 
Q 37.984375 18.0625 35.515625 20.015625 
Q 33.0625 21.96875 24.703125 23.78125 
L 21.578125 24.515625 
Q 13.234375 26.265625 9.515625 29.90625 
Q 5.8125 33.546875 5.8125 39.890625 
Q 5.8125 47.609375 11.28125 51.796875 
Q 16.75 56 26.8125 56 
Q 31.78125 56 36.171875 55.265625 
Q 40.578125 54.546875 44.28125 53.078125 
z
" id="DejaVuSans-115"/>
      <path d="M 8.015625 75.875 
L 15.828125 75.875 
Q 23.140625 64.359375 26.78125 53.3125 
Q 30.421875 42.28125 30.421875 31.390625 
Q 30.421875 20.453125 26.78125 9.375 
Q 23.140625 -1.703125 15.828125 -13.1875 
L 8.015625 -13.1875 
Q 14.5 -2 17.703125 9.0625 
Q 20.90625 20.125 20.90625 31.390625 
Q 20.90625 42.671875 17.703125 53.65625 
Q 14.5 64.65625 8.015625 75.875 
z
" id="DejaVuSans-41"/>
     </defs>
     <g transform="translate(191.378281 328.316562)scale(0.1 -0.1)">
      <use xlink:href="#DejaVuSans-80"/>
      <use x="55.802734" xlink:href="#DejaVuSans-97"/>
      <use x="117.082031" xlink:href="#DejaVuSans-99"/>
      <use x="172.0625" xlink:href="#DejaVuSans-107"/>
      <use x="226.347656" xlink:href="#DejaVuSans-101"/>
      <use x="287.871094" xlink:href="#DejaVuSans-116"/>
      <use x="327.080078" xlink:href="#DejaVuSans-32"/>
      <use x="358.867188" xlink:href="#DejaVuSans-108"/>
      <use x="386.650391" xlink:href="#DejaVuSans-101"/>
      <use x="448.173828" xlink:href="#DejaVuSans-110"/>
      <use x="511.552734" xlink:href="#DejaVuSans-103"/>
      <use x="575.029297" xlink:href="#DejaVuSans-116"/>
      <use x="614.238281" xlink:href="#DejaVuSans-104"/>
      <use x="677.617188" xlink:href="#DejaVuSans-32"/>
      <use x="709.404297" xlink:href="#DejaVuSans-40"/>
      <use x="748.417969" xlink:href="#DejaVuSans-66"/>
      <use x="817.021484" xlink:href="#DejaVuSans-121"/>
      <use x="876.201172" xlink:href="#DejaVuSans-116"/>
      <use x="915.410156" xlink:href="#DejaVuSans-101"/>
      <use x="976.933594" xlink:href="#DejaVuSans-115"/>
      <use x="1029.033203" xlink:href="#DejaVuSans-41"/>
     </g>
    </g>
   </g>
   <g id="matplotlib.axis_2">
    <g id="ytick_1">
     <g id="line2d_25">
      <path clip-path="url(#p92357de0d7)" d="M 43.465625 303.54 
L 446.095625 303.54 
" style="fill:none;stroke:#b2b2b2;stroke-dasharray:0.8,1.32;stroke-dashoffset:0;stroke-width:0.8;"/>
     </g>
     <g id="line2d_26">
      <defs>
       <path d="M 0 0 
L 3.5 0 
" id="m80b318a6cb" style="stroke:#000000;stroke-width:0.8;"/>
      </defs>
      <g>
       <use style="stroke:#000000;stroke-width:0.8;" x="43.465625" xlink:href="#m80b318a6cb" y="303.54"/>
      </g>
     </g>
     <g id="line2d_27">
      <defs>
       <path d="M 0 0 
L -3.5 0 
" id="m31fc40ef91" style="stroke:#000000;stroke-width:0.8;"/>
      </defs>
      <g>
       <use style="stroke:#000000;stroke-width:0.8;" x="446.095625" xlink:href="#m31fc40ef91" y="303.54"/>
      </g>
     </g>
     <g id="text_10">
      <!-- 0 -->
      <g transform="translate(33.603125 307.339219)scale(0.1 -0.1)">
       <use xlink:href="#DejaVuSans-48"/>
      </g>
     </g>
    </g>
    <g id="ytick_2">
     <g id="line2d_28">
      <path clip-path="url(#p92357de0d7)" d="M 43.465625 259.286753 
L 446.095625 259.286753 
" style="fill:none;stroke:#b2b2b2;stroke-dasharray:0.8,1.32;stroke-dashoffset:0;stroke-width:0.8;"/>
     </g>
     <g id="line2d_29">
      <g>
       <use style="stroke:#000000;stroke-width:0.8;" x="43.465625" xlink:href="#m80b318a6cb" y="259.286753"/>
      </g>
     </g>
     <g id="line2d_30">
      <g>
       <use style="stroke:#000000;stroke-width:0.8;" x="446.095625" xlink:href="#m31fc40ef91" y="259.286753"/>
      </g>
     </g>
     <g id="text_11">
      <!-- 50 -->
      <defs>
       <path d="M 10.796875 72.90625 
L 49.515625 72.90625 
L 49.515625 64.59375 
L 19.828125 64.59375 
L 19.828125 46.734375 
Q 21.96875 47.46875 24.109375 47.828125 
Q 26.265625 48.1875 28.421875 48.1875 
Q 40.625 48.1875 47.75 41.5 
Q 54.890625 34.8125 54.890625 23.390625 
Q 54.890625 11.625 47.5625 5.09375 
Q 40.234375 -1.421875 26.90625 -1.421875 
Q 22.3125 -1.421875 17.546875 -0.640625 
Q 12.796875 0.140625 7.71875 1.703125 
L 7.71875 11.625 
Q 12.109375 9.234375 16.796875 8.0625 
Q 21.484375 6.890625 26.703125 6.890625 
Q 35.15625 6.890625 40.078125 11.328125 
Q 45.015625 15.765625 45.015625 23.390625 
Q 45.015625 31 40.078125 35.4375 
Q 35.15625 39.890625 26.703125 39.890625 
Q 22.75 39.890625 18.8125 39.015625 
Q 14.890625 38.140625 10.796875 36.28125 
z
" id="DejaVuSans-53"/>
      </defs>
      <g transform="translate(27.240625 263.085972)scale(0.1 -0.1)">
       <use xlink:href="#DejaVuSans-53"/>
       <use x="63.623047" xlink:href="#DejaVuSans-48"/>
      </g>
     </g>
    </g>
    <g id="ytick_3">
     <g id="line2d_31">
      <path clip-path="url(#p92357de0d7)" d="M 43.465625 215.033506 
L 446.095625 215.033506 
" style="fill:none;stroke:#b2b2b2;stroke-dasharray:0.8,1.32;stroke-dashoffset:0;stroke-width:0.8;"/>
     </g>
     <g id="line2d_32">
      <g>
       <use style="stroke:#000000;stroke-width:0.8;" x="43.465625" xlink:href="#m80b318a6cb" y="215.033506"/>
      </g>
     </g>
     <g id="line2d_33">
      <g>
       <use style="stroke:#000000;stroke-width:0.8;" x="446.095625" xlink:href="#m31fc40ef91" y="215.033506"/>
      </g>
     </g>
     <g id="text_12">
      <!-- 100 -->
      <g transform="translate(20.878125 218.832725)scale(0.1 -0.1)">
       <use xlink:href="#DejaVuSans-49"/>
       <use x="63.623047" xlink:href="#DejaVuSans-48"/>
       <use x="127.246094" xlink:href="#DejaVuSans-48"/>
      </g>
     </g>
    </g>
    <g id="ytick_4">
     <g id="line2d_34">
      <path clip-path="url(#p92357de0d7)" d="M 43.465625 170.78026 
L 446.095625 170.78026 
" style="fill:none;stroke:#b2b2b2;stroke-dasharray:0.8,1.32;stroke-dashoffset:0;stroke-width:0.8;"/>
     </g>
     <g id="line2d_35">
      <g>
       <use style="stroke:#000000;stroke-width:0.8;" x="43.465625" xlink:href="#m80b318a6cb" y="170.78026"/>
      </g>
     </g>
     <g id="line2d_36">
      <g>
       <use style="stroke:#000000;stroke-width:0.8;" x="446.095625" xlink:href="#m31fc40ef91" y="170.78026"/>
      </g>
     </g>
     <g id="text_13">
      <!-- 150 -->
      <g transform="translate(20.878125 174.579478)scale(0.1 -0.1)">
       <use xlink:href="#DejaVuSans-49"/>
       <use x="63.623047" xlink:href="#DejaVuSans-53"/>
       <use x="127.246094" xlink:href="#DejaVuSans-48"/>
      </g>
     </g>
    </g>
    <g id="ytick_5">
     <g id="line2d_37">
      <path clip-path="url(#p92357de0d7)" d="M 43.465625 126.527013 
L 446.095625 126.527013 
" style="fill:none;stroke:#b2b2b2;stroke-dasharray:0.8,1.32;stroke-dashoffset:0;stroke-width:0.8;"/>
     </g>
     <g id="line2d_38">
      <g>
       <use style="stroke:#000000;stroke-width:0.8;" x="43.465625" xlink:href="#m80b318a6cb" y="126.527013"/>
      </g>
     </g>
     <g id="line2d_39">
      <g>
       <use style="stroke:#000000;stroke-width:0.8;" x="446.095625" xlink:href="#m31fc40ef91" y="126.527013"/>
      </g>
     </g>
     <g id="text_14">
      <!-- 200 -->
      <g transform="translate(20.878125 130.326231)scale(0.1 -0.1)">
       <use xlink:href="#DejaVuSans-50"/>
       <use x="63.623047" xlink:href="#DejaVuSans-48"/>
       <use x="127.246094" xlink:href="#DejaVuSans-48"/>
      </g>
     </g>
    </g>
    <g id="ytick_6">
     <g id="line2d_40">
      <path clip-path="url(#p92357de0d7)" d="M 43.465625 82.273766 
L 446.095625 82.273766 
" style="fill:none;stroke:#b2b2b2;stroke-dasharray:0.8,1.32;stroke-dashoffset:0;stroke-width:0.8;"/>
     </g>
     <g id="line2d_41">
      <g>
       <use style="stroke:#000000;stroke-width:0.8;" x="43.465625" xlink:href="#m80b318a6cb" y="82.273766"/>
      </g>
     </g>
     <g id="line2d_42">
      <g>
       <use style="stroke:#000000;stroke-width:0.8;" x="446.095625" xlink:href="#m31fc40ef91" y="82.273766"/>
      </g>
     </g>
     <g id="text_15">
      <!-- 250 -->
      <g transform="translate(20.878125 86.072985)scale(0.1 -0.1)">
       <use xlink:href="#DejaVuSans-50"/>
       <use x="63.623047" xlink:href="#DejaVuSans-53"/>
       <use x="127.246094" xlink:href="#DejaVuSans-48"/>
      </g>
     </g>
    </g>
    <g id="ytick_7">
     <g id="line2d_43">
      <path clip-path="url(#p92357de0d7)" d="M 43.465625 38.020519 
L 446.095625 38.020519 
" style="fill:none;stroke:#b2b2b2;stroke-dasharray:0.8,1.32;stroke-dashoffset:0;stroke-width:0.8;"/>
     </g>
     <g id="line2d_44">
      <g>
       <use style="stroke:#000000;stroke-width:0.8;" x="43.465625" xlink:href="#m80b318a6cb" y="38.020519"/>
      </g>
     </g>
     <g id="line2d_45">
      <g>
       <use style="stroke:#000000;stroke-width:0.8;" x="446.095625" xlink:href="#m31fc40ef91" y="38.020519"/>
      </g>
     </g>
     <g id="text_16">
      <!-- 300 -->
      <defs>
       <path d="M 40.578125 39.3125 
Q 47.65625 37.796875 51.625 33 
Q 55.609375 28.21875 55.609375 21.1875 
Q 55.609375 10.40625 48.1875 4.484375 
Q 40.765625 -1.421875 27.09375 -1.421875 
Q 22.515625 -1.421875 17.65625 -0.515625 
Q 12.796875 0.390625 7.625 2.203125 
L 7.625 11.71875 
Q 11.71875 9.328125 16.59375 8.109375 
Q 21.484375 6.890625 26.8125 6.890625 
Q 36.078125 6.890625 40.9375 10.546875 
Q 45.796875 14.203125 45.796875 21.1875 
Q 45.796875 27.640625 41.28125 31.265625 
Q 36.765625 34.90625 28.71875 34.90625 
L 20.21875 34.90625 
L 20.21875 43.015625 
L 29.109375 43.015625 
Q 36.375 43.015625 40.234375 45.921875 
Q 44.09375 48.828125 44.09375 54.296875 
Q 44.09375 59.90625 40.109375 62.90625 
Q 36.140625 65.921875 28.71875 65.921875 
Q 24.65625 65.921875 20.015625 65.03125 
Q 15.375 64.15625 9.8125 62.3125 
L 9.8125 71.09375 
Q 15.4375 72.65625 20.34375 73.4375 
Q 25.25 74.21875 29.59375 74.21875 
Q 40.828125 74.21875 47.359375 69.109375 
Q 53.90625 64.015625 53.90625 55.328125 
Q 53.90625 49.265625 50.4375 45.09375 
Q 46.96875 40.921875 40.578125 39.3125 
z
" id="DejaVuSans-51"/>
      </defs>
      <g transform="translate(20.878125 41.819738)scale(0.1 -0.1)">
       <use xlink:href="#DejaVuSans-51"/>
       <use x="63.623047" xlink:href="#DejaVuSans-48"/>
       <use x="127.246094" xlink:href="#DejaVuSans-48"/>
      </g>
     </g>
    </g>
    <g id="text_17">
     <!-- LAT50 -->
     <defs>
      <path d="M 9.8125 72.90625 
L 19.671875 72.90625 
L 19.671875 8.296875 
L 55.171875 8.296875 
L 55.171875 0 
L 9.8125 0 
z
" id="DejaVuSans-76"/>
      <path d="M 34.1875 63.1875 
L 20.796875 26.90625 
L 47.609375 26.90625 
z
M 28.609375 72.90625 
L 39.796875 72.90625 
L 67.578125 0 
L 57.328125 0 
L 50.6875 18.703125 
L 17.828125 18.703125 
L 11.1875 0 
L 0.78125 0 
z
" id="DejaVuSans-65"/>
      <path d="M -0.296875 72.90625 
L 61.375 72.90625 
L 61.375 64.59375 
L 35.5 64.59375 
L 35.5 0 
L 25.59375 0 
L 25.59375 64.59375 
L -0.296875 64.59375 
z
" id="DejaVuSans-84"/>
     </defs>
     <g transform="translate(14.798437 170.717656)rotate(-90)scale(0.1 -0.1)">
      <use xlink:href="#DejaVuSans-76"/>
      <use x="57.962891" xlink:href="#DejaVuSans-65"/>
      <use x="118.621094" xlink:href="#DejaVuSans-84"/>
      <use x="179.705078" xlink:href="#DejaVuSans-53"/>
      <use x="243.328125" xlink:href="#DejaVuSans-48"/>
     </g>
    </g>
   </g>
   <g id="LineCollection_1">
    <path clip-path="url(#p92357de0d7)" d="M 61.766989 271.769314 
L 61.766989 271.143478 
" style="fill:none;stroke:#4b7496;stroke-width:1.5;"/>
    <path clip-path="url(#p92357de0d7)" d="M 78.080182 269.907532 
L 78.080182 269.907532 
" style="fill:none;stroke:#4b7496;stroke-width:1.5;"/>
    <path clip-path="url(#p92357de0d7)" d="M 110.706568 269.053018 
L 110.706568 268.844406 
" style="fill:none;stroke:#4b7496;stroke-width:1.5;"/>
    <path clip-path="url(#p92357de0d7)" d="M 175.959341 247.297773 
L 175.959341 246.936447 
" style="fill:none;stroke:#4b7496;stroke-width:1.5;"/>
    <path clip-path="url(#p92357de0d7)" d="M 306.464887 165.027337 
L 306.464887 165.027337 
" style="fill:none;stroke:#4b7496;stroke-width:1.5;"/>
    <path clip-path="url(#p92357de0d7)" d="M 427.794261 30.947303 
L 427.794261 30.195142 
" style="fill:none;stroke:#4b7496;stroke-width:1.5;"/>
   </g>
   <g id="LineCollection_2">
    <path clip-path="url(#p92357de0d7)" d="M 61.766989 277.903667 
L 61.766989 277.695056 
" style="fill:none;stroke:#90b9db;stroke-width:1.5;"/>
    <path clip-path="url(#p92357de0d7)" d="M 78.080182 276.988052 
L 78.080182 276.988052 
" style="fill:none;stroke:#90b9db;stroke-width:1.5;"/>
    <path clip-path="url(#p92357de0d7)" d="M 110.706568 275.217922 
L 110.706568 275.217922 
" style="fill:none;stroke:#90b9db;stroke-width:1.5;"/>
    <path clip-path="url(#p92357de0d7)" d="M 175.959341 250.939737 
L 175.959341 250.522514 
" style="fill:none;stroke:#90b9db;stroke-width:1.5;"/>
    <path clip-path="url(#p92357de0d7)" d="M 306.464887 172.329123 
L 306.464887 172.329123 
" style="fill:none;stroke:#90b9db;stroke-width:1.5;"/>
    <path clip-path="url(#p92357de0d7)" d="M 427.794261 144.363168 
L 427.794261 143.945944 
" style="fill:none;stroke:#90b9db;stroke-width:1.5;"/>
   </g>
   <g id="LineCollection_3">
    <path clip-path="url(#p92357de0d7)" d="M 61.766989 232.715751 
L 61.766989 232.163816 
" style="fill:none;stroke:#e68d3c;stroke-width:1.5;"/>
    <path clip-path="url(#p92357de0d7)" d="M 78.080182 232.6916 
L 78.080182 232.482988 
" style="fill:none;stroke:#e68d3c;stroke-width:1.5;"/>
    <path clip-path="url(#p92357de0d7)" d="M 110.706568 233.429154 
L 110.706568 233.220542 
" style="fill:none;stroke:#e68d3c;stroke-width:1.5;"/>
    <path clip-path="url(#p92357de0d7)" d="M 175.959341 208.13365 
L 175.959341 207.772324 
" style="fill:none;stroke:#e68d3c;stroke-width:1.5;"/>
    <path clip-path="url(#p92357de0d7)" d="M 306.464887 123.930672 
L 306.464887 122.485367 
" style="fill:none;stroke:#e68d3c;stroke-width:1.5;"/>
    <path clip-path="url(#p92357de0d7)" d="M 427.794261 60.810941 
L 427.794261 60.810941 
" style="fill:none;stroke:#e68d3c;stroke-width:1.5;"/>
   </g>
   <g id="LineCollection_4">
    <path clip-path="url(#p92357de0d7)" d="M 61.766989 189.052547 
L 61.766989 188.500612 
" style="fill:none;stroke:#58ac52;stroke-width:1.5;"/>
    <path clip-path="url(#p92357de0d7)" d="M 78.080182 184.971849 
L 78.080182 184.763237 
" style="fill:none;stroke:#58ac52;stroke-width:1.5;"/>
    <path clip-path="url(#p92357de0d7)" d="M 110.706568 186.471108 
L 110.706568 185.919173 
" style="fill:none;stroke:#58ac52;stroke-width:1.5;"/>
    <path clip-path="url(#p92357de0d7)" d="M 175.959341 170.51839 
L 175.959341 170.157064 
" style="fill:none;stroke:#58ac52;stroke-width:1.5;"/>
    <path clip-path="url(#p92357de0d7)" d="M 306.464887 84.000691 
L 306.464887 83.792079 
" style="fill:none;stroke:#58ac52;stroke-width:1.5;"/>
    <path clip-path="url(#p92357de0d7)" d="M 427.794261 20.842811 
L 427.794261 20.090651 
" style="fill:none;stroke:#58ac52;stroke-width:1.5;"/>
   </g>
   <g id="line2d_46">
    <path clip-path="url(#p92357de0d7)" d="M 61.766989 271.456396 
L 78.080182 269.907532 
L 110.706568 268.948712 
L 175.959341 247.11711 
L 306.464887 165.027337 
L 427.794261 30.571222 
" style="fill:none;stroke:#4b7496;stroke-linecap:square;stroke-width:1.5;"/>
    <defs>
     <path d="M 0 3 
C 0.795609 3 1.55874 2.683901 2.12132 2.12132 
C 2.683901 1.55874 3 0.795609 3 0 
C 3 -0.795609 2.683901 -1.55874 2.12132 -2.12132 
C 1.55874 -2.683901 0.795609 -3 0 -3 
C -0.795609 -3 -1.55874 -2.683901 -2.12132 -2.12132 
C -2.683901 -1.55874 -3 -0.795609 -3 0 
C -3 0.795609 -2.683901 1.55874 -2.12132 2.12132 
C -1.55874 2.683901 -0.795609 3 0 3 
z
" id="m114e9c4fb8" style="stroke:#4b7496;"/>
    </defs>
    <g clip-path="url(#p92357de0d7)">
     <use style="fill-opacity:0;stroke:#4b7496;" x="61.766989" xlink:href="#m114e9c4fb8" y="271.456396"/>
     <use style="fill-opacity:0;stroke:#4b7496;" x="78.080182" xlink:href="#m114e9c4fb8" y="269.907532"/>
     <use style="fill-opacity:0;stroke:#4b7496;" x="110.706568" xlink:href="#m114e9c4fb8" y="268.948712"/>
     <use style="fill-opacity:0;stroke:#4b7496;" x="175.959341" xlink:href="#m114e9c4fb8" y="247.11711"/>
     <use style="fill-opacity:0;stroke:#4b7496;" x="306.464887" xlink:href="#m114e9c4fb8" y="165.027337"/>
     <use style="fill-opacity:0;stroke:#4b7496;" x="427.794261" xlink:href="#m114e9c4fb8" y="30.571222"/>
    </g>
   </g>
   <g id="line2d_47">
    <defs>
     <path d="M 3 0 
L -3 -0 
" id="m5b612e3f3f" style="stroke:#4b7496;"/>
    </defs>
    <g clip-path="url(#p92357de0d7)">
     <use style="fill:#4b7496;stroke:#4b7496;" x="61.766989" xlink:href="#m5b612e3f3f" y="271.769314"/>
     <use style="fill:#4b7496;stroke:#4b7496;" x="78.080182" xlink:href="#m5b612e3f3f" y="269.907532"/>
     <use style="fill:#4b7496;stroke:#4b7496;" x="110.706568" xlink:href="#m5b612e3f3f" y="269.053018"/>
     <use style="fill:#4b7496;stroke:#4b7496;" x="175.959341" xlink:href="#m5b612e3f3f" y="247.297773"/>
     <use style="fill:#4b7496;stroke:#4b7496;" x="306.464887" xlink:href="#m5b612e3f3f" y="165.027337"/>
     <use style="fill:#4b7496;stroke:#4b7496;" x="427.794261" xlink:href="#m5b612e3f3f" y="30.947303"/>
    </g>
   </g>
   <g id="line2d_48">
    <g clip-path="url(#p92357de0d7)">
     <use style="fill:#4b7496;stroke:#4b7496;" x="61.766989" xlink:href="#m5b612e3f3f" y="271.143478"/>
     <use style="fill:#4b7496;stroke:#4b7496;" x="78.080182" xlink:href="#m5b612e3f3f" y="269.907532"/>
     <use style="fill:#4b7496;stroke:#4b7496;" x="110.706568" xlink:href="#m5b612e3f3f" y="268.844406"/>
     <use style="fill:#4b7496;stroke:#4b7496;" x="175.959341" xlink:href="#m5b612e3f3f" y="246.936447"/>
     <use style="fill:#4b7496;stroke:#4b7496;" x="306.464887" xlink:href="#m5b612e3f3f" y="165.027337"/>
     <use style="fill:#4b7496;stroke:#4b7496;" x="427.794261" xlink:href="#m5b612e3f3f" y="30.195142"/>
    </g>
   </g>
   <g id="line2d_49">
    <path clip-path="url(#p92357de0d7)" d="M 61.766989 277.799361 
L 78.080182 276.988052 
L 110.706568 275.217922 
L 175.959341 250.731125 
L 306.464887 172.329123 
L 427.794261 144.154556 
" style="fill:none;stroke:#90b9db;stroke-dasharray:5.55,2.4;stroke-dashoffset:0;stroke-width:1.5;"/>
    <defs>
     <path d="M 0 -3 
L -3 3 
L 3 3 
z
" id="m8de8dabe67" style="stroke:#90b9db;stroke-linejoin:miter;"/>
    </defs>
    <g clip-path="url(#p92357de0d7)">
     <use style="fill-opacity:0;stroke:#90b9db;stroke-linejoin:miter;" x="61.766989" xlink:href="#m8de8dabe67" y="277.799361"/>
     <use style="fill-opacity:0;stroke:#90b9db;stroke-linejoin:miter;" x="78.080182" xlink:href="#m8de8dabe67" y="276.988052"/>
     <use style="fill-opacity:0;stroke:#90b9db;stroke-linejoin:miter;" x="110.706568" xlink:href="#m8de8dabe67" y="275.217922"/>
     <use style="fill-opacity:0;stroke:#90b9db;stroke-linejoin:miter;" x="175.959341" xlink:href="#m8de8dabe67" y="250.731125"/>
     <use style="fill-opacity:0;stroke:#90b9db;stroke-linejoin:miter;" x="306.464887" xlink:href="#m8de8dabe67" y="172.329123"/>
     <use style="fill-opacity:0;stroke:#90b9db;stroke-linejoin:miter;" x="427.794261" xlink:href="#m8de8dabe67" y="144.154556"/>
    </g>
   </g>
   <g id="line2d_50">
    <defs>
     <path d="M 3 0 
L -3 -0 
" id="m89c481b8f2" style="stroke:#90b9db;"/>
    </defs>
    <g clip-path="url(#p92357de0d7)">
     <use style="fill:#90b9db;stroke:#90b9db;" x="61.766989" xlink:href="#m89c481b8f2" y="277.903667"/>
     <use style="fill:#90b9db;stroke:#90b9db;" x="78.080182" xlink:href="#m89c481b8f2" y="276.988052"/>
     <use style="fill:#90b9db;stroke:#90b9db;" x="110.706568" xlink:href="#m89c481b8f2" y="275.217922"/>
     <use style="fill:#90b9db;stroke:#90b9db;" x="175.959341" xlink:href="#m89c481b8f2" y="250.939737"/>
     <use style="fill:#90b9db;stroke:#90b9db;" x="306.464887" xlink:href="#m89c481b8f2" y="172.329123"/>
     <use style="fill:#90b9db;stroke:#90b9db;" x="427.794261" xlink:href="#m89c481b8f2" y="144.363168"/>
    </g>
   </g>
   <g id="line2d_51">
    <g clip-path="url(#p92357de0d7)">
     <use style="fill:#90b9db;stroke:#90b9db;" x="61.766989" xlink:href="#m89c481b8f2" y="277.695056"/>
     <use style="fill:#90b9db;stroke:#90b9db;" x="78.080182" xlink:href="#m89c481b8f2" y="276.988052"/>
     <use style="fill:#90b9db;stroke:#90b9db;" x="110.706568" xlink:href="#m89c481b8f2" y="275.217922"/>
     <use style="fill:#90b9db;stroke:#90b9db;" x="175.959341" xlink:href="#m89c481b8f2" y="250.522514"/>
     <use style="fill:#90b9db;stroke:#90b9db;" x="306.464887" xlink:href="#m89c481b8f2" y="172.329123"/>
     <use style="fill:#90b9db;stroke:#90b9db;" x="427.794261" xlink:href="#m89c481b8f2" y="143.945944"/>
    </g>
   </g>
   <g id="line2d_52">
    <path clip-path="url(#p92357de0d7)" d="M 61.766989 232.439783 
L 78.080182 232.587294 
L 110.706568 233.324848 
L 175.959341 207.952987 
L 306.464887 123.208019 
L 427.794261 60.810941 
" style="fill:none;stroke:#e68d3c;stroke-dasharray:9.6,2.4,1.5,2.4;stroke-dashoffset:0;stroke-width:1.5;"/>
    <defs>
     <path d="M -3 3 
L 3 3 
L 3 -3 
L -3 -3 
z
" id="m405c431bf0" style="stroke:#e68d3c;stroke-linejoin:miter;"/>
    </defs>
    <g clip-path="url(#p92357de0d7)">
     <use style="fill-opacity:0;stroke:#e68d3c;stroke-linejoin:miter;" x="61.766989" xlink:href="#m405c431bf0" y="232.439783"/>
     <use style="fill-opacity:0;stroke:#e68d3c;stroke-linejoin:miter;" x="78.080182" xlink:href="#m405c431bf0" y="232.587294"/>
     <use style="fill-opacity:0;stroke:#e68d3c;stroke-linejoin:miter;" x="110.706568" xlink:href="#m405c431bf0" y="233.324848"/>
     <use style="fill-opacity:0;stroke:#e68d3c;stroke-linejoin:miter;" x="175.959341" xlink:href="#m405c431bf0" y="207.952987"/>
     <use style="fill-opacity:0;stroke:#e68d3c;stroke-linejoin:miter;" x="306.464887" xlink:href="#m405c431bf0" y="123.208019"/>
     <use style="fill-opacity:0;stroke:#e68d3c;stroke-linejoin:miter;" x="427.794261" xlink:href="#m405c431bf0" y="60.810941"/>
    </g>
   </g>
   <g id="line2d_53">
    <defs>
     <path d="M 3 0 
L -3 -0 
" id="m35c636daf9" style="stroke:#e68d3c;"/>
    </defs>
    <g clip-path="url(#p92357de0d7)">
     <use style="fill:#e68d3c;stroke:#e68d3c;" x="61.766989" xlink:href="#m35c636daf9" y="232.715751"/>
     <use style="fill:#e68d3c;stroke:#e68d3c;" x="78.080182" xlink:href="#m35c636daf9" y="232.6916"/>
     <use style="fill:#e68d3c;stroke:#e68d3c;" x="110.706568" xlink:href="#m35c636daf9" y="233.429154"/>
     <use style="fill:#e68d3c;stroke:#e68d3c;" x="175.959341" xlink:href="#m35c636daf9" y="208.13365"/>
     <use style="fill:#e68d3c;stroke:#e68d3c;" x="306.464887" xlink:href="#m35c636daf9" y="123.930672"/>
     <use style="fill:#e68d3c;stroke:#e68d3c;" x="427.794261" xlink:href="#m35c636daf9" y="60.810941"/>
    </g>
   </g>
   <g id="line2d_54">
    <g clip-path="url(#p92357de0d7)">
     <use style="fill:#e68d3c;stroke:#e68d3c;" x="61.766989" xlink:href="#m35c636daf9" y="232.163816"/>
     <use style="fill:#e68d3c;stroke:#e68d3c;" x="78.080182" xlink:href="#m35c636daf9" y="232.482988"/>
     <use style="fill:#e68d3c;stroke:#e68d3c;" x="110.706568" xlink:href="#m35c636daf9" y="233.220542"/>
     <use style="fill:#e68d3c;stroke:#e68d3c;" x="175.959341" xlink:href="#m35c636daf9" y="207.772324"/>
     <use style="fill:#e68d3c;stroke:#e68d3c;" x="306.464887" xlink:href="#m35c636daf9" y="122.485367"/>
     <use style="fill:#e68d3c;stroke:#e68d3c;" x="427.794261" xlink:href="#m35c636daf9" y="60.810941"/>
    </g>
   </g>
   <g id="line2d_55">
    <path clip-path="url(#p92357de0d7)" d="M 61.766989 188.77658 
L 78.080182 184.867543 
L 110.706568 186.19514 
L 175.959341 170.337727 
L 306.464887 83.896385 
L 427.794261 20.466731 
" style="fill:none;stroke:#58ac52;stroke-dasharray:1.5,2.475;stroke-dashoffset:0;stroke-width:1.5;"/>
    <defs>
     <path d="M -0 4.242641 
L 4.242641 0 
L 0 -4.242641 
L -4.242641 -0 
z
" id="mba06b5569d" style="stroke:#58ac52;stroke-linejoin:miter;"/>
    </defs>
    <g clip-path="url(#p92357de0d7)">
     <use style="fill-opacity:0;stroke:#58ac52;stroke-linejoin:miter;" x="61.766989" xlink:href="#mba06b5569d" y="188.77658"/>
     <use style="fill-opacity:0;stroke:#58ac52;stroke-linejoin:miter;" x="78.080182" xlink:href="#mba06b5569d" y="184.867543"/>
     <use style="fill-opacity:0;stroke:#58ac52;stroke-linejoin:miter;" x="110.706568" xlink:href="#mba06b5569d" y="186.19514"/>
     <use style="fill-opacity:0;stroke:#58ac52;stroke-linejoin:miter;" x="175.959341" xlink:href="#mba06b5569d" y="170.337727"/>
     <use style="fill-opacity:0;stroke:#58ac52;stroke-linejoin:miter;" x="306.464887" xlink:href="#mba06b5569d" y="83.896385"/>
     <use style="fill-opacity:0;stroke:#58ac52;stroke-linejoin:miter;" x="427.794261" xlink:href="#mba06b5569d" y="20.466731"/>
    </g>
   </g>
   <g id="line2d_56">
    <defs>
     <path d="M 3 0 
L -3 -0 
" id="m9d70d88f9c" style="stroke:#58ac52;"/>
    </defs>
    <g clip-path="url(#p92357de0d7)">
     <use style="fill:#58ac52;stroke:#58ac52;" x="61.766989" xlink:href="#m9d70d88f9c" y="189.052547"/>
     <use style="fill:#58ac52;stroke:#58ac52;" x="78.080182" xlink:href="#m9d70d88f9c" y="184.971849"/>
     <use style="fill:#58ac52;stroke:#58ac52;" x="110.706568" xlink:href="#m9d70d88f9c" y="186.471108"/>
     <use style="fill:#58ac52;stroke:#58ac52;" x="175.959341" xlink:href="#m9d70d88f9c" y="170.51839"/>
     <use style="fill:#58ac52;stroke:#58ac52;" x="306.464887" xlink:href="#m9d70d88f9c" y="84.000691"/>
     <use style="fill:#58ac52;stroke:#58ac52;" x="427.794261" xlink:href="#m9d70d88f9c" y="20.842811"/>
    </g>
   </g>
   <g id="line2d_57">
    <g clip-path="url(#p92357de0d7)">
     <use style="fill:#58ac52;stroke:#58ac52;" x="61.766989" xlink:href="#m9d70d88f9c" y="188.500612"/>
     <use style="fill:#58ac52;stroke:#58ac52;" x="78.080182" xlink:href="#m9d70d88f9c" y="184.763237"/>
     <use style="fill:#58ac52;stroke:#58ac52;" x="110.706568" xlink:href="#m9d70d88f9c" y="185.919173"/>
     <use style="fill:#58ac52;stroke:#58ac52;" x="175.959341" xlink:href="#m9d70d88f9c" y="170.157064"/>
     <use style="fill:#58ac52;stroke:#58ac52;" x="306.464887" xlink:href="#m9d70d88f9c" y="83.792079"/>
     <use style="fill:#58ac52;stroke:#58ac52;" x="427.794261" xlink:href="#m9d70d88f9c" y="20.090651"/>
    </g>
   </g>
   <g id="line2d_58"/>
   <g id="line2d_59"/>
   <g id="line2d_60"/>
   <g id="line2d_61"/>
   <g id="patch_3">
    <path d="M 43.465625 303.54 
L 43.465625 7.2 
" style="fill:none;stroke:#000000;stroke-linecap:square;stroke-linejoin:miter;stroke-width:0.8;"/>
   </g>
   <g id="patch_4">
    <path d="M 446.095625 303.54 
L 446.095625 7.2 
" style="fill:none;stroke:#000000;stroke-linecap:square;stroke-linejoin:miter;stroke-width:0.8;"/>
   </g>
   <g id="patch_5">
    <path d="M 43.465625 303.54 
L 446.095625 303.54 
" style="fill:none;stroke:#000000;stroke-linecap:square;stroke-linejoin:miter;stroke-width:0.8;"/>
   </g>
   <g id="patch_6">
    <path d="M 43.465625 7.2 
L 446.095625 7.2 
" style="fill:none;stroke:#000000;stroke-linecap:square;stroke-linejoin:miter;stroke-width:0.8;"/>
   </g>
   <g id="legend_1">
    <g id="patch_7">
     <path d="M 48.465625 73.9125 
L 156.525 73.9125 
L 156.525 12.2 
L 48.465625 12.2 
z
" style="fill:#ffffff;stroke:#000000;stroke-linejoin:miter;"/>
    </g>
    <g id="line2d_62">
     <path d="M 52.465625 20.298438 
L 72.465625 20.298438 
" style="fill:none;stroke:#4b7496;stroke-linecap:square;stroke-width:1.5;"/>
    </g>
    <g id="line2d_63">
     <g>
      <use style="fill-opacity:0;stroke:#4b7496;" x="62.465625" xlink:href="#m114e9c4fb8" y="20.298438"/>
     </g>
    </g>
    <g id="text_18">
     <!-- FastClick -->
     <defs>
      <path d="M 9.8125 72.90625 
L 51.703125 72.90625 
L 51.703125 64.59375 
L 19.671875 64.59375 
L 19.671875 43.109375 
L 48.578125 43.109375 
L 48.578125 34.8125 
L 19.671875 34.8125 
L 19.671875 0 
L 9.8125 0 
z
" id="DejaVuSans-70"/>
      <path d="M 64.40625 67.28125 
L 64.40625 56.890625 
Q 59.421875 61.53125 53.78125 63.8125 
Q 48.140625 66.109375 41.796875 66.109375 
Q 29.296875 66.109375 22.65625 58.46875 
Q 16.015625 50.828125 16.015625 36.375 
Q 16.015625 21.96875 22.65625 14.328125 
Q 29.296875 6.6875 41.796875 6.6875 
Q 48.140625 6.6875 53.78125 8.984375 
Q 59.421875 11.28125 64.40625 15.921875 
L 64.40625 5.609375 
Q 59.234375 2.09375 53.4375 0.328125 
Q 47.65625 -1.421875 41.21875 -1.421875 
Q 24.65625 -1.421875 15.125 8.703125 
Q 5.609375 18.84375 5.609375 36.375 
Q 5.609375 53.953125 15.125 64.078125 
Q 24.65625 74.21875 41.21875 74.21875 
Q 47.75 74.21875 53.53125 72.484375 
Q 59.328125 70.75 64.40625 67.28125 
z
" id="DejaVuSans-67"/>
      <path d="M 9.421875 54.6875 
L 18.40625 54.6875 
L 18.40625 0 
L 9.421875 0 
z
M 9.421875 75.984375 
L 18.40625 75.984375 
L 18.40625 64.59375 
L 9.421875 64.59375 
z
" id="DejaVuSans-105"/>
     </defs>
     <g transform="translate(80.465625 23.798438)scale(0.1 -0.1)">
      <use xlink:href="#DejaVuSans-70"/>
      <use x="48.394531" xlink:href="#DejaVuSans-97"/>
      <use x="109.673828" xlink:href="#DejaVuSans-115"/>
      <use x="161.773438" xlink:href="#DejaVuSans-116"/>
      <use x="200.982422" xlink:href="#DejaVuSans-67"/>
      <use x="270.806641" xlink:href="#DejaVuSans-108"/>
      <use x="298.589844" xlink:href="#DejaVuSans-105"/>
      <use x="326.373047" xlink:href="#DejaVuSans-99"/>
      <use x="381.353516" xlink:href="#DejaVuSans-107"/>
     </g>
    </g>
    <g id="line2d_64">
     <path d="M 52.465625 34.976563 
L 72.465625 34.976563 
" style="fill:none;stroke:#90b9db;stroke-dasharray:5.55,2.4;stroke-dashoffset:0;stroke-width:1.5;"/>
    </g>
    <g id="line2d_65">
     <g>
      <use style="fill-opacity:0;stroke:#90b9db;stroke-linejoin:miter;" x="62.465625" xlink:href="#m8de8dabe67" y="34.976563"/>
     </g>
    </g>
    <g id="text_19">
     <!-- FastClick Light -->
     <g transform="translate(80.465625 38.476563)scale(0.1 -0.1)">
      <use xlink:href="#DejaVuSans-70"/>
      <use x="48.394531" xlink:href="#DejaVuSans-97"/>
      <use x="109.673828" xlink:href="#DejaVuSans-115"/>
      <use x="161.773438" xlink:href="#DejaVuSans-116"/>
      <use x="200.982422" xlink:href="#DejaVuSans-67"/>
      <use x="270.806641" xlink:href="#DejaVuSans-108"/>
      <use x="298.589844" xlink:href="#DejaVuSans-105"/>
      <use x="326.373047" xlink:href="#DejaVuSans-99"/>
      <use x="381.353516" xlink:href="#DejaVuSans-107"/>
      <use x="439.263672" xlink:href="#DejaVuSans-32"/>
      <use x="471.050781" xlink:href="#DejaVuSans-76"/>
      <use x="526.763672" xlink:href="#DejaVuSans-105"/>
      <use x="554.546875" xlink:href="#DejaVuSans-103"/>
      <use x="618.023438" xlink:href="#DejaVuSans-104"/>
      <use x="681.402344" xlink:href="#DejaVuSans-116"/>
     </g>
    </g>
    <g id="line2d_66">
     <path d="M 52.465625 49.654688 
L 72.465625 49.654688 
" style="fill:none;stroke:#e68d3c;stroke-dasharray:9.6,2.4,1.5,2.4;stroke-dashoffset:0;stroke-width:1.5;"/>
    </g>
    <g id="line2d_67">
     <g>
      <use style="fill-opacity:0;stroke:#e68d3c;stroke-linejoin:miter;" x="62.465625" xlink:href="#m405c431bf0" y="49.654688"/>
     </g>
    </g>
    <g id="text_20">
     <!-- BESS -->
     <defs>
      <path d="M 9.8125 72.90625 
L 55.90625 72.90625 
L 55.90625 64.59375 
L 19.671875 64.59375 
L 19.671875 43.015625 
L 54.390625 43.015625 
L 54.390625 34.71875 
L 19.671875 34.71875 
L 19.671875 8.296875 
L 56.78125 8.296875 
L 56.78125 0 
L 9.8125 0 
z
" id="DejaVuSans-69"/>
      <path d="M 53.515625 70.515625 
L 53.515625 60.890625 
Q 47.90625 63.578125 42.921875 64.890625 
Q 37.9375 66.21875 33.296875 66.21875 
Q 25.25 66.21875 20.875 63.09375 
Q 16.5 59.96875 16.5 54.203125 
Q 16.5 49.359375 19.40625 46.890625 
Q 22.3125 44.4375 30.421875 42.921875 
L 36.375 41.703125 
Q 47.40625 39.59375 52.65625 34.296875 
Q 57.90625 29 57.90625 20.125 
Q 57.90625 9.515625 50.796875 4.046875 
Q 43.703125 -1.421875 29.984375 -1.421875 
Q 24.8125 -1.421875 18.96875 -0.25 
Q 13.140625 0.921875 6.890625 3.21875 
L 6.890625 13.375 
Q 12.890625 10.015625 18.65625 8.296875 
Q 24.421875 6.59375 29.984375 6.59375 
Q 38.421875 6.59375 43.015625 9.90625 
Q 47.609375 13.234375 47.609375 19.390625 
Q 47.609375 24.75 44.3125 27.78125 
Q 41.015625 30.8125 33.5 32.328125 
L 27.484375 33.5 
Q 16.453125 35.6875 11.515625 40.375 
Q 6.59375 45.0625 6.59375 53.421875 
Q 6.59375 63.09375 13.40625 68.65625 
Q 20.21875 74.21875 32.171875 74.21875 
Q 37.3125 74.21875 42.625 73.28125 
Q 47.953125 72.359375 53.515625 70.515625 
z
" id="DejaVuSans-83"/>
     </defs>
     <g transform="translate(80.465625 53.154688)scale(0.1 -0.1)">
      <use xlink:href="#DejaVuSans-66"/>
      <use x="68.603516" xlink:href="#DejaVuSans-69"/>
      <use x="131.787109" xlink:href="#DejaVuSans-83"/>
      <use x="195.263672" xlink:href="#DejaVuSans-83"/>
     </g>
    </g>
    <g id="line2d_68">
     <path d="M 52.465625 64.332813 
L 72.465625 64.332813 
" style="fill:none;stroke:#58ac52;stroke-dasharray:1.5,2.475;stroke-dashoffset:0;stroke-width:1.5;"/>
    </g>
    <g id="line2d_69">
     <g>
      <use style="fill-opacity:0;stroke:#58ac52;stroke-linejoin:miter;" x="62.465625" xlink:href="#mba06b5569d" y="64.332813"/>
     </g>
    </g>
    <g id="text_21">
     <!-- VPP -->
     <defs>
      <path d="M 28.609375 0 
L 0.78125 72.90625 
L 11.078125 72.90625 
L 34.1875 11.53125 
L 57.328125 72.90625 
L 67.578125 72.90625 
L 39.796875 0 
z
" id="DejaVuSans-86"/>
     </defs>
     <g transform="translate(80.465625 67.832813)scale(0.1 -0.1)">
      <use xlink:href="#DejaVuSans-86"/>
      <use x="68.408203" xlink:href="#DejaVuSans-80"/>
      <use x="128.710938" xlink:href="#DejaVuSans-80"/>
     </g>
    </g>
   </g>
  </g>
 </g>
 <defs>
  <clipPath id="p92357de0d7">
   <rect height="296.34" width="402.63" x="43.465625" y="7.2"/>
  </clipPath>
 </defs>
</svg>
