<?xml version="1.0" encoding="utf-8" standalone="no"?>
<!DOCTYPE svg PUBLIC "-//W3C//DTD SVG 1.1//EN"
  "http://www.w3.org/Graphics/SVG/1.1/DTD/svg11.dtd">
<!-- Created with matplotlib (https://matplotlib.org/) -->
<svg height="337.274687pt" version="1.1" viewBox="0 0 453.17125 337.274687" width="453.17125pt" xmlns="http://www.w3.org/2000/svg" xmlns:xlink="http://www.w3.org/1999/xlink">
 <defs>
  <style type="text/css">
*{stroke-linecap:butt;stroke-linejoin:round;}
  </style>
 </defs>
 <g id="figure_1">
  <g id="patch_1">
   <path d="M 0 337.274687 
L 453.17125 337.274687 
L 453.17125 0 
L 0 0 
z
" style="fill:none;"/>
  </g>
  <g id="axes_1">
   <g id="patch_2">
    <path d="M 40.28125 303.218437 
L 445.97125 303.218437 
L 445.97125 17.798437 
L 40.28125 17.798437 
z
" style="fill:none;"/>
   </g>
   <g id="matplotlib.axis_1">
    <g id="xtick_1">
     <g id="line2d_1">
      <path clip-path="url(#p38e34421d8)" d="M 42.284531 303.218437 
L 42.284531 17.798437 
" style="fill:none;stroke:#b2b2b2;stroke-dasharray:0.8,1.32;stroke-dashoffset:0;stroke-width:0.8;"/>
     </g>
     <g id="line2d_2">
      <defs>
       <path d="M 0 0 
L 0 -3.5 
" id="me42726df93" style="stroke:#000000;stroke-width:0.8;"/>
      </defs>
      <g>
       <use style="stroke:#000000;stroke-width:0.8;" x="42.284531" xlink:href="#me42726df93" y="303.218437"/>
      </g>
     </g>
     <g id="line2d_3">
      <defs>
       <path d="M 0 0 
L 0 3.5 
" id="mbc08d84efc" style="stroke:#000000;stroke-width:0.8;"/>
      </defs>
      <g>
       <use style="stroke:#000000;stroke-width:0.8;" x="42.284531" xlink:href="#mbc08d84efc" y="17.798437"/>
      </g>
     </g>
     <g id="text_1">
      <!-- 0 -->
      <defs>
       <path d="M 31.78125 66.40625 
Q 24.171875 66.40625 20.328125 58.90625 
Q 16.5 51.421875 16.5 36.375 
Q 16.5 21.390625 20.328125 13.890625 
Q 24.171875 6.390625 31.78125 6.390625 
Q 39.453125 6.390625 43.28125 13.890625 
Q 47.125 21.390625 47.125 36.375 
Q 47.125 51.421875 43.28125 58.90625 
Q 39.453125 66.40625 31.78125 66.40625 
z
M 31.78125 74.21875 
Q 44.046875 74.21875 50.515625 64.515625 
Q 56.984375 54.828125 56.984375 36.375 
Q 56.984375 17.96875 50.515625 8.265625 
Q 44.046875 -1.421875 31.78125 -1.421875 
Q 19.53125 -1.421875 13.0625 8.265625 
Q 6.59375 17.96875 6.59375 36.375 
Q 6.59375 54.828125 13.0625 64.515625 
Q 19.53125 74.21875 31.78125 74.21875 
z
" id="DejaVuSans-48"/>
      </defs>
      <g transform="translate(39.103281 314.316875)scale(0.1 -0.1)">
       <use xlink:href="#DejaVuSans-48"/>
      </g>
     </g>
    </g>
    <g id="xtick_2">
     <g id="line2d_4">
      <path clip-path="url(#p38e34421d8)" d="M 93.650699 303.218437 
L 93.650699 17.798437 
" style="fill:none;stroke:#b2b2b2;stroke-dasharray:0.8,1.32;stroke-dashoffset:0;stroke-width:0.8;"/>
     </g>
     <g id="line2d_5">
      <g>
       <use style="stroke:#000000;stroke-width:0.8;" x="93.650699" xlink:href="#me42726df93" y="303.218437"/>
      </g>
     </g>
     <g id="line2d_6">
      <g>
       <use style="stroke:#000000;stroke-width:0.8;" x="93.650699" xlink:href="#mbc08d84efc" y="17.798437"/>
      </g>
     </g>
     <g id="text_2">
      <!-- 200 -->
      <defs>
       <path d="M 19.1875 8.296875 
L 53.609375 8.296875 
L 53.609375 0 
L 7.328125 0 
L 7.328125 8.296875 
Q 12.9375 14.109375 22.625 23.890625 
Q 32.328125 33.6875 34.8125 36.53125 
Q 39.546875 41.84375 41.421875 45.53125 
Q 43.3125 49.21875 43.3125 52.78125 
Q 43.3125 58.59375 39.234375 62.25 
Q 35.15625 65.921875 28.609375 65.921875 
Q 23.96875 65.921875 18.8125 64.3125 
Q 13.671875 62.703125 7.8125 59.421875 
L 7.8125 69.390625 
Q 13.765625 71.78125 18.9375 73 
Q 24.125 74.21875 28.421875 74.21875 
Q 39.75 74.21875 46.484375 68.546875 
Q 53.21875 62.890625 53.21875 53.421875 
Q 53.21875 48.921875 51.53125 44.890625 
Q 49.859375 40.875 45.40625 35.40625 
Q 44.1875 33.984375 37.640625 27.21875 
Q 31.109375 20.453125 19.1875 8.296875 
z
" id="DejaVuSans-50"/>
      </defs>
      <g transform="translate(84.106949 314.316875)scale(0.1 -0.1)">
       <use xlink:href="#DejaVuSans-50"/>
       <use x="63.623047" xlink:href="#DejaVuSans-48"/>
       <use x="127.246094" xlink:href="#DejaVuSans-48"/>
      </g>
     </g>
    </g>
    <g id="xtick_3">
     <g id="line2d_7">
      <path clip-path="url(#p38e34421d8)" d="M 145.016868 303.218437 
L 145.016868 17.798437 
" style="fill:none;stroke:#b2b2b2;stroke-dasharray:0.8,1.32;stroke-dashoffset:0;stroke-width:0.8;"/>
     </g>
     <g id="line2d_8">
      <g>
       <use style="stroke:#000000;stroke-width:0.8;" x="145.016868" xlink:href="#me42726df93" y="303.218437"/>
      </g>
     </g>
     <g id="line2d_9">
      <g>
       <use style="stroke:#000000;stroke-width:0.8;" x="145.016868" xlink:href="#mbc08d84efc" y="17.798437"/>
      </g>
     </g>
     <g id="text_3">
      <!-- 400 -->
      <defs>
       <path d="M 37.796875 64.3125 
L 12.890625 25.390625 
L 37.796875 25.390625 
z
M 35.203125 72.90625 
L 47.609375 72.90625 
L 47.609375 25.390625 
L 58.015625 25.390625 
L 58.015625 17.1875 
L 47.609375 17.1875 
L 47.609375 0 
L 37.796875 0 
L 37.796875 17.1875 
L 4.890625 17.1875 
L 4.890625 26.703125 
z
" id="DejaVuSans-52"/>
      </defs>
      <g transform="translate(135.473118 314.316875)scale(0.1 -0.1)">
       <use xlink:href="#DejaVuSans-52"/>
       <use x="63.623047" xlink:href="#DejaVuSans-48"/>
       <use x="127.246094" xlink:href="#DejaVuSans-48"/>
      </g>
     </g>
    </g>
    <g id="xtick_4">
     <g id="line2d_10">
      <path clip-path="url(#p38e34421d8)" d="M 196.383037 303.218437 
L 196.383037 17.798437 
" style="fill:none;stroke:#b2b2b2;stroke-dasharray:0.8,1.32;stroke-dashoffset:0;stroke-width:0.8;"/>
     </g>
     <g id="line2d_11">
      <g>
       <use style="stroke:#000000;stroke-width:0.8;" x="196.383037" xlink:href="#me42726df93" y="303.218437"/>
      </g>
     </g>
     <g id="line2d_12">
      <g>
       <use style="stroke:#000000;stroke-width:0.8;" x="196.383037" xlink:href="#mbc08d84efc" y="17.798437"/>
      </g>
     </g>
     <g id="text_4">
      <!-- 600 -->
      <defs>
       <path d="M 33.015625 40.375 
Q 26.375 40.375 22.484375 35.828125 
Q 18.609375 31.296875 18.609375 23.390625 
Q 18.609375 15.53125 22.484375 10.953125 
Q 26.375 6.390625 33.015625 6.390625 
Q 39.65625 6.390625 43.53125 10.953125 
Q 47.40625 15.53125 47.40625 23.390625 
Q 47.40625 31.296875 43.53125 35.828125 
Q 39.65625 40.375 33.015625 40.375 
z
M 52.59375 71.296875 
L 52.59375 62.3125 
Q 48.875 64.0625 45.09375 64.984375 
Q 41.3125 65.921875 37.59375 65.921875 
Q 27.828125 65.921875 22.671875 59.328125 
Q 17.53125 52.734375 16.796875 39.40625 
Q 19.671875 43.65625 24.015625 45.921875 
Q 28.375 48.1875 33.59375 48.1875 
Q 44.578125 48.1875 50.953125 41.515625 
Q 57.328125 34.859375 57.328125 23.390625 
Q 57.328125 12.15625 50.6875 5.359375 
Q 44.046875 -1.421875 33.015625 -1.421875 
Q 20.359375 -1.421875 13.671875 8.265625 
Q 6.984375 17.96875 6.984375 36.375 
Q 6.984375 53.65625 15.1875 63.9375 
Q 23.390625 74.21875 37.203125 74.21875 
Q 40.921875 74.21875 44.703125 73.484375 
Q 48.484375 72.75 52.59375 71.296875 
z
" id="DejaVuSans-54"/>
      </defs>
      <g transform="translate(186.839287 314.316875)scale(0.1 -0.1)">
       <use xlink:href="#DejaVuSans-54"/>
       <use x="63.623047" xlink:href="#DejaVuSans-48"/>
       <use x="127.246094" xlink:href="#DejaVuSans-48"/>
      </g>
     </g>
    </g>
    <g id="xtick_5">
     <g id="line2d_13">
      <path clip-path="url(#p38e34421d8)" d="M 247.749205 303.218437 
L 247.749205 17.798437 
" style="fill:none;stroke:#b2b2b2;stroke-dasharray:0.8,1.32;stroke-dashoffset:0;stroke-width:0.8;"/>
     </g>
     <g id="line2d_14">
      <g>
       <use style="stroke:#000000;stroke-width:0.8;" x="247.749205" xlink:href="#me42726df93" y="303.218437"/>
      </g>
     </g>
     <g id="line2d_15">
      <g>
       <use style="stroke:#000000;stroke-width:0.8;" x="247.749205" xlink:href="#mbc08d84efc" y="17.798437"/>
      </g>
     </g>
     <g id="text_5">
      <!-- 800 -->
      <defs>
       <path d="M 31.78125 34.625 
Q 24.75 34.625 20.71875 30.859375 
Q 16.703125 27.09375 16.703125 20.515625 
Q 16.703125 13.921875 20.71875 10.15625 
Q 24.75 6.390625 31.78125 6.390625 
Q 38.8125 6.390625 42.859375 10.171875 
Q 46.921875 13.96875 46.921875 20.515625 
Q 46.921875 27.09375 42.890625 30.859375 
Q 38.875 34.625 31.78125 34.625 
z
M 21.921875 38.8125 
Q 15.578125 40.375 12.03125 44.71875 
Q 8.5 49.078125 8.5 55.328125 
Q 8.5 64.0625 14.71875 69.140625 
Q 20.953125 74.21875 31.78125 74.21875 
Q 42.671875 74.21875 48.875 69.140625 
Q 55.078125 64.0625 55.078125 55.328125 
Q 55.078125 49.078125 51.53125 44.71875 
Q 48 40.375 41.703125 38.8125 
Q 48.828125 37.15625 52.796875 32.3125 
Q 56.78125 27.484375 56.78125 20.515625 
Q 56.78125 9.90625 50.3125 4.234375 
Q 43.84375 -1.421875 31.78125 -1.421875 
Q 19.734375 -1.421875 13.25 4.234375 
Q 6.78125 9.90625 6.78125 20.515625 
Q 6.78125 27.484375 10.78125 32.3125 
Q 14.796875 37.15625 21.921875 38.8125 
z
M 18.3125 54.390625 
Q 18.3125 48.734375 21.84375 45.5625 
Q 25.390625 42.390625 31.78125 42.390625 
Q 38.140625 42.390625 41.71875 45.5625 
Q 45.3125 48.734375 45.3125 54.390625 
Q 45.3125 60.0625 41.71875 63.234375 
Q 38.140625 66.40625 31.78125 66.40625 
Q 25.390625 66.40625 21.84375 63.234375 
Q 18.3125 60.0625 18.3125 54.390625 
z
" id="DejaVuSans-56"/>
      </defs>
      <g transform="translate(238.205455 314.316875)scale(0.1 -0.1)">
       <use xlink:href="#DejaVuSans-56"/>
       <use x="63.623047" xlink:href="#DejaVuSans-48"/>
       <use x="127.246094" xlink:href="#DejaVuSans-48"/>
      </g>
     </g>
    </g>
    <g id="xtick_6">
     <g id="line2d_16">
      <path clip-path="url(#p38e34421d8)" d="M 299.115374 303.218437 
L 299.115374 17.798437 
" style="fill:none;stroke:#b2b2b2;stroke-dasharray:0.8,1.32;stroke-dashoffset:0;stroke-width:0.8;"/>
     </g>
     <g id="line2d_17">
      <g>
       <use style="stroke:#000000;stroke-width:0.8;" x="299.115374" xlink:href="#me42726df93" y="303.218437"/>
      </g>
     </g>
     <g id="line2d_18">
      <g>
       <use style="stroke:#000000;stroke-width:0.8;" x="299.115374" xlink:href="#mbc08d84efc" y="17.798437"/>
      </g>
     </g>
     <g id="text_6">
      <!-- 1000 -->
      <defs>
       <path d="M 12.40625 8.296875 
L 28.515625 8.296875 
L 28.515625 63.921875 
L 10.984375 60.40625 
L 10.984375 69.390625 
L 28.421875 72.90625 
L 38.28125 72.90625 
L 38.28125 8.296875 
L 54.390625 8.296875 
L 54.390625 0 
L 12.40625 0 
z
" id="DejaVuSans-49"/>
      </defs>
      <g transform="translate(286.390374 314.316875)scale(0.1 -0.1)">
       <use xlink:href="#DejaVuSans-49"/>
       <use x="63.623047" xlink:href="#DejaVuSans-48"/>
       <use x="127.246094" xlink:href="#DejaVuSans-48"/>
       <use x="190.869141" xlink:href="#DejaVuSans-48"/>
      </g>
     </g>
    </g>
    <g id="xtick_7">
     <g id="line2d_19">
      <path clip-path="url(#p38e34421d8)" d="M 350.481542 303.218437 
L 350.481542 17.798437 
" style="fill:none;stroke:#b2b2b2;stroke-dasharray:0.8,1.32;stroke-dashoffset:0;stroke-width:0.8;"/>
     </g>
     <g id="line2d_20">
      <g>
       <use style="stroke:#000000;stroke-width:0.8;" x="350.481542" xlink:href="#me42726df93" y="303.218437"/>
      </g>
     </g>
     <g id="line2d_21">
      <g>
       <use style="stroke:#000000;stroke-width:0.8;" x="350.481542" xlink:href="#mbc08d84efc" y="17.798437"/>
      </g>
     </g>
     <g id="text_7">
      <!-- 1200 -->
      <g transform="translate(337.756542 314.316875)scale(0.1 -0.1)">
       <use xlink:href="#DejaVuSans-49"/>
       <use x="63.623047" xlink:href="#DejaVuSans-50"/>
       <use x="127.246094" xlink:href="#DejaVuSans-48"/>
       <use x="190.869141" xlink:href="#DejaVuSans-48"/>
      </g>
     </g>
    </g>
    <g id="xtick_8">
     <g id="line2d_22">
      <path clip-path="url(#p38e34421d8)" d="M 401.847711 303.218437 
L 401.847711 17.798437 
" style="fill:none;stroke:#b2b2b2;stroke-dasharray:0.8,1.32;stroke-dashoffset:0;stroke-width:0.8;"/>
     </g>
     <g id="line2d_23">
      <g>
       <use style="stroke:#000000;stroke-width:0.8;" x="401.847711" xlink:href="#me42726df93" y="303.218437"/>
      </g>
     </g>
     <g id="line2d_24">
      <g>
       <use style="stroke:#000000;stroke-width:0.8;" x="401.847711" xlink:href="#mbc08d84efc" y="17.798437"/>
      </g>
     </g>
     <g id="text_8">
      <!-- 1400 -->
      <g transform="translate(389.122711 314.316875)scale(0.1 -0.1)">
       <use xlink:href="#DejaVuSans-49"/>
       <use x="63.623047" xlink:href="#DejaVuSans-52"/>
       <use x="127.246094" xlink:href="#DejaVuSans-48"/>
       <use x="190.869141" xlink:href="#DejaVuSans-48"/>
      </g>
     </g>
    </g>
    <g id="text_9">
     <!-- Packet length (Bytes) -->
     <defs>
      <path d="M 19.671875 64.796875 
L 19.671875 37.40625 
L 32.078125 37.40625 
Q 38.96875 37.40625 42.71875 40.96875 
Q 46.484375 44.53125 46.484375 51.125 
Q 46.484375 57.671875 42.71875 61.234375 
Q 38.96875 64.796875 32.078125 64.796875 
z
M 9.8125 72.90625 
L 32.078125 72.90625 
Q 44.34375 72.90625 50.609375 67.359375 
Q 56.890625 61.8125 56.890625 51.125 
Q 56.890625 40.328125 50.609375 34.8125 
Q 44.34375 29.296875 32.078125 29.296875 
L 19.671875 29.296875 
L 19.671875 0 
L 9.8125 0 
z
" id="DejaVuSans-80"/>
      <path d="M 34.28125 27.484375 
Q 23.390625 27.484375 19.1875 25 
Q 14.984375 22.515625 14.984375 16.5 
Q 14.984375 11.71875 18.140625 8.90625 
Q 21.296875 6.109375 26.703125 6.109375 
Q 34.1875 6.109375 38.703125 11.40625 
Q 43.21875 16.703125 43.21875 25.484375 
L 43.21875 27.484375 
z
M 52.203125 31.203125 
L 52.203125 0 
L 43.21875 0 
L 43.21875 8.296875 
Q 40.140625 3.328125 35.546875 0.953125 
Q 30.953125 -1.421875 24.3125 -1.421875 
Q 15.921875 -1.421875 10.953125 3.296875 
Q 6 8.015625 6 15.921875 
Q 6 25.140625 12.171875 29.828125 
Q 18.359375 34.515625 30.609375 34.515625 
L 43.21875 34.515625 
L 43.21875 35.40625 
Q 43.21875 41.609375 39.140625 45 
Q 35.0625 48.390625 27.6875 48.390625 
Q 23 48.390625 18.546875 47.265625 
Q 14.109375 46.140625 10.015625 43.890625 
L 10.015625 52.203125 
Q 14.9375 54.109375 19.578125 55.046875 
Q 24.21875 56 28.609375 56 
Q 40.484375 56 46.34375 49.84375 
Q 52.203125 43.703125 52.203125 31.203125 
z
" id="DejaVuSans-97"/>
      <path d="M 48.78125 52.59375 
L 48.78125 44.1875 
Q 44.96875 46.296875 41.140625 47.34375 
Q 37.3125 48.390625 33.40625 48.390625 
Q 24.65625 48.390625 19.8125 42.84375 
Q 14.984375 37.3125 14.984375 27.296875 
Q 14.984375 17.28125 19.8125 11.734375 
Q 24.65625 6.203125 33.40625 6.203125 
Q 37.3125 6.203125 41.140625 7.25 
Q 44.96875 8.296875 48.78125 10.40625 
L 48.78125 2.09375 
Q 45.015625 0.34375 40.984375 -0.53125 
Q 36.96875 -1.421875 32.421875 -1.421875 
Q 20.0625 -1.421875 12.78125 6.34375 
Q 5.515625 14.109375 5.515625 27.296875 
Q 5.515625 40.671875 12.859375 48.328125 
Q 20.21875 56 33.015625 56 
Q 37.15625 56 41.109375 55.140625 
Q 45.0625 54.296875 48.78125 52.59375 
z
" id="DejaVuSans-99"/>
      <path d="M 9.078125 75.984375 
L 18.109375 75.984375 
L 18.109375 31.109375 
L 44.921875 54.6875 
L 56.390625 54.6875 
L 27.390625 29.109375 
L 57.625 0 
L 45.90625 0 
L 18.109375 26.703125 
L 18.109375 0 
L 9.078125 0 
z
" id="DejaVuSans-107"/>
      <path d="M 56.203125 29.59375 
L 56.203125 25.203125 
L 14.890625 25.203125 
Q 15.484375 15.921875 20.484375 11.0625 
Q 25.484375 6.203125 34.421875 6.203125 
Q 39.59375 6.203125 44.453125 7.46875 
Q 49.3125 8.734375 54.109375 11.28125 
L 54.109375 2.78125 
Q 49.265625 0.734375 44.1875 -0.34375 
Q 39.109375 -1.421875 33.890625 -1.421875 
Q 20.796875 -1.421875 13.15625 6.1875 
Q 5.515625 13.8125 5.515625 26.8125 
Q 5.515625 40.234375 12.765625 48.109375 
Q 20.015625 56 32.328125 56 
Q 43.359375 56 49.78125 48.890625 
Q 56.203125 41.796875 56.203125 29.59375 
z
M 47.21875 32.234375 
Q 47.125 39.59375 43.09375 43.984375 
Q 39.0625 48.390625 32.421875 48.390625 
Q 24.90625 48.390625 20.390625 44.140625 
Q 15.875 39.890625 15.1875 32.171875 
z
" id="DejaVuSans-101"/>
      <path d="M 18.3125 70.21875 
L 18.3125 54.6875 
L 36.8125 54.6875 
L 36.8125 47.703125 
L 18.3125 47.703125 
L 18.3125 18.015625 
Q 18.3125 11.328125 20.140625 9.421875 
Q 21.96875 7.515625 27.59375 7.515625 
L 36.8125 7.515625 
L 36.8125 0 
L 27.59375 0 
Q 17.1875 0 13.234375 3.875 
Q 9.28125 7.765625 9.28125 18.015625 
L 9.28125 47.703125 
L 2.6875 47.703125 
L 2.6875 54.6875 
L 9.28125 54.6875 
L 9.28125 70.21875 
z
" id="DejaVuSans-116"/>
      <path id="DejaVuSans-32"/>
      <path d="M 9.421875 75.984375 
L 18.40625 75.984375 
L 18.40625 0 
L 9.421875 0 
z
" id="DejaVuSans-108"/>
      <path d="M 54.890625 33.015625 
L 54.890625 0 
L 45.90625 0 
L 45.90625 32.71875 
Q 45.90625 40.484375 42.875 44.328125 
Q 39.84375 48.1875 33.796875 48.1875 
Q 26.515625 48.1875 22.3125 43.546875 
Q 18.109375 38.921875 18.109375 30.90625 
L 18.109375 0 
L 9.078125 0 
L 9.078125 54.6875 
L 18.109375 54.6875 
L 18.109375 46.1875 
Q 21.34375 51.125 25.703125 53.5625 
Q 30.078125 56 35.796875 56 
Q 45.21875 56 50.046875 50.171875 
Q 54.890625 44.34375 54.890625 33.015625 
z
" id="DejaVuSans-110"/>
      <path d="M 45.40625 27.984375 
Q 45.40625 37.75 41.375 43.109375 
Q 37.359375 48.484375 30.078125 48.484375 
Q 22.859375 48.484375 18.828125 43.109375 
Q 14.796875 37.75 14.796875 27.984375 
Q 14.796875 18.265625 18.828125 12.890625 
Q 22.859375 7.515625 30.078125 7.515625 
Q 37.359375 7.515625 41.375 12.890625 
Q 45.40625 18.265625 45.40625 27.984375 
z
M 54.390625 6.78125 
Q 54.390625 -7.171875 48.1875 -13.984375 
Q 42 -20.796875 29.203125 -20.796875 
Q 24.46875 -20.796875 20.265625 -20.09375 
Q 16.0625 -19.390625 12.109375 -17.921875 
L 12.109375 -9.1875 
Q 16.0625 -11.328125 19.921875 -12.34375 
Q 23.78125 -13.375 27.78125 -13.375 
Q 36.625 -13.375 41.015625 -8.765625 
Q 45.40625 -4.15625 45.40625 5.171875 
L 45.40625 9.625 
Q 42.625 4.78125 38.28125 2.390625 
Q 33.9375 0 27.875 0 
Q 17.828125 0 11.671875 7.65625 
Q 5.515625 15.328125 5.515625 27.984375 
Q 5.515625 40.671875 11.671875 48.328125 
Q 17.828125 56 27.875 56 
Q 33.9375 56 38.28125 53.609375 
Q 42.625 51.21875 45.40625 46.390625 
L 45.40625 54.6875 
L 54.390625 54.6875 
z
" id="DejaVuSans-103"/>
      <path d="M 54.890625 33.015625 
L 54.890625 0 
L 45.90625 0 
L 45.90625 32.71875 
Q 45.90625 40.484375 42.875 44.328125 
Q 39.84375 48.1875 33.796875 48.1875 
Q 26.515625 48.1875 22.3125 43.546875 
Q 18.109375 38.921875 18.109375 30.90625 
L 18.109375 0 
L 9.078125 0 
L 9.078125 75.984375 
L 18.109375 75.984375 
L 18.109375 46.1875 
Q 21.34375 51.125 25.703125 53.5625 
Q 30.078125 56 35.796875 56 
Q 45.21875 56 50.046875 50.171875 
Q 54.890625 44.34375 54.890625 33.015625 
z
" id="DejaVuSans-104"/>
      <path d="M 31 75.875 
Q 24.46875 64.65625 21.28125 53.65625 
Q 18.109375 42.671875 18.109375 31.390625 
Q 18.109375 20.125 21.3125 9.0625 
Q 24.515625 -2 31 -13.1875 
L 23.1875 -13.1875 
Q 15.875 -1.703125 12.234375 9.375 
Q 8.59375 20.453125 8.59375 31.390625 
Q 8.59375 42.28125 12.203125 53.3125 
Q 15.828125 64.359375 23.1875 75.875 
z
" id="DejaVuSans-40"/>
      <path d="M 19.671875 34.8125 
L 19.671875 8.109375 
L 35.5 8.109375 
Q 43.453125 8.109375 47.28125 11.40625 
Q 51.125 14.703125 51.125 21.484375 
Q 51.125 28.328125 47.28125 31.5625 
Q 43.453125 34.8125 35.5 34.8125 
z
M 19.671875 64.796875 
L 19.671875 42.828125 
L 34.28125 42.828125 
Q 41.5 42.828125 45.03125 45.53125 
Q 48.578125 48.25 48.578125 53.8125 
Q 48.578125 59.328125 45.03125 62.0625 
Q 41.5 64.796875 34.28125 64.796875 
z
M 9.8125 72.90625 
L 35.015625 72.90625 
Q 46.296875 72.90625 52.390625 68.21875 
Q 58.5 63.53125 58.5 54.890625 
Q 58.5 48.1875 55.375 44.234375 
Q 52.25 40.28125 46.1875 39.3125 
Q 53.46875 37.75 57.5 32.78125 
Q 61.53125 27.828125 61.53125 20.40625 
Q 61.53125 10.640625 54.890625 5.3125 
Q 48.25 0 35.984375 0 
L 9.8125 0 
z
" id="DejaVuSans-66"/>
      <path d="M 32.171875 -5.078125 
Q 28.375 -14.84375 24.75 -17.8125 
Q 21.140625 -20.796875 15.09375 -20.796875 
L 7.90625 -20.796875 
L 7.90625 -13.28125 
L 13.1875 -13.28125 
Q 16.890625 -13.28125 18.9375 -11.515625 
Q 21 -9.765625 23.484375 -3.21875 
L 25.09375 0.875 
L 2.984375 54.6875 
L 12.5 54.6875 
L 29.59375 11.921875 
L 46.6875 54.6875 
L 56.203125 54.6875 
z
" id="DejaVuSans-121"/>
      <path d="M 44.28125 53.078125 
L 44.28125 44.578125 
Q 40.484375 46.53125 36.375 47.5 
Q 32.28125 48.484375 27.875 48.484375 
Q 21.1875 48.484375 17.84375 46.4375 
Q 14.5 44.390625 14.5 40.28125 
Q 14.5 37.15625 16.890625 35.375 
Q 19.28125 33.59375 26.515625 31.984375 
L 29.59375 31.296875 
Q 39.15625 29.25 43.1875 25.515625 
Q 47.21875 21.78125 47.21875 15.09375 
Q 47.21875 7.46875 41.1875 3.015625 
Q 35.15625 -1.421875 24.609375 -1.421875 
Q 20.21875 -1.421875 15.453125 -0.5625 
Q 10.6875 0.296875 5.421875 2 
L 5.421875 11.28125 
Q 10.40625 8.6875 15.234375 7.390625 
Q 20.0625 6.109375 24.8125 6.109375 
Q 31.15625 6.109375 34.5625 8.28125 
Q 37.984375 10.453125 37.984375 14.40625 
Q 37.984375 18.0625 35.515625 20.015625 
Q 33.0625 21.96875 24.703125 23.78125 
L 21.578125 24.515625 
Q 13.234375 26.265625 9.515625 29.90625 
Q 5.8125 33.546875 5.8125 39.890625 
Q 5.8125 47.609375 11.28125 51.796875 
Q 16.75 56 26.8125 56 
Q 31.78125 56 36.171875 55.265625 
Q 40.578125 54.546875 44.28125 53.078125 
z
" id="DejaVuSans-115"/>
      <path d="M 8.015625 75.875 
L 15.828125 75.875 
Q 23.140625 64.359375 26.78125 53.3125 
Q 30.421875 42.28125 30.421875 31.390625 
Q 30.421875 20.453125 26.78125 9.375 
Q 23.140625 -1.703125 15.828125 -13.1875 
L 8.015625 -13.1875 
Q 14.5 -2 17.703125 9.0625 
Q 20.90625 20.125 20.90625 31.390625 
Q 20.90625 42.671875 17.703125 53.65625 
Q 14.5 64.65625 8.015625 75.875 
z
" id="DejaVuSans-41"/>
     </defs>
     <g transform="translate(189.723906 327.995)scale(0.1 -0.1)">
      <use xlink:href="#DejaVuSans-80"/>
      <use x="55.802734" xlink:href="#DejaVuSans-97"/>
      <use x="117.082031" xlink:href="#DejaVuSans-99"/>
      <use x="172.0625" xlink:href="#DejaVuSans-107"/>
      <use x="226.347656" xlink:href="#DejaVuSans-101"/>
      <use x="287.871094" xlink:href="#DejaVuSans-116"/>
      <use x="327.080078" xlink:href="#DejaVuSans-32"/>
      <use x="358.867188" xlink:href="#DejaVuSans-108"/>
      <use x="386.650391" xlink:href="#DejaVuSans-101"/>
      <use x="448.173828" xlink:href="#DejaVuSans-110"/>
      <use x="511.552734" xlink:href="#DejaVuSans-103"/>
      <use x="575.029297" xlink:href="#DejaVuSans-116"/>
      <use x="614.238281" xlink:href="#DejaVuSans-104"/>
      <use x="677.617188" xlink:href="#DejaVuSans-32"/>
      <use x="709.404297" xlink:href="#DejaVuSans-40"/>
      <use x="748.417969" xlink:href="#DejaVuSans-66"/>
      <use x="817.021484" xlink:href="#DejaVuSans-121"/>
      <use x="876.201172" xlink:href="#DejaVuSans-116"/>
      <use x="915.410156" xlink:href="#DejaVuSans-101"/>
      <use x="976.933594" xlink:href="#DejaVuSans-115"/>
      <use x="1029.033203" xlink:href="#DejaVuSans-41"/>
     </g>
    </g>
   </g>
   <g id="matplotlib.axis_2">
    <g id="ytick_1">
     <g id="line2d_25">
      <path clip-path="url(#p38e34421d8)" d="M 40.28125 303.218437 
L 445.97125 303.218437 
" style="fill:none;stroke:#b2b2b2;stroke-dasharray:0.8,1.32;stroke-dashoffset:0;stroke-width:0.8;"/>
     </g>
     <g id="line2d_26">
      <defs>
       <path d="M 0 0 
L 3.5 0 
" id="m24fa3a29db" style="stroke:#000000;stroke-width:0.8;"/>
      </defs>
      <g>
       <use style="stroke:#000000;stroke-width:0.8;" x="40.28125" xlink:href="#m24fa3a29db" y="303.218437"/>
      </g>
     </g>
     <g id="line2d_27">
      <defs>
       <path d="M 0 0 
L -3.5 0 
" id="m845d3fc962" style="stroke:#000000;stroke-width:0.8;"/>
      </defs>
      <g>
       <use style="stroke:#000000;stroke-width:0.8;" x="445.97125" xlink:href="#m845d3fc962" y="303.218437"/>
      </g>
     </g>
     <g id="text_10">
      <!-- 0.0 -->
      <defs>
       <path d="M 10.6875 12.40625 
L 21 12.40625 
L 21 0 
L 10.6875 0 
z
" id="DejaVuSans-46"/>
      </defs>
      <g transform="translate(20.878125 307.017656)scale(0.1 -0.1)">
       <use xlink:href="#DejaVuSans-48"/>
       <use x="63.623047" xlink:href="#DejaVuSans-46"/>
       <use x="95.410156" xlink:href="#DejaVuSans-48"/>
      </g>
     </g>
    </g>
    <g id="ytick_2">
     <g id="line2d_28">
      <path clip-path="url(#p38e34421d8)" d="M 40.28125 268.365675 
L 445.97125 268.365675 
" style="fill:none;stroke:#b2b2b2;stroke-dasharray:0.8,1.32;stroke-dashoffset:0;stroke-width:0.8;"/>
     </g>
     <g id="line2d_29">
      <g>
       <use style="stroke:#000000;stroke-width:0.8;" x="40.28125" xlink:href="#m24fa3a29db" y="268.365675"/>
      </g>
     </g>
     <g id="line2d_30">
      <g>
       <use style="stroke:#000000;stroke-width:0.8;" x="445.97125" xlink:href="#m845d3fc962" y="268.365675"/>
      </g>
     </g>
     <g id="text_11">
      <!-- 0.2 -->
      <g transform="translate(20.878125 272.164894)scale(0.1 -0.1)">
       <use xlink:href="#DejaVuSans-48"/>
       <use x="63.623047" xlink:href="#DejaVuSans-46"/>
       <use x="95.410156" xlink:href="#DejaVuSans-50"/>
      </g>
     </g>
    </g>
    <g id="ytick_3">
     <g id="line2d_31">
      <path clip-path="url(#p38e34421d8)" d="M 40.28125 233.512913 
L 445.97125 233.512913 
" style="fill:none;stroke:#b2b2b2;stroke-dasharray:0.8,1.32;stroke-dashoffset:0;stroke-width:0.8;"/>
     </g>
     <g id="line2d_32">
      <g>
       <use style="stroke:#000000;stroke-width:0.8;" x="40.28125" xlink:href="#m24fa3a29db" y="233.512913"/>
      </g>
     </g>
     <g id="line2d_33">
      <g>
       <use style="stroke:#000000;stroke-width:0.8;" x="445.97125" xlink:href="#m845d3fc962" y="233.512913"/>
      </g>
     </g>
     <g id="text_12">
      <!-- 0.4 -->
      <g transform="translate(20.878125 237.312132)scale(0.1 -0.1)">
       <use xlink:href="#DejaVuSans-48"/>
       <use x="63.623047" xlink:href="#DejaVuSans-46"/>
       <use x="95.410156" xlink:href="#DejaVuSans-52"/>
      </g>
     </g>
    </g>
    <g id="ytick_4">
     <g id="line2d_34">
      <path clip-path="url(#p38e34421d8)" d="M 40.28125 198.66015 
L 445.97125 198.66015 
" style="fill:none;stroke:#b2b2b2;stroke-dasharray:0.8,1.32;stroke-dashoffset:0;stroke-width:0.8;"/>
     </g>
     <g id="line2d_35">
      <g>
       <use style="stroke:#000000;stroke-width:0.8;" x="40.28125" xlink:href="#m24fa3a29db" y="198.66015"/>
      </g>
     </g>
     <g id="line2d_36">
      <g>
       <use style="stroke:#000000;stroke-width:0.8;" x="445.97125" xlink:href="#m845d3fc962" y="198.66015"/>
      </g>
     </g>
     <g id="text_13">
      <!-- 0.6 -->
      <g transform="translate(20.878125 202.459369)scale(0.1 -0.1)">
       <use xlink:href="#DejaVuSans-48"/>
       <use x="63.623047" xlink:href="#DejaVuSans-46"/>
       <use x="95.410156" xlink:href="#DejaVuSans-54"/>
      </g>
     </g>
    </g>
    <g id="ytick_5">
     <g id="line2d_37">
      <path clip-path="url(#p38e34421d8)" d="M 40.28125 163.807388 
L 445.97125 163.807388 
" style="fill:none;stroke:#b2b2b2;stroke-dasharray:0.8,1.32;stroke-dashoffset:0;stroke-width:0.8;"/>
     </g>
     <g id="line2d_38">
      <g>
       <use style="stroke:#000000;stroke-width:0.8;" x="40.28125" xlink:href="#m24fa3a29db" y="163.807388"/>
      </g>
     </g>
     <g id="line2d_39">
      <g>
       <use style="stroke:#000000;stroke-width:0.8;" x="445.97125" xlink:href="#m845d3fc962" y="163.807388"/>
      </g>
     </g>
     <g id="text_14">
      <!-- 0.8 -->
      <g transform="translate(20.878125 167.606607)scale(0.1 -0.1)">
       <use xlink:href="#DejaVuSans-48"/>
       <use x="63.623047" xlink:href="#DejaVuSans-46"/>
       <use x="95.410156" xlink:href="#DejaVuSans-56"/>
      </g>
     </g>
    </g>
    <g id="ytick_6">
     <g id="line2d_40">
      <path clip-path="url(#p38e34421d8)" d="M 40.28125 128.954626 
L 445.97125 128.954626 
" style="fill:none;stroke:#b2b2b2;stroke-dasharray:0.8,1.32;stroke-dashoffset:0;stroke-width:0.8;"/>
     </g>
     <g id="line2d_41">
      <g>
       <use style="stroke:#000000;stroke-width:0.8;" x="40.28125" xlink:href="#m24fa3a29db" y="128.954626"/>
      </g>
     </g>
     <g id="line2d_42">
      <g>
       <use style="stroke:#000000;stroke-width:0.8;" x="445.97125" xlink:href="#m845d3fc962" y="128.954626"/>
      </g>
     </g>
     <g id="text_15">
      <!-- 1.0 -->
      <g transform="translate(20.878125 132.753844)scale(0.1 -0.1)">
       <use xlink:href="#DejaVuSans-49"/>
       <use x="63.623047" xlink:href="#DejaVuSans-46"/>
       <use x="95.410156" xlink:href="#DejaVuSans-48"/>
      </g>
     </g>
    </g>
    <g id="ytick_7">
     <g id="line2d_43">
      <path clip-path="url(#p38e34421d8)" d="M 40.28125 94.101863 
L 445.97125 94.101863 
" style="fill:none;stroke:#b2b2b2;stroke-dasharray:0.8,1.32;stroke-dashoffset:0;stroke-width:0.8;"/>
     </g>
     <g id="line2d_44">
      <g>
       <use style="stroke:#000000;stroke-width:0.8;" x="40.28125" xlink:href="#m24fa3a29db" y="94.101863"/>
      </g>
     </g>
     <g id="line2d_45">
      <g>
       <use style="stroke:#000000;stroke-width:0.8;" x="445.97125" xlink:href="#m845d3fc962" y="94.101863"/>
      </g>
     </g>
     <g id="text_16">
      <!-- 1.2 -->
      <g transform="translate(20.878125 97.901082)scale(0.1 -0.1)">
       <use xlink:href="#DejaVuSans-49"/>
       <use x="63.623047" xlink:href="#DejaVuSans-46"/>
       <use x="95.410156" xlink:href="#DejaVuSans-50"/>
      </g>
     </g>
    </g>
    <g id="ytick_8">
     <g id="line2d_46">
      <path clip-path="url(#p38e34421d8)" d="M 40.28125 59.249101 
L 445.97125 59.249101 
" style="fill:none;stroke:#b2b2b2;stroke-dasharray:0.8,1.32;stroke-dashoffset:0;stroke-width:0.8;"/>
     </g>
     <g id="line2d_47">
      <g>
       <use style="stroke:#000000;stroke-width:0.8;" x="40.28125" xlink:href="#m24fa3a29db" y="59.249101"/>
      </g>
     </g>
     <g id="line2d_48">
      <g>
       <use style="stroke:#000000;stroke-width:0.8;" x="445.97125" xlink:href="#m845d3fc962" y="59.249101"/>
      </g>
     </g>
     <g id="text_17">
      <!-- 1.4 -->
      <g transform="translate(20.878125 63.04832)scale(0.1 -0.1)">
       <use xlink:href="#DejaVuSans-49"/>
       <use x="63.623047" xlink:href="#DejaVuSans-46"/>
       <use x="95.410156" xlink:href="#DejaVuSans-52"/>
      </g>
     </g>
    </g>
    <g id="ytick_9">
     <g id="line2d_49">
      <path clip-path="url(#p38e34421d8)" d="M 40.28125 24.396339 
L 445.97125 24.396339 
" style="fill:none;stroke:#b2b2b2;stroke-dasharray:0.8,1.32;stroke-dashoffset:0;stroke-width:0.8;"/>
     </g>
     <g id="line2d_50">
      <g>
       <use style="stroke:#000000;stroke-width:0.8;" x="40.28125" xlink:href="#m24fa3a29db" y="24.396339"/>
      </g>
     </g>
     <g id="line2d_51">
      <g>
       <use style="stroke:#000000;stroke-width:0.8;" x="445.97125" xlink:href="#m845d3fc962" y="24.396339"/>
      </g>
     </g>
     <g id="text_18">
      <!-- 1.6 -->
      <g transform="translate(20.878125 28.195557)scale(0.1 -0.1)">
       <use xlink:href="#DejaVuSans-49"/>
       <use x="63.623047" xlink:href="#DejaVuSans-46"/>
       <use x="95.410156" xlink:href="#DejaVuSans-54"/>
      </g>
     </g>
    </g>
    <g id="text_19">
     <!-- Packets per second -->
     <defs>
      <path d="M 18.109375 8.203125 
L 18.109375 -20.796875 
L 9.078125 -20.796875 
L 9.078125 54.6875 
L 18.109375 54.6875 
L 18.109375 46.390625 
Q 20.953125 51.265625 25.265625 53.625 
Q 29.59375 56 35.59375 56 
Q 45.5625 56 51.78125 48.09375 
Q 58.015625 40.1875 58.015625 27.296875 
Q 58.015625 14.40625 51.78125 6.484375 
Q 45.5625 -1.421875 35.59375 -1.421875 
Q 29.59375 -1.421875 25.265625 0.953125 
Q 20.953125 3.328125 18.109375 8.203125 
z
M 48.6875 27.296875 
Q 48.6875 37.203125 44.609375 42.84375 
Q 40.53125 48.484375 33.40625 48.484375 
Q 26.265625 48.484375 22.1875 42.84375 
Q 18.109375 37.203125 18.109375 27.296875 
Q 18.109375 17.390625 22.1875 11.75 
Q 26.265625 6.109375 33.40625 6.109375 
Q 40.53125 6.109375 44.609375 11.75 
Q 48.6875 17.390625 48.6875 27.296875 
z
" id="DejaVuSans-112"/>
      <path d="M 41.109375 46.296875 
Q 39.59375 47.171875 37.8125 47.578125 
Q 36.03125 48 33.890625 48 
Q 26.265625 48 22.1875 43.046875 
Q 18.109375 38.09375 18.109375 28.8125 
L 18.109375 0 
L 9.078125 0 
L 9.078125 54.6875 
L 18.109375 54.6875 
L 18.109375 46.1875 
Q 20.953125 51.171875 25.484375 53.578125 
Q 30.03125 56 36.53125 56 
Q 37.453125 56 38.578125 55.875 
Q 39.703125 55.765625 41.0625 55.515625 
z
" id="DejaVuSans-114"/>
      <path d="M 30.609375 48.390625 
Q 23.390625 48.390625 19.1875 42.75 
Q 14.984375 37.109375 14.984375 27.296875 
Q 14.984375 17.484375 19.15625 11.84375 
Q 23.34375 6.203125 30.609375 6.203125 
Q 37.796875 6.203125 41.984375 11.859375 
Q 46.1875 17.53125 46.1875 27.296875 
Q 46.1875 37.015625 41.984375 42.703125 
Q 37.796875 48.390625 30.609375 48.390625 
z
M 30.609375 56 
Q 42.328125 56 49.015625 48.375 
Q 55.71875 40.765625 55.71875 27.296875 
Q 55.71875 13.875 49.015625 6.21875 
Q 42.328125 -1.421875 30.609375 -1.421875 
Q 18.84375 -1.421875 12.171875 6.21875 
Q 5.515625 13.875 5.515625 27.296875 
Q 5.515625 40.765625 12.171875 48.375 
Q 18.84375 56 30.609375 56 
z
" id="DejaVuSans-111"/>
      <path d="M 45.40625 46.390625 
L 45.40625 75.984375 
L 54.390625 75.984375 
L 54.390625 0 
L 45.40625 0 
L 45.40625 8.203125 
Q 42.578125 3.328125 38.25 0.953125 
Q 33.9375 -1.421875 27.875 -1.421875 
Q 17.96875 -1.421875 11.734375 6.484375 
Q 5.515625 14.40625 5.515625 27.296875 
Q 5.515625 40.1875 11.734375 48.09375 
Q 17.96875 56 27.875 56 
Q 33.9375 56 38.25 53.625 
Q 42.578125 51.265625 45.40625 46.390625 
z
M 14.796875 27.296875 
Q 14.796875 17.390625 18.875 11.75 
Q 22.953125 6.109375 30.078125 6.109375 
Q 37.203125 6.109375 41.296875 11.75 
Q 45.40625 17.390625 45.40625 27.296875 
Q 45.40625 37.203125 41.296875 42.84375 
Q 37.203125 48.484375 30.078125 48.484375 
Q 22.953125 48.484375 18.875 42.84375 
Q 14.796875 37.203125 14.796875 27.296875 
z
" id="DejaVuSans-100"/>
     </defs>
     <g transform="translate(14.798438 208.784219)rotate(-90)scale(0.1 -0.1)">
      <use xlink:href="#DejaVuSans-80"/>
      <use x="55.802734" xlink:href="#DejaVuSans-97"/>
      <use x="117.082031" xlink:href="#DejaVuSans-99"/>
      <use x="172.0625" xlink:href="#DejaVuSans-107"/>
      <use x="226.347656" xlink:href="#DejaVuSans-101"/>
      <use x="287.871094" xlink:href="#DejaVuSans-116"/>
      <use x="327.080078" xlink:href="#DejaVuSans-115"/>
      <use x="379.179688" xlink:href="#DejaVuSans-32"/>
      <use x="410.966797" xlink:href="#DejaVuSans-112"/>
      <use x="474.443359" xlink:href="#DejaVuSans-101"/>
      <use x="535.966797" xlink:href="#DejaVuSans-114"/>
      <use x="577.080078" xlink:href="#DejaVuSans-32"/>
      <use x="608.867188" xlink:href="#DejaVuSans-115"/>
      <use x="660.966797" xlink:href="#DejaVuSans-101"/>
      <use x="722.490234" xlink:href="#DejaVuSans-99"/>
      <use x="777.470703" xlink:href="#DejaVuSans-111"/>
      <use x="838.652344" xlink:href="#DejaVuSans-110"/>
      <use x="902.03125" xlink:href="#DejaVuSans-100"/>
     </g>
    </g>
    <g id="text_20">
     <!-- 1e7 -->
     <defs>
      <path d="M 8.203125 72.90625 
L 55.078125 72.90625 
L 55.078125 68.703125 
L 28.609375 0 
L 18.3125 0 
L 43.21875 64.59375 
L 8.203125 64.59375 
z
" id="DejaVuSans-55"/>
     </defs>
     <g transform="translate(40.28125 14.798437)scale(0.1 -0.1)">
      <use xlink:href="#DejaVuSans-49"/>
      <use x="63.623047" xlink:href="#DejaVuSans-101"/>
      <use x="125.146484" xlink:href="#DejaVuSans-55"/>
     </g>
    </g>
   </g>
   <g id="LineCollection_1">
    <path clip-path="url(#p38e34421d8)" d="M 58.721705 138.424048 
L 58.721705 138.20239 
" style="fill:none;stroke:#4b7496;stroke-width:1.5;"/>
    <path clip-path="url(#p38e34421d8)" d="M 75.158879 137.706293 
L 75.158879 137.346624 
" style="fill:none;stroke:#4b7496;stroke-width:1.5;"/>
    <path clip-path="url(#p38e34421d8)" d="M 108.033226 135.440959 
L 108.033226 135.355879 
" style="fill:none;stroke:#4b7496;stroke-width:1.5;"/>
    <path clip-path="url(#p38e34421d8)" d="M 173.781922 134.720923 
L 173.781922 134.187449 
" style="fill:none;stroke:#4b7496;stroke-width:1.5;"/>
    <path clip-path="url(#p38e34421d8)" d="M 305.279314 138.188243 
L 305.279314 138.045872 
" style="fill:none;stroke:#4b7496;stroke-width:1.5;"/>
    <path clip-path="url(#p38e34421d8)" d="M 427.530795 162.660943 
L 427.530795 162.159332 
" style="fill:none;stroke:#4b7496;stroke-width:1.5;"/>
   </g>
   <g id="LineCollection_2">
    <path clip-path="url(#p38e34421d8)" d="M 58.721705 67.759301 
L 58.721705 66.657592 
" style="fill:none;stroke:#90b9db;stroke-width:1.5;"/>
    <path clip-path="url(#p38e34421d8)" d="M 75.158879 63.148995 
L 75.158879 62.476799 
" style="fill:none;stroke:#90b9db;stroke-width:1.5;"/>
    <path clip-path="url(#p38e34421d8)" d="M 108.033226 57.66802 
L 108.033226 55.683244 
" style="fill:none;stroke:#90b9db;stroke-width:1.5;"/>
    <path clip-path="url(#p38e34421d8)" d="M 173.781922 61.599751 
L 173.781922 60.981347 
" style="fill:none;stroke:#90b9db;stroke-width:1.5;"/>
    <path clip-path="url(#p38e34421d8)" d="M 305.279314 116.356429 
L 305.279314 116.226391 
" style="fill:none;stroke:#90b9db;stroke-width:1.5;"/>
    <path clip-path="url(#p38e34421d8)" d="M 427.530795 161.143174 
L 427.530795 161.115845 
" style="fill:none;stroke:#90b9db;stroke-width:1.5;"/>
   </g>
   <g id="LineCollection_3">
    <path clip-path="url(#p38e34421d8)" d="M 58.721705 46.552967 
L 58.721705 44.263992 
" style="fill:none;stroke:#e68d3c;stroke-width:1.5;"/>
    <path clip-path="url(#p38e34421d8)" d="M 75.158879 41.171421 
L 75.158879 38.850084 
" style="fill:none;stroke:#e68d3c;stroke-width:1.5;"/>
    <path clip-path="url(#p38e34421d8)" d="M 108.033226 25.836891 
L 108.033226 25.661423 
" style="fill:none;stroke:#e68d3c;stroke-width:1.5;"/>
    <path clip-path="url(#p38e34421d8)" d="M 173.781922 27.766862 
L 173.781922 26.315634 
" style="fill:none;stroke:#e68d3c;stroke-width:1.5;"/>
    <path clip-path="url(#p38e34421d8)" d="M 305.279314 106.133688 
L 305.279314 105.776968 
" style="fill:none;stroke:#e68d3c;stroke-width:1.5;"/>
    <path clip-path="url(#p38e34421d8)" d="M 427.530795 161.449746 
L 427.530795 160.94643 
" style="fill:none;stroke:#e68d3c;stroke-width:1.5;"/>
   </g>
   <g id="LineCollection_4">
    <path clip-path="url(#p38e34421d8)" d="M 58.721705 127.177353 
L 58.721705 127.084473 
" style="fill:none;stroke:#58ac52;stroke-width:1.5;"/>
    <path clip-path="url(#p38e34421d8)" d="M 75.158879 141.618143 
L 75.158879 140.851599 
" style="fill:none;stroke:#58ac52;stroke-width:1.5;"/>
    <path clip-path="url(#p38e34421d8)" d="M 108.033226 135.314688 
L 108.033226 135.201314 
" style="fill:none;stroke:#58ac52;stroke-width:1.5;"/>
    <path clip-path="url(#p38e34421d8)" d="M 173.781922 123.193235 
L 173.781922 122.753444 
" style="fill:none;stroke:#58ac52;stroke-width:1.5;"/>
    <path clip-path="url(#p38e34421d8)" d="M 305.279314 143.532049 
L 305.279314 142.940231 
" style="fill:none;stroke:#58ac52;stroke-width:1.5;"/>
    <path clip-path="url(#p38e34421d8)" d="M 427.530795 182.921128 
L 427.530795 182.672748 
" style="fill:none;stroke:#58ac52;stroke-width:1.5;"/>
   </g>
   <g id="line2d_52">
    <path clip-path="url(#p38e34421d8)" d="M 58.721705 138.313219 
L 75.158879 137.526458 
L 108.033226 135.398419 
L 173.781922 134.454186 
L 305.279314 138.117057 
L 427.530795 162.410138 
" style="fill:none;stroke:#4b7496;stroke-linecap:square;stroke-width:1.5;"/>
    <defs>
     <path d="M 0 3 
C 0.795609 3 1.55874 2.683901 2.12132 2.12132 
C 2.683901 1.55874 3 0.795609 3 0 
C 3 -0.795609 2.683901 -1.55874 2.12132 -2.12132 
C 1.55874 -2.683901 0.795609 -3 0 -3 
C -0.795609 -3 -1.55874 -2.683901 -2.12132 -2.12132 
C -2.683901 -1.55874 -3 -0.795609 -3 0 
C -3 0.795609 -2.683901 1.55874 -2.12132 2.12132 
C -1.55874 2.683901 -0.795609 3 0 3 
z
" id="m7a5aea7200" style="stroke:#4b7496;"/>
    </defs>
    <g clip-path="url(#p38e34421d8)">
     <use style="fill-opacity:0;stroke:#4b7496;" x="58.721705" xlink:href="#m7a5aea7200" y="138.313219"/>
     <use style="fill-opacity:0;stroke:#4b7496;" x="75.158879" xlink:href="#m7a5aea7200" y="137.526458"/>
     <use style="fill-opacity:0;stroke:#4b7496;" x="108.033226" xlink:href="#m7a5aea7200" y="135.398419"/>
     <use style="fill-opacity:0;stroke:#4b7496;" x="173.781922" xlink:href="#m7a5aea7200" y="134.454186"/>
     <use style="fill-opacity:0;stroke:#4b7496;" x="305.279314" xlink:href="#m7a5aea7200" y="138.117057"/>
     <use style="fill-opacity:0;stroke:#4b7496;" x="427.530795" xlink:href="#m7a5aea7200" y="162.410138"/>
    </g>
   </g>
   <g id="line2d_53">
    <defs>
     <path d="M 3 0 
L -3 -0 
" id="m33bef5fbf0" style="stroke:#4b7496;"/>
    </defs>
    <g clip-path="url(#p38e34421d8)">
     <use style="fill:#4b7496;stroke:#4b7496;" x="58.721705" xlink:href="#m33bef5fbf0" y="138.424048"/>
     <use style="fill:#4b7496;stroke:#4b7496;" x="75.158879" xlink:href="#m33bef5fbf0" y="137.706293"/>
     <use style="fill:#4b7496;stroke:#4b7496;" x="108.033226" xlink:href="#m33bef5fbf0" y="135.440959"/>
     <use style="fill:#4b7496;stroke:#4b7496;" x="173.781922" xlink:href="#m33bef5fbf0" y="134.720923"/>
     <use style="fill:#4b7496;stroke:#4b7496;" x="305.279314" xlink:href="#m33bef5fbf0" y="138.188243"/>
     <use style="fill:#4b7496;stroke:#4b7496;" x="427.530795" xlink:href="#m33bef5fbf0" y="162.660943"/>
    </g>
   </g>
   <g id="line2d_54">
    <g clip-path="url(#p38e34421d8)">
     <use style="fill:#4b7496;stroke:#4b7496;" x="58.721705" xlink:href="#m33bef5fbf0" y="138.20239"/>
     <use style="fill:#4b7496;stroke:#4b7496;" x="75.158879" xlink:href="#m33bef5fbf0" y="137.346624"/>
     <use style="fill:#4b7496;stroke:#4b7496;" x="108.033226" xlink:href="#m33bef5fbf0" y="135.355879"/>
     <use style="fill:#4b7496;stroke:#4b7496;" x="173.781922" xlink:href="#m33bef5fbf0" y="134.187449"/>
     <use style="fill:#4b7496;stroke:#4b7496;" x="305.279314" xlink:href="#m33bef5fbf0" y="138.045872"/>
     <use style="fill:#4b7496;stroke:#4b7496;" x="427.530795" xlink:href="#m33bef5fbf0" y="162.159332"/>
    </g>
   </g>
   <g id="line2d_55">
    <path clip-path="url(#p38e34421d8)" d="M 58.721705 67.208446 
L 75.158879 62.812897 
L 108.033226 56.675632 
L 173.781922 61.290549 
L 305.279314 116.29141 
L 427.530795 161.12951 
" style="fill:none;stroke:#90b9db;stroke-dasharray:5.55,2.4;stroke-dashoffset:0;stroke-width:1.5;"/>
    <defs>
     <path d="M 0 -3 
L -3 3 
L 3 3 
z
" id="m5edd8123ca" style="stroke:#90b9db;stroke-linejoin:miter;"/>
    </defs>
    <g clip-path="url(#p38e34421d8)">
     <use style="fill-opacity:0;stroke:#90b9db;stroke-linejoin:miter;" x="58.721705" xlink:href="#m5edd8123ca" y="67.208446"/>
     <use style="fill-opacity:0;stroke:#90b9db;stroke-linejoin:miter;" x="75.158879" xlink:href="#m5edd8123ca" y="62.812897"/>
     <use style="fill-opacity:0;stroke:#90b9db;stroke-linejoin:miter;" x="108.033226" xlink:href="#m5edd8123ca" y="56.675632"/>
     <use style="fill-opacity:0;stroke:#90b9db;stroke-linejoin:miter;" x="173.781922" xlink:href="#m5edd8123ca" y="61.290549"/>
     <use style="fill-opacity:0;stroke:#90b9db;stroke-linejoin:miter;" x="305.279314" xlink:href="#m5edd8123ca" y="116.29141"/>
     <use style="fill-opacity:0;stroke:#90b9db;stroke-linejoin:miter;" x="427.530795" xlink:href="#m5edd8123ca" y="161.12951"/>
    </g>
   </g>
   <g id="line2d_56">
    <defs>
     <path d="M 3 0 
L -3 -0 
" id="mef689da26d" style="stroke:#90b9db;"/>
    </defs>
    <g clip-path="url(#p38e34421d8)">
     <use style="fill:#90b9db;stroke:#90b9db;" x="58.721705" xlink:href="#mef689da26d" y="67.759301"/>
     <use style="fill:#90b9db;stroke:#90b9db;" x="75.158879" xlink:href="#mef689da26d" y="63.148995"/>
     <use style="fill:#90b9db;stroke:#90b9db;" x="108.033226" xlink:href="#mef689da26d" y="57.66802"/>
     <use style="fill:#90b9db;stroke:#90b9db;" x="173.781922" xlink:href="#mef689da26d" y="61.599751"/>
     <use style="fill:#90b9db;stroke:#90b9db;" x="305.279314" xlink:href="#mef689da26d" y="116.356429"/>
     <use style="fill:#90b9db;stroke:#90b9db;" x="427.530795" xlink:href="#mef689da26d" y="161.143174"/>
    </g>
   </g>
   <g id="line2d_57">
    <g clip-path="url(#p38e34421d8)">
     <use style="fill:#90b9db;stroke:#90b9db;" x="58.721705" xlink:href="#mef689da26d" y="66.657592"/>
     <use style="fill:#90b9db;stroke:#90b9db;" x="75.158879" xlink:href="#mef689da26d" y="62.476799"/>
     <use style="fill:#90b9db;stroke:#90b9db;" x="108.033226" xlink:href="#mef689da26d" y="55.683244"/>
     <use style="fill:#90b9db;stroke:#90b9db;" x="173.781922" xlink:href="#mef689da26d" y="60.981347"/>
     <use style="fill:#90b9db;stroke:#90b9db;" x="305.279314" xlink:href="#mef689da26d" y="116.226391"/>
     <use style="fill:#90b9db;stroke:#90b9db;" x="427.530795" xlink:href="#mef689da26d" y="161.115845"/>
    </g>
   </g>
   <g id="line2d_58">
    <path clip-path="url(#p38e34421d8)" d="M 58.721705 45.40848 
L 75.158879 40.010752 
L 108.033226 25.749157 
L 173.781922 27.041248 
L 305.279314 105.955328 
L 427.530795 161.198088 
" style="fill:none;stroke:#e68d3c;stroke-dasharray:9.6,2.4,1.5,2.4;stroke-dashoffset:0;stroke-width:1.5;"/>
    <defs>
     <path d="M -3 3 
L 3 3 
L 3 -3 
L -3 -3 
z
" id="m1f99fbf8a0" style="stroke:#e68d3c;stroke-linejoin:miter;"/>
    </defs>
    <g clip-path="url(#p38e34421d8)">
     <use style="fill-opacity:0;stroke:#e68d3c;stroke-linejoin:miter;" x="58.721705" xlink:href="#m1f99fbf8a0" y="45.40848"/>
     <use style="fill-opacity:0;stroke:#e68d3c;stroke-linejoin:miter;" x="75.158879" xlink:href="#m1f99fbf8a0" y="40.010752"/>
     <use style="fill-opacity:0;stroke:#e68d3c;stroke-linejoin:miter;" x="108.033226" xlink:href="#m1f99fbf8a0" y="25.749157"/>
     <use style="fill-opacity:0;stroke:#e68d3c;stroke-linejoin:miter;" x="173.781922" xlink:href="#m1f99fbf8a0" y="27.041248"/>
     <use style="fill-opacity:0;stroke:#e68d3c;stroke-linejoin:miter;" x="305.279314" xlink:href="#m1f99fbf8a0" y="105.955328"/>
     <use style="fill-opacity:0;stroke:#e68d3c;stroke-linejoin:miter;" x="427.530795" xlink:href="#m1f99fbf8a0" y="161.198088"/>
    </g>
   </g>
   <g id="line2d_59">
    <defs>
     <path d="M 3 0 
L -3 -0 
" id="m5a24679b8e" style="stroke:#e68d3c;"/>
    </defs>
    <g clip-path="url(#p38e34421d8)">
     <use style="fill:#e68d3c;stroke:#e68d3c;" x="58.721705" xlink:href="#m5a24679b8e" y="46.552967"/>
     <use style="fill:#e68d3c;stroke:#e68d3c;" x="75.158879" xlink:href="#m5a24679b8e" y="41.171421"/>
     <use style="fill:#e68d3c;stroke:#e68d3c;" x="108.033226" xlink:href="#m5a24679b8e" y="25.836891"/>
     <use style="fill:#e68d3c;stroke:#e68d3c;" x="173.781922" xlink:href="#m5a24679b8e" y="27.766862"/>
     <use style="fill:#e68d3c;stroke:#e68d3c;" x="305.279314" xlink:href="#m5a24679b8e" y="106.133688"/>
     <use style="fill:#e68d3c;stroke:#e68d3c;" x="427.530795" xlink:href="#m5a24679b8e" y="161.449746"/>
    </g>
   </g>
   <g id="line2d_60">
    <g clip-path="url(#p38e34421d8)">
     <use style="fill:#e68d3c;stroke:#e68d3c;" x="58.721705" xlink:href="#m5a24679b8e" y="44.263992"/>
     <use style="fill:#e68d3c;stroke:#e68d3c;" x="75.158879" xlink:href="#m5a24679b8e" y="38.850084"/>
     <use style="fill:#e68d3c;stroke:#e68d3c;" x="108.033226" xlink:href="#m5a24679b8e" y="25.661423"/>
     <use style="fill:#e68d3c;stroke:#e68d3c;" x="173.781922" xlink:href="#m5a24679b8e" y="26.315634"/>
     <use style="fill:#e68d3c;stroke:#e68d3c;" x="305.279314" xlink:href="#m5a24679b8e" y="105.776968"/>
     <use style="fill:#e68d3c;stroke:#e68d3c;" x="427.530795" xlink:href="#m5a24679b8e" y="160.94643"/>
    </g>
   </g>
   <g id="line2d_61">
    <path clip-path="url(#p38e34421d8)" d="M 58.721705 127.130913 
L 75.158879 141.234871 
L 108.033226 135.258001 
L 173.781922 122.97334 
L 305.279314 143.23614 
L 427.530795 182.796938 
" style="fill:none;stroke:#58ac52;stroke-dasharray:1.5,2.475;stroke-dashoffset:0;stroke-width:1.5;"/>
    <defs>
     <path d="M -0 4.242641 
L 4.242641 0 
L 0 -4.242641 
L -4.242641 -0 
z
" id="mb279a7ff4b" style="stroke:#58ac52;stroke-linejoin:miter;"/>
    </defs>
    <g clip-path="url(#p38e34421d8)">
     <use style="fill-opacity:0;stroke:#58ac52;stroke-linejoin:miter;" x="58.721705" xlink:href="#mb279a7ff4b" y="127.130913"/>
     <use style="fill-opacity:0;stroke:#58ac52;stroke-linejoin:miter;" x="75.158879" xlink:href="#mb279a7ff4b" y="141.234871"/>
     <use style="fill-opacity:0;stroke:#58ac52;stroke-linejoin:miter;" x="108.033226" xlink:href="#mb279a7ff4b" y="135.258001"/>
     <use style="fill-opacity:0;stroke:#58ac52;stroke-linejoin:miter;" x="173.781922" xlink:href="#mb279a7ff4b" y="122.97334"/>
     <use style="fill-opacity:0;stroke:#58ac52;stroke-linejoin:miter;" x="305.279314" xlink:href="#mb279a7ff4b" y="143.23614"/>
     <use style="fill-opacity:0;stroke:#58ac52;stroke-linejoin:miter;" x="427.530795" xlink:href="#mb279a7ff4b" y="182.796938"/>
    </g>
   </g>
   <g id="line2d_62">
    <defs>
     <path d="M 3 0 
L -3 -0 
" id="m1284e1cf9f" style="stroke:#58ac52;"/>
    </defs>
    <g clip-path="url(#p38e34421d8)">
     <use style="fill:#58ac52;stroke:#58ac52;" x="58.721705" xlink:href="#m1284e1cf9f" y="127.177353"/>
     <use style="fill:#58ac52;stroke:#58ac52;" x="75.158879" xlink:href="#m1284e1cf9f" y="141.618143"/>
     <use style="fill:#58ac52;stroke:#58ac52;" x="108.033226" xlink:href="#m1284e1cf9f" y="135.314688"/>
     <use style="fill:#58ac52;stroke:#58ac52;" x="173.781922" xlink:href="#m1284e1cf9f" y="123.193235"/>
     <use style="fill:#58ac52;stroke:#58ac52;" x="305.279314" xlink:href="#m1284e1cf9f" y="143.532049"/>
     <use style="fill:#58ac52;stroke:#58ac52;" x="427.530795" xlink:href="#m1284e1cf9f" y="182.921128"/>
    </g>
   </g>
   <g id="line2d_63">
    <g clip-path="url(#p38e34421d8)">
     <use style="fill:#58ac52;stroke:#58ac52;" x="58.721705" xlink:href="#m1284e1cf9f" y="127.084473"/>
     <use style="fill:#58ac52;stroke:#58ac52;" x="75.158879" xlink:href="#m1284e1cf9f" y="140.851599"/>
     <use style="fill:#58ac52;stroke:#58ac52;" x="108.033226" xlink:href="#m1284e1cf9f" y="135.201314"/>
     <use style="fill:#58ac52;stroke:#58ac52;" x="173.781922" xlink:href="#m1284e1cf9f" y="122.753444"/>
     <use style="fill:#58ac52;stroke:#58ac52;" x="305.279314" xlink:href="#m1284e1cf9f" y="142.940231"/>
     <use style="fill:#58ac52;stroke:#58ac52;" x="427.530795" xlink:href="#m1284e1cf9f" y="182.672748"/>
    </g>
   </g>
   <g id="line2d_64"/>
   <g id="line2d_65"/>
   <g id="line2d_66"/>
   <g id="line2d_67"/>
   <g id="patch_3">
    <path d="M 40.28125 303.218437 
L 40.28125 17.798437 
" style="fill:none;stroke:#000000;stroke-linecap:square;stroke-linejoin:miter;stroke-width:0.8;"/>
   </g>
   <g id="patch_4">
    <path d="M 445.97125 303.218437 
L 445.97125 17.798437 
" style="fill:none;stroke:#000000;stroke-linecap:square;stroke-linejoin:miter;stroke-width:0.8;"/>
   </g>
   <g id="patch_5">
    <path d="M 40.28125 303.218437 
L 445.97125 303.218437 
" style="fill:none;stroke:#000000;stroke-linecap:square;stroke-linejoin:miter;stroke-width:0.8;"/>
   </g>
   <g id="patch_6">
    <path d="M 40.28125 17.798437 
L 445.97125 17.798437 
" style="fill:none;stroke:#000000;stroke-linecap:square;stroke-linejoin:miter;stroke-width:0.8;"/>
   </g>
   <g id="legend_1">
    <g id="patch_7">
     <path d="M 332.911875 84.510937 
L 440.97125 84.510937 
L 440.97125 22.798437 
L 332.911875 22.798437 
z
" style="fill:#ffffff;stroke:#000000;stroke-linejoin:miter;"/>
    </g>
    <g id="line2d_68">
     <path d="M 336.911875 30.896875 
L 356.911875 30.896875 
" style="fill:none;stroke:#4b7496;stroke-linecap:square;stroke-width:1.5;"/>
    </g>
    <g id="line2d_69">
     <g>
      <use style="fill-opacity:0;stroke:#4b7496;" x="346.911875" xlink:href="#m7a5aea7200" y="30.896875"/>
     </g>
    </g>
    <g id="text_21">
     <!-- FastClick -->
     <defs>
      <path d="M 9.8125 72.90625 
L 51.703125 72.90625 
L 51.703125 64.59375 
L 19.671875 64.59375 
L 19.671875 43.109375 
L 48.578125 43.109375 
L 48.578125 34.8125 
L 19.671875 34.8125 
L 19.671875 0 
L 9.8125 0 
z
" id="DejaVuSans-70"/>
      <path d="M 64.40625 67.28125 
L 64.40625 56.890625 
Q 59.421875 61.53125 53.78125 63.8125 
Q 48.140625 66.109375 41.796875 66.109375 
Q 29.296875 66.109375 22.65625 58.46875 
Q 16.015625 50.828125 16.015625 36.375 
Q 16.015625 21.96875 22.65625 14.328125 
Q 29.296875 6.6875 41.796875 6.6875 
Q 48.140625 6.6875 53.78125 8.984375 
Q 59.421875 11.28125 64.40625 15.921875 
L 64.40625 5.609375 
Q 59.234375 2.09375 53.4375 0.328125 
Q 47.65625 -1.421875 41.21875 -1.421875 
Q 24.65625 -1.421875 15.125 8.703125 
Q 5.609375 18.84375 5.609375 36.375 
Q 5.609375 53.953125 15.125 64.078125 
Q 24.65625 74.21875 41.21875 74.21875 
Q 47.75 74.21875 53.53125 72.484375 
Q 59.328125 70.75 64.40625 67.28125 
z
" id="DejaVuSans-67"/>
      <path d="M 9.421875 54.6875 
L 18.40625 54.6875 
L 18.40625 0 
L 9.421875 0 
z
M 9.421875 75.984375 
L 18.40625 75.984375 
L 18.40625 64.59375 
L 9.421875 64.59375 
z
" id="DejaVuSans-105"/>
     </defs>
     <g transform="translate(364.911875 34.396875)scale(0.1 -0.1)">
      <use xlink:href="#DejaVuSans-70"/>
      <use x="48.394531" xlink:href="#DejaVuSans-97"/>
      <use x="109.673828" xlink:href="#DejaVuSans-115"/>
      <use x="161.773438" xlink:href="#DejaVuSans-116"/>
      <use x="200.982422" xlink:href="#DejaVuSans-67"/>
      <use x="270.806641" xlink:href="#DejaVuSans-108"/>
      <use x="298.589844" xlink:href="#DejaVuSans-105"/>
      <use x="326.373047" xlink:href="#DejaVuSans-99"/>
      <use x="381.353516" xlink:href="#DejaVuSans-107"/>
     </g>
    </g>
    <g id="line2d_70">
     <path d="M 336.911875 45.575 
L 356.911875 45.575 
" style="fill:none;stroke:#90b9db;stroke-dasharray:5.55,2.4;stroke-dashoffset:0;stroke-width:1.5;"/>
    </g>
    <g id="line2d_71">
     <g>
      <use style="fill-opacity:0;stroke:#90b9db;stroke-linejoin:miter;" x="346.911875" xlink:href="#m5edd8123ca" y="45.575"/>
     </g>
    </g>
    <g id="text_22">
     <!-- FastClick Light -->
     <defs>
      <path d="M 9.8125 72.90625 
L 19.671875 72.90625 
L 19.671875 8.296875 
L 55.171875 8.296875 
L 55.171875 0 
L 9.8125 0 
z
" id="DejaVuSans-76"/>
     </defs>
     <g transform="translate(364.911875 49.075)scale(0.1 -0.1)">
      <use xlink:href="#DejaVuSans-70"/>
      <use x="48.394531" xlink:href="#DejaVuSans-97"/>
      <use x="109.673828" xlink:href="#DejaVuSans-115"/>
      <use x="161.773438" xlink:href="#DejaVuSans-116"/>
      <use x="200.982422" xlink:href="#DejaVuSans-67"/>
      <use x="270.806641" xlink:href="#DejaVuSans-108"/>
      <use x="298.589844" xlink:href="#DejaVuSans-105"/>
      <use x="326.373047" xlink:href="#DejaVuSans-99"/>
      <use x="381.353516" xlink:href="#DejaVuSans-107"/>
      <use x="439.263672" xlink:href="#DejaVuSans-32"/>
      <use x="471.050781" xlink:href="#DejaVuSans-76"/>
      <use x="526.763672" xlink:href="#DejaVuSans-105"/>
      <use x="554.546875" xlink:href="#DejaVuSans-103"/>
      <use x="618.023438" xlink:href="#DejaVuSans-104"/>
      <use x="681.402344" xlink:href="#DejaVuSans-116"/>
     </g>
    </g>
    <g id="line2d_72">
     <path d="M 336.911875 60.253125 
L 356.911875 60.253125 
" style="fill:none;stroke:#e68d3c;stroke-dasharray:9.6,2.4,1.5,2.4;stroke-dashoffset:0;stroke-width:1.5;"/>
    </g>
    <g id="line2d_73">
     <g>
      <use style="fill-opacity:0;stroke:#e68d3c;stroke-linejoin:miter;" x="346.911875" xlink:href="#m1f99fbf8a0" y="60.253125"/>
     </g>
    </g>
    <g id="text_23">
     <!-- BESS -->
     <defs>
      <path d="M 9.8125 72.90625 
L 55.90625 72.90625 
L 55.90625 64.59375 
L 19.671875 64.59375 
L 19.671875 43.015625 
L 54.390625 43.015625 
L 54.390625 34.71875 
L 19.671875 34.71875 
L 19.671875 8.296875 
L 56.78125 8.296875 
L 56.78125 0 
L 9.8125 0 
z
" id="DejaVuSans-69"/>
      <path d="M 53.515625 70.515625 
L 53.515625 60.890625 
Q 47.90625 63.578125 42.921875 64.890625 
Q 37.9375 66.21875 33.296875 66.21875 
Q 25.25 66.21875 20.875 63.09375 
Q 16.5 59.96875 16.5 54.203125 
Q 16.5 49.359375 19.40625 46.890625 
Q 22.3125 44.4375 30.421875 42.921875 
L 36.375 41.703125 
Q 47.40625 39.59375 52.65625 34.296875 
Q 57.90625 29 57.90625 20.125 
Q 57.90625 9.515625 50.796875 4.046875 
Q 43.703125 -1.421875 29.984375 -1.421875 
Q 24.8125 -1.421875 18.96875 -0.25 
Q 13.140625 0.921875 6.890625 3.21875 
L 6.890625 13.375 
Q 12.890625 10.015625 18.65625 8.296875 
Q 24.421875 6.59375 29.984375 6.59375 
Q 38.421875 6.59375 43.015625 9.90625 
Q 47.609375 13.234375 47.609375 19.390625 
Q 47.609375 24.75 44.3125 27.78125 
Q 41.015625 30.8125 33.5 32.328125 
L 27.484375 33.5 
Q 16.453125 35.6875 11.515625 40.375 
Q 6.59375 45.0625 6.59375 53.421875 
Q 6.59375 63.09375 13.40625 68.65625 
Q 20.21875 74.21875 32.171875 74.21875 
Q 37.3125 74.21875 42.625 73.28125 
Q 47.953125 72.359375 53.515625 70.515625 
z
" id="DejaVuSans-83"/>
     </defs>
     <g transform="translate(364.911875 63.753125)scale(0.1 -0.1)">
      <use xlink:href="#DejaVuSans-66"/>
      <use x="68.603516" xlink:href="#DejaVuSans-69"/>
      <use x="131.787109" xlink:href="#DejaVuSans-83"/>
      <use x="195.263672" xlink:href="#DejaVuSans-83"/>
     </g>
    </g>
    <g id="line2d_74">
     <path d="M 336.911875 74.93125 
L 356.911875 74.93125 
" style="fill:none;stroke:#58ac52;stroke-dasharray:1.5,2.475;stroke-dashoffset:0;stroke-width:1.5;"/>
    </g>
    <g id="line2d_75">
     <g>
      <use style="fill-opacity:0;stroke:#58ac52;stroke-linejoin:miter;" x="346.911875" xlink:href="#mb279a7ff4b" y="74.93125"/>
     </g>
    </g>
    <g id="text_24">
     <!-- VPP -->
     <defs>
      <path d="M 28.609375 0 
L 0.78125 72.90625 
L 11.078125 72.90625 
L 34.1875 11.53125 
L 57.328125 72.90625 
L 67.578125 72.90625 
L 39.796875 0 
z
" id="DejaVuSans-86"/>
     </defs>
     <g transform="translate(364.911875 78.43125)scale(0.1 -0.1)">
      <use xlink:href="#DejaVuSans-86"/>
      <use x="68.408203" xlink:href="#DejaVuSans-80"/>
      <use x="128.710938" xlink:href="#DejaVuSans-80"/>
     </g>
    </g>
   </g>
  </g>
 </g>
 <defs>
  <clipPath id="p38e34421d8">
   <rect height="285.42" width="405.69" x="40.28125" y="17.798437"/>
  </clipPath>
 </defs>
</svg>
