<?xml version="1.0" encoding="utf-8" standalone="no"?>
<!DOCTYPE svg PUBLIC "-//W3C//DTD SVG 1.1//EN"
  "http://www.w3.org/Graphics/SVG/1.1/DTD/svg11.dtd">
<!-- Created with matplotlib (https://matplotlib.org/) -->
<svg height="337.59625pt" version="1.1" viewBox="0 0 453.571562 337.59625" width="453.571562pt" xmlns="http://www.w3.org/2000/svg" xmlns:xlink="http://www.w3.org/1999/xlink">
 <defs>
  <style type="text/css">
*{stroke-linecap:butt;stroke-linejoin:round;}
  </style>
 </defs>
 <g id="figure_1">
  <g id="patch_1">
   <path d="M 0 337.59625 
L 453.571562 337.59625 
L 453.571562 0 
L 0 0 
z
" style="fill:none;"/>
  </g>
  <g id="axes_1">
   <g id="patch_2">
    <path d="M 93.601563 303.54 
L 446.371562 303.54 
L 446.371562 7.2 
L 93.601563 7.2 
z
" style="fill:none;"/>
   </g>
   <g id="matplotlib.axis_1">
    <g id="xtick_1">
     <g id="line2d_1">
      <path clip-path="url(#p324c912b57)" d="M 95.343526 303.54 
L 95.343526 7.2 
" style="fill:none;stroke:#b2b2b2;stroke-dasharray:0.8,1.32;stroke-dashoffset:0;stroke-width:0.8;"/>
     </g>
     <g id="line2d_2">
      <defs>
       <path d="M 0 0 
L 0 -3.5 
" id="m5b3180926b" style="stroke:#000000;stroke-width:0.8;"/>
      </defs>
      <g>
       <use style="stroke:#000000;stroke-width:0.8;" x="95.343526" xlink:href="#m5b3180926b" y="303.54"/>
      </g>
     </g>
     <g id="line2d_3">
      <defs>
       <path d="M 0 0 
L 0 3.5 
" id="me69dddb48a" style="stroke:#000000;stroke-width:0.8;"/>
      </defs>
      <g>
       <use style="stroke:#000000;stroke-width:0.8;" x="95.343526" xlink:href="#me69dddb48a" y="7.2"/>
      </g>
     </g>
     <g id="text_1">
      <!-- 0 -->
      <defs>
       <path d="M 31.78125 66.40625 
Q 24.171875 66.40625 20.328125 58.90625 
Q 16.5 51.421875 16.5 36.375 
Q 16.5 21.390625 20.328125 13.890625 
Q 24.171875 6.390625 31.78125 6.390625 
Q 39.453125 6.390625 43.28125 13.890625 
Q 47.125 21.390625 47.125 36.375 
Q 47.125 51.421875 43.28125 58.90625 
Q 39.453125 66.40625 31.78125 66.40625 
z
M 31.78125 74.21875 
Q 44.046875 74.21875 50.515625 64.515625 
Q 56.984375 54.828125 56.984375 36.375 
Q 56.984375 17.96875 50.515625 8.265625 
Q 44.046875 -1.421875 31.78125 -1.421875 
Q 19.53125 -1.421875 13.0625 8.265625 
Q 6.59375 17.96875 6.59375 36.375 
Q 6.59375 54.828125 13.0625 64.515625 
Q 19.53125 74.21875 31.78125 74.21875 
z
" id="DejaVuSans-48"/>
      </defs>
      <g transform="translate(92.162276 314.638437)scale(0.1 -0.1)">
       <use xlink:href="#DejaVuSans-48"/>
      </g>
     </g>
    </g>
    <g id="xtick_2">
     <g id="line2d_4">
      <path clip-path="url(#p324c912b57)" d="M 140.009264 303.54 
L 140.009264 7.2 
" style="fill:none;stroke:#b2b2b2;stroke-dasharray:0.8,1.32;stroke-dashoffset:0;stroke-width:0.8;"/>
     </g>
     <g id="line2d_5">
      <g>
       <use style="stroke:#000000;stroke-width:0.8;" x="140.009264" xlink:href="#m5b3180926b" y="303.54"/>
      </g>
     </g>
     <g id="line2d_6">
      <g>
       <use style="stroke:#000000;stroke-width:0.8;" x="140.009264" xlink:href="#me69dddb48a" y="7.2"/>
      </g>
     </g>
     <g id="text_2">
      <!-- 200 -->
      <defs>
       <path d="M 19.1875 8.296875 
L 53.609375 8.296875 
L 53.609375 0 
L 7.328125 0 
L 7.328125 8.296875 
Q 12.9375 14.109375 22.625 23.890625 
Q 32.328125 33.6875 34.8125 36.53125 
Q 39.546875 41.84375 41.421875 45.53125 
Q 43.3125 49.21875 43.3125 52.78125 
Q 43.3125 58.59375 39.234375 62.25 
Q 35.15625 65.921875 28.609375 65.921875 
Q 23.96875 65.921875 18.8125 64.3125 
Q 13.671875 62.703125 7.8125 59.421875 
L 7.8125 69.390625 
Q 13.765625 71.78125 18.9375 73 
Q 24.125 74.21875 28.421875 74.21875 
Q 39.75 74.21875 46.484375 68.546875 
Q 53.21875 62.890625 53.21875 53.421875 
Q 53.21875 48.921875 51.53125 44.890625 
Q 49.859375 40.875 45.40625 35.40625 
Q 44.1875 33.984375 37.640625 27.21875 
Q 31.109375 20.453125 19.1875 8.296875 
z
" id="DejaVuSans-50"/>
      </defs>
      <g transform="translate(130.465514 314.638437)scale(0.1 -0.1)">
       <use xlink:href="#DejaVuSans-50"/>
       <use x="63.623047" xlink:href="#DejaVuSans-48"/>
       <use x="127.246094" xlink:href="#DejaVuSans-48"/>
      </g>
     </g>
    </g>
    <g id="xtick_3">
     <g id="line2d_7">
      <path clip-path="url(#p324c912b57)" d="M 184.675003 303.54 
L 184.675003 7.2 
" style="fill:none;stroke:#b2b2b2;stroke-dasharray:0.8,1.32;stroke-dashoffset:0;stroke-width:0.8;"/>
     </g>
     <g id="line2d_8">
      <g>
       <use style="stroke:#000000;stroke-width:0.8;" x="184.675003" xlink:href="#m5b3180926b" y="303.54"/>
      </g>
     </g>
     <g id="line2d_9">
      <g>
       <use style="stroke:#000000;stroke-width:0.8;" x="184.675003" xlink:href="#me69dddb48a" y="7.2"/>
      </g>
     </g>
     <g id="text_3">
      <!-- 400 -->
      <defs>
       <path d="M 37.796875 64.3125 
L 12.890625 25.390625 
L 37.796875 25.390625 
z
M 35.203125 72.90625 
L 47.609375 72.90625 
L 47.609375 25.390625 
L 58.015625 25.390625 
L 58.015625 17.1875 
L 47.609375 17.1875 
L 47.609375 0 
L 37.796875 0 
L 37.796875 17.1875 
L 4.890625 17.1875 
L 4.890625 26.703125 
z
" id="DejaVuSans-52"/>
      </defs>
      <g transform="translate(175.131253 314.638437)scale(0.1 -0.1)">
       <use xlink:href="#DejaVuSans-52"/>
       <use x="63.623047" xlink:href="#DejaVuSans-48"/>
       <use x="127.246094" xlink:href="#DejaVuSans-48"/>
      </g>
     </g>
    </g>
    <g id="xtick_4">
     <g id="line2d_10">
      <path clip-path="url(#p324c912b57)" d="M 229.340741 303.54 
L 229.340741 7.2 
" style="fill:none;stroke:#b2b2b2;stroke-dasharray:0.8,1.32;stroke-dashoffset:0;stroke-width:0.8;"/>
     </g>
     <g id="line2d_11">
      <g>
       <use style="stroke:#000000;stroke-width:0.8;" x="229.340741" xlink:href="#m5b3180926b" y="303.54"/>
      </g>
     </g>
     <g id="line2d_12">
      <g>
       <use style="stroke:#000000;stroke-width:0.8;" x="229.340741" xlink:href="#me69dddb48a" y="7.2"/>
      </g>
     </g>
     <g id="text_4">
      <!-- 600 -->
      <defs>
       <path d="M 33.015625 40.375 
Q 26.375 40.375 22.484375 35.828125 
Q 18.609375 31.296875 18.609375 23.390625 
Q 18.609375 15.53125 22.484375 10.953125 
Q 26.375 6.390625 33.015625 6.390625 
Q 39.65625 6.390625 43.53125 10.953125 
Q 47.40625 15.53125 47.40625 23.390625 
Q 47.40625 31.296875 43.53125 35.828125 
Q 39.65625 40.375 33.015625 40.375 
z
M 52.59375 71.296875 
L 52.59375 62.3125 
Q 48.875 64.0625 45.09375 64.984375 
Q 41.3125 65.921875 37.59375 65.921875 
Q 27.828125 65.921875 22.671875 59.328125 
Q 17.53125 52.734375 16.796875 39.40625 
Q 19.671875 43.65625 24.015625 45.921875 
Q 28.375 48.1875 33.59375 48.1875 
Q 44.578125 48.1875 50.953125 41.515625 
Q 57.328125 34.859375 57.328125 23.390625 
Q 57.328125 12.15625 50.6875 5.359375 
Q 44.046875 -1.421875 33.015625 -1.421875 
Q 20.359375 -1.421875 13.671875 8.265625 
Q 6.984375 17.96875 6.984375 36.375 
Q 6.984375 53.65625 15.1875 63.9375 
Q 23.390625 74.21875 37.203125 74.21875 
Q 40.921875 74.21875 44.703125 73.484375 
Q 48.484375 72.75 52.59375 71.296875 
z
" id="DejaVuSans-54"/>
      </defs>
      <g transform="translate(219.796991 314.638437)scale(0.1 -0.1)">
       <use xlink:href="#DejaVuSans-54"/>
       <use x="63.623047" xlink:href="#DejaVuSans-48"/>
       <use x="127.246094" xlink:href="#DejaVuSans-48"/>
      </g>
     </g>
    </g>
    <g id="xtick_5">
     <g id="line2d_13">
      <path clip-path="url(#p324c912b57)" d="M 274.006479 303.54 
L 274.006479 7.2 
" style="fill:none;stroke:#b2b2b2;stroke-dasharray:0.8,1.32;stroke-dashoffset:0;stroke-width:0.8;"/>
     </g>
     <g id="line2d_14">
      <g>
       <use style="stroke:#000000;stroke-width:0.8;" x="274.006479" xlink:href="#m5b3180926b" y="303.54"/>
      </g>
     </g>
     <g id="line2d_15">
      <g>
       <use style="stroke:#000000;stroke-width:0.8;" x="274.006479" xlink:href="#me69dddb48a" y="7.2"/>
      </g>
     </g>
     <g id="text_5">
      <!-- 800 -->
      <defs>
       <path d="M 31.78125 34.625 
Q 24.75 34.625 20.71875 30.859375 
Q 16.703125 27.09375 16.703125 20.515625 
Q 16.703125 13.921875 20.71875 10.15625 
Q 24.75 6.390625 31.78125 6.390625 
Q 38.8125 6.390625 42.859375 10.171875 
Q 46.921875 13.96875 46.921875 20.515625 
Q 46.921875 27.09375 42.890625 30.859375 
Q 38.875 34.625 31.78125 34.625 
z
M 21.921875 38.8125 
Q 15.578125 40.375 12.03125 44.71875 
Q 8.5 49.078125 8.5 55.328125 
Q 8.5 64.0625 14.71875 69.140625 
Q 20.953125 74.21875 31.78125 74.21875 
Q 42.671875 74.21875 48.875 69.140625 
Q 55.078125 64.0625 55.078125 55.328125 
Q 55.078125 49.078125 51.53125 44.71875 
Q 48 40.375 41.703125 38.8125 
Q 48.828125 37.15625 52.796875 32.3125 
Q 56.78125 27.484375 56.78125 20.515625 
Q 56.78125 9.90625 50.3125 4.234375 
Q 43.84375 -1.421875 31.78125 -1.421875 
Q 19.734375 -1.421875 13.25 4.234375 
Q 6.78125 9.90625 6.78125 20.515625 
Q 6.78125 27.484375 10.78125 32.3125 
Q 14.796875 37.15625 21.921875 38.8125 
z
M 18.3125 54.390625 
Q 18.3125 48.734375 21.84375 45.5625 
Q 25.390625 42.390625 31.78125 42.390625 
Q 38.140625 42.390625 41.71875 45.5625 
Q 45.3125 48.734375 45.3125 54.390625 
Q 45.3125 60.0625 41.71875 63.234375 
Q 38.140625 66.40625 31.78125 66.40625 
Q 25.390625 66.40625 21.84375 63.234375 
Q 18.3125 60.0625 18.3125 54.390625 
z
" id="DejaVuSans-56"/>
      </defs>
      <g transform="translate(264.462729 314.638437)scale(0.1 -0.1)">
       <use xlink:href="#DejaVuSans-56"/>
       <use x="63.623047" xlink:href="#DejaVuSans-48"/>
       <use x="127.246094" xlink:href="#DejaVuSans-48"/>
      </g>
     </g>
    </g>
    <g id="xtick_6">
     <g id="line2d_16">
      <path clip-path="url(#p324c912b57)" d="M 318.672217 303.54 
L 318.672217 7.2 
" style="fill:none;stroke:#b2b2b2;stroke-dasharray:0.8,1.32;stroke-dashoffset:0;stroke-width:0.8;"/>
     </g>
     <g id="line2d_17">
      <g>
       <use style="stroke:#000000;stroke-width:0.8;" x="318.672217" xlink:href="#m5b3180926b" y="303.54"/>
      </g>
     </g>
     <g id="line2d_18">
      <g>
       <use style="stroke:#000000;stroke-width:0.8;" x="318.672217" xlink:href="#me69dddb48a" y="7.2"/>
      </g>
     </g>
     <g id="text_6">
      <!-- 1000 -->
      <defs>
       <path d="M 12.40625 8.296875 
L 28.515625 8.296875 
L 28.515625 63.921875 
L 10.984375 60.40625 
L 10.984375 69.390625 
L 28.421875 72.90625 
L 38.28125 72.90625 
L 38.28125 8.296875 
L 54.390625 8.296875 
L 54.390625 0 
L 12.40625 0 
z
" id="DejaVuSans-49"/>
      </defs>
      <g transform="translate(305.947217 314.638437)scale(0.1 -0.1)">
       <use xlink:href="#DejaVuSans-49"/>
       <use x="63.623047" xlink:href="#DejaVuSans-48"/>
       <use x="127.246094" xlink:href="#DejaVuSans-48"/>
       <use x="190.869141" xlink:href="#DejaVuSans-48"/>
      </g>
     </g>
    </g>
    <g id="xtick_7">
     <g id="line2d_19">
      <path clip-path="url(#p324c912b57)" d="M 363.337955 303.54 
L 363.337955 7.2 
" style="fill:none;stroke:#b2b2b2;stroke-dasharray:0.8,1.32;stroke-dashoffset:0;stroke-width:0.8;"/>
     </g>
     <g id="line2d_20">
      <g>
       <use style="stroke:#000000;stroke-width:0.8;" x="363.337955" xlink:href="#m5b3180926b" y="303.54"/>
      </g>
     </g>
     <g id="line2d_21">
      <g>
       <use style="stroke:#000000;stroke-width:0.8;" x="363.337955" xlink:href="#me69dddb48a" y="7.2"/>
      </g>
     </g>
     <g id="text_7">
      <!-- 1200 -->
      <g transform="translate(350.612955 314.638437)scale(0.1 -0.1)">
       <use xlink:href="#DejaVuSans-49"/>
       <use x="63.623047" xlink:href="#DejaVuSans-50"/>
       <use x="127.246094" xlink:href="#DejaVuSans-48"/>
       <use x="190.869141" xlink:href="#DejaVuSans-48"/>
      </g>
     </g>
    </g>
    <g id="xtick_8">
     <g id="line2d_22">
      <path clip-path="url(#p324c912b57)" d="M 408.003693 303.54 
L 408.003693 7.2 
" style="fill:none;stroke:#b2b2b2;stroke-dasharray:0.8,1.32;stroke-dashoffset:0;stroke-width:0.8;"/>
     </g>
     <g id="line2d_23">
      <g>
       <use style="stroke:#000000;stroke-width:0.8;" x="408.003693" xlink:href="#m5b3180926b" y="303.54"/>
      </g>
     </g>
     <g id="line2d_24">
      <g>
       <use style="stroke:#000000;stroke-width:0.8;" x="408.003693" xlink:href="#me69dddb48a" y="7.2"/>
      </g>
     </g>
     <g id="text_8">
      <!-- 1400 -->
      <g transform="translate(395.278693 314.638437)scale(0.1 -0.1)">
       <use xlink:href="#DejaVuSans-49"/>
       <use x="63.623047" xlink:href="#DejaVuSans-52"/>
       <use x="127.246094" xlink:href="#DejaVuSans-48"/>
       <use x="190.869141" xlink:href="#DejaVuSans-48"/>
      </g>
     </g>
    </g>
    <g id="text_9">
     <!-- Packet length (Bytes) -->
     <defs>
      <path d="M 19.671875 64.796875 
L 19.671875 37.40625 
L 32.078125 37.40625 
Q 38.96875 37.40625 42.71875 40.96875 
Q 46.484375 44.53125 46.484375 51.125 
Q 46.484375 57.671875 42.71875 61.234375 
Q 38.96875 64.796875 32.078125 64.796875 
z
M 9.8125 72.90625 
L 32.078125 72.90625 
Q 44.34375 72.90625 50.609375 67.359375 
Q 56.890625 61.8125 56.890625 51.125 
Q 56.890625 40.328125 50.609375 34.8125 
Q 44.34375 29.296875 32.078125 29.296875 
L 19.671875 29.296875 
L 19.671875 0 
L 9.8125 0 
z
" id="DejaVuSans-80"/>
      <path d="M 34.28125 27.484375 
Q 23.390625 27.484375 19.1875 25 
Q 14.984375 22.515625 14.984375 16.5 
Q 14.984375 11.71875 18.140625 8.90625 
Q 21.296875 6.109375 26.703125 6.109375 
Q 34.1875 6.109375 38.703125 11.40625 
Q 43.21875 16.703125 43.21875 25.484375 
L 43.21875 27.484375 
z
M 52.203125 31.203125 
L 52.203125 0 
L 43.21875 0 
L 43.21875 8.296875 
Q 40.140625 3.328125 35.546875 0.953125 
Q 30.953125 -1.421875 24.3125 -1.421875 
Q 15.921875 -1.421875 10.953125 3.296875 
Q 6 8.015625 6 15.921875 
Q 6 25.140625 12.171875 29.828125 
Q 18.359375 34.515625 30.609375 34.515625 
L 43.21875 34.515625 
L 43.21875 35.40625 
Q 43.21875 41.609375 39.140625 45 
Q 35.0625 48.390625 27.6875 48.390625 
Q 23 48.390625 18.546875 47.265625 
Q 14.109375 46.140625 10.015625 43.890625 
L 10.015625 52.203125 
Q 14.9375 54.109375 19.578125 55.046875 
Q 24.21875 56 28.609375 56 
Q 40.484375 56 46.34375 49.84375 
Q 52.203125 43.703125 52.203125 31.203125 
z
" id="DejaVuSans-97"/>
      <path d="M 48.78125 52.59375 
L 48.78125 44.1875 
Q 44.96875 46.296875 41.140625 47.34375 
Q 37.3125 48.390625 33.40625 48.390625 
Q 24.65625 48.390625 19.8125 42.84375 
Q 14.984375 37.3125 14.984375 27.296875 
Q 14.984375 17.28125 19.8125 11.734375 
Q 24.65625 6.203125 33.40625 6.203125 
Q 37.3125 6.203125 41.140625 7.25 
Q 44.96875 8.296875 48.78125 10.40625 
L 48.78125 2.09375 
Q 45.015625 0.34375 40.984375 -0.53125 
Q 36.96875 -1.421875 32.421875 -1.421875 
Q 20.0625 -1.421875 12.78125 6.34375 
Q 5.515625 14.109375 5.515625 27.296875 
Q 5.515625 40.671875 12.859375 48.328125 
Q 20.21875 56 33.015625 56 
Q 37.15625 56 41.109375 55.140625 
Q 45.0625 54.296875 48.78125 52.59375 
z
" id="DejaVuSans-99"/>
      <path d="M 9.078125 75.984375 
L 18.109375 75.984375 
L 18.109375 31.109375 
L 44.921875 54.6875 
L 56.390625 54.6875 
L 27.390625 29.109375 
L 57.625 0 
L 45.90625 0 
L 18.109375 26.703125 
L 18.109375 0 
L 9.078125 0 
z
" id="DejaVuSans-107"/>
      <path d="M 56.203125 29.59375 
L 56.203125 25.203125 
L 14.890625 25.203125 
Q 15.484375 15.921875 20.484375 11.0625 
Q 25.484375 6.203125 34.421875 6.203125 
Q 39.59375 6.203125 44.453125 7.46875 
Q 49.3125 8.734375 54.109375 11.28125 
L 54.109375 2.78125 
Q 49.265625 0.734375 44.1875 -0.34375 
Q 39.109375 -1.421875 33.890625 -1.421875 
Q 20.796875 -1.421875 13.15625 6.1875 
Q 5.515625 13.8125 5.515625 26.8125 
Q 5.515625 40.234375 12.765625 48.109375 
Q 20.015625 56 32.328125 56 
Q 43.359375 56 49.78125 48.890625 
Q 56.203125 41.796875 56.203125 29.59375 
z
M 47.21875 32.234375 
Q 47.125 39.59375 43.09375 43.984375 
Q 39.0625 48.390625 32.421875 48.390625 
Q 24.90625 48.390625 20.390625 44.140625 
Q 15.875 39.890625 15.1875 32.171875 
z
" id="DejaVuSans-101"/>
      <path d="M 18.3125 70.21875 
L 18.3125 54.6875 
L 36.8125 54.6875 
L 36.8125 47.703125 
L 18.3125 47.703125 
L 18.3125 18.015625 
Q 18.3125 11.328125 20.140625 9.421875 
Q 21.96875 7.515625 27.59375 7.515625 
L 36.8125 7.515625 
L 36.8125 0 
L 27.59375 0 
Q 17.1875 0 13.234375 3.875 
Q 9.28125 7.765625 9.28125 18.015625 
L 9.28125 47.703125 
L 2.6875 47.703125 
L 2.6875 54.6875 
L 9.28125 54.6875 
L 9.28125 70.21875 
z
" id="DejaVuSans-116"/>
      <path id="DejaVuSans-32"/>
      <path d="M 9.421875 75.984375 
L 18.40625 75.984375 
L 18.40625 0 
L 9.421875 0 
z
" id="DejaVuSans-108"/>
      <path d="M 54.890625 33.015625 
L 54.890625 0 
L 45.90625 0 
L 45.90625 32.71875 
Q 45.90625 40.484375 42.875 44.328125 
Q 39.84375 48.1875 33.796875 48.1875 
Q 26.515625 48.1875 22.3125 43.546875 
Q 18.109375 38.921875 18.109375 30.90625 
L 18.109375 0 
L 9.078125 0 
L 9.078125 54.6875 
L 18.109375 54.6875 
L 18.109375 46.1875 
Q 21.34375 51.125 25.703125 53.5625 
Q 30.078125 56 35.796875 56 
Q 45.21875 56 50.046875 50.171875 
Q 54.890625 44.34375 54.890625 33.015625 
z
" id="DejaVuSans-110"/>
      <path d="M 45.40625 27.984375 
Q 45.40625 37.75 41.375 43.109375 
Q 37.359375 48.484375 30.078125 48.484375 
Q 22.859375 48.484375 18.828125 43.109375 
Q 14.796875 37.75 14.796875 27.984375 
Q 14.796875 18.265625 18.828125 12.890625 
Q 22.859375 7.515625 30.078125 7.515625 
Q 37.359375 7.515625 41.375 12.890625 
Q 45.40625 18.265625 45.40625 27.984375 
z
M 54.390625 6.78125 
Q 54.390625 -7.171875 48.1875 -13.984375 
Q 42 -20.796875 29.203125 -20.796875 
Q 24.46875 -20.796875 20.265625 -20.09375 
Q 16.0625 -19.390625 12.109375 -17.921875 
L 12.109375 -9.1875 
Q 16.0625 -11.328125 19.921875 -12.34375 
Q 23.78125 -13.375 27.78125 -13.375 
Q 36.625 -13.375 41.015625 -8.765625 
Q 45.40625 -4.15625 45.40625 5.171875 
L 45.40625 9.625 
Q 42.625 4.78125 38.28125 2.390625 
Q 33.9375 0 27.875 0 
Q 17.828125 0 11.671875 7.65625 
Q 5.515625 15.328125 5.515625 27.984375 
Q 5.515625 40.671875 11.671875 48.328125 
Q 17.828125 56 27.875 56 
Q 33.9375 56 38.28125 53.609375 
Q 42.625 51.21875 45.40625 46.390625 
L 45.40625 54.6875 
L 54.390625 54.6875 
z
" id="DejaVuSans-103"/>
      <path d="M 54.890625 33.015625 
L 54.890625 0 
L 45.90625 0 
L 45.90625 32.71875 
Q 45.90625 40.484375 42.875 44.328125 
Q 39.84375 48.1875 33.796875 48.1875 
Q 26.515625 48.1875 22.3125 43.546875 
Q 18.109375 38.921875 18.109375 30.90625 
L 18.109375 0 
L 9.078125 0 
L 9.078125 75.984375 
L 18.109375 75.984375 
L 18.109375 46.1875 
Q 21.34375 51.125 25.703125 53.5625 
Q 30.078125 56 35.796875 56 
Q 45.21875 56 50.046875 50.171875 
Q 54.890625 44.34375 54.890625 33.015625 
z
" id="DejaVuSans-104"/>
      <path d="M 31 75.875 
Q 24.46875 64.65625 21.28125 53.65625 
Q 18.109375 42.671875 18.109375 31.390625 
Q 18.109375 20.125 21.3125 9.0625 
Q 24.515625 -2 31 -13.1875 
L 23.1875 -13.1875 
Q 15.875 -1.703125 12.234375 9.375 
Q 8.59375 20.453125 8.59375 31.390625 
Q 8.59375 42.28125 12.203125 53.3125 
Q 15.828125 64.359375 23.1875 75.875 
z
" id="DejaVuSans-40"/>
      <path d="M 19.671875 34.8125 
L 19.671875 8.109375 
L 35.5 8.109375 
Q 43.453125 8.109375 47.28125 11.40625 
Q 51.125 14.703125 51.125 21.484375 
Q 51.125 28.328125 47.28125 31.5625 
Q 43.453125 34.8125 35.5 34.8125 
z
M 19.671875 64.796875 
L 19.671875 42.828125 
L 34.28125 42.828125 
Q 41.5 42.828125 45.03125 45.53125 
Q 48.578125 48.25 48.578125 53.8125 
Q 48.578125 59.328125 45.03125 62.0625 
Q 41.5 64.796875 34.28125 64.796875 
z
M 9.8125 72.90625 
L 35.015625 72.90625 
Q 46.296875 72.90625 52.390625 68.21875 
Q 58.5 63.53125 58.5 54.890625 
Q 58.5 48.1875 55.375 44.234375 
Q 52.25 40.28125 46.1875 39.3125 
Q 53.46875 37.75 57.5 32.78125 
Q 61.53125 27.828125 61.53125 20.40625 
Q 61.53125 10.640625 54.890625 5.3125 
Q 48.25 0 35.984375 0 
L 9.8125 0 
z
" id="DejaVuSans-66"/>
      <path d="M 32.171875 -5.078125 
Q 28.375 -14.84375 24.75 -17.8125 
Q 21.140625 -20.796875 15.09375 -20.796875 
L 7.90625 -20.796875 
L 7.90625 -13.28125 
L 13.1875 -13.28125 
Q 16.890625 -13.28125 18.9375 -11.515625 
Q 21 -9.765625 23.484375 -3.21875 
L 25.09375 0.875 
L 2.984375 54.6875 
L 12.5 54.6875 
L 29.59375 11.921875 
L 46.6875 54.6875 
L 56.203125 54.6875 
z
" id="DejaVuSans-121"/>
      <path d="M 44.28125 53.078125 
L 44.28125 44.578125 
Q 40.484375 46.53125 36.375 47.5 
Q 32.28125 48.484375 27.875 48.484375 
Q 21.1875 48.484375 17.84375 46.4375 
Q 14.5 44.390625 14.5 40.28125 
Q 14.5 37.15625 16.890625 35.375 
Q 19.28125 33.59375 26.515625 31.984375 
L 29.59375 31.296875 
Q 39.15625 29.25 43.1875 25.515625 
Q 47.21875 21.78125 47.21875 15.09375 
Q 47.21875 7.46875 41.1875 3.015625 
Q 35.15625 -1.421875 24.609375 -1.421875 
Q 20.21875 -1.421875 15.453125 -0.5625 
Q 10.6875 0.296875 5.421875 2 
L 5.421875 11.28125 
Q 10.40625 8.6875 15.234375 7.390625 
Q 20.0625 6.109375 24.8125 6.109375 
Q 31.15625 6.109375 34.5625 8.28125 
Q 37.984375 10.453125 37.984375 14.40625 
Q 37.984375 18.0625 35.515625 20.015625 
Q 33.0625 21.96875 24.703125 23.78125 
L 21.578125 24.515625 
Q 13.234375 26.265625 9.515625 29.90625 
Q 5.8125 33.546875 5.8125 39.890625 
Q 5.8125 47.609375 11.28125 51.796875 
Q 16.75 56 26.8125 56 
Q 31.78125 56 36.171875 55.265625 
Q 40.578125 54.546875 44.28125 53.078125 
z
" id="DejaVuSans-115"/>
      <path d="M 8.015625 75.875 
L 15.828125 75.875 
Q 23.140625 64.359375 26.78125 53.3125 
Q 30.421875 42.28125 30.421875 31.390625 
Q 30.421875 20.453125 26.78125 9.375 
Q 23.140625 -1.703125 15.828125 -13.1875 
L 8.015625 -13.1875 
Q 14.5 -2 17.703125 9.0625 
Q 20.90625 20.125 20.90625 31.390625 
Q 20.90625 42.671875 17.703125 53.65625 
Q 14.5 64.65625 8.015625 75.875 
z
" id="DejaVuSans-41"/>
     </defs>
     <g transform="translate(216.584219 328.316562)scale(0.1 -0.1)">
      <use xlink:href="#DejaVuSans-80"/>
      <use x="55.802734" xlink:href="#DejaVuSans-97"/>
      <use x="117.082031" xlink:href="#DejaVuSans-99"/>
      <use x="172.0625" xlink:href="#DejaVuSans-107"/>
      <use x="226.347656" xlink:href="#DejaVuSans-101"/>
      <use x="287.871094" xlink:href="#DejaVuSans-116"/>
      <use x="327.080078" xlink:href="#DejaVuSans-32"/>
      <use x="358.867188" xlink:href="#DejaVuSans-108"/>
      <use x="386.650391" xlink:href="#DejaVuSans-101"/>
      <use x="448.173828" xlink:href="#DejaVuSans-110"/>
      <use x="511.552734" xlink:href="#DejaVuSans-103"/>
      <use x="575.029297" xlink:href="#DejaVuSans-116"/>
      <use x="614.238281" xlink:href="#DejaVuSans-104"/>
      <use x="677.617188" xlink:href="#DejaVuSans-32"/>
      <use x="709.404297" xlink:href="#DejaVuSans-40"/>
      <use x="748.417969" xlink:href="#DejaVuSans-66"/>
      <use x="817.021484" xlink:href="#DejaVuSans-121"/>
      <use x="876.201172" xlink:href="#DejaVuSans-116"/>
      <use x="915.410156" xlink:href="#DejaVuSans-101"/>
      <use x="976.933594" xlink:href="#DejaVuSans-115"/>
      <use x="1029.033203" xlink:href="#DejaVuSans-41"/>
     </g>
    </g>
   </g>
   <g id="matplotlib.axis_2">
    <g id="ytick_1">
     <g id="line2d_25">
      <path clip-path="url(#p324c912b57)" d="M 93.601563 303.54 
L 446.371562 303.54 
" style="fill:none;stroke:#b2b2b2;stroke-dasharray:0.8,1.32;stroke-dashoffset:0;stroke-width:0.8;"/>
     </g>
     <g id="line2d_26">
      <defs>
       <path d="M 0 0 
L 3.5 0 
" id="mc2a19058d8" style="stroke:#000000;stroke-width:0.8;"/>
      </defs>
      <g>
       <use style="stroke:#000000;stroke-width:0.8;" x="93.601563" xlink:href="#mc2a19058d8" y="303.54"/>
      </g>
     </g>
     <g id="line2d_27">
      <defs>
       <path d="M 0 0 
L -3.5 0 
" id="m6787671728" style="stroke:#000000;stroke-width:0.8;"/>
      </defs>
      <g>
       <use style="stroke:#000000;stroke-width:0.8;" x="446.371562" xlink:href="#m6787671728" y="303.54"/>
      </g>
     </g>
     <g id="text_10">
      <!-- 0.00bps/s -->
      <defs>
       <path d="M 10.6875 12.40625 
L 21 12.40625 
L 21 0 
L 10.6875 0 
z
" id="DejaVuSans-46"/>
       <path d="M 48.6875 27.296875 
Q 48.6875 37.203125 44.609375 42.84375 
Q 40.53125 48.484375 33.40625 48.484375 
Q 26.265625 48.484375 22.1875 42.84375 
Q 18.109375 37.203125 18.109375 27.296875 
Q 18.109375 17.390625 22.1875 11.75 
Q 26.265625 6.109375 33.40625 6.109375 
Q 40.53125 6.109375 44.609375 11.75 
Q 48.6875 17.390625 48.6875 27.296875 
z
M 18.109375 46.390625 
Q 20.953125 51.265625 25.265625 53.625 
Q 29.59375 56 35.59375 56 
Q 45.5625 56 51.78125 48.09375 
Q 58.015625 40.1875 58.015625 27.296875 
Q 58.015625 14.40625 51.78125 6.484375 
Q 45.5625 -1.421875 35.59375 -1.421875 
Q 29.59375 -1.421875 25.265625 0.953125 
Q 20.953125 3.328125 18.109375 8.203125 
L 18.109375 0 
L 9.078125 0 
L 9.078125 75.984375 
L 18.109375 75.984375 
z
" id="DejaVuSans-98"/>
       <path d="M 18.109375 8.203125 
L 18.109375 -20.796875 
L 9.078125 -20.796875 
L 9.078125 54.6875 
L 18.109375 54.6875 
L 18.109375 46.390625 
Q 20.953125 51.265625 25.265625 53.625 
Q 29.59375 56 35.59375 56 
Q 45.5625 56 51.78125 48.09375 
Q 58.015625 40.1875 58.015625 27.296875 
Q 58.015625 14.40625 51.78125 6.484375 
Q 45.5625 -1.421875 35.59375 -1.421875 
Q 29.59375 -1.421875 25.265625 0.953125 
Q 20.953125 3.328125 18.109375 8.203125 
z
M 48.6875 27.296875 
Q 48.6875 37.203125 44.609375 42.84375 
Q 40.53125 48.484375 33.40625 48.484375 
Q 26.265625 48.484375 22.1875 42.84375 
Q 18.109375 37.203125 18.109375 27.296875 
Q 18.109375 17.390625 22.1875 11.75 
Q 26.265625 6.109375 33.40625 6.109375 
Q 40.53125 6.109375 44.609375 11.75 
Q 48.6875 17.390625 48.6875 27.296875 
z
" id="DejaVuSans-112"/>
       <path d="M 25.390625 72.90625 
L 33.6875 72.90625 
L 8.296875 -9.28125 
L 0 -9.28125 
z
" id="DejaVuSans-47"/>
      </defs>
      <g transform="translate(41.351563 307.339219)scale(0.1 -0.1)">
       <use xlink:href="#DejaVuSans-48"/>
       <use x="63.623047" xlink:href="#DejaVuSans-46"/>
       <use x="95.410156" xlink:href="#DejaVuSans-48"/>
       <use x="159.033203" xlink:href="#DejaVuSans-48"/>
       <use x="222.65625" xlink:href="#DejaVuSans-98"/>
       <use x="286.132812" xlink:href="#DejaVuSans-112"/>
       <use x="349.609375" xlink:href="#DejaVuSans-115"/>
       <use x="401.708984" xlink:href="#DejaVuSans-47"/>
       <use x="435.400391" xlink:href="#DejaVuSans-115"/>
      </g>
     </g>
    </g>
    <g id="ytick_2">
     <g id="line2d_28">
      <path clip-path="url(#p324c912b57)" d="M 93.601563 246.650885 
L 446.371562 246.650885 
" style="fill:none;stroke:#b2b2b2;stroke-dasharray:0.8,1.32;stroke-dashoffset:0;stroke-width:0.8;"/>
     </g>
     <g id="line2d_29">
      <g>
       <use style="stroke:#000000;stroke-width:0.8;" x="93.601563" xlink:href="#mc2a19058d8" y="246.650885"/>
      </g>
     </g>
     <g id="line2d_30">
      <g>
       <use style="stroke:#000000;stroke-width:0.8;" x="446.371562" xlink:href="#m6787671728" y="246.650885"/>
      </g>
     </g>
     <g id="text_11">
      <!-- 20.00Gbps/s -->
      <defs>
       <path d="M 59.515625 10.40625 
L 59.515625 29.984375 
L 43.40625 29.984375 
L 43.40625 38.09375 
L 69.28125 38.09375 
L 69.28125 6.78125 
Q 63.578125 2.734375 56.6875 0.65625 
Q 49.8125 -1.421875 42 -1.421875 
Q 24.90625 -1.421875 15.25 8.5625 
Q 5.609375 18.5625 5.609375 36.375 
Q 5.609375 54.25 15.25 64.234375 
Q 24.90625 74.21875 42 74.21875 
Q 49.125 74.21875 55.546875 72.453125 
Q 61.96875 70.703125 67.390625 67.28125 
L 67.390625 56.78125 
Q 61.921875 61.421875 55.765625 63.765625 
Q 49.609375 66.109375 42.828125 66.109375 
Q 29.4375 66.109375 22.71875 58.640625 
Q 16.015625 51.171875 16.015625 36.375 
Q 16.015625 21.625 22.71875 14.15625 
Q 29.4375 6.6875 42.828125 6.6875 
Q 48.046875 6.6875 52.140625 7.59375 
Q 56.25 8.5 59.515625 10.40625 
z
" id="DejaVuSans-71"/>
      </defs>
      <g transform="translate(27.240625 250.450103)scale(0.1 -0.1)">
       <use xlink:href="#DejaVuSans-50"/>
       <use x="63.623047" xlink:href="#DejaVuSans-48"/>
       <use x="127.246094" xlink:href="#DejaVuSans-46"/>
       <use x="159.033203" xlink:href="#DejaVuSans-48"/>
       <use x="222.65625" xlink:href="#DejaVuSans-48"/>
       <use x="286.279297" xlink:href="#DejaVuSans-71"/>
       <use x="363.769531" xlink:href="#DejaVuSans-98"/>
       <use x="427.246094" xlink:href="#DejaVuSans-112"/>
       <use x="490.722656" xlink:href="#DejaVuSans-115"/>
       <use x="542.822266" xlink:href="#DejaVuSans-47"/>
       <use x="576.513672" xlink:href="#DejaVuSans-115"/>
      </g>
     </g>
    </g>
    <g id="ytick_3">
     <g id="line2d_31">
      <path clip-path="url(#p324c912b57)" d="M 93.601563 189.761769 
L 446.371562 189.761769 
" style="fill:none;stroke:#b2b2b2;stroke-dasharray:0.8,1.32;stroke-dashoffset:0;stroke-width:0.8;"/>
     </g>
     <g id="line2d_32">
      <g>
       <use style="stroke:#000000;stroke-width:0.8;" x="93.601563" xlink:href="#mc2a19058d8" y="189.761769"/>
      </g>
     </g>
     <g id="line2d_33">
      <g>
       <use style="stroke:#000000;stroke-width:0.8;" x="446.371562" xlink:href="#m6787671728" y="189.761769"/>
      </g>
     </g>
     <g id="text_12">
      <!-- 40.00Gbps/s -->
      <g transform="translate(27.240625 193.560988)scale(0.1 -0.1)">
       <use xlink:href="#DejaVuSans-52"/>
       <use x="63.623047" xlink:href="#DejaVuSans-48"/>
       <use x="127.246094" xlink:href="#DejaVuSans-46"/>
       <use x="159.033203" xlink:href="#DejaVuSans-48"/>
       <use x="222.65625" xlink:href="#DejaVuSans-48"/>
       <use x="286.279297" xlink:href="#DejaVuSans-71"/>
       <use x="363.769531" xlink:href="#DejaVuSans-98"/>
       <use x="427.246094" xlink:href="#DejaVuSans-112"/>
       <use x="490.722656" xlink:href="#DejaVuSans-115"/>
       <use x="542.822266" xlink:href="#DejaVuSans-47"/>
       <use x="576.513672" xlink:href="#DejaVuSans-115"/>
      </g>
     </g>
    </g>
    <g id="ytick_4">
     <g id="line2d_34">
      <path clip-path="url(#p324c912b57)" d="M 93.601563 132.872654 
L 446.371562 132.872654 
" style="fill:none;stroke:#b2b2b2;stroke-dasharray:0.8,1.32;stroke-dashoffset:0;stroke-width:0.8;"/>
     </g>
     <g id="line2d_35">
      <g>
       <use style="stroke:#000000;stroke-width:0.8;" x="93.601563" xlink:href="#mc2a19058d8" y="132.872654"/>
      </g>
     </g>
     <g id="line2d_36">
      <g>
       <use style="stroke:#000000;stroke-width:0.8;" x="446.371562" xlink:href="#m6787671728" y="132.872654"/>
      </g>
     </g>
     <g id="text_13">
      <!-- 60.00Gbps/s -->
      <g transform="translate(27.240625 136.671873)scale(0.1 -0.1)">
       <use xlink:href="#DejaVuSans-54"/>
       <use x="63.623047" xlink:href="#DejaVuSans-48"/>
       <use x="127.246094" xlink:href="#DejaVuSans-46"/>
       <use x="159.033203" xlink:href="#DejaVuSans-48"/>
       <use x="222.65625" xlink:href="#DejaVuSans-48"/>
       <use x="286.279297" xlink:href="#DejaVuSans-71"/>
       <use x="363.769531" xlink:href="#DejaVuSans-98"/>
       <use x="427.246094" xlink:href="#DejaVuSans-112"/>
       <use x="490.722656" xlink:href="#DejaVuSans-115"/>
       <use x="542.822266" xlink:href="#DejaVuSans-47"/>
       <use x="576.513672" xlink:href="#DejaVuSans-115"/>
      </g>
     </g>
    </g>
    <g id="ytick_5">
     <g id="line2d_37">
      <path clip-path="url(#p324c912b57)" d="M 93.601563 75.983539 
L 446.371562 75.983539 
" style="fill:none;stroke:#b2b2b2;stroke-dasharray:0.8,1.32;stroke-dashoffset:0;stroke-width:0.8;"/>
     </g>
     <g id="line2d_38">
      <g>
       <use style="stroke:#000000;stroke-width:0.8;" x="93.601563" xlink:href="#mc2a19058d8" y="75.983539"/>
      </g>
     </g>
     <g id="line2d_39">
      <g>
       <use style="stroke:#000000;stroke-width:0.8;" x="446.371562" xlink:href="#m6787671728" y="75.983539"/>
      </g>
     </g>
     <g id="text_14">
      <!-- 80.00Gbps/s -->
      <g transform="translate(27.240625 79.782758)scale(0.1 -0.1)">
       <use xlink:href="#DejaVuSans-56"/>
       <use x="63.623047" xlink:href="#DejaVuSans-48"/>
       <use x="127.246094" xlink:href="#DejaVuSans-46"/>
       <use x="159.033203" xlink:href="#DejaVuSans-48"/>
       <use x="222.65625" xlink:href="#DejaVuSans-48"/>
       <use x="286.279297" xlink:href="#DejaVuSans-71"/>
       <use x="363.769531" xlink:href="#DejaVuSans-98"/>
       <use x="427.246094" xlink:href="#DejaVuSans-112"/>
       <use x="490.722656" xlink:href="#DejaVuSans-115"/>
       <use x="542.822266" xlink:href="#DejaVuSans-47"/>
       <use x="576.513672" xlink:href="#DejaVuSans-115"/>
      </g>
     </g>
    </g>
    <g id="ytick_6">
     <g id="line2d_40">
      <path clip-path="url(#p324c912b57)" d="M 93.601563 19.094424 
L 446.371562 19.094424 
" style="fill:none;stroke:#b2b2b2;stroke-dasharray:0.8,1.32;stroke-dashoffset:0;stroke-width:0.8;"/>
     </g>
     <g id="line2d_41">
      <g>
       <use style="stroke:#000000;stroke-width:0.8;" x="93.601563" xlink:href="#mc2a19058d8" y="19.094424"/>
      </g>
     </g>
     <g id="line2d_42">
      <g>
       <use style="stroke:#000000;stroke-width:0.8;" x="446.371562" xlink:href="#m6787671728" y="19.094424"/>
      </g>
     </g>
     <g id="text_15">
      <!-- 100.00Gbps/s -->
      <g transform="translate(20.878125 22.893642)scale(0.1 -0.1)">
       <use xlink:href="#DejaVuSans-49"/>
       <use x="63.623047" xlink:href="#DejaVuSans-48"/>
       <use x="127.246094" xlink:href="#DejaVuSans-48"/>
       <use x="190.869141" xlink:href="#DejaVuSans-46"/>
       <use x="222.65625" xlink:href="#DejaVuSans-48"/>
       <use x="286.279297" xlink:href="#DejaVuSans-48"/>
       <use x="349.902344" xlink:href="#DejaVuSans-71"/>
       <use x="427.392578" xlink:href="#DejaVuSans-98"/>
       <use x="490.869141" xlink:href="#DejaVuSans-112"/>
       <use x="554.345703" xlink:href="#DejaVuSans-115"/>
       <use x="606.445312" xlink:href="#DejaVuSans-47"/>
       <use x="640.136719" xlink:href="#DejaVuSans-115"/>
      </g>
     </g>
    </g>
    <g id="text_16">
     <!-- Throughput -->
     <defs>
      <path d="M -0.296875 72.90625 
L 61.375 72.90625 
L 61.375 64.59375 
L 35.5 64.59375 
L 35.5 0 
L 25.59375 0 
L 25.59375 64.59375 
L -0.296875 64.59375 
z
" id="DejaVuSans-84"/>
      <path d="M 41.109375 46.296875 
Q 39.59375 47.171875 37.8125 47.578125 
Q 36.03125 48 33.890625 48 
Q 26.265625 48 22.1875 43.046875 
Q 18.109375 38.09375 18.109375 28.8125 
L 18.109375 0 
L 9.078125 0 
L 9.078125 54.6875 
L 18.109375 54.6875 
L 18.109375 46.1875 
Q 20.953125 51.171875 25.484375 53.578125 
Q 30.03125 56 36.53125 56 
Q 37.453125 56 38.578125 55.875 
Q 39.703125 55.765625 41.0625 55.515625 
z
" id="DejaVuSans-114"/>
      <path d="M 30.609375 48.390625 
Q 23.390625 48.390625 19.1875 42.75 
Q 14.984375 37.109375 14.984375 27.296875 
Q 14.984375 17.484375 19.15625 11.84375 
Q 23.34375 6.203125 30.609375 6.203125 
Q 37.796875 6.203125 41.984375 11.859375 
Q 46.1875 17.53125 46.1875 27.296875 
Q 46.1875 37.015625 41.984375 42.703125 
Q 37.796875 48.390625 30.609375 48.390625 
z
M 30.609375 56 
Q 42.328125 56 49.015625 48.375 
Q 55.71875 40.765625 55.71875 27.296875 
Q 55.71875 13.875 49.015625 6.21875 
Q 42.328125 -1.421875 30.609375 -1.421875 
Q 18.84375 -1.421875 12.171875 6.21875 
Q 5.515625 13.875 5.515625 27.296875 
Q 5.515625 40.765625 12.171875 48.375 
Q 18.84375 56 30.609375 56 
z
" id="DejaVuSans-111"/>
      <path d="M 8.5 21.578125 
L 8.5 54.6875 
L 17.484375 54.6875 
L 17.484375 21.921875 
Q 17.484375 14.15625 20.5 10.265625 
Q 23.53125 6.390625 29.59375 6.390625 
Q 36.859375 6.390625 41.078125 11.03125 
Q 45.3125 15.671875 45.3125 23.6875 
L 45.3125 54.6875 
L 54.296875 54.6875 
L 54.296875 0 
L 45.3125 0 
L 45.3125 8.40625 
Q 42.046875 3.421875 37.71875 1 
Q 33.40625 -1.421875 27.6875 -1.421875 
Q 18.265625 -1.421875 13.375 4.4375 
Q 8.5 10.296875 8.5 21.578125 
z
M 31.109375 56 
z
" id="DejaVuSans-117"/>
     </defs>
     <g transform="translate(14.798438 184.409844)rotate(-90)scale(0.1 -0.1)">
      <use xlink:href="#DejaVuSans-84"/>
      <use x="61.083984" xlink:href="#DejaVuSans-104"/>
      <use x="124.462891" xlink:href="#DejaVuSans-114"/>
      <use x="163.326172" xlink:href="#DejaVuSans-111"/>
      <use x="224.507812" xlink:href="#DejaVuSans-117"/>
      <use x="287.886719" xlink:href="#DejaVuSans-103"/>
      <use x="351.363281" xlink:href="#DejaVuSans-104"/>
      <use x="414.742188" xlink:href="#DejaVuSans-112"/>
      <use x="478.21875" xlink:href="#DejaVuSans-117"/>
      <use x="541.597656" xlink:href="#DejaVuSans-116"/>
     </g>
    </g>
   </g>
   <g id="LineCollection_1">
    <path clip-path="url(#p324c912b57)" d="M 109.636563 284.60318 
L 109.636563 284.577709 
" style="fill:none;stroke:#4b7496;stroke-width:1.5;"/>
    <path clip-path="url(#p324c912b57)" d="M 123.929599 270.688484 
L 123.929599 270.617095 
" style="fill:none;stroke:#4b7496;stroke-width:1.5;"/>
    <path clip-path="url(#p324c912b57)" d="M 152.515671 242.195779 
L 152.515671 242.164671 
" style="fill:none;stroke:#4b7496;stroke-width:1.5;"/>
    <path clip-path="url(#p324c912b57)" d="M 209.687816 185.605668 
L 209.687816 185.232281 
" style="fill:none;stroke:#4b7496;stroke-width:1.5;"/>
    <path clip-path="url(#p324c912b57)" d="M 324.032106 77.696988 
L 324.032106 77.502155 
" style="fill:none;stroke:#4b7496;stroke-width:1.5;"/>
    <path clip-path="url(#p324c912b57)" d="M 430.336562 23.821665 
L 430.336562 22.823426 
" style="fill:none;stroke:#4b7496;stroke-width:1.5;"/>
   </g>
   <g id="LineCollection_2">
    <path clip-path="url(#p324c912b57)" d="M 109.636563 276.482966 
L 109.636563 276.356367 
" style="fill:none;stroke:#90b9db;stroke-width:1.5;"/>
    <path clip-path="url(#p324c912b57)" d="M 123.929599 255.890052 
L 123.929599 255.756632 
" style="fill:none;stroke:#90b9db;stroke-width:1.5;"/>
    <path clip-path="url(#p324c912b57)" d="M 152.515671 213.759779 
L 152.515671 213.034088 
" style="fill:none;stroke:#90b9db;stroke-width:1.5;"/>
    <path clip-path="url(#p324c912b57)" d="M 209.687816 134.426893 
L 209.687816 133.994061 
" style="fill:none;stroke:#90b9db;stroke-width:1.5;"/>
    <path clip-path="url(#p324c912b57)" d="M 324.032106 47.820259 
L 324.032106 47.642302 
" style="fill:none;stroke:#90b9db;stroke-width:1.5;"/>
    <path clip-path="url(#p324c912b57)" d="M 430.336562 20.801208 
L 430.336562 20.746822 
" style="fill:none;stroke:#90b9db;stroke-width:1.5;"/>
   </g>
   <g id="LineCollection_3">
    <path clip-path="url(#p324c912b57)" d="M 109.636563 274.046108 
L 109.636563 273.783078 
" style="fill:none;stroke:#e68d3c;stroke-width:1.5;"/>
    <path clip-path="url(#p324c912b57)" d="M 123.929599 251.527855 
L 123.929599 251.067106 
" style="fill:none;stroke:#e68d3c;stroke-width:1.5;"/>
    <path clip-path="url(#p324c912b57)" d="M 152.515671 202.121412 
L 152.515671 202.057256 
" style="fill:none;stroke:#e68d3c;stroke-width:1.5;"/>
    <path clip-path="url(#p324c912b57)" d="M 209.687816 110.746667 
L 209.687816 109.730927 
" style="fill:none;stroke:#e68d3c;stroke-width:1.5;"/>
    <path clip-path="url(#p324c912b57)" d="M 324.032106 33.830488 
L 324.032106 33.342318 
" style="fill:none;stroke:#e68d3c;stroke-width:1.5;"/>
    <path clip-path="url(#p324c912b57)" d="M 430.336562 21.411306 
L 430.336562 20.409675 
" style="fill:none;stroke:#e68d3c;stroke-width:1.5;"/>
   </g>
   <g id="LineCollection_4">
    <path clip-path="url(#p324c912b57)" d="M 109.636563 283.310802 
L 109.636563 283.300129 
" style="fill:none;stroke:#58ac52;stroke-width:1.5;"/>
    <path clip-path="url(#p324c912b57)" d="M 123.929599 271.464924 
L 123.929599 271.312777 
" style="fill:none;stroke:#58ac52;stroke-width:1.5;"/>
    <path clip-path="url(#p324c912b57)" d="M 152.515671 242.149611 
L 152.515671 242.108158 
" style="fill:none;stroke:#58ac52;stroke-width:1.5;"/>
    <path clip-path="url(#p324c912b57)" d="M 209.687816 177.53724 
L 209.687816 177.229423 
" style="fill:none;stroke:#58ac52;stroke-width:1.5;"/>
    <path clip-path="url(#p324c912b57)" d="M 324.032106 85.009961 
L 324.032106 84.200061 
" style="fill:none;stroke:#58ac52;stroke-width:1.5;"/>
    <path clip-path="url(#p324c912b57)" d="M 430.336562 64.140719 
L 430.336562 63.646426 
" style="fill:none;stroke:#58ac52;stroke-width:1.5;"/>
   </g>
   <g id="line2d_43">
    <path clip-path="url(#p324c912b57)" d="M 109.636563 284.590444 
L 123.929599 270.65279 
L 152.515671 242.180225 
L 209.687816 185.418974 
L 324.032106 77.599572 
L 430.336562 23.322546 
" style="fill:none;stroke:#4b7496;stroke-linecap:square;stroke-width:1.5;"/>
    <defs>
     <path d="M 0 3 
C 0.795609 3 1.55874 2.683901 2.12132 2.12132 
C 2.683901 1.55874 3 0.795609 3 0 
C 3 -0.795609 2.683901 -1.55874 2.12132 -2.12132 
C 1.55874 -2.683901 0.795609 -3 0 -3 
C -0.795609 -3 -1.55874 -2.683901 -2.12132 -2.12132 
C -2.683901 -1.55874 -3 -0.795609 -3 0 
C -3 0.795609 -2.683901 1.55874 -2.12132 2.12132 
C -1.55874 2.683901 -0.795609 3 0 3 
z
" id="mbf783871da" style="stroke:#4b7496;"/>
    </defs>
    <g clip-path="url(#p324c912b57)">
     <use style="fill-opacity:0;stroke:#4b7496;" x="109.636563" xlink:href="#mbf783871da" y="284.590444"/>
     <use style="fill-opacity:0;stroke:#4b7496;" x="123.929599" xlink:href="#mbf783871da" y="270.65279"/>
     <use style="fill-opacity:0;stroke:#4b7496;" x="152.515671" xlink:href="#mbf783871da" y="242.180225"/>
     <use style="fill-opacity:0;stroke:#4b7496;" x="209.687816" xlink:href="#mbf783871da" y="185.418974"/>
     <use style="fill-opacity:0;stroke:#4b7496;" x="324.032106" xlink:href="#mbf783871da" y="77.599572"/>
     <use style="fill-opacity:0;stroke:#4b7496;" x="430.336562" xlink:href="#mbf783871da" y="23.322546"/>
    </g>
   </g>
   <g id="line2d_44">
    <defs>
     <path d="M 3 0 
L -3 -0 
" id="m474ee4288b" style="stroke:#4b7496;"/>
    </defs>
    <g clip-path="url(#p324c912b57)">
     <use style="fill:#4b7496;stroke:#4b7496;" x="109.636563" xlink:href="#m474ee4288b" y="284.60318"/>
     <use style="fill:#4b7496;stroke:#4b7496;" x="123.929599" xlink:href="#m474ee4288b" y="270.688484"/>
     <use style="fill:#4b7496;stroke:#4b7496;" x="152.515671" xlink:href="#m474ee4288b" y="242.195779"/>
     <use style="fill:#4b7496;stroke:#4b7496;" x="209.687816" xlink:href="#m474ee4288b" y="185.605668"/>
     <use style="fill:#4b7496;stroke:#4b7496;" x="324.032106" xlink:href="#m474ee4288b" y="77.696988"/>
     <use style="fill:#4b7496;stroke:#4b7496;" x="430.336562" xlink:href="#m474ee4288b" y="23.821665"/>
    </g>
   </g>
   <g id="line2d_45">
    <g clip-path="url(#p324c912b57)">
     <use style="fill:#4b7496;stroke:#4b7496;" x="109.636563" xlink:href="#m474ee4288b" y="284.577709"/>
     <use style="fill:#4b7496;stroke:#4b7496;" x="123.929599" xlink:href="#m474ee4288b" y="270.617095"/>
     <use style="fill:#4b7496;stroke:#4b7496;" x="152.515671" xlink:href="#m474ee4288b" y="242.164671"/>
     <use style="fill:#4b7496;stroke:#4b7496;" x="209.687816" xlink:href="#m474ee4288b" y="185.232281"/>
     <use style="fill:#4b7496;stroke:#4b7496;" x="324.032106" xlink:href="#m474ee4288b" y="77.502155"/>
     <use style="fill:#4b7496;stroke:#4b7496;" x="430.336562" xlink:href="#m474ee4288b" y="22.823426"/>
    </g>
   </g>
   <g id="line2d_46">
    <path clip-path="url(#p324c912b57)" d="M 109.636563 276.419667 
L 123.929599 255.823342 
L 152.515671 213.396934 
L 209.687816 134.210477 
L 324.032106 47.73128 
L 430.336562 20.774015 
" style="fill:none;stroke:#90b9db;stroke-dasharray:5.55,2.4;stroke-dashoffset:0;stroke-width:1.5;"/>
    <defs>
     <path d="M 0 -3 
L -3 3 
L 3 3 
z
" id="md742e3c48c" style="stroke:#90b9db;stroke-linejoin:miter;"/>
    </defs>
    <g clip-path="url(#p324c912b57)">
     <use style="fill-opacity:0;stroke:#90b9db;stroke-linejoin:miter;" x="109.636563" xlink:href="#md742e3c48c" y="276.419667"/>
     <use style="fill-opacity:0;stroke:#90b9db;stroke-linejoin:miter;" x="123.929599" xlink:href="#md742e3c48c" y="255.823342"/>
     <use style="fill-opacity:0;stroke:#90b9db;stroke-linejoin:miter;" x="152.515671" xlink:href="#md742e3c48c" y="213.396934"/>
     <use style="fill-opacity:0;stroke:#90b9db;stroke-linejoin:miter;" x="209.687816" xlink:href="#md742e3c48c" y="134.210477"/>
     <use style="fill-opacity:0;stroke:#90b9db;stroke-linejoin:miter;" x="324.032106" xlink:href="#md742e3c48c" y="47.73128"/>
     <use style="fill-opacity:0;stroke:#90b9db;stroke-linejoin:miter;" x="430.336562" xlink:href="#md742e3c48c" y="20.774015"/>
    </g>
   </g>
   <g id="line2d_47">
    <defs>
     <path d="M 3 0 
L -3 -0 
" id="m5dcfa84908" style="stroke:#90b9db;"/>
    </defs>
    <g clip-path="url(#p324c912b57)">
     <use style="fill:#90b9db;stroke:#90b9db;" x="109.636563" xlink:href="#m5dcfa84908" y="276.482966"/>
     <use style="fill:#90b9db;stroke:#90b9db;" x="123.929599" xlink:href="#m5dcfa84908" y="255.890052"/>
     <use style="fill:#90b9db;stroke:#90b9db;" x="152.515671" xlink:href="#m5dcfa84908" y="213.759779"/>
     <use style="fill:#90b9db;stroke:#90b9db;" x="209.687816" xlink:href="#m5dcfa84908" y="134.426893"/>
     <use style="fill:#90b9db;stroke:#90b9db;" x="324.032106" xlink:href="#m5dcfa84908" y="47.820259"/>
     <use style="fill:#90b9db;stroke:#90b9db;" x="430.336562" xlink:href="#m5dcfa84908" y="20.801208"/>
    </g>
   </g>
   <g id="line2d_48">
    <g clip-path="url(#p324c912b57)">
     <use style="fill:#90b9db;stroke:#90b9db;" x="109.636563" xlink:href="#m5dcfa84908" y="276.356367"/>
     <use style="fill:#90b9db;stroke:#90b9db;" x="123.929599" xlink:href="#m5dcfa84908" y="255.756632"/>
     <use style="fill:#90b9db;stroke:#90b9db;" x="152.515671" xlink:href="#m5dcfa84908" y="213.034088"/>
     <use style="fill:#90b9db;stroke:#90b9db;" x="209.687816" xlink:href="#m5dcfa84908" y="133.994061"/>
     <use style="fill:#90b9db;stroke:#90b9db;" x="324.032106" xlink:href="#m5dcfa84908" y="47.642302"/>
     <use style="fill:#90b9db;stroke:#90b9db;" x="430.336562" xlink:href="#m5dcfa84908" y="20.746822"/>
    </g>
   </g>
   <g id="line2d_49">
    <path clip-path="url(#p324c912b57)" d="M 109.636563 273.914593 
L 123.929599 251.29748 
L 152.515671 202.089334 
L 209.687816 110.238797 
L 324.032106 33.586403 
L 430.336562 20.91049 
" style="fill:none;stroke:#e68d3c;stroke-dasharray:9.6,2.4,1.5,2.4;stroke-dashoffset:0;stroke-width:1.5;"/>
    <defs>
     <path d="M -3 3 
L 3 3 
L 3 -3 
L -3 -3 
z
" id="m4ab9790cd1" style="stroke:#e68d3c;stroke-linejoin:miter;"/>
    </defs>
    <g clip-path="url(#p324c912b57)">
     <use style="fill-opacity:0;stroke:#e68d3c;stroke-linejoin:miter;" x="109.636563" xlink:href="#m4ab9790cd1" y="273.914593"/>
     <use style="fill-opacity:0;stroke:#e68d3c;stroke-linejoin:miter;" x="123.929599" xlink:href="#m4ab9790cd1" y="251.29748"/>
     <use style="fill-opacity:0;stroke:#e68d3c;stroke-linejoin:miter;" x="152.515671" xlink:href="#m4ab9790cd1" y="202.089334"/>
     <use style="fill-opacity:0;stroke:#e68d3c;stroke-linejoin:miter;" x="209.687816" xlink:href="#m4ab9790cd1" y="110.238797"/>
     <use style="fill-opacity:0;stroke:#e68d3c;stroke-linejoin:miter;" x="324.032106" xlink:href="#m4ab9790cd1" y="33.586403"/>
     <use style="fill-opacity:0;stroke:#e68d3c;stroke-linejoin:miter;" x="430.336562" xlink:href="#m4ab9790cd1" y="20.91049"/>
    </g>
   </g>
   <g id="line2d_50">
    <defs>
     <path d="M 3 0 
L -3 -0 
" id="m44faccfda3" style="stroke:#e68d3c;"/>
    </defs>
    <g clip-path="url(#p324c912b57)">
     <use style="fill:#e68d3c;stroke:#e68d3c;" x="109.636563" xlink:href="#m44faccfda3" y="274.046108"/>
     <use style="fill:#e68d3c;stroke:#e68d3c;" x="123.929599" xlink:href="#m44faccfda3" y="251.527855"/>
     <use style="fill:#e68d3c;stroke:#e68d3c;" x="152.515671" xlink:href="#m44faccfda3" y="202.121412"/>
     <use style="fill:#e68d3c;stroke:#e68d3c;" x="209.687816" xlink:href="#m44faccfda3" y="110.746667"/>
     <use style="fill:#e68d3c;stroke:#e68d3c;" x="324.032106" xlink:href="#m44faccfda3" y="33.830488"/>
     <use style="fill:#e68d3c;stroke:#e68d3c;" x="430.336562" xlink:href="#m44faccfda3" y="21.411306"/>
    </g>
   </g>
   <g id="line2d_51">
    <g clip-path="url(#p324c912b57)">
     <use style="fill:#e68d3c;stroke:#e68d3c;" x="109.636563" xlink:href="#m44faccfda3" y="273.783078"/>
     <use style="fill:#e68d3c;stroke:#e68d3c;" x="123.929599" xlink:href="#m44faccfda3" y="251.067106"/>
     <use style="fill:#e68d3c;stroke:#e68d3c;" x="152.515671" xlink:href="#m44faccfda3" y="202.057256"/>
     <use style="fill:#e68d3c;stroke:#e68d3c;" x="209.687816" xlink:href="#m44faccfda3" y="109.730927"/>
     <use style="fill:#e68d3c;stroke:#e68d3c;" x="324.032106" xlink:href="#m44faccfda3" y="33.342318"/>
     <use style="fill:#e68d3c;stroke:#e68d3c;" x="430.336562" xlink:href="#m44faccfda3" y="20.409675"/>
    </g>
   </g>
   <g id="line2d_52">
    <path clip-path="url(#p324c912b57)" d="M 109.636563 283.305465 
L 123.929599 271.38885 
L 152.515671 242.128884 
L 209.687816 177.383331 
L 324.032106 84.605011 
L 430.336562 63.893572 
" style="fill:none;stroke:#58ac52;stroke-dasharray:1.5,2.475;stroke-dashoffset:0;stroke-width:1.5;"/>
    <defs>
     <path d="M -0 4.242641 
L 4.242641 0 
L 0 -4.242641 
L -4.242641 -0 
z
" id="m67a3801aa4" style="stroke:#58ac52;stroke-linejoin:miter;"/>
    </defs>
    <g clip-path="url(#p324c912b57)">
     <use style="fill-opacity:0;stroke:#58ac52;stroke-linejoin:miter;" x="109.636563" xlink:href="#m67a3801aa4" y="283.305465"/>
     <use style="fill-opacity:0;stroke:#58ac52;stroke-linejoin:miter;" x="123.929599" xlink:href="#m67a3801aa4" y="271.38885"/>
     <use style="fill-opacity:0;stroke:#58ac52;stroke-linejoin:miter;" x="152.515671" xlink:href="#m67a3801aa4" y="242.128884"/>
     <use style="fill-opacity:0;stroke:#58ac52;stroke-linejoin:miter;" x="209.687816" xlink:href="#m67a3801aa4" y="177.383331"/>
     <use style="fill-opacity:0;stroke:#58ac52;stroke-linejoin:miter;" x="324.032106" xlink:href="#m67a3801aa4" y="84.605011"/>
     <use style="fill-opacity:0;stroke:#58ac52;stroke-linejoin:miter;" x="430.336562" xlink:href="#m67a3801aa4" y="63.893572"/>
    </g>
   </g>
   <g id="line2d_53">
    <defs>
     <path d="M 3 0 
L -3 -0 
" id="mfbc4340437" style="stroke:#58ac52;"/>
    </defs>
    <g clip-path="url(#p324c912b57)">
     <use style="fill:#58ac52;stroke:#58ac52;" x="109.636563" xlink:href="#mfbc4340437" y="283.310802"/>
     <use style="fill:#58ac52;stroke:#58ac52;" x="123.929599" xlink:href="#mfbc4340437" y="271.464924"/>
     <use style="fill:#58ac52;stroke:#58ac52;" x="152.515671" xlink:href="#mfbc4340437" y="242.149611"/>
     <use style="fill:#58ac52;stroke:#58ac52;" x="209.687816" xlink:href="#mfbc4340437" y="177.53724"/>
     <use style="fill:#58ac52;stroke:#58ac52;" x="324.032106" xlink:href="#mfbc4340437" y="85.009961"/>
     <use style="fill:#58ac52;stroke:#58ac52;" x="430.336562" xlink:href="#mfbc4340437" y="64.140719"/>
    </g>
   </g>
   <g id="line2d_54">
    <g clip-path="url(#p324c912b57)">
     <use style="fill:#58ac52;stroke:#58ac52;" x="109.636563" xlink:href="#mfbc4340437" y="283.300129"/>
     <use style="fill:#58ac52;stroke:#58ac52;" x="123.929599" xlink:href="#mfbc4340437" y="271.312777"/>
     <use style="fill:#58ac52;stroke:#58ac52;" x="152.515671" xlink:href="#mfbc4340437" y="242.108158"/>
     <use style="fill:#58ac52;stroke:#58ac52;" x="209.687816" xlink:href="#mfbc4340437" y="177.229423"/>
     <use style="fill:#58ac52;stroke:#58ac52;" x="324.032106" xlink:href="#mfbc4340437" y="84.200061"/>
     <use style="fill:#58ac52;stroke:#58ac52;" x="430.336562" xlink:href="#mfbc4340437" y="63.646426"/>
    </g>
   </g>
   <g id="line2d_55"/>
   <g id="line2d_56"/>
   <g id="line2d_57"/>
   <g id="line2d_58"/>
   <g id="patch_3">
    <path d="M 93.601563 303.54 
L 93.601563 7.2 
" style="fill:none;stroke:#000000;stroke-linecap:square;stroke-linejoin:miter;stroke-width:0.8;"/>
   </g>
   <g id="patch_4">
    <path d="M 446.371562 303.54 
L 446.371562 7.2 
" style="fill:none;stroke:#000000;stroke-linecap:square;stroke-linejoin:miter;stroke-width:0.8;"/>
   </g>
   <g id="patch_5">
    <path d="M 93.601563 303.54 
L 446.371562 303.54 
" style="fill:none;stroke:#000000;stroke-linecap:square;stroke-linejoin:miter;stroke-width:0.8;"/>
   </g>
   <g id="patch_6">
    <path d="M 93.601563 7.2 
L 446.371562 7.2 
" style="fill:none;stroke:#000000;stroke-linecap:square;stroke-linejoin:miter;stroke-width:0.8;"/>
   </g>
   <g id="legend_1">
    <g id="patch_7">
     <path d="M 98.601563 73.9125 
L 206.660938 73.9125 
L 206.660938 12.2 
L 98.601563 12.2 
z
" style="fill:#ffffff;stroke:#000000;stroke-linejoin:miter;"/>
    </g>
    <g id="line2d_59">
     <path d="M 102.601563 20.298438 
L 122.601563 20.298438 
" style="fill:none;stroke:#4b7496;stroke-linecap:square;stroke-width:1.5;"/>
    </g>
    <g id="line2d_60">
     <g>
      <use style="fill-opacity:0;stroke:#4b7496;" x="112.601563" xlink:href="#mbf783871da" y="20.298438"/>
     </g>
    </g>
    <g id="text_17">
     <!-- FastClick -->
     <defs>
      <path d="M 9.8125 72.90625 
L 51.703125 72.90625 
L 51.703125 64.59375 
L 19.671875 64.59375 
L 19.671875 43.109375 
L 48.578125 43.109375 
L 48.578125 34.8125 
L 19.671875 34.8125 
L 19.671875 0 
L 9.8125 0 
z
" id="DejaVuSans-70"/>
      <path d="M 64.40625 67.28125 
L 64.40625 56.890625 
Q 59.421875 61.53125 53.78125 63.8125 
Q 48.140625 66.109375 41.796875 66.109375 
Q 29.296875 66.109375 22.65625 58.46875 
Q 16.015625 50.828125 16.015625 36.375 
Q 16.015625 21.96875 22.65625 14.328125 
Q 29.296875 6.6875 41.796875 6.6875 
Q 48.140625 6.6875 53.78125 8.984375 
Q 59.421875 11.28125 64.40625 15.921875 
L 64.40625 5.609375 
Q 59.234375 2.09375 53.4375 0.328125 
Q 47.65625 -1.421875 41.21875 -1.421875 
Q 24.65625 -1.421875 15.125 8.703125 
Q 5.609375 18.84375 5.609375 36.375 
Q 5.609375 53.953125 15.125 64.078125 
Q 24.65625 74.21875 41.21875 74.21875 
Q 47.75 74.21875 53.53125 72.484375 
Q 59.328125 70.75 64.40625 67.28125 
z
" id="DejaVuSans-67"/>
      <path d="M 9.421875 54.6875 
L 18.40625 54.6875 
L 18.40625 0 
L 9.421875 0 
z
M 9.421875 75.984375 
L 18.40625 75.984375 
L 18.40625 64.59375 
L 9.421875 64.59375 
z
" id="DejaVuSans-105"/>
     </defs>
     <g transform="translate(130.601562 23.798438)scale(0.1 -0.1)">
      <use xlink:href="#DejaVuSans-70"/>
      <use x="48.394531" xlink:href="#DejaVuSans-97"/>
      <use x="109.673828" xlink:href="#DejaVuSans-115"/>
      <use x="161.773438" xlink:href="#DejaVuSans-116"/>
      <use x="200.982422" xlink:href="#DejaVuSans-67"/>
      <use x="270.806641" xlink:href="#DejaVuSans-108"/>
      <use x="298.589844" xlink:href="#DejaVuSans-105"/>
      <use x="326.373047" xlink:href="#DejaVuSans-99"/>
      <use x="381.353516" xlink:href="#DejaVuSans-107"/>
     </g>
    </g>
    <g id="line2d_61">
     <path d="M 102.601563 34.976563 
L 122.601563 34.976563 
" style="fill:none;stroke:#90b9db;stroke-dasharray:5.55,2.4;stroke-dashoffset:0;stroke-width:1.5;"/>
    </g>
    <g id="line2d_62">
     <g>
      <use style="fill-opacity:0;stroke:#90b9db;stroke-linejoin:miter;" x="112.601563" xlink:href="#md742e3c48c" y="34.976563"/>
     </g>
    </g>
    <g id="text_18">
     <!-- FastClick Light -->
     <defs>
      <path d="M 9.8125 72.90625 
L 19.671875 72.90625 
L 19.671875 8.296875 
L 55.171875 8.296875 
L 55.171875 0 
L 9.8125 0 
z
" id="DejaVuSans-76"/>
     </defs>
     <g transform="translate(130.601562 38.476563)scale(0.1 -0.1)">
      <use xlink:href="#DejaVuSans-70"/>
      <use x="48.394531" xlink:href="#DejaVuSans-97"/>
      <use x="109.673828" xlink:href="#DejaVuSans-115"/>
      <use x="161.773438" xlink:href="#DejaVuSans-116"/>
      <use x="200.982422" xlink:href="#DejaVuSans-67"/>
      <use x="270.806641" xlink:href="#DejaVuSans-108"/>
      <use x="298.589844" xlink:href="#DejaVuSans-105"/>
      <use x="326.373047" xlink:href="#DejaVuSans-99"/>
      <use x="381.353516" xlink:href="#DejaVuSans-107"/>
      <use x="439.263672" xlink:href="#DejaVuSans-32"/>
      <use x="471.050781" xlink:href="#DejaVuSans-76"/>
      <use x="526.763672" xlink:href="#DejaVuSans-105"/>
      <use x="554.546875" xlink:href="#DejaVuSans-103"/>
      <use x="618.023438" xlink:href="#DejaVuSans-104"/>
      <use x="681.402344" xlink:href="#DejaVuSans-116"/>
     </g>
    </g>
    <g id="line2d_63">
     <path d="M 102.601563 49.654688 
L 122.601563 49.654688 
" style="fill:none;stroke:#e68d3c;stroke-dasharray:9.6,2.4,1.5,2.4;stroke-dashoffset:0;stroke-width:1.5;"/>
    </g>
    <g id="line2d_64">
     <g>
      <use style="fill-opacity:0;stroke:#e68d3c;stroke-linejoin:miter;" x="112.601563" xlink:href="#m4ab9790cd1" y="49.654688"/>
     </g>
    </g>
    <g id="text_19">
     <!-- BESS -->
     <defs>
      <path d="M 9.8125 72.90625 
L 55.90625 72.90625 
L 55.90625 64.59375 
L 19.671875 64.59375 
L 19.671875 43.015625 
L 54.390625 43.015625 
L 54.390625 34.71875 
L 19.671875 34.71875 
L 19.671875 8.296875 
L 56.78125 8.296875 
L 56.78125 0 
L 9.8125 0 
z
" id="DejaVuSans-69"/>
      <path d="M 53.515625 70.515625 
L 53.515625 60.890625 
Q 47.90625 63.578125 42.921875 64.890625 
Q 37.9375 66.21875 33.296875 66.21875 
Q 25.25 66.21875 20.875 63.09375 
Q 16.5 59.96875 16.5 54.203125 
Q 16.5 49.359375 19.40625 46.890625 
Q 22.3125 44.4375 30.421875 42.921875 
L 36.375 41.703125 
Q 47.40625 39.59375 52.65625 34.296875 
Q 57.90625 29 57.90625 20.125 
Q 57.90625 9.515625 50.796875 4.046875 
Q 43.703125 -1.421875 29.984375 -1.421875 
Q 24.8125 -1.421875 18.96875 -0.25 
Q 13.140625 0.921875 6.890625 3.21875 
L 6.890625 13.375 
Q 12.890625 10.015625 18.65625 8.296875 
Q 24.421875 6.59375 29.984375 6.59375 
Q 38.421875 6.59375 43.015625 9.90625 
Q 47.609375 13.234375 47.609375 19.390625 
Q 47.609375 24.75 44.3125 27.78125 
Q 41.015625 30.8125 33.5 32.328125 
L 27.484375 33.5 
Q 16.453125 35.6875 11.515625 40.375 
Q 6.59375 45.0625 6.59375 53.421875 
Q 6.59375 63.09375 13.40625 68.65625 
Q 20.21875 74.21875 32.171875 74.21875 
Q 37.3125 74.21875 42.625 73.28125 
Q 47.953125 72.359375 53.515625 70.515625 
z
" id="DejaVuSans-83"/>
     </defs>
     <g transform="translate(130.601562 53.154688)scale(0.1 -0.1)">
      <use xlink:href="#DejaVuSans-66"/>
      <use x="68.603516" xlink:href="#DejaVuSans-69"/>
      <use x="131.787109" xlink:href="#DejaVuSans-83"/>
      <use x="195.263672" xlink:href="#DejaVuSans-83"/>
     </g>
    </g>
    <g id="line2d_65">
     <path d="M 102.601563 64.332813 
L 122.601563 64.332813 
" style="fill:none;stroke:#58ac52;stroke-dasharray:1.5,2.475;stroke-dashoffset:0;stroke-width:1.5;"/>
    </g>
    <g id="line2d_66">
     <g>
      <use style="fill-opacity:0;stroke:#58ac52;stroke-linejoin:miter;" x="112.601563" xlink:href="#m67a3801aa4" y="64.332813"/>
     </g>
    </g>
    <g id="text_20">
     <!-- VPP -->
     <defs>
      <path d="M 28.609375 0 
L 0.78125 72.90625 
L 11.078125 72.90625 
L 34.1875 11.53125 
L 57.328125 72.90625 
L 67.578125 72.90625 
L 39.796875 0 
z
" id="DejaVuSans-86"/>
     </defs>
     <g transform="translate(130.601562 67.832813)scale(0.1 -0.1)">
      <use xlink:href="#DejaVuSans-86"/>
      <use x="68.408203" xlink:href="#DejaVuSans-80"/>
      <use x="128.710938" xlink:href="#DejaVuSans-80"/>
     </g>
    </g>
   </g>
  </g>
 </g>
 <defs>
  <clipPath id="p324c912b57">
   <rect height="296.34" width="352.77" x="93.601563" y="7.2"/>
  </clipPath>
 </defs>
</svg>
