<?xml version="1.0" encoding="utf-8" standalone="no"?>
<!DOCTYPE svg PUBLIC "-//W3C//DTD SVG 1.1//EN"
  "http://www.w3.org/Graphics/SVG/1.1/DTD/svg11.dtd">
<!-- Created with matplotlib (https://matplotlib.org/) -->
<svg height="336.634375pt" version="1.1" viewBox="0 0 453.26125 336.634375" width="453.26125pt" xmlns="http://www.w3.org/2000/svg" xmlns:xlink="http://www.w3.org/1999/xlink">
 <defs>
  <style type="text/css">
*{stroke-linecap:butt;stroke-linejoin:round;}
  </style>
 </defs>
 <g id="figure_1">
  <g id="patch_1">
   <path d="M 0 336.634375 
L 453.26125 336.634375 
L 453.26125 0 
L 0 0 
z
" style="fill:none;"/>
  </g>
  <g id="axes_1">
   <g id="patch_2">
    <path d="M 40.28125 302.578125 
L 446.06125 302.578125 
L 446.06125 22.318125 
L 40.28125 22.318125 
z
" style="fill:none;"/>
   </g>
   <g id="matplotlib.axis_1">
    <g id="xtick_1">
     <g id="line2d_1">
      <path clip-path="url(#p442b801411)" d="M 58.725795 302.578125 
L 58.725795 22.318125 
" style="fill:none;stroke:#b2b2b2;stroke-dasharray:0.8,1.32;stroke-dashoffset:0;stroke-width:0.8;"/>
     </g>
     <g id="line2d_2">
      <defs>
       <path d="M 0 0 
L 0 -3.5 
" id="m07eac7bd6c" style="stroke:#000000;stroke-width:0.8;"/>
      </defs>
      <g>
       <use style="stroke:#000000;stroke-width:0.8;" x="58.725795" xlink:href="#m07eac7bd6c" y="302.578125"/>
      </g>
     </g>
     <g id="line2d_3">
      <defs>
       <path d="M 0 0 
L 0 3.5 
" id="m0c0c241f39" style="stroke:#000000;stroke-width:0.8;"/>
      </defs>
      <g>
       <use style="stroke:#000000;stroke-width:0.8;" x="58.725795" xlink:href="#m0c0c241f39" y="22.318125"/>
      </g>
     </g>
     <g id="text_1">
      <!-- 1 -->
      <defs>
       <path d="M 12.40625 8.296875 
L 28.515625 8.296875 
L 28.515625 63.921875 
L 10.984375 60.40625 
L 10.984375 69.390625 
L 28.421875 72.90625 
L 38.28125 72.90625 
L 38.28125 8.296875 
L 54.390625 8.296875 
L 54.390625 0 
L 12.40625 0 
z
" id="DejaVuSans-49"/>
      </defs>
      <g transform="translate(55.544545 313.676562)scale(0.1 -0.1)">
       <use xlink:href="#DejaVuSans-49"/>
      </g>
     </g>
    </g>
    <g id="xtick_2">
     <g id="line2d_4">
      <path clip-path="url(#p442b801411)" d="M 111.424497 302.578125 
L 111.424497 22.318125 
" style="fill:none;stroke:#b2b2b2;stroke-dasharray:0.8,1.32;stroke-dashoffset:0;stroke-width:0.8;"/>
     </g>
     <g id="line2d_5">
      <g>
       <use style="stroke:#000000;stroke-width:0.8;" x="111.424497" xlink:href="#m07eac7bd6c" y="302.578125"/>
      </g>
     </g>
     <g id="line2d_6">
      <g>
       <use style="stroke:#000000;stroke-width:0.8;" x="111.424497" xlink:href="#m0c0c241f39" y="22.318125"/>
      </g>
     </g>
     <g id="text_2">
      <!-- 2 -->
      <defs>
       <path d="M 19.1875 8.296875 
L 53.609375 8.296875 
L 53.609375 0 
L 7.328125 0 
L 7.328125 8.296875 
Q 12.9375 14.109375 22.625 23.890625 
Q 32.328125 33.6875 34.8125 36.53125 
Q 39.546875 41.84375 41.421875 45.53125 
Q 43.3125 49.21875 43.3125 52.78125 
Q 43.3125 58.59375 39.234375 62.25 
Q 35.15625 65.921875 28.609375 65.921875 
Q 23.96875 65.921875 18.8125 64.3125 
Q 13.671875 62.703125 7.8125 59.421875 
L 7.8125 69.390625 
Q 13.765625 71.78125 18.9375 73 
Q 24.125 74.21875 28.421875 74.21875 
Q 39.75 74.21875 46.484375 68.546875 
Q 53.21875 62.890625 53.21875 53.421875 
Q 53.21875 48.921875 51.53125 44.890625 
Q 49.859375 40.875 45.40625 35.40625 
Q 44.1875 33.984375 37.640625 27.21875 
Q 31.109375 20.453125 19.1875 8.296875 
z
" id="DejaVuSans-50"/>
      </defs>
      <g transform="translate(108.243247 313.676562)scale(0.1 -0.1)">
       <use xlink:href="#DejaVuSans-50"/>
      </g>
     </g>
    </g>
    <g id="xtick_3">
     <g id="line2d_7">
      <path clip-path="url(#p442b801411)" d="M 164.123198 302.578125 
L 164.123198 22.318125 
" style="fill:none;stroke:#b2b2b2;stroke-dasharray:0.8,1.32;stroke-dashoffset:0;stroke-width:0.8;"/>
     </g>
     <g id="line2d_8">
      <g>
       <use style="stroke:#000000;stroke-width:0.8;" x="164.123198" xlink:href="#m07eac7bd6c" y="302.578125"/>
      </g>
     </g>
     <g id="line2d_9">
      <g>
       <use style="stroke:#000000;stroke-width:0.8;" x="164.123198" xlink:href="#m0c0c241f39" y="22.318125"/>
      </g>
     </g>
     <g id="text_3">
      <!-- 3 -->
      <defs>
       <path d="M 40.578125 39.3125 
Q 47.65625 37.796875 51.625 33 
Q 55.609375 28.21875 55.609375 21.1875 
Q 55.609375 10.40625 48.1875 4.484375 
Q 40.765625 -1.421875 27.09375 -1.421875 
Q 22.515625 -1.421875 17.65625 -0.515625 
Q 12.796875 0.390625 7.625 2.203125 
L 7.625 11.71875 
Q 11.71875 9.328125 16.59375 8.109375 
Q 21.484375 6.890625 26.8125 6.890625 
Q 36.078125 6.890625 40.9375 10.546875 
Q 45.796875 14.203125 45.796875 21.1875 
Q 45.796875 27.640625 41.28125 31.265625 
Q 36.765625 34.90625 28.71875 34.90625 
L 20.21875 34.90625 
L 20.21875 43.015625 
L 29.109375 43.015625 
Q 36.375 43.015625 40.234375 45.921875 
Q 44.09375 48.828125 44.09375 54.296875 
Q 44.09375 59.90625 40.109375 62.90625 
Q 36.140625 65.921875 28.71875 65.921875 
Q 24.65625 65.921875 20.015625 65.03125 
Q 15.375 64.15625 9.8125 62.3125 
L 9.8125 71.09375 
Q 15.4375 72.65625 20.34375 73.4375 
Q 25.25 74.21875 29.59375 74.21875 
Q 40.828125 74.21875 47.359375 69.109375 
Q 53.90625 64.015625 53.90625 55.328125 
Q 53.90625 49.265625 50.4375 45.09375 
Q 46.96875 40.921875 40.578125 39.3125 
z
" id="DejaVuSans-51"/>
      </defs>
      <g transform="translate(160.941948 313.676562)scale(0.1 -0.1)">
       <use xlink:href="#DejaVuSans-51"/>
      </g>
     </g>
    </g>
    <g id="xtick_4">
     <g id="line2d_10">
      <path clip-path="url(#p442b801411)" d="M 216.821899 302.578125 
L 216.821899 22.318125 
" style="fill:none;stroke:#b2b2b2;stroke-dasharray:0.8,1.32;stroke-dashoffset:0;stroke-width:0.8;"/>
     </g>
     <g id="line2d_11">
      <g>
       <use style="stroke:#000000;stroke-width:0.8;" x="216.821899" xlink:href="#m07eac7bd6c" y="302.578125"/>
      </g>
     </g>
     <g id="line2d_12">
      <g>
       <use style="stroke:#000000;stroke-width:0.8;" x="216.821899" xlink:href="#m0c0c241f39" y="22.318125"/>
      </g>
     </g>
     <g id="text_4">
      <!-- 4 -->
      <defs>
       <path d="M 37.796875 64.3125 
L 12.890625 25.390625 
L 37.796875 25.390625 
z
M 35.203125 72.90625 
L 47.609375 72.90625 
L 47.609375 25.390625 
L 58.015625 25.390625 
L 58.015625 17.1875 
L 47.609375 17.1875 
L 47.609375 0 
L 37.796875 0 
L 37.796875 17.1875 
L 4.890625 17.1875 
L 4.890625 26.703125 
z
" id="DejaVuSans-52"/>
      </defs>
      <g transform="translate(213.640649 313.676562)scale(0.1 -0.1)">
       <use xlink:href="#DejaVuSans-52"/>
      </g>
     </g>
    </g>
    <g id="xtick_5">
     <g id="line2d_13">
      <path clip-path="url(#p442b801411)" d="M 269.520601 302.578125 
L 269.520601 22.318125 
" style="fill:none;stroke:#b2b2b2;stroke-dasharray:0.8,1.32;stroke-dashoffset:0;stroke-width:0.8;"/>
     </g>
     <g id="line2d_14">
      <g>
       <use style="stroke:#000000;stroke-width:0.8;" x="269.520601" xlink:href="#m07eac7bd6c" y="302.578125"/>
      </g>
     </g>
     <g id="line2d_15">
      <g>
       <use style="stroke:#000000;stroke-width:0.8;" x="269.520601" xlink:href="#m0c0c241f39" y="22.318125"/>
      </g>
     </g>
     <g id="text_5">
      <!-- 5 -->
      <defs>
       <path d="M 10.796875 72.90625 
L 49.515625 72.90625 
L 49.515625 64.59375 
L 19.828125 64.59375 
L 19.828125 46.734375 
Q 21.96875 47.46875 24.109375 47.828125 
Q 26.265625 48.1875 28.421875 48.1875 
Q 40.625 48.1875 47.75 41.5 
Q 54.890625 34.8125 54.890625 23.390625 
Q 54.890625 11.625 47.5625 5.09375 
Q 40.234375 -1.421875 26.90625 -1.421875 
Q 22.3125 -1.421875 17.546875 -0.640625 
Q 12.796875 0.140625 7.71875 1.703125 
L 7.71875 11.625 
Q 12.109375 9.234375 16.796875 8.0625 
Q 21.484375 6.890625 26.703125 6.890625 
Q 35.15625 6.890625 40.078125 11.328125 
Q 45.015625 15.765625 45.015625 23.390625 
Q 45.015625 31 40.078125 35.4375 
Q 35.15625 39.890625 26.703125 39.890625 
Q 22.75 39.890625 18.8125 39.015625 
Q 14.890625 38.140625 10.796875 36.28125 
z
" id="DejaVuSans-53"/>
      </defs>
      <g transform="translate(266.339351 313.676562)scale(0.1 -0.1)">
       <use xlink:href="#DejaVuSans-53"/>
      </g>
     </g>
    </g>
    <g id="xtick_6">
     <g id="line2d_16">
      <path clip-path="url(#p442b801411)" d="M 322.219302 302.578125 
L 322.219302 22.318125 
" style="fill:none;stroke:#b2b2b2;stroke-dasharray:0.8,1.32;stroke-dashoffset:0;stroke-width:0.8;"/>
     </g>
     <g id="line2d_17">
      <g>
       <use style="stroke:#000000;stroke-width:0.8;" x="322.219302" xlink:href="#m07eac7bd6c" y="302.578125"/>
      </g>
     </g>
     <g id="line2d_18">
      <g>
       <use style="stroke:#000000;stroke-width:0.8;" x="322.219302" xlink:href="#m0c0c241f39" y="22.318125"/>
      </g>
     </g>
     <g id="text_6">
      <!-- 6 -->
      <defs>
       <path d="M 33.015625 40.375 
Q 26.375 40.375 22.484375 35.828125 
Q 18.609375 31.296875 18.609375 23.390625 
Q 18.609375 15.53125 22.484375 10.953125 
Q 26.375 6.390625 33.015625 6.390625 
Q 39.65625 6.390625 43.53125 10.953125 
Q 47.40625 15.53125 47.40625 23.390625 
Q 47.40625 31.296875 43.53125 35.828125 
Q 39.65625 40.375 33.015625 40.375 
z
M 52.59375 71.296875 
L 52.59375 62.3125 
Q 48.875 64.0625 45.09375 64.984375 
Q 41.3125 65.921875 37.59375 65.921875 
Q 27.828125 65.921875 22.671875 59.328125 
Q 17.53125 52.734375 16.796875 39.40625 
Q 19.671875 43.65625 24.015625 45.921875 
Q 28.375 48.1875 33.59375 48.1875 
Q 44.578125 48.1875 50.953125 41.515625 
Q 57.328125 34.859375 57.328125 23.390625 
Q 57.328125 12.15625 50.6875 5.359375 
Q 44.046875 -1.421875 33.015625 -1.421875 
Q 20.359375 -1.421875 13.671875 8.265625 
Q 6.984375 17.96875 6.984375 36.375 
Q 6.984375 53.65625 15.1875 63.9375 
Q 23.390625 74.21875 37.203125 74.21875 
Q 40.921875 74.21875 44.703125 73.484375 
Q 48.484375 72.75 52.59375 71.296875 
z
" id="DejaVuSans-54"/>
      </defs>
      <g transform="translate(319.038052 313.676562)scale(0.1 -0.1)">
       <use xlink:href="#DejaVuSans-54"/>
      </g>
     </g>
    </g>
    <g id="xtick_7">
     <g id="line2d_19">
      <path clip-path="url(#p442b801411)" d="M 374.918003 302.578125 
L 374.918003 22.318125 
" style="fill:none;stroke:#b2b2b2;stroke-dasharray:0.8,1.32;stroke-dashoffset:0;stroke-width:0.8;"/>
     </g>
     <g id="line2d_20">
      <g>
       <use style="stroke:#000000;stroke-width:0.8;" x="374.918003" xlink:href="#m07eac7bd6c" y="302.578125"/>
      </g>
     </g>
     <g id="line2d_21">
      <g>
       <use style="stroke:#000000;stroke-width:0.8;" x="374.918003" xlink:href="#m0c0c241f39" y="22.318125"/>
      </g>
     </g>
     <g id="text_7">
      <!-- 7 -->
      <defs>
       <path d="M 8.203125 72.90625 
L 55.078125 72.90625 
L 55.078125 68.703125 
L 28.609375 0 
L 18.3125 0 
L 43.21875 64.59375 
L 8.203125 64.59375 
z
" id="DejaVuSans-55"/>
      </defs>
      <g transform="translate(371.736753 313.676562)scale(0.1 -0.1)">
       <use xlink:href="#DejaVuSans-55"/>
      </g>
     </g>
    </g>
    <g id="xtick_8">
     <g id="line2d_22">
      <path clip-path="url(#p442b801411)" d="M 427.616705 302.578125 
L 427.616705 22.318125 
" style="fill:none;stroke:#b2b2b2;stroke-dasharray:0.8,1.32;stroke-dashoffset:0;stroke-width:0.8;"/>
     </g>
     <g id="line2d_23">
      <g>
       <use style="stroke:#000000;stroke-width:0.8;" x="427.616705" xlink:href="#m07eac7bd6c" y="302.578125"/>
      </g>
     </g>
     <g id="line2d_24">
      <g>
       <use style="stroke:#000000;stroke-width:0.8;" x="427.616705" xlink:href="#m0c0c241f39" y="22.318125"/>
      </g>
     </g>
     <g id="text_8">
      <!-- 8 -->
      <defs>
       <path d="M 31.78125 34.625 
Q 24.75 34.625 20.71875 30.859375 
Q 16.703125 27.09375 16.703125 20.515625 
Q 16.703125 13.921875 20.71875 10.15625 
Q 24.75 6.390625 31.78125 6.390625 
Q 38.8125 6.390625 42.859375 10.171875 
Q 46.921875 13.96875 46.921875 20.515625 
Q 46.921875 27.09375 42.890625 30.859375 
Q 38.875 34.625 31.78125 34.625 
z
M 21.921875 38.8125 
Q 15.578125 40.375 12.03125 44.71875 
Q 8.5 49.078125 8.5 55.328125 
Q 8.5 64.0625 14.71875 69.140625 
Q 20.953125 74.21875 31.78125 74.21875 
Q 42.671875 74.21875 48.875 69.140625 
Q 55.078125 64.0625 55.078125 55.328125 
Q 55.078125 49.078125 51.53125 44.71875 
Q 48 40.375 41.703125 38.8125 
Q 48.828125 37.15625 52.796875 32.3125 
Q 56.78125 27.484375 56.78125 20.515625 
Q 56.78125 9.90625 50.3125 4.234375 
Q 43.84375 -1.421875 31.78125 -1.421875 
Q 19.734375 -1.421875 13.25 4.234375 
Q 6.78125 9.90625 6.78125 20.515625 
Q 6.78125 27.484375 10.78125 32.3125 
Q 14.796875 37.15625 21.921875 38.8125 
z
M 18.3125 54.390625 
Q 18.3125 48.734375 21.84375 45.5625 
Q 25.390625 42.390625 31.78125 42.390625 
Q 38.140625 42.390625 41.71875 45.5625 
Q 45.3125 48.734375 45.3125 54.390625 
Q 45.3125 60.0625 41.71875 63.234375 
Q 38.140625 66.40625 31.78125 66.40625 
Q 25.390625 66.40625 21.84375 63.234375 
Q 18.3125 60.0625 18.3125 54.390625 
z
" id="DejaVuSans-56"/>
      </defs>
      <g transform="translate(424.435455 313.676562)scale(0.1 -0.1)">
       <use xlink:href="#DejaVuSans-56"/>
      </g>
     </g>
    </g>
    <g id="text_9">
     <!-- Number of CPU cores -->
     <defs>
      <path d="M 9.8125 72.90625 
L 23.09375 72.90625 
L 55.421875 11.921875 
L 55.421875 72.90625 
L 64.984375 72.90625 
L 64.984375 0 
L 51.703125 0 
L 19.390625 60.984375 
L 19.390625 0 
L 9.8125 0 
z
" id="DejaVuSans-78"/>
      <path d="M 8.5 21.578125 
L 8.5 54.6875 
L 17.484375 54.6875 
L 17.484375 21.921875 
Q 17.484375 14.15625 20.5 10.265625 
Q 23.53125 6.390625 29.59375 6.390625 
Q 36.859375 6.390625 41.078125 11.03125 
Q 45.3125 15.671875 45.3125 23.6875 
L 45.3125 54.6875 
L 54.296875 54.6875 
L 54.296875 0 
L 45.3125 0 
L 45.3125 8.40625 
Q 42.046875 3.421875 37.71875 1 
Q 33.40625 -1.421875 27.6875 -1.421875 
Q 18.265625 -1.421875 13.375 4.4375 
Q 8.5 10.296875 8.5 21.578125 
z
M 31.109375 56 
z
" id="DejaVuSans-117"/>
      <path d="M 52 44.1875 
Q 55.375 50.25 60.0625 53.125 
Q 64.75 56 71.09375 56 
Q 79.640625 56 84.28125 50.015625 
Q 88.921875 44.046875 88.921875 33.015625 
L 88.921875 0 
L 79.890625 0 
L 79.890625 32.71875 
Q 79.890625 40.578125 77.09375 44.375 
Q 74.3125 48.1875 68.609375 48.1875 
Q 61.625 48.1875 57.5625 43.546875 
Q 53.515625 38.921875 53.515625 30.90625 
L 53.515625 0 
L 44.484375 0 
L 44.484375 32.71875 
Q 44.484375 40.625 41.703125 44.40625 
Q 38.921875 48.1875 33.109375 48.1875 
Q 26.21875 48.1875 22.15625 43.53125 
Q 18.109375 38.875 18.109375 30.90625 
L 18.109375 0 
L 9.078125 0 
L 9.078125 54.6875 
L 18.109375 54.6875 
L 18.109375 46.1875 
Q 21.1875 51.21875 25.484375 53.609375 
Q 29.78125 56 35.6875 56 
Q 41.65625 56 45.828125 52.96875 
Q 50 49.953125 52 44.1875 
z
" id="DejaVuSans-109"/>
      <path d="M 48.6875 27.296875 
Q 48.6875 37.203125 44.609375 42.84375 
Q 40.53125 48.484375 33.40625 48.484375 
Q 26.265625 48.484375 22.1875 42.84375 
Q 18.109375 37.203125 18.109375 27.296875 
Q 18.109375 17.390625 22.1875 11.75 
Q 26.265625 6.109375 33.40625 6.109375 
Q 40.53125 6.109375 44.609375 11.75 
Q 48.6875 17.390625 48.6875 27.296875 
z
M 18.109375 46.390625 
Q 20.953125 51.265625 25.265625 53.625 
Q 29.59375 56 35.59375 56 
Q 45.5625 56 51.78125 48.09375 
Q 58.015625 40.1875 58.015625 27.296875 
Q 58.015625 14.40625 51.78125 6.484375 
Q 45.5625 -1.421875 35.59375 -1.421875 
Q 29.59375 -1.421875 25.265625 0.953125 
Q 20.953125 3.328125 18.109375 8.203125 
L 18.109375 0 
L 9.078125 0 
L 9.078125 75.984375 
L 18.109375 75.984375 
z
" id="DejaVuSans-98"/>
      <path d="M 56.203125 29.59375 
L 56.203125 25.203125 
L 14.890625 25.203125 
Q 15.484375 15.921875 20.484375 11.0625 
Q 25.484375 6.203125 34.421875 6.203125 
Q 39.59375 6.203125 44.453125 7.46875 
Q 49.3125 8.734375 54.109375 11.28125 
L 54.109375 2.78125 
Q 49.265625 0.734375 44.1875 -0.34375 
Q 39.109375 -1.421875 33.890625 -1.421875 
Q 20.796875 -1.421875 13.15625 6.1875 
Q 5.515625 13.8125 5.515625 26.8125 
Q 5.515625 40.234375 12.765625 48.109375 
Q 20.015625 56 32.328125 56 
Q 43.359375 56 49.78125 48.890625 
Q 56.203125 41.796875 56.203125 29.59375 
z
M 47.21875 32.234375 
Q 47.125 39.59375 43.09375 43.984375 
Q 39.0625 48.390625 32.421875 48.390625 
Q 24.90625 48.390625 20.390625 44.140625 
Q 15.875 39.890625 15.1875 32.171875 
z
" id="DejaVuSans-101"/>
      <path d="M 41.109375 46.296875 
Q 39.59375 47.171875 37.8125 47.578125 
Q 36.03125 48 33.890625 48 
Q 26.265625 48 22.1875 43.046875 
Q 18.109375 38.09375 18.109375 28.8125 
L 18.109375 0 
L 9.078125 0 
L 9.078125 54.6875 
L 18.109375 54.6875 
L 18.109375 46.1875 
Q 20.953125 51.171875 25.484375 53.578125 
Q 30.03125 56 36.53125 56 
Q 37.453125 56 38.578125 55.875 
Q 39.703125 55.765625 41.0625 55.515625 
z
" id="DejaVuSans-114"/>
      <path id="DejaVuSans-32"/>
      <path d="M 30.609375 48.390625 
Q 23.390625 48.390625 19.1875 42.75 
Q 14.984375 37.109375 14.984375 27.296875 
Q 14.984375 17.484375 19.15625 11.84375 
Q 23.34375 6.203125 30.609375 6.203125 
Q 37.796875 6.203125 41.984375 11.859375 
Q 46.1875 17.53125 46.1875 27.296875 
Q 46.1875 37.015625 41.984375 42.703125 
Q 37.796875 48.390625 30.609375 48.390625 
z
M 30.609375 56 
Q 42.328125 56 49.015625 48.375 
Q 55.71875 40.765625 55.71875 27.296875 
Q 55.71875 13.875 49.015625 6.21875 
Q 42.328125 -1.421875 30.609375 -1.421875 
Q 18.84375 -1.421875 12.171875 6.21875 
Q 5.515625 13.875 5.515625 27.296875 
Q 5.515625 40.765625 12.171875 48.375 
Q 18.84375 56 30.609375 56 
z
" id="DejaVuSans-111"/>
      <path d="M 37.109375 75.984375 
L 37.109375 68.5 
L 28.515625 68.5 
Q 23.6875 68.5 21.796875 66.546875 
Q 19.921875 64.59375 19.921875 59.515625 
L 19.921875 54.6875 
L 34.71875 54.6875 
L 34.71875 47.703125 
L 19.921875 47.703125 
L 19.921875 0 
L 10.890625 0 
L 10.890625 47.703125 
L 2.296875 47.703125 
L 2.296875 54.6875 
L 10.890625 54.6875 
L 10.890625 58.5 
Q 10.890625 67.625 15.140625 71.796875 
Q 19.390625 75.984375 28.609375 75.984375 
z
" id="DejaVuSans-102"/>
      <path d="M 64.40625 67.28125 
L 64.40625 56.890625 
Q 59.421875 61.53125 53.78125 63.8125 
Q 48.140625 66.109375 41.796875 66.109375 
Q 29.296875 66.109375 22.65625 58.46875 
Q 16.015625 50.828125 16.015625 36.375 
Q 16.015625 21.96875 22.65625 14.328125 
Q 29.296875 6.6875 41.796875 6.6875 
Q 48.140625 6.6875 53.78125 8.984375 
Q 59.421875 11.28125 64.40625 15.921875 
L 64.40625 5.609375 
Q 59.234375 2.09375 53.4375 0.328125 
Q 47.65625 -1.421875 41.21875 -1.421875 
Q 24.65625 -1.421875 15.125 8.703125 
Q 5.609375 18.84375 5.609375 36.375 
Q 5.609375 53.953125 15.125 64.078125 
Q 24.65625 74.21875 41.21875 74.21875 
Q 47.75 74.21875 53.53125 72.484375 
Q 59.328125 70.75 64.40625 67.28125 
z
" id="DejaVuSans-67"/>
      <path d="M 19.671875 64.796875 
L 19.671875 37.40625 
L 32.078125 37.40625 
Q 38.96875 37.40625 42.71875 40.96875 
Q 46.484375 44.53125 46.484375 51.125 
Q 46.484375 57.671875 42.71875 61.234375 
Q 38.96875 64.796875 32.078125 64.796875 
z
M 9.8125 72.90625 
L 32.078125 72.90625 
Q 44.34375 72.90625 50.609375 67.359375 
Q 56.890625 61.8125 56.890625 51.125 
Q 56.890625 40.328125 50.609375 34.8125 
Q 44.34375 29.296875 32.078125 29.296875 
L 19.671875 29.296875 
L 19.671875 0 
L 9.8125 0 
z
" id="DejaVuSans-80"/>
      <path d="M 8.6875 72.90625 
L 18.609375 72.90625 
L 18.609375 28.609375 
Q 18.609375 16.890625 22.84375 11.734375 
Q 27.09375 6.59375 36.625 6.59375 
Q 46.09375 6.59375 50.34375 11.734375 
Q 54.59375 16.890625 54.59375 28.609375 
L 54.59375 72.90625 
L 64.5 72.90625 
L 64.5 27.390625 
Q 64.5 13.140625 57.4375 5.859375 
Q 50.390625 -1.421875 36.625 -1.421875 
Q 22.796875 -1.421875 15.734375 5.859375 
Q 8.6875 13.140625 8.6875 27.390625 
z
" id="DejaVuSans-85"/>
      <path d="M 48.78125 52.59375 
L 48.78125 44.1875 
Q 44.96875 46.296875 41.140625 47.34375 
Q 37.3125 48.390625 33.40625 48.390625 
Q 24.65625 48.390625 19.8125 42.84375 
Q 14.984375 37.3125 14.984375 27.296875 
Q 14.984375 17.28125 19.8125 11.734375 
Q 24.65625 6.203125 33.40625 6.203125 
Q 37.3125 6.203125 41.140625 7.25 
Q 44.96875 8.296875 48.78125 10.40625 
L 48.78125 2.09375 
Q 45.015625 0.34375 40.984375 -0.53125 
Q 36.96875 -1.421875 32.421875 -1.421875 
Q 20.0625 -1.421875 12.78125 6.34375 
Q 5.515625 14.109375 5.515625 27.296875 
Q 5.515625 40.671875 12.859375 48.328125 
Q 20.21875 56 33.015625 56 
Q 37.15625 56 41.109375 55.140625 
Q 45.0625 54.296875 48.78125 52.59375 
z
" id="DejaVuSans-99"/>
      <path d="M 44.28125 53.078125 
L 44.28125 44.578125 
Q 40.484375 46.53125 36.375 47.5 
Q 32.28125 48.484375 27.875 48.484375 
Q 21.1875 48.484375 17.84375 46.4375 
Q 14.5 44.390625 14.5 40.28125 
Q 14.5 37.15625 16.890625 35.375 
Q 19.28125 33.59375 26.515625 31.984375 
L 29.59375 31.296875 
Q 39.15625 29.25 43.1875 25.515625 
Q 47.21875 21.78125 47.21875 15.09375 
Q 47.21875 7.46875 41.1875 3.015625 
Q 35.15625 -1.421875 24.609375 -1.421875 
Q 20.21875 -1.421875 15.453125 -0.5625 
Q 10.6875 0.296875 5.421875 2 
L 5.421875 11.28125 
Q 10.40625 8.6875 15.234375 7.390625 
Q 20.0625 6.109375 24.8125 6.109375 
Q 31.15625 6.109375 34.5625 8.28125 
Q 37.984375 10.453125 37.984375 14.40625 
Q 37.984375 18.0625 35.515625 20.015625 
Q 33.0625 21.96875 24.703125 23.78125 
L 21.578125 24.515625 
Q 13.234375 26.265625 9.515625 29.90625 
Q 5.8125 33.546875 5.8125 39.890625 
Q 5.8125 47.609375 11.28125 51.796875 
Q 16.75 56 26.8125 56 
Q 31.78125 56 36.171875 55.265625 
Q 40.578125 54.546875 44.28125 53.078125 
z
" id="DejaVuSans-115"/>
     </defs>
     <g transform="translate(189.900156 327.354687)scale(0.1 -0.1)">
      <use xlink:href="#DejaVuSans-78"/>
      <use x="74.804688" xlink:href="#DejaVuSans-117"/>
      <use x="138.183594" xlink:href="#DejaVuSans-109"/>
      <use x="235.595703" xlink:href="#DejaVuSans-98"/>
      <use x="299.072266" xlink:href="#DejaVuSans-101"/>
      <use x="360.595703" xlink:href="#DejaVuSans-114"/>
      <use x="401.708984" xlink:href="#DejaVuSans-32"/>
      <use x="433.496094" xlink:href="#DejaVuSans-111"/>
      <use x="494.677734" xlink:href="#DejaVuSans-102"/>
      <use x="529.882812" xlink:href="#DejaVuSans-32"/>
      <use x="561.669922" xlink:href="#DejaVuSans-67"/>
      <use x="631.494141" xlink:href="#DejaVuSans-80"/>
      <use x="691.796875" xlink:href="#DejaVuSans-85"/>
      <use x="764.990234" xlink:href="#DejaVuSans-32"/>
      <use x="796.777344" xlink:href="#DejaVuSans-99"/>
      <use x="851.757812" xlink:href="#DejaVuSans-111"/>
      <use x="912.939453" xlink:href="#DejaVuSans-114"/>
      <use x="951.802734" xlink:href="#DejaVuSans-101"/>
      <use x="1013.326172" xlink:href="#DejaVuSans-115"/>
     </g>
    </g>
   </g>
   <g id="matplotlib.axis_2">
    <g id="ytick_1">
     <g id="line2d_25">
      <path clip-path="url(#p442b801411)" d="M 40.28125 266.23084 
L 446.06125 266.23084 
" style="fill:none;stroke:#b2b2b2;stroke-dasharray:0.8,1.32;stroke-dashoffset:0;stroke-width:0.8;"/>
     </g>
     <g id="line2d_26">
      <defs>
       <path d="M 0 0 
L 3.5 0 
" id="m6f172e4e0e" style="stroke:#000000;stroke-width:0.8;"/>
      </defs>
      <g>
       <use style="stroke:#000000;stroke-width:0.8;" x="40.28125" xlink:href="#m6f172e4e0e" y="266.23084"/>
      </g>
     </g>
     <g id="line2d_27">
      <defs>
       <path d="M 0 0 
L -3.5 0 
" id="m8b2838e50b" style="stroke:#000000;stroke-width:0.8;"/>
      </defs>
      <g>
       <use style="stroke:#000000;stroke-width:0.8;" x="446.06125" xlink:href="#m8b2838e50b" y="266.23084"/>
      </g>
     </g>
     <g id="text_10">
      <!-- 0.4 -->
      <defs>
       <path d="M 31.78125 66.40625 
Q 24.171875 66.40625 20.328125 58.90625 
Q 16.5 51.421875 16.5 36.375 
Q 16.5 21.390625 20.328125 13.890625 
Q 24.171875 6.390625 31.78125 6.390625 
Q 39.453125 6.390625 43.28125 13.890625 
Q 47.125 21.390625 47.125 36.375 
Q 47.125 51.421875 43.28125 58.90625 
Q 39.453125 66.40625 31.78125 66.40625 
z
M 31.78125 74.21875 
Q 44.046875 74.21875 50.515625 64.515625 
Q 56.984375 54.828125 56.984375 36.375 
Q 56.984375 17.96875 50.515625 8.265625 
Q 44.046875 -1.421875 31.78125 -1.421875 
Q 19.53125 -1.421875 13.0625 8.265625 
Q 6.59375 17.96875 6.59375 36.375 
Q 6.59375 54.828125 13.0625 64.515625 
Q 19.53125 74.21875 31.78125 74.21875 
z
" id="DejaVuSans-48"/>
       <path d="M 10.6875 12.40625 
L 21 12.40625 
L 21 0 
L 10.6875 0 
z
" id="DejaVuSans-46"/>
      </defs>
      <g transform="translate(20.878125 270.030059)scale(0.1 -0.1)">
       <use xlink:href="#DejaVuSans-48"/>
       <use x="63.623047" xlink:href="#DejaVuSans-46"/>
       <use x="95.410156" xlink:href="#DejaVuSans-52"/>
      </g>
     </g>
    </g>
    <g id="ytick_2">
     <g id="line2d_28">
      <path clip-path="url(#p442b801411)" d="M 40.28125 210.583945 
L 446.06125 210.583945 
" style="fill:none;stroke:#b2b2b2;stroke-dasharray:0.8,1.32;stroke-dashoffset:0;stroke-width:0.8;"/>
     </g>
     <g id="line2d_29">
      <g>
       <use style="stroke:#000000;stroke-width:0.8;" x="40.28125" xlink:href="#m6f172e4e0e" y="210.583945"/>
      </g>
     </g>
     <g id="line2d_30">
      <g>
       <use style="stroke:#000000;stroke-width:0.8;" x="446.06125" xlink:href="#m8b2838e50b" y="210.583945"/>
      </g>
     </g>
     <g id="text_11">
      <!-- 0.6 -->
      <g transform="translate(20.878125 214.383164)scale(0.1 -0.1)">
       <use xlink:href="#DejaVuSans-48"/>
       <use x="63.623047" xlink:href="#DejaVuSans-46"/>
       <use x="95.410156" xlink:href="#DejaVuSans-54"/>
      </g>
     </g>
    </g>
    <g id="ytick_3">
     <g id="line2d_31">
      <path clip-path="url(#p442b801411)" d="M 40.28125 154.93705 
L 446.06125 154.93705 
" style="fill:none;stroke:#b2b2b2;stroke-dasharray:0.8,1.32;stroke-dashoffset:0;stroke-width:0.8;"/>
     </g>
     <g id="line2d_32">
      <g>
       <use style="stroke:#000000;stroke-width:0.8;" x="40.28125" xlink:href="#m6f172e4e0e" y="154.93705"/>
      </g>
     </g>
     <g id="line2d_33">
      <g>
       <use style="stroke:#000000;stroke-width:0.8;" x="446.06125" xlink:href="#m8b2838e50b" y="154.93705"/>
      </g>
     </g>
     <g id="text_12">
      <!-- 0.8 -->
      <g transform="translate(20.878125 158.736268)scale(0.1 -0.1)">
       <use xlink:href="#DejaVuSans-48"/>
       <use x="63.623047" xlink:href="#DejaVuSans-46"/>
       <use x="95.410156" xlink:href="#DejaVuSans-56"/>
      </g>
     </g>
    </g>
    <g id="ytick_4">
     <g id="line2d_34">
      <path clip-path="url(#p442b801411)" d="M 40.28125 99.290154 
L 446.06125 99.290154 
" style="fill:none;stroke:#b2b2b2;stroke-dasharray:0.8,1.32;stroke-dashoffset:0;stroke-width:0.8;"/>
     </g>
     <g id="line2d_35">
      <g>
       <use style="stroke:#000000;stroke-width:0.8;" x="40.28125" xlink:href="#m6f172e4e0e" y="99.290154"/>
      </g>
     </g>
     <g id="line2d_36">
      <g>
       <use style="stroke:#000000;stroke-width:0.8;" x="446.06125" xlink:href="#m8b2838e50b" y="99.290154"/>
      </g>
     </g>
     <g id="text_13">
      <!-- 1.0 -->
      <g transform="translate(20.878125 103.089373)scale(0.1 -0.1)">
       <use xlink:href="#DejaVuSans-49"/>
       <use x="63.623047" xlink:href="#DejaVuSans-46"/>
       <use x="95.410156" xlink:href="#DejaVuSans-48"/>
      </g>
     </g>
    </g>
    <g id="ytick_5">
     <g id="line2d_37">
      <path clip-path="url(#p442b801411)" d="M 40.28125 43.643259 
L 446.06125 43.643259 
" style="fill:none;stroke:#b2b2b2;stroke-dasharray:0.8,1.32;stroke-dashoffset:0;stroke-width:0.8;"/>
     </g>
     <g id="line2d_38">
      <g>
       <use style="stroke:#000000;stroke-width:0.8;" x="40.28125" xlink:href="#m6f172e4e0e" y="43.643259"/>
      </g>
     </g>
     <g id="line2d_39">
      <g>
       <use style="stroke:#000000;stroke-width:0.8;" x="446.06125" xlink:href="#m8b2838e50b" y="43.643259"/>
      </g>
     </g>
     <g id="text_14">
      <!-- 1.2 -->
      <g transform="translate(20.878125 47.442478)scale(0.1 -0.1)">
       <use xlink:href="#DejaVuSans-49"/>
       <use x="63.623047" xlink:href="#DejaVuSans-46"/>
       <use x="95.410156" xlink:href="#DejaVuSans-50"/>
      </g>
     </g>
    </g>
    <g id="text_15">
     <!-- Packets per second -->
     <defs>
      <path d="M 34.28125 27.484375 
Q 23.390625 27.484375 19.1875 25 
Q 14.984375 22.515625 14.984375 16.5 
Q 14.984375 11.71875 18.140625 8.90625 
Q 21.296875 6.109375 26.703125 6.109375 
Q 34.1875 6.109375 38.703125 11.40625 
Q 43.21875 16.703125 43.21875 25.484375 
L 43.21875 27.484375 
z
M 52.203125 31.203125 
L 52.203125 0 
L 43.21875 0 
L 43.21875 8.296875 
Q 40.140625 3.328125 35.546875 0.953125 
Q 30.953125 -1.421875 24.3125 -1.421875 
Q 15.921875 -1.421875 10.953125 3.296875 
Q 6 8.015625 6 15.921875 
Q 6 25.140625 12.171875 29.828125 
Q 18.359375 34.515625 30.609375 34.515625 
L 43.21875 34.515625 
L 43.21875 35.40625 
Q 43.21875 41.609375 39.140625 45 
Q 35.0625 48.390625 27.6875 48.390625 
Q 23 48.390625 18.546875 47.265625 
Q 14.109375 46.140625 10.015625 43.890625 
L 10.015625 52.203125 
Q 14.9375 54.109375 19.578125 55.046875 
Q 24.21875 56 28.609375 56 
Q 40.484375 56 46.34375 49.84375 
Q 52.203125 43.703125 52.203125 31.203125 
z
" id="DejaVuSans-97"/>
      <path d="M 9.078125 75.984375 
L 18.109375 75.984375 
L 18.109375 31.109375 
L 44.921875 54.6875 
L 56.390625 54.6875 
L 27.390625 29.109375 
L 57.625 0 
L 45.90625 0 
L 18.109375 26.703125 
L 18.109375 0 
L 9.078125 0 
z
" id="DejaVuSans-107"/>
      <path d="M 18.3125 70.21875 
L 18.3125 54.6875 
L 36.8125 54.6875 
L 36.8125 47.703125 
L 18.3125 47.703125 
L 18.3125 18.015625 
Q 18.3125 11.328125 20.140625 9.421875 
Q 21.96875 7.515625 27.59375 7.515625 
L 36.8125 7.515625 
L 36.8125 0 
L 27.59375 0 
Q 17.1875 0 13.234375 3.875 
Q 9.28125 7.765625 9.28125 18.015625 
L 9.28125 47.703125 
L 2.6875 47.703125 
L 2.6875 54.6875 
L 9.28125 54.6875 
L 9.28125 70.21875 
z
" id="DejaVuSans-116"/>
      <path d="M 18.109375 8.203125 
L 18.109375 -20.796875 
L 9.078125 -20.796875 
L 9.078125 54.6875 
L 18.109375 54.6875 
L 18.109375 46.390625 
Q 20.953125 51.265625 25.265625 53.625 
Q 29.59375 56 35.59375 56 
Q 45.5625 56 51.78125 48.09375 
Q 58.015625 40.1875 58.015625 27.296875 
Q 58.015625 14.40625 51.78125 6.484375 
Q 45.5625 -1.421875 35.59375 -1.421875 
Q 29.59375 -1.421875 25.265625 0.953125 
Q 20.953125 3.328125 18.109375 8.203125 
z
M 48.6875 27.296875 
Q 48.6875 37.203125 44.609375 42.84375 
Q 40.53125 48.484375 33.40625 48.484375 
Q 26.265625 48.484375 22.1875 42.84375 
Q 18.109375 37.203125 18.109375 27.296875 
Q 18.109375 17.390625 22.1875 11.75 
Q 26.265625 6.109375 33.40625 6.109375 
Q 40.53125 6.109375 44.609375 11.75 
Q 48.6875 17.390625 48.6875 27.296875 
z
" id="DejaVuSans-112"/>
      <path d="M 54.890625 33.015625 
L 54.890625 0 
L 45.90625 0 
L 45.90625 32.71875 
Q 45.90625 40.484375 42.875 44.328125 
Q 39.84375 48.1875 33.796875 48.1875 
Q 26.515625 48.1875 22.3125 43.546875 
Q 18.109375 38.921875 18.109375 30.90625 
L 18.109375 0 
L 9.078125 0 
L 9.078125 54.6875 
L 18.109375 54.6875 
L 18.109375 46.1875 
Q 21.34375 51.125 25.703125 53.5625 
Q 30.078125 56 35.796875 56 
Q 45.21875 56 50.046875 50.171875 
Q 54.890625 44.34375 54.890625 33.015625 
z
" id="DejaVuSans-110"/>
      <path d="M 45.40625 46.390625 
L 45.40625 75.984375 
L 54.390625 75.984375 
L 54.390625 0 
L 45.40625 0 
L 45.40625 8.203125 
Q 42.578125 3.328125 38.25 0.953125 
Q 33.9375 -1.421875 27.875 -1.421875 
Q 17.96875 -1.421875 11.734375 6.484375 
Q 5.515625 14.40625 5.515625 27.296875 
Q 5.515625 40.1875 11.734375 48.09375 
Q 17.96875 56 27.875 56 
Q 33.9375 56 38.25 53.625 
Q 42.578125 51.265625 45.40625 46.390625 
z
M 14.796875 27.296875 
Q 14.796875 17.390625 18.875 11.75 
Q 22.953125 6.109375 30.078125 6.109375 
Q 37.203125 6.109375 41.296875 11.75 
Q 45.40625 17.390625 45.40625 27.296875 
Q 45.40625 37.203125 41.296875 42.84375 
Q 37.203125 48.484375 30.078125 48.484375 
Q 22.953125 48.484375 18.875 42.84375 
Q 14.796875 37.203125 14.796875 27.296875 
z
" id="DejaVuSans-100"/>
     </defs>
     <g transform="translate(14.798438 210.723906)rotate(-90)scale(0.1 -0.1)">
      <use xlink:href="#DejaVuSans-80"/>
      <use x="55.802734" xlink:href="#DejaVuSans-97"/>
      <use x="117.082031" xlink:href="#DejaVuSans-99"/>
      <use x="172.0625" xlink:href="#DejaVuSans-107"/>
      <use x="226.347656" xlink:href="#DejaVuSans-101"/>
      <use x="287.871094" xlink:href="#DejaVuSans-116"/>
      <use x="327.080078" xlink:href="#DejaVuSans-115"/>
      <use x="379.179688" xlink:href="#DejaVuSans-32"/>
      <use x="410.966797" xlink:href="#DejaVuSans-112"/>
      <use x="474.443359" xlink:href="#DejaVuSans-101"/>
      <use x="535.966797" xlink:href="#DejaVuSans-114"/>
      <use x="577.080078" xlink:href="#DejaVuSans-32"/>
      <use x="608.867188" xlink:href="#DejaVuSans-115"/>
      <use x="660.966797" xlink:href="#DejaVuSans-101"/>
      <use x="722.490234" xlink:href="#DejaVuSans-99"/>
      <use x="777.470703" xlink:href="#DejaVuSans-111"/>
      <use x="838.652344" xlink:href="#DejaVuSans-110"/>
      <use x="902.03125" xlink:href="#DejaVuSans-100"/>
     </g>
    </g>
    <g id="text_16">
     <!-- 1e7 -->
     <g transform="translate(40.28125 19.318125)scale(0.1 -0.1)">
      <use xlink:href="#DejaVuSans-49"/>
      <use x="63.623047" xlink:href="#DejaVuSans-101"/>
      <use x="125.146484" xlink:href="#DejaVuSans-55"/>
     </g>
    </g>
   </g>
   <g id="LineCollection_1">
    <path clip-path="url(#p442b801411)" d="M 58.725795 79.873233 
L 58.725795 76.558488 
" style="fill:none;stroke:#1f77b4;stroke-width:1.5;"/>
    <path clip-path="url(#p442b801411)" d="M 111.424497 36.367534 
L 111.424497 36.305235 
" style="fill:none;stroke:#1f77b4;stroke-width:1.5;"/>
    <path clip-path="url(#p442b801411)" d="M 164.123198 35.463245 
L 164.123198 35.403077 
" style="fill:none;stroke:#1f77b4;stroke-width:1.5;"/>
    <path clip-path="url(#p442b801411)" d="M 216.821899 35.13804 
L 216.821899 35.087221 
" style="fill:none;stroke:#1f77b4;stroke-width:1.5;"/>
    <path clip-path="url(#p442b801411)" d="M 269.520601 35.189438 
L 269.520601 35.126739 
" style="fill:none;stroke:#1f77b4;stroke-width:1.5;"/>
    <path clip-path="url(#p442b801411)" d="M 322.219302 35.16295 
L 322.219302 35.067416 
" style="fill:none;stroke:#1f77b4;stroke-width:1.5;"/>
    <path clip-path="url(#p442b801411)" d="M 374.918003 35.139482 
L 374.918003 35.057216 
" style="fill:none;stroke:#1f77b4;stroke-width:1.5;"/>
    <path clip-path="url(#p442b801411)" d="M 427.616705 36.382231 
L 427.616705 35.136104 
" style="fill:none;stroke:#1f77b4;stroke-width:1.5;"/>
   </g>
   <g id="LineCollection_2">
    <path clip-path="url(#p442b801411)" d="M 58.725795 163.457304 
L 58.725795 162.916363 
" style="fill:none;stroke:#aec7e8;stroke-width:1.5;"/>
    <path clip-path="url(#p442b801411)" d="M 111.424497 40.475539 
L 111.424497 39.313337 
" style="fill:none;stroke:#aec7e8;stroke-width:1.5;"/>
    <path clip-path="url(#p442b801411)" d="M 164.123198 35.468118 
L 164.123198 35.376708 
" style="fill:none;stroke:#aec7e8;stroke-width:1.5;"/>
    <path clip-path="url(#p442b801411)" d="M 216.821899 35.348507 
L 216.821899 35.26449 
" style="fill:none;stroke:#aec7e8;stroke-width:1.5;"/>
    <path clip-path="url(#p442b801411)" d="M 269.520601 35.29641 
L 269.520601 35.205897 
" style="fill:none;stroke:#aec7e8;stroke-width:1.5;"/>
    <path clip-path="url(#p442b801411)" d="M 322.219302 35.355876 
L 322.219302 35.216847 
" style="fill:none;stroke:#aec7e8;stroke-width:1.5;"/>
    <path clip-path="url(#p442b801411)" d="M 374.918003 35.289138 
L 374.918003 35.186366 
" style="fill:none;stroke:#aec7e8;stroke-width:1.5;"/>
    <path clip-path="url(#p442b801411)" d="M 427.616705 40.915785 
L 427.616705 38.916048 
" style="fill:none;stroke:#aec7e8;stroke-width:1.5;"/>
   </g>
   <g id="LineCollection_3">
    <path clip-path="url(#p442b801411)" d="M 58.725795 231.366326 
L 58.725795 230.691169 
" style="fill:none;stroke:#ff7f0e;stroke-width:1.5;"/>
    <path clip-path="url(#p442b801411)" d="M 111.424497 110.714909 
L 111.424497 109.823709 
" style="fill:none;stroke:#ff7f0e;stroke-width:1.5;"/>
    <path clip-path="url(#p442b801411)" d="M 164.123198 55.985684 
L 164.123198 53.900494 
" style="fill:none;stroke:#ff7f0e;stroke-width:1.5;"/>
    <path clip-path="url(#p442b801411)" d="M 216.821899 54.049729 
L 216.821899 53.651272 
" style="fill:none;stroke:#ff7f0e;stroke-width:1.5;"/>
    <path clip-path="url(#p442b801411)" d="M 269.520601 41.87375 
L 269.520601 40.466771 
" style="fill:none;stroke:#ff7f0e;stroke-width:1.5;"/>
    <path clip-path="url(#p442b801411)" d="M 322.219302 53.760102 
L 322.219302 53.205763 
" style="fill:none;stroke:#ff7f0e;stroke-width:1.5;"/>
    <path clip-path="url(#p442b801411)" d="M 374.918003 38.158397 
L 374.918003 37.552217 
" style="fill:none;stroke:#ff7f0e;stroke-width:1.5;"/>
    <path clip-path="url(#p442b801411)" d="M 427.616705 35.305459 
L 427.616705 35.290261 
" style="fill:none;stroke:#ff7f0e;stroke-width:1.5;"/>
   </g>
   <g id="LineCollection_4">
    <path clip-path="url(#p442b801411)" d="M 58.725795 234.909339 
L 58.725795 234.000867 
" style="fill:none;stroke:#ffbb78;stroke-width:1.5;"/>
    <path clip-path="url(#p442b801411)" d="M 111.424497 115.894516 
L 111.424497 111.194728 
" style="fill:none;stroke:#ffbb78;stroke-width:1.5;"/>
    <path clip-path="url(#p442b801411)" d="M 164.123198 52.807201 
L 164.123198 50.677805 
" style="fill:none;stroke:#ffbb78;stroke-width:1.5;"/>
    <path clip-path="url(#p442b801411)" d="M 216.821899 49.765758 
L 216.821899 46.972164 
" style="fill:none;stroke:#ffbb78;stroke-width:1.5;"/>
    <path clip-path="url(#p442b801411)" d="M 269.520601 37.534406 
L 269.520601 36.977766 
" style="fill:none;stroke:#ffbb78;stroke-width:1.5;"/>
    <path clip-path="url(#p442b801411)" d="M 322.219302 55.09562 
L 322.219302 51.596693 
" style="fill:none;stroke:#ffbb78;stroke-width:1.5;"/>
    <path clip-path="url(#p442b801411)" d="M 374.918003 53.863122 
L 374.918003 53.646888 
" style="fill:none;stroke:#ffbb78;stroke-width:1.5;"/>
    <path clip-path="url(#p442b801411)" d="M 427.616705 35.345077 
L 427.616705 35.213661 
" style="fill:none;stroke:#ffbb78;stroke-width:1.5;"/>
   </g>
   <g id="LineCollection_5">
    <path clip-path="url(#p442b801411)" d="M 58.725795 289.839034 
L 58.725795 289.731804 
" style="fill:none;stroke:#2ca02c;stroke-width:1.5;"/>
    <path clip-path="url(#p442b801411)" d="M 111.424497 212.623482 
L 111.424497 210.978201 
" style="fill:none;stroke:#2ca02c;stroke-width:1.5;"/>
    <path clip-path="url(#p442b801411)" d="M 164.123198 150.893737 
L 164.123198 149.747465 
" style="fill:none;stroke:#2ca02c;stroke-width:1.5;"/>
    <path clip-path="url(#p442b801411)" d="M 216.821899 97.177736 
L 216.821899 95.272795 
" style="fill:none;stroke:#2ca02c;stroke-width:1.5;"/>
    <path clip-path="url(#p442b801411)" d="M 269.520601 75.201887 
L 269.520601 73.74125 
" style="fill:none;stroke:#2ca02c;stroke-width:1.5;"/>
    <path clip-path="url(#p442b801411)" d="M 322.219302 60.907157 
L 322.219302 58.319669 
" style="fill:none;stroke:#2ca02c;stroke-width:1.5;"/>
    <path clip-path="url(#p442b801411)" d="M 374.918003 76.774444 
L 374.918003 76.44306 
" style="fill:none;stroke:#2ca02c;stroke-width:1.5;"/>
    <path clip-path="url(#p442b801411)" d="M 427.616705 48.37466 
L 427.616705 47.356073 
" style="fill:none;stroke:#2ca02c;stroke-width:1.5;"/>
   </g>
   <g id="line2d_40">
    <path clip-path="url(#p442b801411)" d="M 58.725795 78.21586 
L 111.424497 36.336385 
L 164.123198 35.433161 
L 216.821899 35.11263 
L 269.520601 35.158088 
L 322.219302 35.115183 
L 374.918003 35.098349 
L 427.616705 35.759167 
" style="fill:none;stroke:#1f77b4;stroke-linecap:square;stroke-width:1.5;"/>
    <defs>
     <path d="M 0 3 
C 0.795609 3 1.55874 2.683901 2.12132 2.12132 
C 2.683901 1.55874 3 0.795609 3 0 
C 3 -0.795609 2.683901 -1.55874 2.12132 -2.12132 
C 1.55874 -2.683901 0.795609 -3 0 -3 
C -0.795609 -3 -1.55874 -2.683901 -2.12132 -2.12132 
C -2.683901 -1.55874 -3 -0.795609 -3 0 
C -3 0.795609 -2.683901 1.55874 -2.12132 2.12132 
C -1.55874 2.683901 -0.795609 3 0 3 
z
" id="mab1be0cabb" style="stroke:#1f77b4;"/>
    </defs>
    <g clip-path="url(#p442b801411)">
     <use style="fill-opacity:0;stroke:#1f77b4;" x="58.725795" xlink:href="#mab1be0cabb" y="78.21586"/>
     <use style="fill-opacity:0;stroke:#1f77b4;" x="111.424497" xlink:href="#mab1be0cabb" y="36.336385"/>
     <use style="fill-opacity:0;stroke:#1f77b4;" x="164.123198" xlink:href="#mab1be0cabb" y="35.433161"/>
     <use style="fill-opacity:0;stroke:#1f77b4;" x="216.821899" xlink:href="#mab1be0cabb" y="35.11263"/>
     <use style="fill-opacity:0;stroke:#1f77b4;" x="269.520601" xlink:href="#mab1be0cabb" y="35.158088"/>
     <use style="fill-opacity:0;stroke:#1f77b4;" x="322.219302" xlink:href="#mab1be0cabb" y="35.115183"/>
     <use style="fill-opacity:0;stroke:#1f77b4;" x="374.918003" xlink:href="#mab1be0cabb" y="35.098349"/>
     <use style="fill-opacity:0;stroke:#1f77b4;" x="427.616705" xlink:href="#mab1be0cabb" y="35.759167"/>
    </g>
   </g>
   <g id="line2d_41">
    <defs>
     <path d="M 3 0 
L -3 -0 
" id="mb0be33493d" style="stroke:#1f77b4;"/>
    </defs>
    <g clip-path="url(#p442b801411)">
     <use style="fill:#1f77b4;stroke:#1f77b4;" x="58.725795" xlink:href="#mb0be33493d" y="79.873233"/>
     <use style="fill:#1f77b4;stroke:#1f77b4;" x="111.424497" xlink:href="#mb0be33493d" y="36.367534"/>
     <use style="fill:#1f77b4;stroke:#1f77b4;" x="164.123198" xlink:href="#mb0be33493d" y="35.463245"/>
     <use style="fill:#1f77b4;stroke:#1f77b4;" x="216.821899" xlink:href="#mb0be33493d" y="35.13804"/>
     <use style="fill:#1f77b4;stroke:#1f77b4;" x="269.520601" xlink:href="#mb0be33493d" y="35.189438"/>
     <use style="fill:#1f77b4;stroke:#1f77b4;" x="322.219302" xlink:href="#mb0be33493d" y="35.16295"/>
     <use style="fill:#1f77b4;stroke:#1f77b4;" x="374.918003" xlink:href="#mb0be33493d" y="35.139482"/>
     <use style="fill:#1f77b4;stroke:#1f77b4;" x="427.616705" xlink:href="#mb0be33493d" y="36.382231"/>
    </g>
   </g>
   <g id="line2d_42">
    <g clip-path="url(#p442b801411)">
     <use style="fill:#1f77b4;stroke:#1f77b4;" x="58.725795" xlink:href="#mb0be33493d" y="76.558488"/>
     <use style="fill:#1f77b4;stroke:#1f77b4;" x="111.424497" xlink:href="#mb0be33493d" y="36.305235"/>
     <use style="fill:#1f77b4;stroke:#1f77b4;" x="164.123198" xlink:href="#mb0be33493d" y="35.403077"/>
     <use style="fill:#1f77b4;stroke:#1f77b4;" x="216.821899" xlink:href="#mb0be33493d" y="35.087221"/>
     <use style="fill:#1f77b4;stroke:#1f77b4;" x="269.520601" xlink:href="#mb0be33493d" y="35.126739"/>
     <use style="fill:#1f77b4;stroke:#1f77b4;" x="322.219302" xlink:href="#mb0be33493d" y="35.067416"/>
     <use style="fill:#1f77b4;stroke:#1f77b4;" x="374.918003" xlink:href="#mb0be33493d" y="35.057216"/>
     <use style="fill:#1f77b4;stroke:#1f77b4;" x="427.616705" xlink:href="#mb0be33493d" y="35.136104"/>
    </g>
   </g>
   <g id="line2d_43">
    <path clip-path="url(#p442b801411)" d="M 58.725795 163.186834 
L 111.424497 39.894438 
L 164.123198 35.422413 
L 216.821899 35.306498 
L 269.520601 35.251154 
L 322.219302 35.286362 
L 374.918003 35.237752 
L 427.616705 39.915917 
" style="fill:none;stroke:#aec7e8;stroke-linecap:square;stroke-width:1.5;"/>
    <defs>
     <path d="M 0 -3 
L -3 3 
L 3 3 
z
" id="mf380828741" style="stroke:#aec7e8;stroke-linejoin:miter;"/>
    </defs>
    <g clip-path="url(#p442b801411)">
     <use style="fill-opacity:0;stroke:#aec7e8;stroke-linejoin:miter;" x="58.725795" xlink:href="#mf380828741" y="163.186834"/>
     <use style="fill-opacity:0;stroke:#aec7e8;stroke-linejoin:miter;" x="111.424497" xlink:href="#mf380828741" y="39.894438"/>
     <use style="fill-opacity:0;stroke:#aec7e8;stroke-linejoin:miter;" x="164.123198" xlink:href="#mf380828741" y="35.422413"/>
     <use style="fill-opacity:0;stroke:#aec7e8;stroke-linejoin:miter;" x="216.821899" xlink:href="#mf380828741" y="35.306498"/>
     <use style="fill-opacity:0;stroke:#aec7e8;stroke-linejoin:miter;" x="269.520601" xlink:href="#mf380828741" y="35.251154"/>
     <use style="fill-opacity:0;stroke:#aec7e8;stroke-linejoin:miter;" x="322.219302" xlink:href="#mf380828741" y="35.286362"/>
     <use style="fill-opacity:0;stroke:#aec7e8;stroke-linejoin:miter;" x="374.918003" xlink:href="#mf380828741" y="35.237752"/>
     <use style="fill-opacity:0;stroke:#aec7e8;stroke-linejoin:miter;" x="427.616705" xlink:href="#mf380828741" y="39.915917"/>
    </g>
   </g>
   <g id="line2d_44">
    <defs>
     <path d="M 3 0 
L -3 -0 
" id="mc00cb34fee" style="stroke:#aec7e8;"/>
    </defs>
    <g clip-path="url(#p442b801411)">
     <use style="fill:#aec7e8;stroke:#aec7e8;" x="58.725795" xlink:href="#mc00cb34fee" y="163.457304"/>
     <use style="fill:#aec7e8;stroke:#aec7e8;" x="111.424497" xlink:href="#mc00cb34fee" y="40.475539"/>
     <use style="fill:#aec7e8;stroke:#aec7e8;" x="164.123198" xlink:href="#mc00cb34fee" y="35.468118"/>
     <use style="fill:#aec7e8;stroke:#aec7e8;" x="216.821899" xlink:href="#mc00cb34fee" y="35.348507"/>
     <use style="fill:#aec7e8;stroke:#aec7e8;" x="269.520601" xlink:href="#mc00cb34fee" y="35.29641"/>
     <use style="fill:#aec7e8;stroke:#aec7e8;" x="322.219302" xlink:href="#mc00cb34fee" y="35.355876"/>
     <use style="fill:#aec7e8;stroke:#aec7e8;" x="374.918003" xlink:href="#mc00cb34fee" y="35.289138"/>
     <use style="fill:#aec7e8;stroke:#aec7e8;" x="427.616705" xlink:href="#mc00cb34fee" y="40.915785"/>
    </g>
   </g>
   <g id="line2d_45">
    <g clip-path="url(#p442b801411)">
     <use style="fill:#aec7e8;stroke:#aec7e8;" x="58.725795" xlink:href="#mc00cb34fee" y="162.916363"/>
     <use style="fill:#aec7e8;stroke:#aec7e8;" x="111.424497" xlink:href="#mc00cb34fee" y="39.313337"/>
     <use style="fill:#aec7e8;stroke:#aec7e8;" x="164.123198" xlink:href="#mc00cb34fee" y="35.376708"/>
     <use style="fill:#aec7e8;stroke:#aec7e8;" x="216.821899" xlink:href="#mc00cb34fee" y="35.26449"/>
     <use style="fill:#aec7e8;stroke:#aec7e8;" x="269.520601" xlink:href="#mc00cb34fee" y="35.205897"/>
     <use style="fill:#aec7e8;stroke:#aec7e8;" x="322.219302" xlink:href="#mc00cb34fee" y="35.216847"/>
     <use style="fill:#aec7e8;stroke:#aec7e8;" x="374.918003" xlink:href="#mc00cb34fee" y="35.186366"/>
     <use style="fill:#aec7e8;stroke:#aec7e8;" x="427.616705" xlink:href="#mc00cb34fee" y="38.916048"/>
    </g>
   </g>
   <g id="line2d_46">
    <path clip-path="url(#p442b801411)" d="M 58.725795 231.028748 
L 111.424497 110.269309 
L 164.123198 54.943089 
L 216.821899 53.850501 
L 269.520601 41.17026 
L 322.219302 53.482932 
L 374.918003 37.855307 
L 427.616705 35.29786 
" style="fill:none;stroke:#ff7f0e;stroke-linecap:square;stroke-width:1.5;"/>
    <defs>
     <path d="M -3 3 
L 3 3 
L 3 -3 
L -3 -3 
z
" id="m7850f8b60b" style="stroke:#ff7f0e;stroke-linejoin:miter;"/>
    </defs>
    <g clip-path="url(#p442b801411)">
     <use style="fill-opacity:0;stroke:#ff7f0e;stroke-linejoin:miter;" x="58.725795" xlink:href="#m7850f8b60b" y="231.028748"/>
     <use style="fill-opacity:0;stroke:#ff7f0e;stroke-linejoin:miter;" x="111.424497" xlink:href="#m7850f8b60b" y="110.269309"/>
     <use style="fill-opacity:0;stroke:#ff7f0e;stroke-linejoin:miter;" x="164.123198" xlink:href="#m7850f8b60b" y="54.943089"/>
     <use style="fill-opacity:0;stroke:#ff7f0e;stroke-linejoin:miter;" x="216.821899" xlink:href="#m7850f8b60b" y="53.850501"/>
     <use style="fill-opacity:0;stroke:#ff7f0e;stroke-linejoin:miter;" x="269.520601" xlink:href="#m7850f8b60b" y="41.17026"/>
     <use style="fill-opacity:0;stroke:#ff7f0e;stroke-linejoin:miter;" x="322.219302" xlink:href="#m7850f8b60b" y="53.482932"/>
     <use style="fill-opacity:0;stroke:#ff7f0e;stroke-linejoin:miter;" x="374.918003" xlink:href="#m7850f8b60b" y="37.855307"/>
     <use style="fill-opacity:0;stroke:#ff7f0e;stroke-linejoin:miter;" x="427.616705" xlink:href="#m7850f8b60b" y="35.29786"/>
    </g>
   </g>
   <g id="line2d_47">
    <defs>
     <path d="M 3 0 
L -3 -0 
" id="ma0c2f29387" style="stroke:#ff7f0e;"/>
    </defs>
    <g clip-path="url(#p442b801411)">
     <use style="fill:#ff7f0e;stroke:#ff7f0e;" x="58.725795" xlink:href="#ma0c2f29387" y="231.366326"/>
     <use style="fill:#ff7f0e;stroke:#ff7f0e;" x="111.424497" xlink:href="#ma0c2f29387" y="110.714909"/>
     <use style="fill:#ff7f0e;stroke:#ff7f0e;" x="164.123198" xlink:href="#ma0c2f29387" y="55.985684"/>
     <use style="fill:#ff7f0e;stroke:#ff7f0e;" x="216.821899" xlink:href="#ma0c2f29387" y="54.049729"/>
     <use style="fill:#ff7f0e;stroke:#ff7f0e;" x="269.520601" xlink:href="#ma0c2f29387" y="41.87375"/>
     <use style="fill:#ff7f0e;stroke:#ff7f0e;" x="322.219302" xlink:href="#ma0c2f29387" y="53.760102"/>
     <use style="fill:#ff7f0e;stroke:#ff7f0e;" x="374.918003" xlink:href="#ma0c2f29387" y="38.158397"/>
     <use style="fill:#ff7f0e;stroke:#ff7f0e;" x="427.616705" xlink:href="#ma0c2f29387" y="35.305459"/>
    </g>
   </g>
   <g id="line2d_48">
    <g clip-path="url(#p442b801411)">
     <use style="fill:#ff7f0e;stroke:#ff7f0e;" x="58.725795" xlink:href="#ma0c2f29387" y="230.691169"/>
     <use style="fill:#ff7f0e;stroke:#ff7f0e;" x="111.424497" xlink:href="#ma0c2f29387" y="109.823709"/>
     <use style="fill:#ff7f0e;stroke:#ff7f0e;" x="164.123198" xlink:href="#ma0c2f29387" y="53.900494"/>
     <use style="fill:#ff7f0e;stroke:#ff7f0e;" x="216.821899" xlink:href="#ma0c2f29387" y="53.651272"/>
     <use style="fill:#ff7f0e;stroke:#ff7f0e;" x="269.520601" xlink:href="#ma0c2f29387" y="40.466771"/>
     <use style="fill:#ff7f0e;stroke:#ff7f0e;" x="322.219302" xlink:href="#ma0c2f29387" y="53.205763"/>
     <use style="fill:#ff7f0e;stroke:#ff7f0e;" x="374.918003" xlink:href="#ma0c2f29387" y="37.552217"/>
     <use style="fill:#ff7f0e;stroke:#ff7f0e;" x="427.616705" xlink:href="#ma0c2f29387" y="35.290261"/>
    </g>
   </g>
   <g id="line2d_49">
    <path clip-path="url(#p442b801411)" d="M 58.725795 234.455103 
L 111.424497 113.544622 
L 164.123198 51.742503 
L 216.821899 48.368961 
L 269.520601 37.256086 
L 322.219302 53.346157 
L 374.918003 53.755005 
L 427.616705 35.279369 
" style="fill:none;stroke:#ffbb78;stroke-linecap:square;stroke-width:1.5;"/>
    <defs>
     <path d="M -0 4.242641 
L 4.242641 0 
L 0 -4.242641 
L -4.242641 -0 
z
" id="m15113c5237" style="stroke:#ffbb78;stroke-linejoin:miter;"/>
    </defs>
    <g clip-path="url(#p442b801411)">
     <use style="fill-opacity:0;stroke:#ffbb78;stroke-linejoin:miter;" x="58.725795" xlink:href="#m15113c5237" y="234.455103"/>
     <use style="fill-opacity:0;stroke:#ffbb78;stroke-linejoin:miter;" x="111.424497" xlink:href="#m15113c5237" y="113.544622"/>
     <use style="fill-opacity:0;stroke:#ffbb78;stroke-linejoin:miter;" x="164.123198" xlink:href="#m15113c5237" y="51.742503"/>
     <use style="fill-opacity:0;stroke:#ffbb78;stroke-linejoin:miter;" x="216.821899" xlink:href="#m15113c5237" y="48.368961"/>
     <use style="fill-opacity:0;stroke:#ffbb78;stroke-linejoin:miter;" x="269.520601" xlink:href="#m15113c5237" y="37.256086"/>
     <use style="fill-opacity:0;stroke:#ffbb78;stroke-linejoin:miter;" x="322.219302" xlink:href="#m15113c5237" y="53.346157"/>
     <use style="fill-opacity:0;stroke:#ffbb78;stroke-linejoin:miter;" x="374.918003" xlink:href="#m15113c5237" y="53.755005"/>
     <use style="fill-opacity:0;stroke:#ffbb78;stroke-linejoin:miter;" x="427.616705" xlink:href="#m15113c5237" y="35.279369"/>
    </g>
   </g>
   <g id="line2d_50">
    <defs>
     <path d="M 3 0 
L -3 -0 
" id="m74e9022b5d" style="stroke:#ffbb78;"/>
    </defs>
    <g clip-path="url(#p442b801411)">
     <use style="fill:#ffbb78;stroke:#ffbb78;" x="58.725795" xlink:href="#m74e9022b5d" y="234.909339"/>
     <use style="fill:#ffbb78;stroke:#ffbb78;" x="111.424497" xlink:href="#m74e9022b5d" y="115.894516"/>
     <use style="fill:#ffbb78;stroke:#ffbb78;" x="164.123198" xlink:href="#m74e9022b5d" y="52.807201"/>
     <use style="fill:#ffbb78;stroke:#ffbb78;" x="216.821899" xlink:href="#m74e9022b5d" y="49.765758"/>
     <use style="fill:#ffbb78;stroke:#ffbb78;" x="269.520601" xlink:href="#m74e9022b5d" y="37.534406"/>
     <use style="fill:#ffbb78;stroke:#ffbb78;" x="322.219302" xlink:href="#m74e9022b5d" y="55.09562"/>
     <use style="fill:#ffbb78;stroke:#ffbb78;" x="374.918003" xlink:href="#m74e9022b5d" y="53.863122"/>
     <use style="fill:#ffbb78;stroke:#ffbb78;" x="427.616705" xlink:href="#m74e9022b5d" y="35.345077"/>
    </g>
   </g>
   <g id="line2d_51">
    <g clip-path="url(#p442b801411)">
     <use style="fill:#ffbb78;stroke:#ffbb78;" x="58.725795" xlink:href="#m74e9022b5d" y="234.000867"/>
     <use style="fill:#ffbb78;stroke:#ffbb78;" x="111.424497" xlink:href="#m74e9022b5d" y="111.194728"/>
     <use style="fill:#ffbb78;stroke:#ffbb78;" x="164.123198" xlink:href="#m74e9022b5d" y="50.677805"/>
     <use style="fill:#ffbb78;stroke:#ffbb78;" x="216.821899" xlink:href="#m74e9022b5d" y="46.972164"/>
     <use style="fill:#ffbb78;stroke:#ffbb78;" x="269.520601" xlink:href="#m74e9022b5d" y="36.977766"/>
     <use style="fill:#ffbb78;stroke:#ffbb78;" x="322.219302" xlink:href="#m74e9022b5d" y="51.596693"/>
     <use style="fill:#ffbb78;stroke:#ffbb78;" x="374.918003" xlink:href="#m74e9022b5d" y="53.646888"/>
     <use style="fill:#ffbb78;stroke:#ffbb78;" x="427.616705" xlink:href="#m74e9022b5d" y="35.213661"/>
    </g>
   </g>
   <g id="line2d_52">
    <path clip-path="url(#p442b801411)" d="M 58.725795 289.785419 
L 111.424497 211.800842 
L 164.123198 150.320601 
L 216.821899 96.225265 
L 269.520601 74.471569 
L 322.219302 59.613413 
L 374.918003 76.608752 
L 427.616705 47.865366 
" style="fill:none;stroke:#2ca02c;stroke-linecap:square;stroke-width:1.5;"/>
    <defs>
     <path d="M 0 -3 
L -0.673542 -0.927051 
L -2.85317 -0.927051 
L -1.089814 0.354102 
L -1.763356 2.427051 
L -0 1.145898 
L 1.763356 2.427051 
L 1.089814 0.354102 
L 2.85317 -0.927051 
L 0.673542 -0.927051 
z
" id="mdc936f507c" style="stroke:#2ca02c;stroke-linejoin:bevel;"/>
    </defs>
    <g clip-path="url(#p442b801411)">
     <use style="fill-opacity:0;stroke:#2ca02c;stroke-linejoin:bevel;" x="58.725795" xlink:href="#mdc936f507c" y="289.785419"/>
     <use style="fill-opacity:0;stroke:#2ca02c;stroke-linejoin:bevel;" x="111.424497" xlink:href="#mdc936f507c" y="211.800842"/>
     <use style="fill-opacity:0;stroke:#2ca02c;stroke-linejoin:bevel;" x="164.123198" xlink:href="#mdc936f507c" y="150.320601"/>
     <use style="fill-opacity:0;stroke:#2ca02c;stroke-linejoin:bevel;" x="216.821899" xlink:href="#mdc936f507c" y="96.225265"/>
     <use style="fill-opacity:0;stroke:#2ca02c;stroke-linejoin:bevel;" x="269.520601" xlink:href="#mdc936f507c" y="74.471569"/>
     <use style="fill-opacity:0;stroke:#2ca02c;stroke-linejoin:bevel;" x="322.219302" xlink:href="#mdc936f507c" y="59.613413"/>
     <use style="fill-opacity:0;stroke:#2ca02c;stroke-linejoin:bevel;" x="374.918003" xlink:href="#mdc936f507c" y="76.608752"/>
     <use style="fill-opacity:0;stroke:#2ca02c;stroke-linejoin:bevel;" x="427.616705" xlink:href="#mdc936f507c" y="47.865366"/>
    </g>
   </g>
   <g id="line2d_53">
    <defs>
     <path d="M 3 0 
L -3 -0 
" id="m27306a073c" style="stroke:#2ca02c;"/>
    </defs>
    <g clip-path="url(#p442b801411)">
     <use style="fill:#2ca02c;stroke:#2ca02c;" x="58.725795" xlink:href="#m27306a073c" y="289.839034"/>
     <use style="fill:#2ca02c;stroke:#2ca02c;" x="111.424497" xlink:href="#m27306a073c" y="212.623482"/>
     <use style="fill:#2ca02c;stroke:#2ca02c;" x="164.123198" xlink:href="#m27306a073c" y="150.893737"/>
     <use style="fill:#2ca02c;stroke:#2ca02c;" x="216.821899" xlink:href="#m27306a073c" y="97.177736"/>
     <use style="fill:#2ca02c;stroke:#2ca02c;" x="269.520601" xlink:href="#m27306a073c" y="75.201887"/>
     <use style="fill:#2ca02c;stroke:#2ca02c;" x="322.219302" xlink:href="#m27306a073c" y="60.907157"/>
     <use style="fill:#2ca02c;stroke:#2ca02c;" x="374.918003" xlink:href="#m27306a073c" y="76.774444"/>
     <use style="fill:#2ca02c;stroke:#2ca02c;" x="427.616705" xlink:href="#m27306a073c" y="48.37466"/>
    </g>
   </g>
   <g id="line2d_54">
    <g clip-path="url(#p442b801411)">
     <use style="fill:#2ca02c;stroke:#2ca02c;" x="58.725795" xlink:href="#m27306a073c" y="289.731804"/>
     <use style="fill:#2ca02c;stroke:#2ca02c;" x="111.424497" xlink:href="#m27306a073c" y="210.978201"/>
     <use style="fill:#2ca02c;stroke:#2ca02c;" x="164.123198" xlink:href="#m27306a073c" y="149.747465"/>
     <use style="fill:#2ca02c;stroke:#2ca02c;" x="216.821899" xlink:href="#m27306a073c" y="95.272795"/>
     <use style="fill:#2ca02c;stroke:#2ca02c;" x="269.520601" xlink:href="#m27306a073c" y="73.74125"/>
     <use style="fill:#2ca02c;stroke:#2ca02c;" x="322.219302" xlink:href="#m27306a073c" y="58.319669"/>
     <use style="fill:#2ca02c;stroke:#2ca02c;" x="374.918003" xlink:href="#m27306a073c" y="76.44306"/>
     <use style="fill:#2ca02c;stroke:#2ca02c;" x="427.616705" xlink:href="#m27306a073c" y="47.356073"/>
    </g>
   </g>
   <g id="line2d_55"/>
   <g id="line2d_56"/>
   <g id="line2d_57"/>
   <g id="line2d_58"/>
   <g id="line2d_59"/>
   <g id="patch_3">
    <path d="M 40.28125 302.578125 
L 40.28125 22.318125 
" style="fill:none;stroke:#000000;stroke-linecap:square;stroke-linejoin:miter;stroke-width:0.8;"/>
   </g>
   <g id="patch_4">
    <path d="M 446.06125 302.578125 
L 446.06125 22.318125 
" style="fill:none;stroke:#000000;stroke-linecap:square;stroke-linejoin:miter;stroke-width:0.8;"/>
   </g>
   <g id="patch_5">
    <path d="M 40.28125 302.578125 
L 446.06125 302.578125 
" style="fill:none;stroke:#000000;stroke-linecap:square;stroke-linejoin:miter;stroke-width:0.8;"/>
   </g>
   <g id="patch_6">
    <path d="M 40.28125 22.318125 
L 446.06125 22.318125 
" style="fill:none;stroke:#000000;stroke-linecap:square;stroke-linejoin:miter;stroke-width:0.8;"/>
   </g>
   <g id="text_17">
    <!-- 03-fosdem-stuffs.npf -->
    <defs>
     <path d="M 4.890625 31.390625 
L 31.203125 31.390625 
L 31.203125 23.390625 
L 4.890625 23.390625 
z
" id="DejaVuSans-45"/>
    </defs>
    <g transform="translate(180.691562 16.318125)scale(0.12 -0.12)">
     <use xlink:href="#DejaVuSans-48"/>
     <use x="63.623047" xlink:href="#DejaVuSans-51"/>
     <use x="127.246094" xlink:href="#DejaVuSans-45"/>
     <use x="163.330078" xlink:href="#DejaVuSans-102"/>
     <use x="198.535156" xlink:href="#DejaVuSans-111"/>
     <use x="259.716797" xlink:href="#DejaVuSans-115"/>
     <use x="311.816406" xlink:href="#DejaVuSans-100"/>
     <use x="375.292969" xlink:href="#DejaVuSans-101"/>
     <use x="436.816406" xlink:href="#DejaVuSans-109"/>
     <use x="534.228516" xlink:href="#DejaVuSans-45"/>
     <use x="570.3125" xlink:href="#DejaVuSans-115"/>
     <use x="622.412109" xlink:href="#DejaVuSans-116"/>
     <use x="661.621094" xlink:href="#DejaVuSans-117"/>
     <use x="725" xlink:href="#DejaVuSans-102"/>
     <use x="760.205078" xlink:href="#DejaVuSans-102"/>
     <use x="795.410156" xlink:href="#DejaVuSans-115"/>
     <use x="847.509766" xlink:href="#DejaVuSans-46"/>
     <use x="879.296875" xlink:href="#DejaVuSans-110"/>
     <use x="942.675781" xlink:href="#DejaVuSans-112"/>
     <use x="1006.152344" xlink:href="#DejaVuSans-102"/>
    </g>
   </g>
   <g id="legend_1">
    <g id="patch_7">
     <path d="M 325.44875 297.578125 
L 441.06125 297.578125 
L 441.06125 206.509375 
L 325.44875 206.509375 
z
" style="fill:#ffffff;stroke:#000000;stroke-linejoin:miter;"/>
    </g>
    <g id="text_18">
     <!-- FNT -->
     <defs>
      <path d="M 9.8125 72.90625 
L 51.703125 72.90625 
L 51.703125 64.59375 
L 19.671875 64.59375 
L 19.671875 43.109375 
L 48.578125 43.109375 
L 48.578125 34.8125 
L 19.671875 34.8125 
L 19.671875 0 
L 9.8125 0 
z
" id="DejaVuSans-70"/>
      <path d="M -0.296875 72.90625 
L 61.375 72.90625 
L 61.375 64.59375 
L 35.5 64.59375 
L 35.5 0 
L 25.59375 0 
L 25.59375 64.59375 
L -0.296875 64.59375 
z
" id="DejaVuSans-84"/>
     </defs>
     <g transform="translate(373.584687 218.107812)scale(0.1 -0.1)">
      <use xlink:href="#DejaVuSans-70"/>
      <use x="57.519531" xlink:href="#DejaVuSans-78"/>
      <use x="132.324219" xlink:href="#DejaVuSans-84"/>
     </g>
    </g>
    <g id="line2d_60">
     <path d="M 329.44875 229.285937 
L 349.44875 229.285937 
" style="fill:none;stroke:#1f77b4;stroke-linecap:square;stroke-width:1.5;"/>
    </g>
    <g id="line2d_61">
     <g>
      <use style="fill-opacity:0;stroke:#1f77b4;" x="339.44875" xlink:href="#mab1be0cabb" y="229.285937"/>
     </g>
    </g>
    <g id="text_19">
     <!-- Router -->
     <defs>
      <path d="M 44.390625 34.1875 
Q 47.5625 33.109375 50.5625 29.59375 
Q 53.5625 26.078125 56.59375 19.921875 
L 66.609375 0 
L 56 0 
L 46.6875 18.703125 
Q 43.0625 26.03125 39.671875 28.421875 
Q 36.28125 30.8125 30.421875 30.8125 
L 19.671875 30.8125 
L 19.671875 0 
L 9.8125 0 
L 9.8125 72.90625 
L 32.078125 72.90625 
Q 44.578125 72.90625 50.734375 67.671875 
Q 56.890625 62.453125 56.890625 51.90625 
Q 56.890625 45.015625 53.6875 40.46875 
Q 50.484375 35.9375 44.390625 34.1875 
z
M 19.671875 64.796875 
L 19.671875 38.921875 
L 32.078125 38.921875 
Q 39.203125 38.921875 42.84375 42.21875 
Q 46.484375 45.515625 46.484375 51.90625 
Q 46.484375 58.296875 42.84375 61.546875 
Q 39.203125 64.796875 32.078125 64.796875 
z
" id="DejaVuSans-82"/>
     </defs>
     <g transform="translate(357.44875 232.785937)scale(0.1 -0.1)">
      <use xlink:href="#DejaVuSans-82"/>
      <use x="64.982422" xlink:href="#DejaVuSans-111"/>
      <use x="126.164062" xlink:href="#DejaVuSans-117"/>
      <use x="189.542969" xlink:href="#DejaVuSans-116"/>
      <use x="228.751953" xlink:href="#DejaVuSans-101"/>
      <use x="290.275391" xlink:href="#DejaVuSans-114"/>
     </g>
    </g>
    <g id="line2d_62">
     <path d="M 329.44875 243.964062 
L 349.44875 243.964062 
" style="fill:none;stroke:#aec7e8;stroke-linecap:square;stroke-width:1.5;"/>
    </g>
    <g id="line2d_63">
     <g>
      <use style="fill-opacity:0;stroke:#aec7e8;stroke-linejoin:miter;" x="339.44875" xlink:href="#mf380828741" y="243.964062"/>
     </g>
    </g>
    <g id="text_20">
     <!-- +Sanity check -->
     <defs>
      <path d="M 46 62.703125 
L 46 35.5 
L 73.1875 35.5 
L 73.1875 27.203125 
L 46 27.203125 
L 46 0 
L 37.796875 0 
L 37.796875 27.203125 
L 10.59375 27.203125 
L 10.59375 35.5 
L 37.796875 35.5 
L 37.796875 62.703125 
z
" id="DejaVuSans-43"/>
      <path d="M 53.515625 70.515625 
L 53.515625 60.890625 
Q 47.90625 63.578125 42.921875 64.890625 
Q 37.9375 66.21875 33.296875 66.21875 
Q 25.25 66.21875 20.875 63.09375 
Q 16.5 59.96875 16.5 54.203125 
Q 16.5 49.359375 19.40625 46.890625 
Q 22.3125 44.4375 30.421875 42.921875 
L 36.375 41.703125 
Q 47.40625 39.59375 52.65625 34.296875 
Q 57.90625 29 57.90625 20.125 
Q 57.90625 9.515625 50.796875 4.046875 
Q 43.703125 -1.421875 29.984375 -1.421875 
Q 24.8125 -1.421875 18.96875 -0.25 
Q 13.140625 0.921875 6.890625 3.21875 
L 6.890625 13.375 
Q 12.890625 10.015625 18.65625 8.296875 
Q 24.421875 6.59375 29.984375 6.59375 
Q 38.421875 6.59375 43.015625 9.90625 
Q 47.609375 13.234375 47.609375 19.390625 
Q 47.609375 24.75 44.3125 27.78125 
Q 41.015625 30.8125 33.5 32.328125 
L 27.484375 33.5 
Q 16.453125 35.6875 11.515625 40.375 
Q 6.59375 45.0625 6.59375 53.421875 
Q 6.59375 63.09375 13.40625 68.65625 
Q 20.21875 74.21875 32.171875 74.21875 
Q 37.3125 74.21875 42.625 73.28125 
Q 47.953125 72.359375 53.515625 70.515625 
z
" id="DejaVuSans-83"/>
      <path d="M 9.421875 54.6875 
L 18.40625 54.6875 
L 18.40625 0 
L 9.421875 0 
z
M 9.421875 75.984375 
L 18.40625 75.984375 
L 18.40625 64.59375 
L 9.421875 64.59375 
z
" id="DejaVuSans-105"/>
      <path d="M 32.171875 -5.078125 
Q 28.375 -14.84375 24.75 -17.8125 
Q 21.140625 -20.796875 15.09375 -20.796875 
L 7.90625 -20.796875 
L 7.90625 -13.28125 
L 13.1875 -13.28125 
Q 16.890625 -13.28125 18.9375 -11.515625 
Q 21 -9.765625 23.484375 -3.21875 
L 25.09375 0.875 
L 2.984375 54.6875 
L 12.5 54.6875 
L 29.59375 11.921875 
L 46.6875 54.6875 
L 56.203125 54.6875 
z
" id="DejaVuSans-121"/>
      <path d="M 54.890625 33.015625 
L 54.890625 0 
L 45.90625 0 
L 45.90625 32.71875 
Q 45.90625 40.484375 42.875 44.328125 
Q 39.84375 48.1875 33.796875 48.1875 
Q 26.515625 48.1875 22.3125 43.546875 
Q 18.109375 38.921875 18.109375 30.90625 
L 18.109375 0 
L 9.078125 0 
L 9.078125 75.984375 
L 18.109375 75.984375 
L 18.109375 46.1875 
Q 21.34375 51.125 25.703125 53.5625 
Q 30.078125 56 35.796875 56 
Q 45.21875 56 50.046875 50.171875 
Q 54.890625 44.34375 54.890625 33.015625 
z
" id="DejaVuSans-104"/>
     </defs>
     <g transform="translate(357.44875 247.464062)scale(0.1 -0.1)">
      <use xlink:href="#DejaVuSans-43"/>
      <use x="83.789062" xlink:href="#DejaVuSans-83"/>
      <use x="147.265625" xlink:href="#DejaVuSans-97"/>
      <use x="208.544922" xlink:href="#DejaVuSans-110"/>
      <use x="271.923828" xlink:href="#DejaVuSans-105"/>
      <use x="299.707031" xlink:href="#DejaVuSans-116"/>
      <use x="338.916016" xlink:href="#DejaVuSans-121"/>
      <use x="398.095703" xlink:href="#DejaVuSans-32"/>
      <use x="429.882812" xlink:href="#DejaVuSans-99"/>
      <use x="484.863281" xlink:href="#DejaVuSans-104"/>
      <use x="548.242188" xlink:href="#DejaVuSans-101"/>
      <use x="609.765625" xlink:href="#DejaVuSans-99"/>
      <use x="664.746094" xlink:href="#DejaVuSans-107"/>
     </g>
    </g>
    <g id="line2d_64">
     <path d="M 329.44875 258.642187 
L 349.44875 258.642187 
" style="fill:none;stroke:#ff7f0e;stroke-linecap:square;stroke-width:1.5;"/>
    </g>
    <g id="line2d_65">
     <g>
      <use style="fill-opacity:0;stroke:#ff7f0e;stroke-linejoin:miter;" x="339.44875" xlink:href="#m7850f8b60b" y="258.642187"/>
     </g>
    </g>
    <g id="text_21">
     <!-- +Load-Balancer -->
     <defs>
      <path d="M 9.8125 72.90625 
L 19.671875 72.90625 
L 19.671875 8.296875 
L 55.171875 8.296875 
L 55.171875 0 
L 9.8125 0 
z
" id="DejaVuSans-76"/>
      <path d="M 19.671875 34.8125 
L 19.671875 8.109375 
L 35.5 8.109375 
Q 43.453125 8.109375 47.28125 11.40625 
Q 51.125 14.703125 51.125 21.484375 
Q 51.125 28.328125 47.28125 31.5625 
Q 43.453125 34.8125 35.5 34.8125 
z
M 19.671875 64.796875 
L 19.671875 42.828125 
L 34.28125 42.828125 
Q 41.5 42.828125 45.03125 45.53125 
Q 48.578125 48.25 48.578125 53.8125 
Q 48.578125 59.328125 45.03125 62.0625 
Q 41.5 64.796875 34.28125 64.796875 
z
M 9.8125 72.90625 
L 35.015625 72.90625 
Q 46.296875 72.90625 52.390625 68.21875 
Q 58.5 63.53125 58.5 54.890625 
Q 58.5 48.1875 55.375 44.234375 
Q 52.25 40.28125 46.1875 39.3125 
Q 53.46875 37.75 57.5 32.78125 
Q 61.53125 27.828125 61.53125 20.40625 
Q 61.53125 10.640625 54.890625 5.3125 
Q 48.25 0 35.984375 0 
L 9.8125 0 
z
" id="DejaVuSans-66"/>
      <path d="M 9.421875 75.984375 
L 18.40625 75.984375 
L 18.40625 0 
L 9.421875 0 
z
" id="DejaVuSans-108"/>
     </defs>
     <g transform="translate(357.44875 262.142187)scale(0.1 -0.1)">
      <use xlink:href="#DejaVuSans-43"/>
      <use x="83.789062" xlink:href="#DejaVuSans-76"/>
      <use x="137.751953" xlink:href="#DejaVuSans-111"/>
      <use x="198.933594" xlink:href="#DejaVuSans-97"/>
      <use x="260.212891" xlink:href="#DejaVuSans-100"/>
      <use x="323.689453" xlink:href="#DejaVuSans-45"/>
      <use x="356.148438" xlink:href="#DejaVuSans-66"/>
      <use x="424.751953" xlink:href="#DejaVuSans-97"/>
      <use x="486.03125" xlink:href="#DejaVuSans-108"/>
      <use x="513.814453" xlink:href="#DejaVuSans-97"/>
      <use x="575.09375" xlink:href="#DejaVuSans-110"/>
      <use x="638.472656" xlink:href="#DejaVuSans-99"/>
      <use x="693.453125" xlink:href="#DejaVuSans-101"/>
      <use x="754.976562" xlink:href="#DejaVuSans-114"/>
     </g>
    </g>
    <g id="line2d_66">
     <path d="M 329.44875 273.320312 
L 349.44875 273.320312 
" style="fill:none;stroke:#ffbb78;stroke-linecap:square;stroke-width:1.5;"/>
    </g>
    <g id="line2d_67">
     <g>
      <use style="fill-opacity:0;stroke:#ffbb78;stroke-linejoin:miter;" x="339.44875" xlink:href="#m15113c5237" y="273.320312"/>
     </g>
    </g>
    <g id="text_22">
     <!-- +Flow monitor -->
     <defs>
      <path d="M 4.203125 54.6875 
L 13.1875 54.6875 
L 24.421875 12.015625 
L 35.59375 54.6875 
L 46.1875 54.6875 
L 57.421875 12.015625 
L 68.609375 54.6875 
L 77.59375 54.6875 
L 63.28125 0 
L 52.6875 0 
L 40.921875 44.828125 
L 29.109375 0 
L 18.5 0 
z
" id="DejaVuSans-119"/>
     </defs>
     <g transform="translate(357.44875 276.820312)scale(0.1 -0.1)">
      <use xlink:href="#DejaVuSans-43"/>
      <use x="83.789062" xlink:href="#DejaVuSans-70"/>
      <use x="141.308594" xlink:href="#DejaVuSans-108"/>
      <use x="169.091797" xlink:href="#DejaVuSans-111"/>
      <use x="230.273438" xlink:href="#DejaVuSans-119"/>
      <use x="312.060547" xlink:href="#DejaVuSans-32"/>
      <use x="343.847656" xlink:href="#DejaVuSans-109"/>
      <use x="441.259766" xlink:href="#DejaVuSans-111"/>
      <use x="502.441406" xlink:href="#DejaVuSans-110"/>
      <use x="565.820312" xlink:href="#DejaVuSans-105"/>
      <use x="593.603516" xlink:href="#DejaVuSans-116"/>
      <use x="632.8125" xlink:href="#DejaVuSans-111"/>
      <use x="693.994141" xlink:href="#DejaVuSans-114"/>
     </g>
    </g>
    <g id="line2d_68">
     <path d="M 329.44875 287.998437 
L 349.44875 287.998437 
" style="fill:none;stroke:#2ca02c;stroke-linecap:square;stroke-width:1.5;"/>
    </g>
    <g id="line2d_69">
     <g>
      <use style="fill-opacity:0;stroke:#2ca02c;stroke-linejoin:bevel;" x="339.44875" xlink:href="#mdc936f507c" y="287.998437"/>
     </g>
    </g>
    <g id="text_23">
     <!-- +DPI -->
     <defs>
      <path d="M 19.671875 64.796875 
L 19.671875 8.109375 
L 31.59375 8.109375 
Q 46.6875 8.109375 53.6875 14.9375 
Q 60.6875 21.78125 60.6875 36.53125 
Q 60.6875 51.171875 53.6875 57.984375 
Q 46.6875 64.796875 31.59375 64.796875 
z
M 9.8125 72.90625 
L 30.078125 72.90625 
Q 51.265625 72.90625 61.171875 64.09375 
Q 71.09375 55.28125 71.09375 36.53125 
Q 71.09375 17.671875 61.125 8.828125 
Q 51.171875 0 30.078125 0 
L 9.8125 0 
z
" id="DejaVuSans-68"/>
      <path d="M 9.8125 72.90625 
L 19.671875 72.90625 
L 19.671875 0 
L 9.8125 0 
z
" id="DejaVuSans-73"/>
     </defs>
     <g transform="translate(357.44875 291.498437)scale(0.1 -0.1)">
      <use xlink:href="#DejaVuSans-43"/>
      <use x="83.789062" xlink:href="#DejaVuSans-68"/>
      <use x="160.791016" xlink:href="#DejaVuSans-80"/>
      <use x="221.09375" xlink:href="#DejaVuSans-73"/>
     </g>
    </g>
   </g>
  </g>
 </g>
 <defs>
  <clipPath id="p442b801411">
   <rect height="280.26" width="405.78" x="40.28125" y="22.318125"/>
  </clipPath>
 </defs>
</svg>
