<?xml version="1.0" encoding="utf-8" standalone="no"?>
<!DOCTYPE svg PUBLIC "-//W3C//DTD SVG 1.1//EN"
  "http://www.w3.org/Graphics/SVG/1.1/DTD/svg11.dtd">
<!-- Created with matplotlib (https://matplotlib.org/) -->
<svg height="336.634375pt" version="1.1" viewBox="0 0 453.385625 336.634375" width="453.385625pt" xmlns="http://www.w3.org/2000/svg" xmlns:xlink="http://www.w3.org/1999/xlink">
 <defs>
  <style type="text/css">
*{stroke-linecap:butt;stroke-linejoin:round;}
  </style>
 </defs>
 <g id="figure_1">
  <g id="patch_1">
   <path d="M 0 336.634375 
L 453.385625 336.634375 
L 453.385625 0 
L 0 0 
z
" style="fill:none;"/>
  </g>
  <g id="axes_1">
   <g id="patch_2">
    <path d="M 43.465625 302.578125 
L 446.185625 302.578125 
L 446.185625 22.318125 
L 43.465625 22.318125 
z
" style="fill:none;"/>
   </g>
   <g id="matplotlib.axis_1">
    <g id="xtick_1">
     <g id="line2d_1">
      <path clip-path="url(#pb0524d2c52)" d="M 61.77108 302.578125 
L 61.77108 22.318125 
" style="fill:none;stroke:#b2b2b2;stroke-dasharray:0.8,1.32;stroke-dashoffset:0;stroke-width:0.8;"/>
     </g>
     <g id="line2d_2">
      <defs>
       <path d="M 0 0 
L 0 -3.5 
" id="mf2a8b0ba0c" style="stroke:#000000;stroke-width:0.8;"/>
      </defs>
      <g>
       <use style="stroke:#000000;stroke-width:0.8;" x="61.77108" xlink:href="#mf2a8b0ba0c" y="302.578125"/>
      </g>
     </g>
     <g id="line2d_3">
      <defs>
       <path d="M 0 0 
L 0 3.5 
" id="md038d7db1f" style="stroke:#000000;stroke-width:0.8;"/>
      </defs>
      <g>
       <use style="stroke:#000000;stroke-width:0.8;" x="61.77108" xlink:href="#md038d7db1f" y="22.318125"/>
      </g>
     </g>
     <g id="text_1">
      <!-- 1 -->
      <defs>
       <path d="M 12.40625 8.296875 
L 28.515625 8.296875 
L 28.515625 63.921875 
L 10.984375 60.40625 
L 10.984375 69.390625 
L 28.421875 72.90625 
L 38.28125 72.90625 
L 38.28125 8.296875 
L 54.390625 8.296875 
L 54.390625 0 
L 12.40625 0 
z
" id="DejaVuSans-49"/>
      </defs>
      <g transform="translate(58.58983 313.676562)scale(0.1 -0.1)">
       <use xlink:href="#DejaVuSans-49"/>
      </g>
     </g>
    </g>
    <g id="xtick_2">
     <g id="line2d_4">
      <path clip-path="url(#pb0524d2c52)" d="M 114.072378 302.578125 
L 114.072378 22.318125 
" style="fill:none;stroke:#b2b2b2;stroke-dasharray:0.8,1.32;stroke-dashoffset:0;stroke-width:0.8;"/>
     </g>
     <g id="line2d_5">
      <g>
       <use style="stroke:#000000;stroke-width:0.8;" x="114.072378" xlink:href="#mf2a8b0ba0c" y="302.578125"/>
      </g>
     </g>
     <g id="line2d_6">
      <g>
       <use style="stroke:#000000;stroke-width:0.8;" x="114.072378" xlink:href="#md038d7db1f" y="22.318125"/>
      </g>
     </g>
     <g id="text_2">
      <!-- 2 -->
      <defs>
       <path d="M 19.1875 8.296875 
L 53.609375 8.296875 
L 53.609375 0 
L 7.328125 0 
L 7.328125 8.296875 
Q 12.9375 14.109375 22.625 23.890625 
Q 32.328125 33.6875 34.8125 36.53125 
Q 39.546875 41.84375 41.421875 45.53125 
Q 43.3125 49.21875 43.3125 52.78125 
Q 43.3125 58.59375 39.234375 62.25 
Q 35.15625 65.921875 28.609375 65.921875 
Q 23.96875 65.921875 18.8125 64.3125 
Q 13.671875 62.703125 7.8125 59.421875 
L 7.8125 69.390625 
Q 13.765625 71.78125 18.9375 73 
Q 24.125 74.21875 28.421875 74.21875 
Q 39.75 74.21875 46.484375 68.546875 
Q 53.21875 62.890625 53.21875 53.421875 
Q 53.21875 48.921875 51.53125 44.890625 
Q 49.859375 40.875 45.40625 35.40625 
Q 44.1875 33.984375 37.640625 27.21875 
Q 31.109375 20.453125 19.1875 8.296875 
z
" id="DejaVuSans-50"/>
      </defs>
      <g transform="translate(110.891128 313.676562)scale(0.1 -0.1)">
       <use xlink:href="#DejaVuSans-50"/>
      </g>
     </g>
    </g>
    <g id="xtick_3">
     <g id="line2d_7">
      <path clip-path="url(#pb0524d2c52)" d="M 166.373677 302.578125 
L 166.373677 22.318125 
" style="fill:none;stroke:#b2b2b2;stroke-dasharray:0.8,1.32;stroke-dashoffset:0;stroke-width:0.8;"/>
     </g>
     <g id="line2d_8">
      <g>
       <use style="stroke:#000000;stroke-width:0.8;" x="166.373677" xlink:href="#mf2a8b0ba0c" y="302.578125"/>
      </g>
     </g>
     <g id="line2d_9">
      <g>
       <use style="stroke:#000000;stroke-width:0.8;" x="166.373677" xlink:href="#md038d7db1f" y="22.318125"/>
      </g>
     </g>
     <g id="text_3">
      <!-- 3 -->
      <defs>
       <path d="M 40.578125 39.3125 
Q 47.65625 37.796875 51.625 33 
Q 55.609375 28.21875 55.609375 21.1875 
Q 55.609375 10.40625 48.1875 4.484375 
Q 40.765625 -1.421875 27.09375 -1.421875 
Q 22.515625 -1.421875 17.65625 -0.515625 
Q 12.796875 0.390625 7.625 2.203125 
L 7.625 11.71875 
Q 11.71875 9.328125 16.59375 8.109375 
Q 21.484375 6.890625 26.8125 6.890625 
Q 36.078125 6.890625 40.9375 10.546875 
Q 45.796875 14.203125 45.796875 21.1875 
Q 45.796875 27.640625 41.28125 31.265625 
Q 36.765625 34.90625 28.71875 34.90625 
L 20.21875 34.90625 
L 20.21875 43.015625 
L 29.109375 43.015625 
Q 36.375 43.015625 40.234375 45.921875 
Q 44.09375 48.828125 44.09375 54.296875 
Q 44.09375 59.90625 40.109375 62.90625 
Q 36.140625 65.921875 28.71875 65.921875 
Q 24.65625 65.921875 20.015625 65.03125 
Q 15.375 64.15625 9.8125 62.3125 
L 9.8125 71.09375 
Q 15.4375 72.65625 20.34375 73.4375 
Q 25.25 74.21875 29.59375 74.21875 
Q 40.828125 74.21875 47.359375 69.109375 
Q 53.90625 64.015625 53.90625 55.328125 
Q 53.90625 49.265625 50.4375 45.09375 
Q 46.96875 40.921875 40.578125 39.3125 
z
" id="DejaVuSans-51"/>
      </defs>
      <g transform="translate(163.192427 313.676562)scale(0.1 -0.1)">
       <use xlink:href="#DejaVuSans-51"/>
      </g>
     </g>
    </g>
    <g id="xtick_4">
     <g id="line2d_10">
      <path clip-path="url(#pb0524d2c52)" d="M 218.674976 302.578125 
L 218.674976 22.318125 
" style="fill:none;stroke:#b2b2b2;stroke-dasharray:0.8,1.32;stroke-dashoffset:0;stroke-width:0.8;"/>
     </g>
     <g id="line2d_11">
      <g>
       <use style="stroke:#000000;stroke-width:0.8;" x="218.674976" xlink:href="#mf2a8b0ba0c" y="302.578125"/>
      </g>
     </g>
     <g id="line2d_12">
      <g>
       <use style="stroke:#000000;stroke-width:0.8;" x="218.674976" xlink:href="#md038d7db1f" y="22.318125"/>
      </g>
     </g>
     <g id="text_4">
      <!-- 4 -->
      <defs>
       <path d="M 37.796875 64.3125 
L 12.890625 25.390625 
L 37.796875 25.390625 
z
M 35.203125 72.90625 
L 47.609375 72.90625 
L 47.609375 25.390625 
L 58.015625 25.390625 
L 58.015625 17.1875 
L 47.609375 17.1875 
L 47.609375 0 
L 37.796875 0 
L 37.796875 17.1875 
L 4.890625 17.1875 
L 4.890625 26.703125 
z
" id="DejaVuSans-52"/>
      </defs>
      <g transform="translate(215.493726 313.676562)scale(0.1 -0.1)">
       <use xlink:href="#DejaVuSans-52"/>
      </g>
     </g>
    </g>
    <g id="xtick_5">
     <g id="line2d_13">
      <path clip-path="url(#pb0524d2c52)" d="M 270.976274 302.578125 
L 270.976274 22.318125 
" style="fill:none;stroke:#b2b2b2;stroke-dasharray:0.8,1.32;stroke-dashoffset:0;stroke-width:0.8;"/>
     </g>
     <g id="line2d_14">
      <g>
       <use style="stroke:#000000;stroke-width:0.8;" x="270.976274" xlink:href="#mf2a8b0ba0c" y="302.578125"/>
      </g>
     </g>
     <g id="line2d_15">
      <g>
       <use style="stroke:#000000;stroke-width:0.8;" x="270.976274" xlink:href="#md038d7db1f" y="22.318125"/>
      </g>
     </g>
     <g id="text_5">
      <!-- 5 -->
      <defs>
       <path d="M 10.796875 72.90625 
L 49.515625 72.90625 
L 49.515625 64.59375 
L 19.828125 64.59375 
L 19.828125 46.734375 
Q 21.96875 47.46875 24.109375 47.828125 
Q 26.265625 48.1875 28.421875 48.1875 
Q 40.625 48.1875 47.75 41.5 
Q 54.890625 34.8125 54.890625 23.390625 
Q 54.890625 11.625 47.5625 5.09375 
Q 40.234375 -1.421875 26.90625 -1.421875 
Q 22.3125 -1.421875 17.546875 -0.640625 
Q 12.796875 0.140625 7.71875 1.703125 
L 7.71875 11.625 
Q 12.109375 9.234375 16.796875 8.0625 
Q 21.484375 6.890625 26.703125 6.890625 
Q 35.15625 6.890625 40.078125 11.328125 
Q 45.015625 15.765625 45.015625 23.390625 
Q 45.015625 31 40.078125 35.4375 
Q 35.15625 39.890625 26.703125 39.890625 
Q 22.75 39.890625 18.8125 39.015625 
Q 14.890625 38.140625 10.796875 36.28125 
z
" id="DejaVuSans-53"/>
      </defs>
      <g transform="translate(267.795024 313.676562)scale(0.1 -0.1)">
       <use xlink:href="#DejaVuSans-53"/>
      </g>
     </g>
    </g>
    <g id="xtick_6">
     <g id="line2d_16">
      <path clip-path="url(#pb0524d2c52)" d="M 323.277573 302.578125 
L 323.277573 22.318125 
" style="fill:none;stroke:#b2b2b2;stroke-dasharray:0.8,1.32;stroke-dashoffset:0;stroke-width:0.8;"/>
     </g>
     <g id="line2d_17">
      <g>
       <use style="stroke:#000000;stroke-width:0.8;" x="323.277573" xlink:href="#mf2a8b0ba0c" y="302.578125"/>
      </g>
     </g>
     <g id="line2d_18">
      <g>
       <use style="stroke:#000000;stroke-width:0.8;" x="323.277573" xlink:href="#md038d7db1f" y="22.318125"/>
      </g>
     </g>
     <g id="text_6">
      <!-- 6 -->
      <defs>
       <path d="M 33.015625 40.375 
Q 26.375 40.375 22.484375 35.828125 
Q 18.609375 31.296875 18.609375 23.390625 
Q 18.609375 15.53125 22.484375 10.953125 
Q 26.375 6.390625 33.015625 6.390625 
Q 39.65625 6.390625 43.53125 10.953125 
Q 47.40625 15.53125 47.40625 23.390625 
Q 47.40625 31.296875 43.53125 35.828125 
Q 39.65625 40.375 33.015625 40.375 
z
M 52.59375 71.296875 
L 52.59375 62.3125 
Q 48.875 64.0625 45.09375 64.984375 
Q 41.3125 65.921875 37.59375 65.921875 
Q 27.828125 65.921875 22.671875 59.328125 
Q 17.53125 52.734375 16.796875 39.40625 
Q 19.671875 43.65625 24.015625 45.921875 
Q 28.375 48.1875 33.59375 48.1875 
Q 44.578125 48.1875 50.953125 41.515625 
Q 57.328125 34.859375 57.328125 23.390625 
Q 57.328125 12.15625 50.6875 5.359375 
Q 44.046875 -1.421875 33.015625 -1.421875 
Q 20.359375 -1.421875 13.671875 8.265625 
Q 6.984375 17.96875 6.984375 36.375 
Q 6.984375 53.65625 15.1875 63.9375 
Q 23.390625 74.21875 37.203125 74.21875 
Q 40.921875 74.21875 44.703125 73.484375 
Q 48.484375 72.75 52.59375 71.296875 
z
" id="DejaVuSans-54"/>
      </defs>
      <g transform="translate(320.096323 313.676562)scale(0.1 -0.1)">
       <use xlink:href="#DejaVuSans-54"/>
      </g>
     </g>
    </g>
    <g id="xtick_7">
     <g id="line2d_19">
      <path clip-path="url(#pb0524d2c52)" d="M 375.578872 302.578125 
L 375.578872 22.318125 
" style="fill:none;stroke:#b2b2b2;stroke-dasharray:0.8,1.32;stroke-dashoffset:0;stroke-width:0.8;"/>
     </g>
     <g id="line2d_20">
      <g>
       <use style="stroke:#000000;stroke-width:0.8;" x="375.578872" xlink:href="#mf2a8b0ba0c" y="302.578125"/>
      </g>
     </g>
     <g id="line2d_21">
      <g>
       <use style="stroke:#000000;stroke-width:0.8;" x="375.578872" xlink:href="#md038d7db1f" y="22.318125"/>
      </g>
     </g>
     <g id="text_7">
      <!-- 7 -->
      <defs>
       <path d="M 8.203125 72.90625 
L 55.078125 72.90625 
L 55.078125 68.703125 
L 28.609375 0 
L 18.3125 0 
L 43.21875 64.59375 
L 8.203125 64.59375 
z
" id="DejaVuSans-55"/>
      </defs>
      <g transform="translate(372.397622 313.676562)scale(0.1 -0.1)">
       <use xlink:href="#DejaVuSans-55"/>
      </g>
     </g>
    </g>
    <g id="xtick_8">
     <g id="line2d_22">
      <path clip-path="url(#pb0524d2c52)" d="M 427.88017 302.578125 
L 427.88017 22.318125 
" style="fill:none;stroke:#b2b2b2;stroke-dasharray:0.8,1.32;stroke-dashoffset:0;stroke-width:0.8;"/>
     </g>
     <g id="line2d_23">
      <g>
       <use style="stroke:#000000;stroke-width:0.8;" x="427.88017" xlink:href="#mf2a8b0ba0c" y="302.578125"/>
      </g>
     </g>
     <g id="line2d_24">
      <g>
       <use style="stroke:#000000;stroke-width:0.8;" x="427.88017" xlink:href="#md038d7db1f" y="22.318125"/>
      </g>
     </g>
     <g id="text_8">
      <!-- 8 -->
      <defs>
       <path d="M 31.78125 34.625 
Q 24.75 34.625 20.71875 30.859375 
Q 16.703125 27.09375 16.703125 20.515625 
Q 16.703125 13.921875 20.71875 10.15625 
Q 24.75 6.390625 31.78125 6.390625 
Q 38.8125 6.390625 42.859375 10.171875 
Q 46.921875 13.96875 46.921875 20.515625 
Q 46.921875 27.09375 42.890625 30.859375 
Q 38.875 34.625 31.78125 34.625 
z
M 21.921875 38.8125 
Q 15.578125 40.375 12.03125 44.71875 
Q 8.5 49.078125 8.5 55.328125 
Q 8.5 64.0625 14.71875 69.140625 
Q 20.953125 74.21875 31.78125 74.21875 
Q 42.671875 74.21875 48.875 69.140625 
Q 55.078125 64.0625 55.078125 55.328125 
Q 55.078125 49.078125 51.53125 44.71875 
Q 48 40.375 41.703125 38.8125 
Q 48.828125 37.15625 52.796875 32.3125 
Q 56.78125 27.484375 56.78125 20.515625 
Q 56.78125 9.90625 50.3125 4.234375 
Q 43.84375 -1.421875 31.78125 -1.421875 
Q 19.734375 -1.421875 13.25 4.234375 
Q 6.78125 9.90625 6.78125 20.515625 
Q 6.78125 27.484375 10.78125 32.3125 
Q 14.796875 37.15625 21.921875 38.8125 
z
M 18.3125 54.390625 
Q 18.3125 48.734375 21.84375 45.5625 
Q 25.390625 42.390625 31.78125 42.390625 
Q 38.140625 42.390625 41.71875 45.5625 
Q 45.3125 48.734375 45.3125 54.390625 
Q 45.3125 60.0625 41.71875 63.234375 
Q 38.140625 66.40625 31.78125 66.40625 
Q 25.390625 66.40625 21.84375 63.234375 
Q 18.3125 60.0625 18.3125 54.390625 
z
" id="DejaVuSans-56"/>
      </defs>
      <g transform="translate(424.69892 313.676562)scale(0.1 -0.1)">
       <use xlink:href="#DejaVuSans-56"/>
      </g>
     </g>
    </g>
    <g id="text_9">
     <!-- Number of CPU cores -->
     <defs>
      <path d="M 9.8125 72.90625 
L 23.09375 72.90625 
L 55.421875 11.921875 
L 55.421875 72.90625 
L 64.984375 72.90625 
L 64.984375 0 
L 51.703125 0 
L 19.390625 60.984375 
L 19.390625 0 
L 9.8125 0 
z
" id="DejaVuSans-78"/>
      <path d="M 8.5 21.578125 
L 8.5 54.6875 
L 17.484375 54.6875 
L 17.484375 21.921875 
Q 17.484375 14.15625 20.5 10.265625 
Q 23.53125 6.390625 29.59375 6.390625 
Q 36.859375 6.390625 41.078125 11.03125 
Q 45.3125 15.671875 45.3125 23.6875 
L 45.3125 54.6875 
L 54.296875 54.6875 
L 54.296875 0 
L 45.3125 0 
L 45.3125 8.40625 
Q 42.046875 3.421875 37.71875 1 
Q 33.40625 -1.421875 27.6875 -1.421875 
Q 18.265625 -1.421875 13.375 4.4375 
Q 8.5 10.296875 8.5 21.578125 
z
M 31.109375 56 
z
" id="DejaVuSans-117"/>
      <path d="M 52 44.1875 
Q 55.375 50.25 60.0625 53.125 
Q 64.75 56 71.09375 56 
Q 79.640625 56 84.28125 50.015625 
Q 88.921875 44.046875 88.921875 33.015625 
L 88.921875 0 
L 79.890625 0 
L 79.890625 32.71875 
Q 79.890625 40.578125 77.09375 44.375 
Q 74.3125 48.1875 68.609375 48.1875 
Q 61.625 48.1875 57.5625 43.546875 
Q 53.515625 38.921875 53.515625 30.90625 
L 53.515625 0 
L 44.484375 0 
L 44.484375 32.71875 
Q 44.484375 40.625 41.703125 44.40625 
Q 38.921875 48.1875 33.109375 48.1875 
Q 26.21875 48.1875 22.15625 43.53125 
Q 18.109375 38.875 18.109375 30.90625 
L 18.109375 0 
L 9.078125 0 
L 9.078125 54.6875 
L 18.109375 54.6875 
L 18.109375 46.1875 
Q 21.1875 51.21875 25.484375 53.609375 
Q 29.78125 56 35.6875 56 
Q 41.65625 56 45.828125 52.96875 
Q 50 49.953125 52 44.1875 
z
" id="DejaVuSans-109"/>
      <path d="M 48.6875 27.296875 
Q 48.6875 37.203125 44.609375 42.84375 
Q 40.53125 48.484375 33.40625 48.484375 
Q 26.265625 48.484375 22.1875 42.84375 
Q 18.109375 37.203125 18.109375 27.296875 
Q 18.109375 17.390625 22.1875 11.75 
Q 26.265625 6.109375 33.40625 6.109375 
Q 40.53125 6.109375 44.609375 11.75 
Q 48.6875 17.390625 48.6875 27.296875 
z
M 18.109375 46.390625 
Q 20.953125 51.265625 25.265625 53.625 
Q 29.59375 56 35.59375 56 
Q 45.5625 56 51.78125 48.09375 
Q 58.015625 40.1875 58.015625 27.296875 
Q 58.015625 14.40625 51.78125 6.484375 
Q 45.5625 -1.421875 35.59375 -1.421875 
Q 29.59375 -1.421875 25.265625 0.953125 
Q 20.953125 3.328125 18.109375 8.203125 
L 18.109375 0 
L 9.078125 0 
L 9.078125 75.984375 
L 18.109375 75.984375 
z
" id="DejaVuSans-98"/>
      <path d="M 56.203125 29.59375 
L 56.203125 25.203125 
L 14.890625 25.203125 
Q 15.484375 15.921875 20.484375 11.0625 
Q 25.484375 6.203125 34.421875 6.203125 
Q 39.59375 6.203125 44.453125 7.46875 
Q 49.3125 8.734375 54.109375 11.28125 
L 54.109375 2.78125 
Q 49.265625 0.734375 44.1875 -0.34375 
Q 39.109375 -1.421875 33.890625 -1.421875 
Q 20.796875 -1.421875 13.15625 6.1875 
Q 5.515625 13.8125 5.515625 26.8125 
Q 5.515625 40.234375 12.765625 48.109375 
Q 20.015625 56 32.328125 56 
Q 43.359375 56 49.78125 48.890625 
Q 56.203125 41.796875 56.203125 29.59375 
z
M 47.21875 32.234375 
Q 47.125 39.59375 43.09375 43.984375 
Q 39.0625 48.390625 32.421875 48.390625 
Q 24.90625 48.390625 20.390625 44.140625 
Q 15.875 39.890625 15.1875 32.171875 
z
" id="DejaVuSans-101"/>
      <path d="M 41.109375 46.296875 
Q 39.59375 47.171875 37.8125 47.578125 
Q 36.03125 48 33.890625 48 
Q 26.265625 48 22.1875 43.046875 
Q 18.109375 38.09375 18.109375 28.8125 
L 18.109375 0 
L 9.078125 0 
L 9.078125 54.6875 
L 18.109375 54.6875 
L 18.109375 46.1875 
Q 20.953125 51.171875 25.484375 53.578125 
Q 30.03125 56 36.53125 56 
Q 37.453125 56 38.578125 55.875 
Q 39.703125 55.765625 41.0625 55.515625 
z
" id="DejaVuSans-114"/>
      <path id="DejaVuSans-32"/>
      <path d="M 30.609375 48.390625 
Q 23.390625 48.390625 19.1875 42.75 
Q 14.984375 37.109375 14.984375 27.296875 
Q 14.984375 17.484375 19.15625 11.84375 
Q 23.34375 6.203125 30.609375 6.203125 
Q 37.796875 6.203125 41.984375 11.859375 
Q 46.1875 17.53125 46.1875 27.296875 
Q 46.1875 37.015625 41.984375 42.703125 
Q 37.796875 48.390625 30.609375 48.390625 
z
M 30.609375 56 
Q 42.328125 56 49.015625 48.375 
Q 55.71875 40.765625 55.71875 27.296875 
Q 55.71875 13.875 49.015625 6.21875 
Q 42.328125 -1.421875 30.609375 -1.421875 
Q 18.84375 -1.421875 12.171875 6.21875 
Q 5.515625 13.875 5.515625 27.296875 
Q 5.515625 40.765625 12.171875 48.375 
Q 18.84375 56 30.609375 56 
z
" id="DejaVuSans-111"/>
      <path d="M 37.109375 75.984375 
L 37.109375 68.5 
L 28.515625 68.5 
Q 23.6875 68.5 21.796875 66.546875 
Q 19.921875 64.59375 19.921875 59.515625 
L 19.921875 54.6875 
L 34.71875 54.6875 
L 34.71875 47.703125 
L 19.921875 47.703125 
L 19.921875 0 
L 10.890625 0 
L 10.890625 47.703125 
L 2.296875 47.703125 
L 2.296875 54.6875 
L 10.890625 54.6875 
L 10.890625 58.5 
Q 10.890625 67.625 15.140625 71.796875 
Q 19.390625 75.984375 28.609375 75.984375 
z
" id="DejaVuSans-102"/>
      <path d="M 64.40625 67.28125 
L 64.40625 56.890625 
Q 59.421875 61.53125 53.78125 63.8125 
Q 48.140625 66.109375 41.796875 66.109375 
Q 29.296875 66.109375 22.65625 58.46875 
Q 16.015625 50.828125 16.015625 36.375 
Q 16.015625 21.96875 22.65625 14.328125 
Q 29.296875 6.6875 41.796875 6.6875 
Q 48.140625 6.6875 53.78125 8.984375 
Q 59.421875 11.28125 64.40625 15.921875 
L 64.40625 5.609375 
Q 59.234375 2.09375 53.4375 0.328125 
Q 47.65625 -1.421875 41.21875 -1.421875 
Q 24.65625 -1.421875 15.125 8.703125 
Q 5.609375 18.84375 5.609375 36.375 
Q 5.609375 53.953125 15.125 64.078125 
Q 24.65625 74.21875 41.21875 74.21875 
Q 47.75 74.21875 53.53125 72.484375 
Q 59.328125 70.75 64.40625 67.28125 
z
" id="DejaVuSans-67"/>
      <path d="M 19.671875 64.796875 
L 19.671875 37.40625 
L 32.078125 37.40625 
Q 38.96875 37.40625 42.71875 40.96875 
Q 46.484375 44.53125 46.484375 51.125 
Q 46.484375 57.671875 42.71875 61.234375 
Q 38.96875 64.796875 32.078125 64.796875 
z
M 9.8125 72.90625 
L 32.078125 72.90625 
Q 44.34375 72.90625 50.609375 67.359375 
Q 56.890625 61.8125 56.890625 51.125 
Q 56.890625 40.328125 50.609375 34.8125 
Q 44.34375 29.296875 32.078125 29.296875 
L 19.671875 29.296875 
L 19.671875 0 
L 9.8125 0 
z
" id="DejaVuSans-80"/>
      <path d="M 8.6875 72.90625 
L 18.609375 72.90625 
L 18.609375 28.609375 
Q 18.609375 16.890625 22.84375 11.734375 
Q 27.09375 6.59375 36.625 6.59375 
Q 46.09375 6.59375 50.34375 11.734375 
Q 54.59375 16.890625 54.59375 28.609375 
L 54.59375 72.90625 
L 64.5 72.90625 
L 64.5 27.390625 
Q 64.5 13.140625 57.4375 5.859375 
Q 50.390625 -1.421875 36.625 -1.421875 
Q 22.796875 -1.421875 15.734375 5.859375 
Q 8.6875 13.140625 8.6875 27.390625 
z
" id="DejaVuSans-85"/>
      <path d="M 48.78125 52.59375 
L 48.78125 44.1875 
Q 44.96875 46.296875 41.140625 47.34375 
Q 37.3125 48.390625 33.40625 48.390625 
Q 24.65625 48.390625 19.8125 42.84375 
Q 14.984375 37.3125 14.984375 27.296875 
Q 14.984375 17.28125 19.8125 11.734375 
Q 24.65625 6.203125 33.40625 6.203125 
Q 37.3125 6.203125 41.140625 7.25 
Q 44.96875 8.296875 48.78125 10.40625 
L 48.78125 2.09375 
Q 45.015625 0.34375 40.984375 -0.53125 
Q 36.96875 -1.421875 32.421875 -1.421875 
Q 20.0625 -1.421875 12.78125 6.34375 
Q 5.515625 14.109375 5.515625 27.296875 
Q 5.515625 40.671875 12.859375 48.328125 
Q 20.21875 56 33.015625 56 
Q 37.15625 56 41.109375 55.140625 
Q 45.0625 54.296875 48.78125 52.59375 
z
" id="DejaVuSans-99"/>
      <path d="M 44.28125 53.078125 
L 44.28125 44.578125 
Q 40.484375 46.53125 36.375 47.5 
Q 32.28125 48.484375 27.875 48.484375 
Q 21.1875 48.484375 17.84375 46.4375 
Q 14.5 44.390625 14.5 40.28125 
Q 14.5 37.15625 16.890625 35.375 
Q 19.28125 33.59375 26.515625 31.984375 
L 29.59375 31.296875 
Q 39.15625 29.25 43.1875 25.515625 
Q 47.21875 21.78125 47.21875 15.09375 
Q 47.21875 7.46875 41.1875 3.015625 
Q 35.15625 -1.421875 24.609375 -1.421875 
Q 20.21875 -1.421875 15.453125 -0.5625 
Q 10.6875 0.296875 5.421875 2 
L 5.421875 11.28125 
Q 10.40625 8.6875 15.234375 7.390625 
Q 20.0625 6.109375 24.8125 6.109375 
Q 31.15625 6.109375 34.5625 8.28125 
Q 37.984375 10.453125 37.984375 14.40625 
Q 37.984375 18.0625 35.515625 20.015625 
Q 33.0625 21.96875 24.703125 23.78125 
L 21.578125 24.515625 
Q 13.234375 26.265625 9.515625 29.90625 
Q 5.8125 33.546875 5.8125 39.890625 
Q 5.8125 47.609375 11.28125 51.796875 
Q 16.75 56 26.8125 56 
Q 31.78125 56 36.171875 55.265625 
Q 40.578125 54.546875 44.28125 53.078125 
z
" id="DejaVuSans-115"/>
     </defs>
     <g transform="translate(191.554531 327.354687)scale(0.1 -0.1)">
      <use xlink:href="#DejaVuSans-78"/>
      <use x="74.804688" xlink:href="#DejaVuSans-117"/>
      <use x="138.183594" xlink:href="#DejaVuSans-109"/>
      <use x="235.595703" xlink:href="#DejaVuSans-98"/>
      <use x="299.072266" xlink:href="#DejaVuSans-101"/>
      <use x="360.595703" xlink:href="#DejaVuSans-114"/>
      <use x="401.708984" xlink:href="#DejaVuSans-32"/>
      <use x="433.496094" xlink:href="#DejaVuSans-111"/>
      <use x="494.677734" xlink:href="#DejaVuSans-102"/>
      <use x="529.882812" xlink:href="#DejaVuSans-32"/>
      <use x="561.669922" xlink:href="#DejaVuSans-67"/>
      <use x="631.494141" xlink:href="#DejaVuSans-80"/>
      <use x="691.796875" xlink:href="#DejaVuSans-85"/>
      <use x="764.990234" xlink:href="#DejaVuSans-32"/>
      <use x="796.777344" xlink:href="#DejaVuSans-99"/>
      <use x="851.757812" xlink:href="#DejaVuSans-111"/>
      <use x="912.939453" xlink:href="#DejaVuSans-114"/>
      <use x="951.802734" xlink:href="#DejaVuSans-101"/>
      <use x="1013.326172" xlink:href="#DejaVuSans-115"/>
     </g>
    </g>
   </g>
   <g id="matplotlib.axis_2">
    <g id="ytick_1">
     <g id="line2d_25">
      <path clip-path="url(#pb0524d2c52)" d="M 43.465625 267.174863 
L 446.185625 267.174863 
" style="fill:none;stroke:#b2b2b2;stroke-dasharray:0.8,1.32;stroke-dashoffset:0;stroke-width:0.8;"/>
     </g>
     <g id="line2d_26">
      <defs>
       <path d="M 0 0 
L 3.5 0 
" id="m407862b20e" style="stroke:#000000;stroke-width:0.8;"/>
      </defs>
      <g>
       <use style="stroke:#000000;stroke-width:0.8;" x="43.465625" xlink:href="#m407862b20e" y="267.174863"/>
      </g>
     </g>
     <g id="line2d_27">
      <defs>
       <path d="M 0 0 
L -3.5 0 
" id="m9c251ae5ce" style="stroke:#000000;stroke-width:0.8;"/>
      </defs>
      <g>
       <use style="stroke:#000000;stroke-width:0.8;" x="446.185625" xlink:href="#m9c251ae5ce" y="267.174863"/>
      </g>
     </g>
     <g id="text_10">
      <!-- 200 -->
      <defs>
       <path d="M 31.78125 66.40625 
Q 24.171875 66.40625 20.328125 58.90625 
Q 16.5 51.421875 16.5 36.375 
Q 16.5 21.390625 20.328125 13.890625 
Q 24.171875 6.390625 31.78125 6.390625 
Q 39.453125 6.390625 43.28125 13.890625 
Q 47.125 21.390625 47.125 36.375 
Q 47.125 51.421875 43.28125 58.90625 
Q 39.453125 66.40625 31.78125 66.40625 
z
M 31.78125 74.21875 
Q 44.046875 74.21875 50.515625 64.515625 
Q 56.984375 54.828125 56.984375 36.375 
Q 56.984375 17.96875 50.515625 8.265625 
Q 44.046875 -1.421875 31.78125 -1.421875 
Q 19.53125 -1.421875 13.0625 8.265625 
Q 6.59375 17.96875 6.59375 36.375 
Q 6.59375 54.828125 13.0625 64.515625 
Q 19.53125 74.21875 31.78125 74.21875 
z
" id="DejaVuSans-48"/>
      </defs>
      <g transform="translate(20.878125 270.974082)scale(0.1 -0.1)">
       <use xlink:href="#DejaVuSans-50"/>
       <use x="63.623047" xlink:href="#DejaVuSans-48"/>
       <use x="127.246094" xlink:href="#DejaVuSans-48"/>
      </g>
     </g>
    </g>
    <g id="ytick_2">
     <g id="line2d_28">
      <path clip-path="url(#pb0524d2c52)" d="M 43.465625 224.412277 
L 446.185625 224.412277 
" style="fill:none;stroke:#b2b2b2;stroke-dasharray:0.8,1.32;stroke-dashoffset:0;stroke-width:0.8;"/>
     </g>
     <g id="line2d_29">
      <g>
       <use style="stroke:#000000;stroke-width:0.8;" x="43.465625" xlink:href="#m407862b20e" y="224.412277"/>
      </g>
     </g>
     <g id="line2d_30">
      <g>
       <use style="stroke:#000000;stroke-width:0.8;" x="446.185625" xlink:href="#m9c251ae5ce" y="224.412277"/>
      </g>
     </g>
     <g id="text_11">
      <!-- 250 -->
      <g transform="translate(20.878125 228.211496)scale(0.1 -0.1)">
       <use xlink:href="#DejaVuSans-50"/>
       <use x="63.623047" xlink:href="#DejaVuSans-53"/>
       <use x="127.246094" xlink:href="#DejaVuSans-48"/>
      </g>
     </g>
    </g>
    <g id="ytick_3">
     <g id="line2d_31">
      <path clip-path="url(#pb0524d2c52)" d="M 43.465625 181.64969 
L 446.185625 181.64969 
" style="fill:none;stroke:#b2b2b2;stroke-dasharray:0.8,1.32;stroke-dashoffset:0;stroke-width:0.8;"/>
     </g>
     <g id="line2d_32">
      <g>
       <use style="stroke:#000000;stroke-width:0.8;" x="43.465625" xlink:href="#m407862b20e" y="181.64969"/>
      </g>
     </g>
     <g id="line2d_33">
      <g>
       <use style="stroke:#000000;stroke-width:0.8;" x="446.185625" xlink:href="#m9c251ae5ce" y="181.64969"/>
      </g>
     </g>
     <g id="text_12">
      <!-- 300 -->
      <g transform="translate(20.878125 185.448909)scale(0.1 -0.1)">
       <use xlink:href="#DejaVuSans-51"/>
       <use x="63.623047" xlink:href="#DejaVuSans-48"/>
       <use x="127.246094" xlink:href="#DejaVuSans-48"/>
      </g>
     </g>
    </g>
    <g id="ytick_4">
     <g id="line2d_34">
      <path clip-path="url(#pb0524d2c52)" d="M 43.465625 138.887104 
L 446.185625 138.887104 
" style="fill:none;stroke:#b2b2b2;stroke-dasharray:0.8,1.32;stroke-dashoffset:0;stroke-width:0.8;"/>
     </g>
     <g id="line2d_35">
      <g>
       <use style="stroke:#000000;stroke-width:0.8;" x="43.465625" xlink:href="#m407862b20e" y="138.887104"/>
      </g>
     </g>
     <g id="line2d_36">
      <g>
       <use style="stroke:#000000;stroke-width:0.8;" x="446.185625" xlink:href="#m9c251ae5ce" y="138.887104"/>
      </g>
     </g>
     <g id="text_13">
      <!-- 350 -->
      <g transform="translate(20.878125 142.686323)scale(0.1 -0.1)">
       <use xlink:href="#DejaVuSans-51"/>
       <use x="63.623047" xlink:href="#DejaVuSans-53"/>
       <use x="127.246094" xlink:href="#DejaVuSans-48"/>
      </g>
     </g>
    </g>
    <g id="ytick_5">
     <g id="line2d_37">
      <path clip-path="url(#pb0524d2c52)" d="M 43.465625 96.124518 
L 446.185625 96.124518 
" style="fill:none;stroke:#b2b2b2;stroke-dasharray:0.8,1.32;stroke-dashoffset:0;stroke-width:0.8;"/>
     </g>
     <g id="line2d_38">
      <g>
       <use style="stroke:#000000;stroke-width:0.8;" x="43.465625" xlink:href="#m407862b20e" y="96.124518"/>
      </g>
     </g>
     <g id="line2d_39">
      <g>
       <use style="stroke:#000000;stroke-width:0.8;" x="446.185625" xlink:href="#m9c251ae5ce" y="96.124518"/>
      </g>
     </g>
     <g id="text_14">
      <!-- 400 -->
      <g transform="translate(20.878125 99.923736)scale(0.1 -0.1)">
       <use xlink:href="#DejaVuSans-52"/>
       <use x="63.623047" xlink:href="#DejaVuSans-48"/>
       <use x="127.246094" xlink:href="#DejaVuSans-48"/>
      </g>
     </g>
    </g>
    <g id="ytick_6">
     <g id="line2d_40">
      <path clip-path="url(#pb0524d2c52)" d="M 43.465625 53.361931 
L 446.185625 53.361931 
" style="fill:none;stroke:#b2b2b2;stroke-dasharray:0.8,1.32;stroke-dashoffset:0;stroke-width:0.8;"/>
     </g>
     <g id="line2d_41">
      <g>
       <use style="stroke:#000000;stroke-width:0.8;" x="43.465625" xlink:href="#m407862b20e" y="53.361931"/>
      </g>
     </g>
     <g id="line2d_42">
      <g>
       <use style="stroke:#000000;stroke-width:0.8;" x="446.185625" xlink:href="#m9c251ae5ce" y="53.361931"/>
      </g>
     </g>
     <g id="text_15">
      <!-- 450 -->
      <g transform="translate(20.878125 57.16115)scale(0.1 -0.1)">
       <use xlink:href="#DejaVuSans-52"/>
       <use x="63.623047" xlink:href="#DejaVuSans-53"/>
       <use x="127.246094" xlink:href="#DejaVuSans-48"/>
      </g>
     </g>
    </g>
    <g id="text_16">
     <!-- LAT95 -->
     <defs>
      <path d="M 9.8125 72.90625 
L 19.671875 72.90625 
L 19.671875 8.296875 
L 55.171875 8.296875 
L 55.171875 0 
L 9.8125 0 
z
" id="DejaVuSans-76"/>
      <path d="M 34.1875 63.1875 
L 20.796875 26.90625 
L 47.609375 26.90625 
z
M 28.609375 72.90625 
L 39.796875 72.90625 
L 67.578125 0 
L 57.328125 0 
L 50.6875 18.703125 
L 17.828125 18.703125 
L 11.1875 0 
L 0.78125 0 
z
" id="DejaVuSans-65"/>
      <path d="M -0.296875 72.90625 
L 61.375 72.90625 
L 61.375 64.59375 
L 35.5 64.59375 
L 35.5 0 
L 25.59375 0 
L 25.59375 64.59375 
L -0.296875 64.59375 
z
" id="DejaVuSans-84"/>
      <path d="M 10.984375 1.515625 
L 10.984375 10.5 
Q 14.703125 8.734375 18.5 7.8125 
Q 22.3125 6.890625 25.984375 6.890625 
Q 35.75 6.890625 40.890625 13.453125 
Q 46.046875 20.015625 46.78125 33.40625 
Q 43.953125 29.203125 39.59375 26.953125 
Q 35.25 24.703125 29.984375 24.703125 
Q 19.046875 24.703125 12.671875 31.3125 
Q 6.296875 37.9375 6.296875 49.421875 
Q 6.296875 60.640625 12.9375 67.421875 
Q 19.578125 74.21875 30.609375 74.21875 
Q 43.265625 74.21875 49.921875 64.515625 
Q 56.59375 54.828125 56.59375 36.375 
Q 56.59375 19.140625 48.40625 8.859375 
Q 40.234375 -1.421875 26.421875 -1.421875 
Q 22.703125 -1.421875 18.890625 -0.6875 
Q 15.09375 0.046875 10.984375 1.515625 
z
M 30.609375 32.421875 
Q 37.25 32.421875 41.125 36.953125 
Q 45.015625 41.5 45.015625 49.421875 
Q 45.015625 57.28125 41.125 61.84375 
Q 37.25 66.40625 30.609375 66.40625 
Q 23.96875 66.40625 20.09375 61.84375 
Q 16.21875 57.28125 16.21875 49.421875 
Q 16.21875 41.5 20.09375 36.953125 
Q 23.96875 32.421875 30.609375 32.421875 
z
" id="DejaVuSans-57"/>
     </defs>
     <g transform="translate(14.798437 177.795781)rotate(-90)scale(0.1 -0.1)">
      <use xlink:href="#DejaVuSans-76"/>
      <use x="57.962891" xlink:href="#DejaVuSans-65"/>
      <use x="118.621094" xlink:href="#DejaVuSans-84"/>
      <use x="179.705078" xlink:href="#DejaVuSans-57"/>
      <use x="243.328125" xlink:href="#DejaVuSans-53"/>
     </g>
    </g>
   </g>
   <g id="LineCollection_1">
    <path clip-path="url(#pb0524d2c52)" d="M 61.77108 289.839034 
L 61.77108 289.839034 
" style="fill:none;stroke:#1f77b4;stroke-width:1.5;"/>
    <path clip-path="url(#pb0524d2c52)" d="M 114.072378 275.690556 
L 114.072378 274.62387 
" style="fill:none;stroke:#1f77b4;stroke-width:1.5;"/>
    <path clip-path="url(#pb0524d2c52)" d="M 166.373677 259.23723 
L 166.373677 256.011874 
" style="fill:none;stroke:#1f77b4;stroke-width:1.5;"/>
    <path clip-path="url(#pb0524d2c52)" d="M 218.674976 235.425561 
L 218.674976 230.789111 
" style="fill:none;stroke:#1f77b4;stroke-width:1.5;"/>
    <path clip-path="url(#pb0524d2c52)" d="M 270.976274 213.718388 
L 270.976274 209.020988 
" style="fill:none;stroke:#1f77b4;stroke-width:1.5;"/>
    <path clip-path="url(#pb0524d2c52)" d="M 323.277573 179.67509 
L 323.277573 173.36127 
" style="fill:none;stroke:#1f77b4;stroke-width:1.5;"/>
    <path clip-path="url(#pb0524d2c52)" d="M 375.578872 260.360886 
L 375.578872 252.179921 
" style="fill:none;stroke:#1f77b4;stroke-width:1.5;"/>
    <path clip-path="url(#pb0524d2c52)" d="M 427.88017 108.761539 
L 427.88017 106.43675 
" style="fill:none;stroke:#1f77b4;stroke-width:1.5;"/>
   </g>
   <g id="LineCollection_2">
    <path clip-path="url(#pb0524d2c52)" d="M 61.77108 268.575826 
L 61.77108 267.769487 
" style="fill:none;stroke:#aec7e8;stroke-width:1.5;"/>
    <path clip-path="url(#pb0524d2c52)" d="M 114.072378 252.729213 
L 114.072378 251.116535 
" style="fill:none;stroke:#aec7e8;stroke-width:1.5;"/>
    <path clip-path="url(#pb0524d2c52)" d="M 166.373677 225.931326 
L 166.373677 224.318648 
" style="fill:none;stroke:#aec7e8;stroke-width:1.5;"/>
    <path clip-path="url(#pb0524d2c52)" d="M 218.674976 190.720561 
L 218.674976 186.262848 
" style="fill:none;stroke:#aec7e8;stroke-width:1.5;"/>
    <path clip-path="url(#pb0524d2c52)" d="M 270.976274 176.788864 
L 270.976274 175.392244 
" style="fill:none;stroke:#aec7e8;stroke-width:1.5;"/>
    <path clip-path="url(#pb0524d2c52)" d="M 323.277573 151.470448 
L 323.277573 149.253015 
" style="fill:none;stroke:#aec7e8;stroke-width:1.5;"/>
    <path clip-path="url(#pb0524d2c52)" d="M 375.578872 155.206282 
L 375.578872 149.79344 
" style="fill:none;stroke:#aec7e8;stroke-width:1.5;"/>
    <path clip-path="url(#pb0524d2c52)" d="M 427.88017 38.026745 
L 427.88017 35.057216 
" style="fill:none;stroke:#aec7e8;stroke-width:1.5;"/>
   </g>
   <g id="LineCollection_3">
    <path clip-path="url(#pb0524d2c52)" d="M 61.77108 232.537168 
L 61.77108 232.537168 
" style="fill:none;stroke:#ff7f0e;stroke-width:1.5;"/>
    <path clip-path="url(#pb0524d2c52)" d="M 114.072378 217.147702 
L 114.072378 216.139778 
" style="fill:none;stroke:#ff7f0e;stroke-width:1.5;"/>
    <path clip-path="url(#pb0524d2c52)" d="M 166.373677 200.038752 
L 166.373677 195.617653 
" style="fill:none;stroke:#ff7f0e;stroke-width:1.5;"/>
    <path clip-path="url(#pb0524d2c52)" d="M 218.674976 156.560986 
L 218.674976 152.714994 
" style="fill:none;stroke:#ff7f0e;stroke-width:1.5;"/>
    <path clip-path="url(#pb0524d2c52)" d="M 270.976274 168.360197 
L 270.976274 164.862832 
" style="fill:none;stroke:#ff7f0e;stroke-width:1.5;"/>
    <path clip-path="url(#pb0524d2c52)" d="M 323.277573 109.616791 
L 323.277573 107.292002 
" style="fill:none;stroke:#ff7f0e;stroke-width:1.5;"/>
    <path clip-path="url(#pb0524d2c52)" d="M 375.578872 124.214628 
L 375.578872 121.48764 
" style="fill:none;stroke:#ff7f0e;stroke-width:1.5;"/>
    <path clip-path="url(#pb0524d2c52)" d="M 427.88017 90.794389 
L 427.88017 87.770618 
" style="fill:none;stroke:#ff7f0e;stroke-width:1.5;"/>
   </g>
   <g id="LineCollection_4">
    <path clip-path="url(#pb0524d2c52)" d="M 61.77108 230.856186 
L 61.77108 230.654601 
" style="fill:none;stroke:#ffbb78;stroke-width:1.5;"/>
    <path clip-path="url(#pb0524d2c52)" d="M 114.072378 216.829211 
L 114.072378 215.603018 
" style="fill:none;stroke:#ffbb78;stroke-width:1.5;"/>
    <path clip-path="url(#pb0524d2c52)" d="M 166.373677 200.515711 
L 166.373677 194.427984 
" style="fill:none;stroke:#ffbb78;stroke-width:1.5;"/>
    <path clip-path="url(#pb0524d2c52)" d="M 218.674976 177.411719 
L 218.674976 174.05668 
" style="fill:none;stroke:#ffbb78;stroke-width:1.5;"/>
    <path clip-path="url(#pb0524d2c52)" d="M 270.976274 161.66936 
L 270.976274 160.863021 
" style="fill:none;stroke:#ffbb78;stroke-width:1.5;"/>
    <path clip-path="url(#pb0524d2c52)" d="M 323.277573 128.678222 
L 323.277573 125.434022 
" style="fill:none;stroke:#ffbb78;stroke-width:1.5;"/>
    <path clip-path="url(#pb0524d2c52)" d="M 375.578872 100.857923 
L 375.578872 100.656339 
" style="fill:none;stroke:#ffbb78;stroke-width:1.5;"/>
    <path clip-path="url(#pb0524d2c52)" d="M 427.88017 91.962002 
L 427.88017 89.168761 
" style="fill:none;stroke:#ffbb78;stroke-width:1.5;"/>
   </g>
   <g id="LineCollection_5">
    <path clip-path="url(#pb0524d2c52)" d="M 61.77108 157.495886 
L 61.77108 156.769062 
" style="fill:none;stroke:#2ca02c;stroke-width:1.5;"/>
    <path clip-path="url(#pb0524d2c52)" d="M 114.072378 147.646271 
L 114.072378 146.235178 
" style="fill:none;stroke:#2ca02c;stroke-width:1.5;"/>
    <path clip-path="url(#pb0524d2c52)" d="M 166.373677 126.26015 
L 166.373677 125.001254 
" style="fill:none;stroke:#2ca02c;stroke-width:1.5;"/>
    <path clip-path="url(#pb0524d2c52)" d="M 218.674976 114.476511 
L 218.674976 109.987005 
" style="fill:none;stroke:#2ca02c;stroke-width:1.5;"/>
    <path clip-path="url(#pb0524d2c52)" d="M 270.976274 103.875921 
L 270.976274 100.631722 
" style="fill:none;stroke:#2ca02c;stroke-width:1.5;"/>
    <path clip-path="url(#pb0524d2c52)" d="M 323.277573 77.160289 
L 323.277573 68.905153 
" style="fill:none;stroke:#2ca02c;stroke-width:1.5;"/>
    <path clip-path="url(#pb0524d2c52)" d="M 375.578872 64.911062 
L 375.578872 63.336635 
" style="fill:none;stroke:#2ca02c;stroke-width:1.5;"/>
    <path clip-path="url(#pb0524d2c52)" d="M 427.88017 56.042538 
L 427.88017 42.128807 
" style="fill:none;stroke:#2ca02c;stroke-width:1.5;"/>
   </g>
   <g id="line2d_43">
    <path clip-path="url(#pb0524d2c52)" d="M 61.77108 289.839034 
L 114.072378 275.157213 
L 166.373677 257.624552 
L 218.674976 233.107336 
L 270.976274 211.369688 
L 323.277573 176.51818 
L 375.578872 256.270404 
L 427.88017 107.599145 
" style="fill:none;stroke:#1f77b4;stroke-linecap:square;stroke-width:1.5;"/>
    <defs>
     <path d="M 0 3 
C 0.795609 3 1.55874 2.683901 2.12132 2.12132 
C 2.683901 1.55874 3 0.795609 3 0 
C 3 -0.795609 2.683901 -1.55874 2.12132 -2.12132 
C 1.55874 -2.683901 0.795609 -3 0 -3 
C -0.795609 -3 -1.55874 -2.683901 -2.12132 -2.12132 
C -2.683901 -1.55874 -3 -0.795609 -3 0 
C -3 0.795609 -2.683901 1.55874 -2.12132 2.12132 
C -1.55874 2.683901 -0.795609 3 0 3 
z
" id="mebbe17d622" style="stroke:#1f77b4;"/>
    </defs>
    <g clip-path="url(#pb0524d2c52)">
     <use style="fill-opacity:0;stroke:#1f77b4;" x="61.77108" xlink:href="#mebbe17d622" y="289.839034"/>
     <use style="fill-opacity:0;stroke:#1f77b4;" x="114.072378" xlink:href="#mebbe17d622" y="275.157213"/>
     <use style="fill-opacity:0;stroke:#1f77b4;" x="166.373677" xlink:href="#mebbe17d622" y="257.624552"/>
     <use style="fill-opacity:0;stroke:#1f77b4;" x="218.674976" xlink:href="#mebbe17d622" y="233.107336"/>
     <use style="fill-opacity:0;stroke:#1f77b4;" x="270.976274" xlink:href="#mebbe17d622" y="211.369688"/>
     <use style="fill-opacity:0;stroke:#1f77b4;" x="323.277573" xlink:href="#mebbe17d622" y="176.51818"/>
     <use style="fill-opacity:0;stroke:#1f77b4;" x="375.578872" xlink:href="#mebbe17d622" y="256.270404"/>
     <use style="fill-opacity:0;stroke:#1f77b4;" x="427.88017" xlink:href="#mebbe17d622" y="107.599145"/>
    </g>
   </g>
   <g id="line2d_44">
    <defs>
     <path d="M 3 0 
L -3 -0 
" id="m206a9b3565" style="stroke:#1f77b4;"/>
    </defs>
    <g clip-path="url(#pb0524d2c52)">
     <use style="fill:#1f77b4;stroke:#1f77b4;" x="61.77108" xlink:href="#m206a9b3565" y="289.839034"/>
     <use style="fill:#1f77b4;stroke:#1f77b4;" x="114.072378" xlink:href="#m206a9b3565" y="275.690556"/>
     <use style="fill:#1f77b4;stroke:#1f77b4;" x="166.373677" xlink:href="#m206a9b3565" y="259.23723"/>
     <use style="fill:#1f77b4;stroke:#1f77b4;" x="218.674976" xlink:href="#m206a9b3565" y="235.425561"/>
     <use style="fill:#1f77b4;stroke:#1f77b4;" x="270.976274" xlink:href="#m206a9b3565" y="213.718388"/>
     <use style="fill:#1f77b4;stroke:#1f77b4;" x="323.277573" xlink:href="#m206a9b3565" y="179.67509"/>
     <use style="fill:#1f77b4;stroke:#1f77b4;" x="375.578872" xlink:href="#m206a9b3565" y="260.360886"/>
     <use style="fill:#1f77b4;stroke:#1f77b4;" x="427.88017" xlink:href="#m206a9b3565" y="108.761539"/>
    </g>
   </g>
   <g id="line2d_45">
    <g clip-path="url(#pb0524d2c52)">
     <use style="fill:#1f77b4;stroke:#1f77b4;" x="61.77108" xlink:href="#m206a9b3565" y="289.839034"/>
     <use style="fill:#1f77b4;stroke:#1f77b4;" x="114.072378" xlink:href="#m206a9b3565" y="274.62387"/>
     <use style="fill:#1f77b4;stroke:#1f77b4;" x="166.373677" xlink:href="#m206a9b3565" y="256.011874"/>
     <use style="fill:#1f77b4;stroke:#1f77b4;" x="218.674976" xlink:href="#m206a9b3565" y="230.789111"/>
     <use style="fill:#1f77b4;stroke:#1f77b4;" x="270.976274" xlink:href="#m206a9b3565" y="209.020988"/>
     <use style="fill:#1f77b4;stroke:#1f77b4;" x="323.277573" xlink:href="#m206a9b3565" y="173.36127"/>
     <use style="fill:#1f77b4;stroke:#1f77b4;" x="375.578872" xlink:href="#m206a9b3565" y="252.179921"/>
     <use style="fill:#1f77b4;stroke:#1f77b4;" x="427.88017" xlink:href="#m206a9b3565" y="106.43675"/>
    </g>
   </g>
   <g id="line2d_46">
    <path clip-path="url(#pb0524d2c52)" d="M 61.77108 268.172657 
L 114.072378 251.922874 
L 166.373677 225.124987 
L 218.674976 188.491704 
L 270.976274 176.090554 
L 323.277573 150.361731 
L 375.578872 152.499861 
L 427.88017 36.54198 
" style="fill:none;stroke:#aec7e8;stroke-linecap:square;stroke-width:1.5;"/>
    <defs>
     <path d="M 0 -3 
L -3 3 
L 3 3 
z
" id="mdc8f0fcdae" style="stroke:#aec7e8;stroke-linejoin:miter;"/>
    </defs>
    <g clip-path="url(#pb0524d2c52)">
     <use style="fill-opacity:0;stroke:#aec7e8;stroke-linejoin:miter;" x="61.77108" xlink:href="#mdc8f0fcdae" y="268.172657"/>
     <use style="fill-opacity:0;stroke:#aec7e8;stroke-linejoin:miter;" x="114.072378" xlink:href="#mdc8f0fcdae" y="251.922874"/>
     <use style="fill-opacity:0;stroke:#aec7e8;stroke-linejoin:miter;" x="166.373677" xlink:href="#mdc8f0fcdae" y="225.124987"/>
     <use style="fill-opacity:0;stroke:#aec7e8;stroke-linejoin:miter;" x="218.674976" xlink:href="#mdc8f0fcdae" y="188.491704"/>
     <use style="fill-opacity:0;stroke:#aec7e8;stroke-linejoin:miter;" x="270.976274" xlink:href="#mdc8f0fcdae" y="176.090554"/>
     <use style="fill-opacity:0;stroke:#aec7e8;stroke-linejoin:miter;" x="323.277573" xlink:href="#mdc8f0fcdae" y="150.361731"/>
     <use style="fill-opacity:0;stroke:#aec7e8;stroke-linejoin:miter;" x="375.578872" xlink:href="#mdc8f0fcdae" y="152.499861"/>
     <use style="fill-opacity:0;stroke:#aec7e8;stroke-linejoin:miter;" x="427.88017" xlink:href="#mdc8f0fcdae" y="36.54198"/>
    </g>
   </g>
   <g id="line2d_47">
    <defs>
     <path d="M 3 0 
L -3 -0 
" id="m84d0ea83a9" style="stroke:#aec7e8;"/>
    </defs>
    <g clip-path="url(#pb0524d2c52)">
     <use style="fill:#aec7e8;stroke:#aec7e8;" x="61.77108" xlink:href="#m84d0ea83a9" y="268.575826"/>
     <use style="fill:#aec7e8;stroke:#aec7e8;" x="114.072378" xlink:href="#m84d0ea83a9" y="252.729213"/>
     <use style="fill:#aec7e8;stroke:#aec7e8;" x="166.373677" xlink:href="#m84d0ea83a9" y="225.931326"/>
     <use style="fill:#aec7e8;stroke:#aec7e8;" x="218.674976" xlink:href="#m84d0ea83a9" y="190.720561"/>
     <use style="fill:#aec7e8;stroke:#aec7e8;" x="270.976274" xlink:href="#m84d0ea83a9" y="176.788864"/>
     <use style="fill:#aec7e8;stroke:#aec7e8;" x="323.277573" xlink:href="#m84d0ea83a9" y="151.470448"/>
     <use style="fill:#aec7e8;stroke:#aec7e8;" x="375.578872" xlink:href="#m84d0ea83a9" y="155.206282"/>
     <use style="fill:#aec7e8;stroke:#aec7e8;" x="427.88017" xlink:href="#m84d0ea83a9" y="38.026745"/>
    </g>
   </g>
   <g id="line2d_48">
    <g clip-path="url(#pb0524d2c52)">
     <use style="fill:#aec7e8;stroke:#aec7e8;" x="61.77108" xlink:href="#m84d0ea83a9" y="267.769487"/>
     <use style="fill:#aec7e8;stroke:#aec7e8;" x="114.072378" xlink:href="#m84d0ea83a9" y="251.116535"/>
     <use style="fill:#aec7e8;stroke:#aec7e8;" x="166.373677" xlink:href="#m84d0ea83a9" y="224.318648"/>
     <use style="fill:#aec7e8;stroke:#aec7e8;" x="218.674976" xlink:href="#m84d0ea83a9" y="186.262848"/>
     <use style="fill:#aec7e8;stroke:#aec7e8;" x="270.976274" xlink:href="#m84d0ea83a9" y="175.392244"/>
     <use style="fill:#aec7e8;stroke:#aec7e8;" x="323.277573" xlink:href="#m84d0ea83a9" y="149.253015"/>
     <use style="fill:#aec7e8;stroke:#aec7e8;" x="375.578872" xlink:href="#m84d0ea83a9" y="149.79344"/>
     <use style="fill:#aec7e8;stroke:#aec7e8;" x="427.88017" xlink:href="#m84d0ea83a9" y="35.057216"/>
    </g>
   </g>
   <g id="line2d_49">
    <path clip-path="url(#pb0524d2c52)" d="M 61.77108 232.537168 
L 114.072378 216.64374 
L 166.373677 197.828202 
L 218.674976 154.63799 
L 270.976274 166.611514 
L 323.277573 108.454397 
L 375.578872 122.851134 
L 427.88017 89.282504 
" style="fill:none;stroke:#ff7f0e;stroke-linecap:square;stroke-width:1.5;"/>
    <defs>
     <path d="M -3 3 
L 3 3 
L 3 -3 
L -3 -3 
z
" id="m8f5c99300f" style="stroke:#ff7f0e;stroke-linejoin:miter;"/>
    </defs>
    <g clip-path="url(#pb0524d2c52)">
     <use style="fill-opacity:0;stroke:#ff7f0e;stroke-linejoin:miter;" x="61.77108" xlink:href="#m8f5c99300f" y="232.537168"/>
     <use style="fill-opacity:0;stroke:#ff7f0e;stroke-linejoin:miter;" x="114.072378" xlink:href="#m8f5c99300f" y="216.64374"/>
     <use style="fill-opacity:0;stroke:#ff7f0e;stroke-linejoin:miter;" x="166.373677" xlink:href="#m8f5c99300f" y="197.828202"/>
     <use style="fill-opacity:0;stroke:#ff7f0e;stroke-linejoin:miter;" x="218.674976" xlink:href="#m8f5c99300f" y="154.63799"/>
     <use style="fill-opacity:0;stroke:#ff7f0e;stroke-linejoin:miter;" x="270.976274" xlink:href="#m8f5c99300f" y="166.611514"/>
     <use style="fill-opacity:0;stroke:#ff7f0e;stroke-linejoin:miter;" x="323.277573" xlink:href="#m8f5c99300f" y="108.454397"/>
     <use style="fill-opacity:0;stroke:#ff7f0e;stroke-linejoin:miter;" x="375.578872" xlink:href="#m8f5c99300f" y="122.851134"/>
     <use style="fill-opacity:0;stroke:#ff7f0e;stroke-linejoin:miter;" x="427.88017" xlink:href="#m8f5c99300f" y="89.282504"/>
    </g>
   </g>
   <g id="line2d_50">
    <defs>
     <path d="M 3 0 
L -3 -0 
" id="m2b54c8df29" style="stroke:#ff7f0e;"/>
    </defs>
    <g clip-path="url(#pb0524d2c52)">
     <use style="fill:#ff7f0e;stroke:#ff7f0e;" x="61.77108" xlink:href="#m2b54c8df29" y="232.537168"/>
     <use style="fill:#ff7f0e;stroke:#ff7f0e;" x="114.072378" xlink:href="#m2b54c8df29" y="217.147702"/>
     <use style="fill:#ff7f0e;stroke:#ff7f0e;" x="166.373677" xlink:href="#m2b54c8df29" y="200.038752"/>
     <use style="fill:#ff7f0e;stroke:#ff7f0e;" x="218.674976" xlink:href="#m2b54c8df29" y="156.560986"/>
     <use style="fill:#ff7f0e;stroke:#ff7f0e;" x="270.976274" xlink:href="#m2b54c8df29" y="168.360197"/>
     <use style="fill:#ff7f0e;stroke:#ff7f0e;" x="323.277573" xlink:href="#m2b54c8df29" y="109.616791"/>
     <use style="fill:#ff7f0e;stroke:#ff7f0e;" x="375.578872" xlink:href="#m2b54c8df29" y="124.214628"/>
     <use style="fill:#ff7f0e;stroke:#ff7f0e;" x="427.88017" xlink:href="#m2b54c8df29" y="90.794389"/>
    </g>
   </g>
   <g id="line2d_51">
    <g clip-path="url(#pb0524d2c52)">
     <use style="fill:#ff7f0e;stroke:#ff7f0e;" x="61.77108" xlink:href="#m2b54c8df29" y="232.537168"/>
     <use style="fill:#ff7f0e;stroke:#ff7f0e;" x="114.072378" xlink:href="#m2b54c8df29" y="216.139778"/>
     <use style="fill:#ff7f0e;stroke:#ff7f0e;" x="166.373677" xlink:href="#m2b54c8df29" y="195.617653"/>
     <use style="fill:#ff7f0e;stroke:#ff7f0e;" x="218.674976" xlink:href="#m2b54c8df29" y="152.714994"/>
     <use style="fill:#ff7f0e;stroke:#ff7f0e;" x="270.976274" xlink:href="#m2b54c8df29" y="164.862832"/>
     <use style="fill:#ff7f0e;stroke:#ff7f0e;" x="323.277573" xlink:href="#m2b54c8df29" y="107.292002"/>
     <use style="fill:#ff7f0e;stroke:#ff7f0e;" x="375.578872" xlink:href="#m2b54c8df29" y="121.48764"/>
     <use style="fill:#ff7f0e;stroke:#ff7f0e;" x="427.88017" xlink:href="#m2b54c8df29" y="87.770618"/>
    </g>
   </g>
   <g id="line2d_52">
    <path clip-path="url(#pb0524d2c52)" d="M 61.77108 230.755394 
L 114.072378 216.216114 
L 166.373677 197.471847 
L 218.674976 175.734199 
L 270.976274 161.266191 
L 323.277573 127.056122 
L 375.578872 100.757131 
L 427.88017 90.565381 
" style="fill:none;stroke:#ffbb78;stroke-linecap:square;stroke-width:1.5;"/>
    <defs>
     <path d="M -0 4.242641 
L 4.242641 0 
L 0 -4.242641 
L -4.242641 -0 
z
" id="me6fc61b88a" style="stroke:#ffbb78;stroke-linejoin:miter;"/>
    </defs>
    <g clip-path="url(#pb0524d2c52)">
     <use style="fill-opacity:0;stroke:#ffbb78;stroke-linejoin:miter;" x="61.77108" xlink:href="#me6fc61b88a" y="230.755394"/>
     <use style="fill-opacity:0;stroke:#ffbb78;stroke-linejoin:miter;" x="114.072378" xlink:href="#me6fc61b88a" y="216.216114"/>
     <use style="fill-opacity:0;stroke:#ffbb78;stroke-linejoin:miter;" x="166.373677" xlink:href="#me6fc61b88a" y="197.471847"/>
     <use style="fill-opacity:0;stroke:#ffbb78;stroke-linejoin:miter;" x="218.674976" xlink:href="#me6fc61b88a" y="175.734199"/>
     <use style="fill-opacity:0;stroke:#ffbb78;stroke-linejoin:miter;" x="270.976274" xlink:href="#me6fc61b88a" y="161.266191"/>
     <use style="fill-opacity:0;stroke:#ffbb78;stroke-linejoin:miter;" x="323.277573" xlink:href="#me6fc61b88a" y="127.056122"/>
     <use style="fill-opacity:0;stroke:#ffbb78;stroke-linejoin:miter;" x="375.578872" xlink:href="#me6fc61b88a" y="100.757131"/>
     <use style="fill-opacity:0;stroke:#ffbb78;stroke-linejoin:miter;" x="427.88017" xlink:href="#me6fc61b88a" y="90.565381"/>
    </g>
   </g>
   <g id="line2d_53">
    <defs>
     <path d="M 3 0 
L -3 -0 
" id="m0f4ec96cc0" style="stroke:#ffbb78;"/>
    </defs>
    <g clip-path="url(#pb0524d2c52)">
     <use style="fill:#ffbb78;stroke:#ffbb78;" x="61.77108" xlink:href="#m0f4ec96cc0" y="230.856186"/>
     <use style="fill:#ffbb78;stroke:#ffbb78;" x="114.072378" xlink:href="#m0f4ec96cc0" y="216.829211"/>
     <use style="fill:#ffbb78;stroke:#ffbb78;" x="166.373677" xlink:href="#m0f4ec96cc0" y="200.515711"/>
     <use style="fill:#ffbb78;stroke:#ffbb78;" x="218.674976" xlink:href="#m0f4ec96cc0" y="177.411719"/>
     <use style="fill:#ffbb78;stroke:#ffbb78;" x="270.976274" xlink:href="#m0f4ec96cc0" y="161.66936"/>
     <use style="fill:#ffbb78;stroke:#ffbb78;" x="323.277573" xlink:href="#m0f4ec96cc0" y="128.678222"/>
     <use style="fill:#ffbb78;stroke:#ffbb78;" x="375.578872" xlink:href="#m0f4ec96cc0" y="100.857923"/>
     <use style="fill:#ffbb78;stroke:#ffbb78;" x="427.88017" xlink:href="#m0f4ec96cc0" y="91.962002"/>
    </g>
   </g>
   <g id="line2d_54">
    <g clip-path="url(#pb0524d2c52)">
     <use style="fill:#ffbb78;stroke:#ffbb78;" x="61.77108" xlink:href="#m0f4ec96cc0" y="230.654601"/>
     <use style="fill:#ffbb78;stroke:#ffbb78;" x="114.072378" xlink:href="#m0f4ec96cc0" y="215.603018"/>
     <use style="fill:#ffbb78;stroke:#ffbb78;" x="166.373677" xlink:href="#m0f4ec96cc0" y="194.427984"/>
     <use style="fill:#ffbb78;stroke:#ffbb78;" x="218.674976" xlink:href="#m0f4ec96cc0" y="174.05668"/>
     <use style="fill:#ffbb78;stroke:#ffbb78;" x="270.976274" xlink:href="#m0f4ec96cc0" y="160.863021"/>
     <use style="fill:#ffbb78;stroke:#ffbb78;" x="323.277573" xlink:href="#m0f4ec96cc0" y="125.434022"/>
     <use style="fill:#ffbb78;stroke:#ffbb78;" x="375.578872" xlink:href="#m0f4ec96cc0" y="100.656339"/>
     <use style="fill:#ffbb78;stroke:#ffbb78;" x="427.88017" xlink:href="#m0f4ec96cc0" y="89.168761"/>
    </g>
   </g>
   <g id="line2d_55">
    <path clip-path="url(#pb0524d2c52)" d="M 61.77108 157.132474 
L 114.072378 146.940724 
L 166.373677 125.630702 
L 218.674976 112.231758 
L 270.976274 102.253822 
L 323.277573 73.032721 
L 375.578872 64.123849 
L 427.88017 49.085672 
" style="fill:none;stroke:#2ca02c;stroke-linecap:square;stroke-width:1.5;"/>
    <defs>
     <path d="M 0 -3 
L -0.673542 -0.927051 
L -2.85317 -0.927051 
L -1.089814 0.354102 
L -1.763356 2.427051 
L -0 1.145898 
L 1.763356 2.427051 
L 1.089814 0.354102 
L 2.85317 -0.927051 
L 0.673542 -0.927051 
z
" id="mb6c3e22def" style="stroke:#2ca02c;stroke-linejoin:bevel;"/>
    </defs>
    <g clip-path="url(#pb0524d2c52)">
     <use style="fill-opacity:0;stroke:#2ca02c;stroke-linejoin:bevel;" x="61.77108" xlink:href="#mb6c3e22def" y="157.132474"/>
     <use style="fill-opacity:0;stroke:#2ca02c;stroke-linejoin:bevel;" x="114.072378" xlink:href="#mb6c3e22def" y="146.940724"/>
     <use style="fill-opacity:0;stroke:#2ca02c;stroke-linejoin:bevel;" x="166.373677" xlink:href="#mb6c3e22def" y="125.630702"/>
     <use style="fill-opacity:0;stroke:#2ca02c;stroke-linejoin:bevel;" x="218.674976" xlink:href="#mb6c3e22def" y="112.231758"/>
     <use style="fill-opacity:0;stroke:#2ca02c;stroke-linejoin:bevel;" x="270.976274" xlink:href="#mb6c3e22def" y="102.253822"/>
     <use style="fill-opacity:0;stroke:#2ca02c;stroke-linejoin:bevel;" x="323.277573" xlink:href="#mb6c3e22def" y="73.032721"/>
     <use style="fill-opacity:0;stroke:#2ca02c;stroke-linejoin:bevel;" x="375.578872" xlink:href="#mb6c3e22def" y="64.123849"/>
     <use style="fill-opacity:0;stroke:#2ca02c;stroke-linejoin:bevel;" x="427.88017" xlink:href="#mb6c3e22def" y="49.085672"/>
    </g>
   </g>
   <g id="line2d_56">
    <defs>
     <path d="M 3 0 
L -3 -0 
" id="mf1bc155530" style="stroke:#2ca02c;"/>
    </defs>
    <g clip-path="url(#pb0524d2c52)">
     <use style="fill:#2ca02c;stroke:#2ca02c;" x="61.77108" xlink:href="#mf1bc155530" y="157.495886"/>
     <use style="fill:#2ca02c;stroke:#2ca02c;" x="114.072378" xlink:href="#mf1bc155530" y="147.646271"/>
     <use style="fill:#2ca02c;stroke:#2ca02c;" x="166.373677" xlink:href="#mf1bc155530" y="126.26015"/>
     <use style="fill:#2ca02c;stroke:#2ca02c;" x="218.674976" xlink:href="#mf1bc155530" y="114.476511"/>
     <use style="fill:#2ca02c;stroke:#2ca02c;" x="270.976274" xlink:href="#mf1bc155530" y="103.875921"/>
     <use style="fill:#2ca02c;stroke:#2ca02c;" x="323.277573" xlink:href="#mf1bc155530" y="77.160289"/>
     <use style="fill:#2ca02c;stroke:#2ca02c;" x="375.578872" xlink:href="#mf1bc155530" y="64.911062"/>
     <use style="fill:#2ca02c;stroke:#2ca02c;" x="427.88017" xlink:href="#mf1bc155530" y="56.042538"/>
    </g>
   </g>
   <g id="line2d_57">
    <g clip-path="url(#pb0524d2c52)">
     <use style="fill:#2ca02c;stroke:#2ca02c;" x="61.77108" xlink:href="#mf1bc155530" y="156.769062"/>
     <use style="fill:#2ca02c;stroke:#2ca02c;" x="114.072378" xlink:href="#mf1bc155530" y="146.235178"/>
     <use style="fill:#2ca02c;stroke:#2ca02c;" x="166.373677" xlink:href="#mf1bc155530" y="125.001254"/>
     <use style="fill:#2ca02c;stroke:#2ca02c;" x="218.674976" xlink:href="#mf1bc155530" y="109.987005"/>
     <use style="fill:#2ca02c;stroke:#2ca02c;" x="270.976274" xlink:href="#mf1bc155530" y="100.631722"/>
     <use style="fill:#2ca02c;stroke:#2ca02c;" x="323.277573" xlink:href="#mf1bc155530" y="68.905153"/>
     <use style="fill:#2ca02c;stroke:#2ca02c;" x="375.578872" xlink:href="#mf1bc155530" y="63.336635"/>
     <use style="fill:#2ca02c;stroke:#2ca02c;" x="427.88017" xlink:href="#mf1bc155530" y="42.128807"/>
    </g>
   </g>
   <g id="line2d_58"/>
   <g id="line2d_59"/>
   <g id="line2d_60"/>
   <g id="line2d_61"/>
   <g id="line2d_62"/>
   <g id="patch_3">
    <path d="M 43.465625 302.578125 
L 43.465625 22.318125 
" style="fill:none;stroke:#000000;stroke-linecap:square;stroke-linejoin:miter;stroke-width:0.8;"/>
   </g>
   <g id="patch_4">
    <path d="M 446.185625 302.578125 
L 446.185625 22.318125 
" style="fill:none;stroke:#000000;stroke-linecap:square;stroke-linejoin:miter;stroke-width:0.8;"/>
   </g>
   <g id="patch_5">
    <path d="M 43.465625 302.578125 
L 446.185625 302.578125 
" style="fill:none;stroke:#000000;stroke-linecap:square;stroke-linejoin:miter;stroke-width:0.8;"/>
   </g>
   <g id="patch_6">
    <path d="M 43.465625 22.318125 
L 446.185625 22.318125 
" style="fill:none;stroke:#000000;stroke-linecap:square;stroke-linejoin:miter;stroke-width:0.8;"/>
   </g>
   <g id="text_17">
    <!-- 03-fosdem-stuffs.npf -->
    <defs>
     <path d="M 4.890625 31.390625 
L 31.203125 31.390625 
L 31.203125 23.390625 
L 4.890625 23.390625 
z
" id="DejaVuSans-45"/>
     <path d="M 45.40625 46.390625 
L 45.40625 75.984375 
L 54.390625 75.984375 
L 54.390625 0 
L 45.40625 0 
L 45.40625 8.203125 
Q 42.578125 3.328125 38.25 0.953125 
Q 33.9375 -1.421875 27.875 -1.421875 
Q 17.96875 -1.421875 11.734375 6.484375 
Q 5.515625 14.40625 5.515625 27.296875 
Q 5.515625 40.1875 11.734375 48.09375 
Q 17.96875 56 27.875 56 
Q 33.9375 56 38.25 53.625 
Q 42.578125 51.265625 45.40625 46.390625 
z
M 14.796875 27.296875 
Q 14.796875 17.390625 18.875 11.75 
Q 22.953125 6.109375 30.078125 6.109375 
Q 37.203125 6.109375 41.296875 11.75 
Q 45.40625 17.390625 45.40625 27.296875 
Q 45.40625 37.203125 41.296875 42.84375 
Q 37.203125 48.484375 30.078125 48.484375 
Q 22.953125 48.484375 18.875 42.84375 
Q 14.796875 37.203125 14.796875 27.296875 
z
" id="DejaVuSans-100"/>
     <path d="M 18.3125 70.21875 
L 18.3125 54.6875 
L 36.8125 54.6875 
L 36.8125 47.703125 
L 18.3125 47.703125 
L 18.3125 18.015625 
Q 18.3125 11.328125 20.140625 9.421875 
Q 21.96875 7.515625 27.59375 7.515625 
L 36.8125 7.515625 
L 36.8125 0 
L 27.59375 0 
Q 17.1875 0 13.234375 3.875 
Q 9.28125 7.765625 9.28125 18.015625 
L 9.28125 47.703125 
L 2.6875 47.703125 
L 2.6875 54.6875 
L 9.28125 54.6875 
L 9.28125 70.21875 
z
" id="DejaVuSans-116"/>
     <path d="M 10.6875 12.40625 
L 21 12.40625 
L 21 0 
L 10.6875 0 
z
" id="DejaVuSans-46"/>
     <path d="M 54.890625 33.015625 
L 54.890625 0 
L 45.90625 0 
L 45.90625 32.71875 
Q 45.90625 40.484375 42.875 44.328125 
Q 39.84375 48.1875 33.796875 48.1875 
Q 26.515625 48.1875 22.3125 43.546875 
Q 18.109375 38.921875 18.109375 30.90625 
L 18.109375 0 
L 9.078125 0 
L 9.078125 54.6875 
L 18.109375 54.6875 
L 18.109375 46.1875 
Q 21.34375 51.125 25.703125 53.5625 
Q 30.078125 56 35.796875 56 
Q 45.21875 56 50.046875 50.171875 
Q 54.890625 44.34375 54.890625 33.015625 
z
" id="DejaVuSans-110"/>
     <path d="M 18.109375 8.203125 
L 18.109375 -20.796875 
L 9.078125 -20.796875 
L 9.078125 54.6875 
L 18.109375 54.6875 
L 18.109375 46.390625 
Q 20.953125 51.265625 25.265625 53.625 
Q 29.59375 56 35.59375 56 
Q 45.5625 56 51.78125 48.09375 
Q 58.015625 40.1875 58.015625 27.296875 
Q 58.015625 14.40625 51.78125 6.484375 
Q 45.5625 -1.421875 35.59375 -1.421875 
Q 29.59375 -1.421875 25.265625 0.953125 
Q 20.953125 3.328125 18.109375 8.203125 
z
M 48.6875 27.296875 
Q 48.6875 37.203125 44.609375 42.84375 
Q 40.53125 48.484375 33.40625 48.484375 
Q 26.265625 48.484375 22.1875 42.84375 
Q 18.109375 37.203125 18.109375 27.296875 
Q 18.109375 17.390625 22.1875 11.75 
Q 26.265625 6.109375 33.40625 6.109375 
Q 40.53125 6.109375 44.609375 11.75 
Q 48.6875 17.390625 48.6875 27.296875 
z
" id="DejaVuSans-112"/>
    </defs>
    <g transform="translate(182.345937 16.318125)scale(0.12 -0.12)">
     <use xlink:href="#DejaVuSans-48"/>
     <use x="63.623047" xlink:href="#DejaVuSans-51"/>
     <use x="127.246094" xlink:href="#DejaVuSans-45"/>
     <use x="163.330078" xlink:href="#DejaVuSans-102"/>
     <use x="198.535156" xlink:href="#DejaVuSans-111"/>
     <use x="259.716797" xlink:href="#DejaVuSans-115"/>
     <use x="311.816406" xlink:href="#DejaVuSans-100"/>
     <use x="375.292969" xlink:href="#DejaVuSans-101"/>
     <use x="436.816406" xlink:href="#DejaVuSans-109"/>
     <use x="534.228516" xlink:href="#DejaVuSans-45"/>
     <use x="570.3125" xlink:href="#DejaVuSans-115"/>
     <use x="622.412109" xlink:href="#DejaVuSans-116"/>
     <use x="661.621094" xlink:href="#DejaVuSans-117"/>
     <use x="725" xlink:href="#DejaVuSans-102"/>
     <use x="760.205078" xlink:href="#DejaVuSans-102"/>
     <use x="795.410156" xlink:href="#DejaVuSans-115"/>
     <use x="847.509766" xlink:href="#DejaVuSans-46"/>
     <use x="879.296875" xlink:href="#DejaVuSans-110"/>
     <use x="942.675781" xlink:href="#DejaVuSans-112"/>
     <use x="1006.152344" xlink:href="#DejaVuSans-102"/>
    </g>
   </g>
   <g id="legend_1">
    <g id="patch_7">
     <path d="M 48.465625 118.386875 
L 164.078125 118.386875 
L 164.078125 27.318125 
L 48.465625 27.318125 
z
" style="fill:#ffffff;stroke:#000000;stroke-linejoin:miter;"/>
    </g>
    <g id="text_18">
     <!-- FNT -->
     <defs>
      <path d="M 9.8125 72.90625 
L 51.703125 72.90625 
L 51.703125 64.59375 
L 19.671875 64.59375 
L 19.671875 43.109375 
L 48.578125 43.109375 
L 48.578125 34.8125 
L 19.671875 34.8125 
L 19.671875 0 
L 9.8125 0 
z
" id="DejaVuSans-70"/>
     </defs>
     <g transform="translate(96.601562 38.916562)scale(0.1 -0.1)">
      <use xlink:href="#DejaVuSans-70"/>
      <use x="57.519531" xlink:href="#DejaVuSans-78"/>
      <use x="132.324219" xlink:href="#DejaVuSans-84"/>
     </g>
    </g>
    <g id="line2d_63">
     <path d="M 52.465625 50.094687 
L 72.465625 50.094687 
" style="fill:none;stroke:#1f77b4;stroke-linecap:square;stroke-width:1.5;"/>
    </g>
    <g id="line2d_64">
     <g>
      <use style="fill-opacity:0;stroke:#1f77b4;" x="62.465625" xlink:href="#mebbe17d622" y="50.094687"/>
     </g>
    </g>
    <g id="text_19">
     <!-- Router -->
     <defs>
      <path d="M 44.390625 34.1875 
Q 47.5625 33.109375 50.5625 29.59375 
Q 53.5625 26.078125 56.59375 19.921875 
L 66.609375 0 
L 56 0 
L 46.6875 18.703125 
Q 43.0625 26.03125 39.671875 28.421875 
Q 36.28125 30.8125 30.421875 30.8125 
L 19.671875 30.8125 
L 19.671875 0 
L 9.8125 0 
L 9.8125 72.90625 
L 32.078125 72.90625 
Q 44.578125 72.90625 50.734375 67.671875 
Q 56.890625 62.453125 56.890625 51.90625 
Q 56.890625 45.015625 53.6875 40.46875 
Q 50.484375 35.9375 44.390625 34.1875 
z
M 19.671875 64.796875 
L 19.671875 38.921875 
L 32.078125 38.921875 
Q 39.203125 38.921875 42.84375 42.21875 
Q 46.484375 45.515625 46.484375 51.90625 
Q 46.484375 58.296875 42.84375 61.546875 
Q 39.203125 64.796875 32.078125 64.796875 
z
" id="DejaVuSans-82"/>
     </defs>
     <g transform="translate(80.465625 53.594687)scale(0.1 -0.1)">
      <use xlink:href="#DejaVuSans-82"/>
      <use x="64.982422" xlink:href="#DejaVuSans-111"/>
      <use x="126.164062" xlink:href="#DejaVuSans-117"/>
      <use x="189.542969" xlink:href="#DejaVuSans-116"/>
      <use x="228.751953" xlink:href="#DejaVuSans-101"/>
      <use x="290.275391" xlink:href="#DejaVuSans-114"/>
     </g>
    </g>
    <g id="line2d_65">
     <path d="M 52.465625 64.772812 
L 72.465625 64.772812 
" style="fill:none;stroke:#aec7e8;stroke-linecap:square;stroke-width:1.5;"/>
    </g>
    <g id="line2d_66">
     <g>
      <use style="fill-opacity:0;stroke:#aec7e8;stroke-linejoin:miter;" x="62.465625" xlink:href="#mdc8f0fcdae" y="64.772812"/>
     </g>
    </g>
    <g id="text_20">
     <!-- +Sanity check -->
     <defs>
      <path d="M 46 62.703125 
L 46 35.5 
L 73.1875 35.5 
L 73.1875 27.203125 
L 46 27.203125 
L 46 0 
L 37.796875 0 
L 37.796875 27.203125 
L 10.59375 27.203125 
L 10.59375 35.5 
L 37.796875 35.5 
L 37.796875 62.703125 
z
" id="DejaVuSans-43"/>
      <path d="M 53.515625 70.515625 
L 53.515625 60.890625 
Q 47.90625 63.578125 42.921875 64.890625 
Q 37.9375 66.21875 33.296875 66.21875 
Q 25.25 66.21875 20.875 63.09375 
Q 16.5 59.96875 16.5 54.203125 
Q 16.5 49.359375 19.40625 46.890625 
Q 22.3125 44.4375 30.421875 42.921875 
L 36.375 41.703125 
Q 47.40625 39.59375 52.65625 34.296875 
Q 57.90625 29 57.90625 20.125 
Q 57.90625 9.515625 50.796875 4.046875 
Q 43.703125 -1.421875 29.984375 -1.421875 
Q 24.8125 -1.421875 18.96875 -0.25 
Q 13.140625 0.921875 6.890625 3.21875 
L 6.890625 13.375 
Q 12.890625 10.015625 18.65625 8.296875 
Q 24.421875 6.59375 29.984375 6.59375 
Q 38.421875 6.59375 43.015625 9.90625 
Q 47.609375 13.234375 47.609375 19.390625 
Q 47.609375 24.75 44.3125 27.78125 
Q 41.015625 30.8125 33.5 32.328125 
L 27.484375 33.5 
Q 16.453125 35.6875 11.515625 40.375 
Q 6.59375 45.0625 6.59375 53.421875 
Q 6.59375 63.09375 13.40625 68.65625 
Q 20.21875 74.21875 32.171875 74.21875 
Q 37.3125 74.21875 42.625 73.28125 
Q 47.953125 72.359375 53.515625 70.515625 
z
" id="DejaVuSans-83"/>
      <path d="M 34.28125 27.484375 
Q 23.390625 27.484375 19.1875 25 
Q 14.984375 22.515625 14.984375 16.5 
Q 14.984375 11.71875 18.140625 8.90625 
Q 21.296875 6.109375 26.703125 6.109375 
Q 34.1875 6.109375 38.703125 11.40625 
Q 43.21875 16.703125 43.21875 25.484375 
L 43.21875 27.484375 
z
M 52.203125 31.203125 
L 52.203125 0 
L 43.21875 0 
L 43.21875 8.296875 
Q 40.140625 3.328125 35.546875 0.953125 
Q 30.953125 -1.421875 24.3125 -1.421875 
Q 15.921875 -1.421875 10.953125 3.296875 
Q 6 8.015625 6 15.921875 
Q 6 25.140625 12.171875 29.828125 
Q 18.359375 34.515625 30.609375 34.515625 
L 43.21875 34.515625 
L 43.21875 35.40625 
Q 43.21875 41.609375 39.140625 45 
Q 35.0625 48.390625 27.6875 48.390625 
Q 23 48.390625 18.546875 47.265625 
Q 14.109375 46.140625 10.015625 43.890625 
L 10.015625 52.203125 
Q 14.9375 54.109375 19.578125 55.046875 
Q 24.21875 56 28.609375 56 
Q 40.484375 56 46.34375 49.84375 
Q 52.203125 43.703125 52.203125 31.203125 
z
" id="DejaVuSans-97"/>
      <path d="M 9.421875 54.6875 
L 18.40625 54.6875 
L 18.40625 0 
L 9.421875 0 
z
M 9.421875 75.984375 
L 18.40625 75.984375 
L 18.40625 64.59375 
L 9.421875 64.59375 
z
" id="DejaVuSans-105"/>
      <path d="M 32.171875 -5.078125 
Q 28.375 -14.84375 24.75 -17.8125 
Q 21.140625 -20.796875 15.09375 -20.796875 
L 7.90625 -20.796875 
L 7.90625 -13.28125 
L 13.1875 -13.28125 
Q 16.890625 -13.28125 18.9375 -11.515625 
Q 21 -9.765625 23.484375 -3.21875 
L 25.09375 0.875 
L 2.984375 54.6875 
L 12.5 54.6875 
L 29.59375 11.921875 
L 46.6875 54.6875 
L 56.203125 54.6875 
z
" id="DejaVuSans-121"/>
      <path d="M 54.890625 33.015625 
L 54.890625 0 
L 45.90625 0 
L 45.90625 32.71875 
Q 45.90625 40.484375 42.875 44.328125 
Q 39.84375 48.1875 33.796875 48.1875 
Q 26.515625 48.1875 22.3125 43.546875 
Q 18.109375 38.921875 18.109375 30.90625 
L 18.109375 0 
L 9.078125 0 
L 9.078125 75.984375 
L 18.109375 75.984375 
L 18.109375 46.1875 
Q 21.34375 51.125 25.703125 53.5625 
Q 30.078125 56 35.796875 56 
Q 45.21875 56 50.046875 50.171875 
Q 54.890625 44.34375 54.890625 33.015625 
z
" id="DejaVuSans-104"/>
      <path d="M 9.078125 75.984375 
L 18.109375 75.984375 
L 18.109375 31.109375 
L 44.921875 54.6875 
L 56.390625 54.6875 
L 27.390625 29.109375 
L 57.625 0 
L 45.90625 0 
L 18.109375 26.703125 
L 18.109375 0 
L 9.078125 0 
z
" id="DejaVuSans-107"/>
     </defs>
     <g transform="translate(80.465625 68.272812)scale(0.1 -0.1)">
      <use xlink:href="#DejaVuSans-43"/>
      <use x="83.789062" xlink:href="#DejaVuSans-83"/>
      <use x="147.265625" xlink:href="#DejaVuSans-97"/>
      <use x="208.544922" xlink:href="#DejaVuSans-110"/>
      <use x="271.923828" xlink:href="#DejaVuSans-105"/>
      <use x="299.707031" xlink:href="#DejaVuSans-116"/>
      <use x="338.916016" xlink:href="#DejaVuSans-121"/>
      <use x="398.095703" xlink:href="#DejaVuSans-32"/>
      <use x="429.882812" xlink:href="#DejaVuSans-99"/>
      <use x="484.863281" xlink:href="#DejaVuSans-104"/>
      <use x="548.242188" xlink:href="#DejaVuSans-101"/>
      <use x="609.765625" xlink:href="#DejaVuSans-99"/>
      <use x="664.746094" xlink:href="#DejaVuSans-107"/>
     </g>
    </g>
    <g id="line2d_67">
     <path d="M 52.465625 79.450937 
L 72.465625 79.450937 
" style="fill:none;stroke:#ff7f0e;stroke-linecap:square;stroke-width:1.5;"/>
    </g>
    <g id="line2d_68">
     <g>
      <use style="fill-opacity:0;stroke:#ff7f0e;stroke-linejoin:miter;" x="62.465625" xlink:href="#m8f5c99300f" y="79.450937"/>
     </g>
    </g>
    <g id="text_21">
     <!-- +Load-Balancer -->
     <defs>
      <path d="M 19.671875 34.8125 
L 19.671875 8.109375 
L 35.5 8.109375 
Q 43.453125 8.109375 47.28125 11.40625 
Q 51.125 14.703125 51.125 21.484375 
Q 51.125 28.328125 47.28125 31.5625 
Q 43.453125 34.8125 35.5 34.8125 
z
M 19.671875 64.796875 
L 19.671875 42.828125 
L 34.28125 42.828125 
Q 41.5 42.828125 45.03125 45.53125 
Q 48.578125 48.25 48.578125 53.8125 
Q 48.578125 59.328125 45.03125 62.0625 
Q 41.5 64.796875 34.28125 64.796875 
z
M 9.8125 72.90625 
L 35.015625 72.90625 
Q 46.296875 72.90625 52.390625 68.21875 
Q 58.5 63.53125 58.5 54.890625 
Q 58.5 48.1875 55.375 44.234375 
Q 52.25 40.28125 46.1875 39.3125 
Q 53.46875 37.75 57.5 32.78125 
Q 61.53125 27.828125 61.53125 20.40625 
Q 61.53125 10.640625 54.890625 5.3125 
Q 48.25 0 35.984375 0 
L 9.8125 0 
z
" id="DejaVuSans-66"/>
      <path d="M 9.421875 75.984375 
L 18.40625 75.984375 
L 18.40625 0 
L 9.421875 0 
z
" id="DejaVuSans-108"/>
     </defs>
     <g transform="translate(80.465625 82.950937)scale(0.1 -0.1)">
      <use xlink:href="#DejaVuSans-43"/>
      <use x="83.789062" xlink:href="#DejaVuSans-76"/>
      <use x="137.751953" xlink:href="#DejaVuSans-111"/>
      <use x="198.933594" xlink:href="#DejaVuSans-97"/>
      <use x="260.212891" xlink:href="#DejaVuSans-100"/>
      <use x="323.689453" xlink:href="#DejaVuSans-45"/>
      <use x="356.148438" xlink:href="#DejaVuSans-66"/>
      <use x="424.751953" xlink:href="#DejaVuSans-97"/>
      <use x="486.03125" xlink:href="#DejaVuSans-108"/>
      <use x="513.814453" xlink:href="#DejaVuSans-97"/>
      <use x="575.09375" xlink:href="#DejaVuSans-110"/>
      <use x="638.472656" xlink:href="#DejaVuSans-99"/>
      <use x="693.453125" xlink:href="#DejaVuSans-101"/>
      <use x="754.976562" xlink:href="#DejaVuSans-114"/>
     </g>
    </g>
    <g id="line2d_69">
     <path d="M 52.465625 94.129062 
L 72.465625 94.129062 
" style="fill:none;stroke:#ffbb78;stroke-linecap:square;stroke-width:1.5;"/>
    </g>
    <g id="line2d_70">
     <g>
      <use style="fill-opacity:0;stroke:#ffbb78;stroke-linejoin:miter;" x="62.465625" xlink:href="#me6fc61b88a" y="94.129062"/>
     </g>
    </g>
    <g id="text_22">
     <!-- +Flow monitor -->
     <defs>
      <path d="M 4.203125 54.6875 
L 13.1875 54.6875 
L 24.421875 12.015625 
L 35.59375 54.6875 
L 46.1875 54.6875 
L 57.421875 12.015625 
L 68.609375 54.6875 
L 77.59375 54.6875 
L 63.28125 0 
L 52.6875 0 
L 40.921875 44.828125 
L 29.109375 0 
L 18.5 0 
z
" id="DejaVuSans-119"/>
     </defs>
     <g transform="translate(80.465625 97.629062)scale(0.1 -0.1)">
      <use xlink:href="#DejaVuSans-43"/>
      <use x="83.789062" xlink:href="#DejaVuSans-70"/>
      <use x="141.308594" xlink:href="#DejaVuSans-108"/>
      <use x="169.091797" xlink:href="#DejaVuSans-111"/>
      <use x="230.273438" xlink:href="#DejaVuSans-119"/>
      <use x="312.060547" xlink:href="#DejaVuSans-32"/>
      <use x="343.847656" xlink:href="#DejaVuSans-109"/>
      <use x="441.259766" xlink:href="#DejaVuSans-111"/>
      <use x="502.441406" xlink:href="#DejaVuSans-110"/>
      <use x="565.820312" xlink:href="#DejaVuSans-105"/>
      <use x="593.603516" xlink:href="#DejaVuSans-116"/>
      <use x="632.8125" xlink:href="#DejaVuSans-111"/>
      <use x="693.994141" xlink:href="#DejaVuSans-114"/>
     </g>
    </g>
    <g id="line2d_71">
     <path d="M 52.465625 108.807187 
L 72.465625 108.807187 
" style="fill:none;stroke:#2ca02c;stroke-linecap:square;stroke-width:1.5;"/>
    </g>
    <g id="line2d_72">
     <g>
      <use style="fill-opacity:0;stroke:#2ca02c;stroke-linejoin:bevel;" x="62.465625" xlink:href="#mb6c3e22def" y="108.807187"/>
     </g>
    </g>
    <g id="text_23">
     <!-- +DPI -->
     <defs>
      <path d="M 19.671875 64.796875 
L 19.671875 8.109375 
L 31.59375 8.109375 
Q 46.6875 8.109375 53.6875 14.9375 
Q 60.6875 21.78125 60.6875 36.53125 
Q 60.6875 51.171875 53.6875 57.984375 
Q 46.6875 64.796875 31.59375 64.796875 
z
M 9.8125 72.90625 
L 30.078125 72.90625 
Q 51.265625 72.90625 61.171875 64.09375 
Q 71.09375 55.28125 71.09375 36.53125 
Q 71.09375 17.671875 61.125 8.828125 
Q 51.171875 0 30.078125 0 
L 9.8125 0 
z
" id="DejaVuSans-68"/>
      <path d="M 9.8125 72.90625 
L 19.671875 72.90625 
L 19.671875 0 
L 9.8125 0 
z
" id="DejaVuSans-73"/>
     </defs>
     <g transform="translate(80.465625 112.307187)scale(0.1 -0.1)">
      <use xlink:href="#DejaVuSans-43"/>
      <use x="83.789062" xlink:href="#DejaVuSans-68"/>
      <use x="160.791016" xlink:href="#DejaVuSans-80"/>
      <use x="221.09375" xlink:href="#DejaVuSans-73"/>
     </g>
    </g>
   </g>
  </g>
 </g>
 <defs>
  <clipPath id="pb0524d2c52">
   <rect height="280.26" width="402.72" x="43.465625" y="22.318125"/>
  </clipPath>
 </defs>
</svg>
