<?xml version="1.0" encoding="utf-8" standalone="no"?>
<!DOCTYPE svg PUBLIC "-//W3C//DTD SVG 1.1//EN"
  "http://www.w3.org/Graphics/SVG/1.1/DTD/svg11.dtd">
<!-- Created with matplotlib (https://matplotlib.org/) -->
<svg height="336.634375pt" version="1.1" viewBox="0 0 453.26125 336.634375" width="453.26125pt" xmlns="http://www.w3.org/2000/svg" xmlns:xlink="http://www.w3.org/1999/xlink">
 <defs>
  <style type="text/css">
*{stroke-linecap:butt;stroke-linejoin:round;}
  </style>
 </defs>
 <g id="figure_1">
  <g id="patch_1">
   <path d="M 0 336.634375 
L 453.26125 336.634375 
L 453.26125 0 
L 0 0 
z
" style="fill:none;"/>
  </g>
  <g id="axes_1">
   <g id="patch_2">
    <path d="M 40.28125 302.578125 
L 446.06125 302.578125 
L 446.06125 22.318125 
L 40.28125 22.318125 
z
" style="fill:none;"/>
   </g>
   <g id="matplotlib.axis_1">
    <g id="xtick_1">
     <g id="line2d_1">
      <path clip-path="url(#pfbf6aa2390)" d="M 58.725795 302.578125 
L 58.725795 22.318125 
" style="fill:none;stroke:#b2b2b2;stroke-dasharray:0.8,1.32;stroke-dashoffset:0;stroke-width:0.8;"/>
     </g>
     <g id="line2d_2">
      <defs>
       <path d="M 0 0 
L 0 -3.5 
" id="mf7a6d1bae0" style="stroke:#000000;stroke-width:0.8;"/>
      </defs>
      <g>
       <use style="stroke:#000000;stroke-width:0.8;" x="58.725795" xlink:href="#mf7a6d1bae0" y="302.578125"/>
      </g>
     </g>
     <g id="line2d_3">
      <defs>
       <path d="M 0 0 
L 0 3.5 
" id="m55887f2d87" style="stroke:#000000;stroke-width:0.8;"/>
      </defs>
      <g>
       <use style="stroke:#000000;stroke-width:0.8;" x="58.725795" xlink:href="#m55887f2d87" y="22.318125"/>
      </g>
     </g>
     <g id="text_1">
      <!-- 1 -->
      <defs>
       <path d="M 12.40625 8.296875 
L 28.515625 8.296875 
L 28.515625 63.921875 
L 10.984375 60.40625 
L 10.984375 69.390625 
L 28.421875 72.90625 
L 38.28125 72.90625 
L 38.28125 8.296875 
L 54.390625 8.296875 
L 54.390625 0 
L 12.40625 0 
z
" id="DejaVuSans-49"/>
      </defs>
      <g transform="translate(55.544545 313.676562)scale(0.1 -0.1)">
       <use xlink:href="#DejaVuSans-49"/>
      </g>
     </g>
    </g>
    <g id="xtick_2">
     <g id="line2d_4">
      <path clip-path="url(#pfbf6aa2390)" d="M 111.424497 302.578125 
L 111.424497 22.318125 
" style="fill:none;stroke:#b2b2b2;stroke-dasharray:0.8,1.32;stroke-dashoffset:0;stroke-width:0.8;"/>
     </g>
     <g id="line2d_5">
      <g>
       <use style="stroke:#000000;stroke-width:0.8;" x="111.424497" xlink:href="#mf7a6d1bae0" y="302.578125"/>
      </g>
     </g>
     <g id="line2d_6">
      <g>
       <use style="stroke:#000000;stroke-width:0.8;" x="111.424497" xlink:href="#m55887f2d87" y="22.318125"/>
      </g>
     </g>
     <g id="text_2">
      <!-- 2 -->
      <defs>
       <path d="M 19.1875 8.296875 
L 53.609375 8.296875 
L 53.609375 0 
L 7.328125 0 
L 7.328125 8.296875 
Q 12.9375 14.109375 22.625 23.890625 
Q 32.328125 33.6875 34.8125 36.53125 
Q 39.546875 41.84375 41.421875 45.53125 
Q 43.3125 49.21875 43.3125 52.78125 
Q 43.3125 58.59375 39.234375 62.25 
Q 35.15625 65.921875 28.609375 65.921875 
Q 23.96875 65.921875 18.8125 64.3125 
Q 13.671875 62.703125 7.8125 59.421875 
L 7.8125 69.390625 
Q 13.765625 71.78125 18.9375 73 
Q 24.125 74.21875 28.421875 74.21875 
Q 39.75 74.21875 46.484375 68.546875 
Q 53.21875 62.890625 53.21875 53.421875 
Q 53.21875 48.921875 51.53125 44.890625 
Q 49.859375 40.875 45.40625 35.40625 
Q 44.1875 33.984375 37.640625 27.21875 
Q 31.109375 20.453125 19.1875 8.296875 
z
" id="DejaVuSans-50"/>
      </defs>
      <g transform="translate(108.243247 313.676562)scale(0.1 -0.1)">
       <use xlink:href="#DejaVuSans-50"/>
      </g>
     </g>
    </g>
    <g id="xtick_3">
     <g id="line2d_7">
      <path clip-path="url(#pfbf6aa2390)" d="M 164.123198 302.578125 
L 164.123198 22.318125 
" style="fill:none;stroke:#b2b2b2;stroke-dasharray:0.8,1.32;stroke-dashoffset:0;stroke-width:0.8;"/>
     </g>
     <g id="line2d_8">
      <g>
       <use style="stroke:#000000;stroke-width:0.8;" x="164.123198" xlink:href="#mf7a6d1bae0" y="302.578125"/>
      </g>
     </g>
     <g id="line2d_9">
      <g>
       <use style="stroke:#000000;stroke-width:0.8;" x="164.123198" xlink:href="#m55887f2d87" y="22.318125"/>
      </g>
     </g>
     <g id="text_3">
      <!-- 3 -->
      <defs>
       <path d="M 40.578125 39.3125 
Q 47.65625 37.796875 51.625 33 
Q 55.609375 28.21875 55.609375 21.1875 
Q 55.609375 10.40625 48.1875 4.484375 
Q 40.765625 -1.421875 27.09375 -1.421875 
Q 22.515625 -1.421875 17.65625 -0.515625 
Q 12.796875 0.390625 7.625 2.203125 
L 7.625 11.71875 
Q 11.71875 9.328125 16.59375 8.109375 
Q 21.484375 6.890625 26.8125 6.890625 
Q 36.078125 6.890625 40.9375 10.546875 
Q 45.796875 14.203125 45.796875 21.1875 
Q 45.796875 27.640625 41.28125 31.265625 
Q 36.765625 34.90625 28.71875 34.90625 
L 20.21875 34.90625 
L 20.21875 43.015625 
L 29.109375 43.015625 
Q 36.375 43.015625 40.234375 45.921875 
Q 44.09375 48.828125 44.09375 54.296875 
Q 44.09375 59.90625 40.109375 62.90625 
Q 36.140625 65.921875 28.71875 65.921875 
Q 24.65625 65.921875 20.015625 65.03125 
Q 15.375 64.15625 9.8125 62.3125 
L 9.8125 71.09375 
Q 15.4375 72.65625 20.34375 73.4375 
Q 25.25 74.21875 29.59375 74.21875 
Q 40.828125 74.21875 47.359375 69.109375 
Q 53.90625 64.015625 53.90625 55.328125 
Q 53.90625 49.265625 50.4375 45.09375 
Q 46.96875 40.921875 40.578125 39.3125 
z
" id="DejaVuSans-51"/>
      </defs>
      <g transform="translate(160.941948 313.676562)scale(0.1 -0.1)">
       <use xlink:href="#DejaVuSans-51"/>
      </g>
     </g>
    </g>
    <g id="xtick_4">
     <g id="line2d_10">
      <path clip-path="url(#pfbf6aa2390)" d="M 216.821899 302.578125 
L 216.821899 22.318125 
" style="fill:none;stroke:#b2b2b2;stroke-dasharray:0.8,1.32;stroke-dashoffset:0;stroke-width:0.8;"/>
     </g>
     <g id="line2d_11">
      <g>
       <use style="stroke:#000000;stroke-width:0.8;" x="216.821899" xlink:href="#mf7a6d1bae0" y="302.578125"/>
      </g>
     </g>
     <g id="line2d_12">
      <g>
       <use style="stroke:#000000;stroke-width:0.8;" x="216.821899" xlink:href="#m55887f2d87" y="22.318125"/>
      </g>
     </g>
     <g id="text_4">
      <!-- 4 -->
      <defs>
       <path d="M 37.796875 64.3125 
L 12.890625 25.390625 
L 37.796875 25.390625 
z
M 35.203125 72.90625 
L 47.609375 72.90625 
L 47.609375 25.390625 
L 58.015625 25.390625 
L 58.015625 17.1875 
L 47.609375 17.1875 
L 47.609375 0 
L 37.796875 0 
L 37.796875 17.1875 
L 4.890625 17.1875 
L 4.890625 26.703125 
z
" id="DejaVuSans-52"/>
      </defs>
      <g transform="translate(213.640649 313.676562)scale(0.1 -0.1)">
       <use xlink:href="#DejaVuSans-52"/>
      </g>
     </g>
    </g>
    <g id="xtick_5">
     <g id="line2d_13">
      <path clip-path="url(#pfbf6aa2390)" d="M 269.520601 302.578125 
L 269.520601 22.318125 
" style="fill:none;stroke:#b2b2b2;stroke-dasharray:0.8,1.32;stroke-dashoffset:0;stroke-width:0.8;"/>
     </g>
     <g id="line2d_14">
      <g>
       <use style="stroke:#000000;stroke-width:0.8;" x="269.520601" xlink:href="#mf7a6d1bae0" y="302.578125"/>
      </g>
     </g>
     <g id="line2d_15">
      <g>
       <use style="stroke:#000000;stroke-width:0.8;" x="269.520601" xlink:href="#m55887f2d87" y="22.318125"/>
      </g>
     </g>
     <g id="text_5">
      <!-- 5 -->
      <defs>
       <path d="M 10.796875 72.90625 
L 49.515625 72.90625 
L 49.515625 64.59375 
L 19.828125 64.59375 
L 19.828125 46.734375 
Q 21.96875 47.46875 24.109375 47.828125 
Q 26.265625 48.1875 28.421875 48.1875 
Q 40.625 48.1875 47.75 41.5 
Q 54.890625 34.8125 54.890625 23.390625 
Q 54.890625 11.625 47.5625 5.09375 
Q 40.234375 -1.421875 26.90625 -1.421875 
Q 22.3125 -1.421875 17.546875 -0.640625 
Q 12.796875 0.140625 7.71875 1.703125 
L 7.71875 11.625 
Q 12.109375 9.234375 16.796875 8.0625 
Q 21.484375 6.890625 26.703125 6.890625 
Q 35.15625 6.890625 40.078125 11.328125 
Q 45.015625 15.765625 45.015625 23.390625 
Q 45.015625 31 40.078125 35.4375 
Q 35.15625 39.890625 26.703125 39.890625 
Q 22.75 39.890625 18.8125 39.015625 
Q 14.890625 38.140625 10.796875 36.28125 
z
" id="DejaVuSans-53"/>
      </defs>
      <g transform="translate(266.339351 313.676562)scale(0.1 -0.1)">
       <use xlink:href="#DejaVuSans-53"/>
      </g>
     </g>
    </g>
    <g id="xtick_6">
     <g id="line2d_16">
      <path clip-path="url(#pfbf6aa2390)" d="M 322.219302 302.578125 
L 322.219302 22.318125 
" style="fill:none;stroke:#b2b2b2;stroke-dasharray:0.8,1.32;stroke-dashoffset:0;stroke-width:0.8;"/>
     </g>
     <g id="line2d_17">
      <g>
       <use style="stroke:#000000;stroke-width:0.8;" x="322.219302" xlink:href="#mf7a6d1bae0" y="302.578125"/>
      </g>
     </g>
     <g id="line2d_18">
      <g>
       <use style="stroke:#000000;stroke-width:0.8;" x="322.219302" xlink:href="#m55887f2d87" y="22.318125"/>
      </g>
     </g>
     <g id="text_6">
      <!-- 6 -->
      <defs>
       <path d="M 33.015625 40.375 
Q 26.375 40.375 22.484375 35.828125 
Q 18.609375 31.296875 18.609375 23.390625 
Q 18.609375 15.53125 22.484375 10.953125 
Q 26.375 6.390625 33.015625 6.390625 
Q 39.65625 6.390625 43.53125 10.953125 
Q 47.40625 15.53125 47.40625 23.390625 
Q 47.40625 31.296875 43.53125 35.828125 
Q 39.65625 40.375 33.015625 40.375 
z
M 52.59375 71.296875 
L 52.59375 62.3125 
Q 48.875 64.0625 45.09375 64.984375 
Q 41.3125 65.921875 37.59375 65.921875 
Q 27.828125 65.921875 22.671875 59.328125 
Q 17.53125 52.734375 16.796875 39.40625 
Q 19.671875 43.65625 24.015625 45.921875 
Q 28.375 48.1875 33.59375 48.1875 
Q 44.578125 48.1875 50.953125 41.515625 
Q 57.328125 34.859375 57.328125 23.390625 
Q 57.328125 12.15625 50.6875 5.359375 
Q 44.046875 -1.421875 33.015625 -1.421875 
Q 20.359375 -1.421875 13.671875 8.265625 
Q 6.984375 17.96875 6.984375 36.375 
Q 6.984375 53.65625 15.1875 63.9375 
Q 23.390625 74.21875 37.203125 74.21875 
Q 40.921875 74.21875 44.703125 73.484375 
Q 48.484375 72.75 52.59375 71.296875 
z
" id="DejaVuSans-54"/>
      </defs>
      <g transform="translate(319.038052 313.676562)scale(0.1 -0.1)">
       <use xlink:href="#DejaVuSans-54"/>
      </g>
     </g>
    </g>
    <g id="xtick_7">
     <g id="line2d_19">
      <path clip-path="url(#pfbf6aa2390)" d="M 374.918003 302.578125 
L 374.918003 22.318125 
" style="fill:none;stroke:#b2b2b2;stroke-dasharray:0.8,1.32;stroke-dashoffset:0;stroke-width:0.8;"/>
     </g>
     <g id="line2d_20">
      <g>
       <use style="stroke:#000000;stroke-width:0.8;" x="374.918003" xlink:href="#mf7a6d1bae0" y="302.578125"/>
      </g>
     </g>
     <g id="line2d_21">
      <g>
       <use style="stroke:#000000;stroke-width:0.8;" x="374.918003" xlink:href="#m55887f2d87" y="22.318125"/>
      </g>
     </g>
     <g id="text_7">
      <!-- 7 -->
      <defs>
       <path d="M 8.203125 72.90625 
L 55.078125 72.90625 
L 55.078125 68.703125 
L 28.609375 0 
L 18.3125 0 
L 43.21875 64.59375 
L 8.203125 64.59375 
z
" id="DejaVuSans-55"/>
      </defs>
      <g transform="translate(371.736753 313.676562)scale(0.1 -0.1)">
       <use xlink:href="#DejaVuSans-55"/>
      </g>
     </g>
    </g>
    <g id="xtick_8">
     <g id="line2d_22">
      <path clip-path="url(#pfbf6aa2390)" d="M 427.616705 302.578125 
L 427.616705 22.318125 
" style="fill:none;stroke:#b2b2b2;stroke-dasharray:0.8,1.32;stroke-dashoffset:0;stroke-width:0.8;"/>
     </g>
     <g id="line2d_23">
      <g>
       <use style="stroke:#000000;stroke-width:0.8;" x="427.616705" xlink:href="#mf7a6d1bae0" y="302.578125"/>
      </g>
     </g>
     <g id="line2d_24">
      <g>
       <use style="stroke:#000000;stroke-width:0.8;" x="427.616705" xlink:href="#m55887f2d87" y="22.318125"/>
      </g>
     </g>
     <g id="text_8">
      <!-- 8 -->
      <defs>
       <path d="M 31.78125 34.625 
Q 24.75 34.625 20.71875 30.859375 
Q 16.703125 27.09375 16.703125 20.515625 
Q 16.703125 13.921875 20.71875 10.15625 
Q 24.75 6.390625 31.78125 6.390625 
Q 38.8125 6.390625 42.859375 10.171875 
Q 46.921875 13.96875 46.921875 20.515625 
Q 46.921875 27.09375 42.890625 30.859375 
Q 38.875 34.625 31.78125 34.625 
z
M 21.921875 38.8125 
Q 15.578125 40.375 12.03125 44.71875 
Q 8.5 49.078125 8.5 55.328125 
Q 8.5 64.0625 14.71875 69.140625 
Q 20.953125 74.21875 31.78125 74.21875 
Q 42.671875 74.21875 48.875 69.140625 
Q 55.078125 64.0625 55.078125 55.328125 
Q 55.078125 49.078125 51.53125 44.71875 
Q 48 40.375 41.703125 38.8125 
Q 48.828125 37.15625 52.796875 32.3125 
Q 56.78125 27.484375 56.78125 20.515625 
Q 56.78125 9.90625 50.3125 4.234375 
Q 43.84375 -1.421875 31.78125 -1.421875 
Q 19.734375 -1.421875 13.25 4.234375 
Q 6.78125 9.90625 6.78125 20.515625 
Q 6.78125 27.484375 10.78125 32.3125 
Q 14.796875 37.15625 21.921875 38.8125 
z
M 18.3125 54.390625 
Q 18.3125 48.734375 21.84375 45.5625 
Q 25.390625 42.390625 31.78125 42.390625 
Q 38.140625 42.390625 41.71875 45.5625 
Q 45.3125 48.734375 45.3125 54.390625 
Q 45.3125 60.0625 41.71875 63.234375 
Q 38.140625 66.40625 31.78125 66.40625 
Q 25.390625 66.40625 21.84375 63.234375 
Q 18.3125 60.0625 18.3125 54.390625 
z
" id="DejaVuSans-56"/>
      </defs>
      <g transform="translate(424.435455 313.676562)scale(0.1 -0.1)">
       <use xlink:href="#DejaVuSans-56"/>
      </g>
     </g>
    </g>
    <g id="text_9">
     <!-- Number of CPU cores -->
     <defs>
      <path d="M 9.8125 72.90625 
L 23.09375 72.90625 
L 55.421875 11.921875 
L 55.421875 72.90625 
L 64.984375 72.90625 
L 64.984375 0 
L 51.703125 0 
L 19.390625 60.984375 
L 19.390625 0 
L 9.8125 0 
z
" id="DejaVuSans-78"/>
      <path d="M 8.5 21.578125 
L 8.5 54.6875 
L 17.484375 54.6875 
L 17.484375 21.921875 
Q 17.484375 14.15625 20.5 10.265625 
Q 23.53125 6.390625 29.59375 6.390625 
Q 36.859375 6.390625 41.078125 11.03125 
Q 45.3125 15.671875 45.3125 23.6875 
L 45.3125 54.6875 
L 54.296875 54.6875 
L 54.296875 0 
L 45.3125 0 
L 45.3125 8.40625 
Q 42.046875 3.421875 37.71875 1 
Q 33.40625 -1.421875 27.6875 -1.421875 
Q 18.265625 -1.421875 13.375 4.4375 
Q 8.5 10.296875 8.5 21.578125 
z
M 31.109375 56 
z
" id="DejaVuSans-117"/>
      <path d="M 52 44.1875 
Q 55.375 50.25 60.0625 53.125 
Q 64.75 56 71.09375 56 
Q 79.640625 56 84.28125 50.015625 
Q 88.921875 44.046875 88.921875 33.015625 
L 88.921875 0 
L 79.890625 0 
L 79.890625 32.71875 
Q 79.890625 40.578125 77.09375 44.375 
Q 74.3125 48.1875 68.609375 48.1875 
Q 61.625 48.1875 57.5625 43.546875 
Q 53.515625 38.921875 53.515625 30.90625 
L 53.515625 0 
L 44.484375 0 
L 44.484375 32.71875 
Q 44.484375 40.625 41.703125 44.40625 
Q 38.921875 48.1875 33.109375 48.1875 
Q 26.21875 48.1875 22.15625 43.53125 
Q 18.109375 38.875 18.109375 30.90625 
L 18.109375 0 
L 9.078125 0 
L 9.078125 54.6875 
L 18.109375 54.6875 
L 18.109375 46.1875 
Q 21.1875 51.21875 25.484375 53.609375 
Q 29.78125 56 35.6875 56 
Q 41.65625 56 45.828125 52.96875 
Q 50 49.953125 52 44.1875 
z
" id="DejaVuSans-109"/>
      <path d="M 48.6875 27.296875 
Q 48.6875 37.203125 44.609375 42.84375 
Q 40.53125 48.484375 33.40625 48.484375 
Q 26.265625 48.484375 22.1875 42.84375 
Q 18.109375 37.203125 18.109375 27.296875 
Q 18.109375 17.390625 22.1875 11.75 
Q 26.265625 6.109375 33.40625 6.109375 
Q 40.53125 6.109375 44.609375 11.75 
Q 48.6875 17.390625 48.6875 27.296875 
z
M 18.109375 46.390625 
Q 20.953125 51.265625 25.265625 53.625 
Q 29.59375 56 35.59375 56 
Q 45.5625 56 51.78125 48.09375 
Q 58.015625 40.1875 58.015625 27.296875 
Q 58.015625 14.40625 51.78125 6.484375 
Q 45.5625 -1.421875 35.59375 -1.421875 
Q 29.59375 -1.421875 25.265625 0.953125 
Q 20.953125 3.328125 18.109375 8.203125 
L 18.109375 0 
L 9.078125 0 
L 9.078125 75.984375 
L 18.109375 75.984375 
z
" id="DejaVuSans-98"/>
      <path d="M 56.203125 29.59375 
L 56.203125 25.203125 
L 14.890625 25.203125 
Q 15.484375 15.921875 20.484375 11.0625 
Q 25.484375 6.203125 34.421875 6.203125 
Q 39.59375 6.203125 44.453125 7.46875 
Q 49.3125 8.734375 54.109375 11.28125 
L 54.109375 2.78125 
Q 49.265625 0.734375 44.1875 -0.34375 
Q 39.109375 -1.421875 33.890625 -1.421875 
Q 20.796875 -1.421875 13.15625 6.1875 
Q 5.515625 13.8125 5.515625 26.8125 
Q 5.515625 40.234375 12.765625 48.109375 
Q 20.015625 56 32.328125 56 
Q 43.359375 56 49.78125 48.890625 
Q 56.203125 41.796875 56.203125 29.59375 
z
M 47.21875 32.234375 
Q 47.125 39.59375 43.09375 43.984375 
Q 39.0625 48.390625 32.421875 48.390625 
Q 24.90625 48.390625 20.390625 44.140625 
Q 15.875 39.890625 15.1875 32.171875 
z
" id="DejaVuSans-101"/>
      <path d="M 41.109375 46.296875 
Q 39.59375 47.171875 37.8125 47.578125 
Q 36.03125 48 33.890625 48 
Q 26.265625 48 22.1875 43.046875 
Q 18.109375 38.09375 18.109375 28.8125 
L 18.109375 0 
L 9.078125 0 
L 9.078125 54.6875 
L 18.109375 54.6875 
L 18.109375 46.1875 
Q 20.953125 51.171875 25.484375 53.578125 
Q 30.03125 56 36.53125 56 
Q 37.453125 56 38.578125 55.875 
Q 39.703125 55.765625 41.0625 55.515625 
z
" id="DejaVuSans-114"/>
      <path id="DejaVuSans-32"/>
      <path d="M 30.609375 48.390625 
Q 23.390625 48.390625 19.1875 42.75 
Q 14.984375 37.109375 14.984375 27.296875 
Q 14.984375 17.484375 19.15625 11.84375 
Q 23.34375 6.203125 30.609375 6.203125 
Q 37.796875 6.203125 41.984375 11.859375 
Q 46.1875 17.53125 46.1875 27.296875 
Q 46.1875 37.015625 41.984375 42.703125 
Q 37.796875 48.390625 30.609375 48.390625 
z
M 30.609375 56 
Q 42.328125 56 49.015625 48.375 
Q 55.71875 40.765625 55.71875 27.296875 
Q 55.71875 13.875 49.015625 6.21875 
Q 42.328125 -1.421875 30.609375 -1.421875 
Q 18.84375 -1.421875 12.171875 6.21875 
Q 5.515625 13.875 5.515625 27.296875 
Q 5.515625 40.765625 12.171875 48.375 
Q 18.84375 56 30.609375 56 
z
" id="DejaVuSans-111"/>
      <path d="M 37.109375 75.984375 
L 37.109375 68.5 
L 28.515625 68.5 
Q 23.6875 68.5 21.796875 66.546875 
Q 19.921875 64.59375 19.921875 59.515625 
L 19.921875 54.6875 
L 34.71875 54.6875 
L 34.71875 47.703125 
L 19.921875 47.703125 
L 19.921875 0 
L 10.890625 0 
L 10.890625 47.703125 
L 2.296875 47.703125 
L 2.296875 54.6875 
L 10.890625 54.6875 
L 10.890625 58.5 
Q 10.890625 67.625 15.140625 71.796875 
Q 19.390625 75.984375 28.609375 75.984375 
z
" id="DejaVuSans-102"/>
      <path d="M 64.40625 67.28125 
L 64.40625 56.890625 
Q 59.421875 61.53125 53.78125 63.8125 
Q 48.140625 66.109375 41.796875 66.109375 
Q 29.296875 66.109375 22.65625 58.46875 
Q 16.015625 50.828125 16.015625 36.375 
Q 16.015625 21.96875 22.65625 14.328125 
Q 29.296875 6.6875 41.796875 6.6875 
Q 48.140625 6.6875 53.78125 8.984375 
Q 59.421875 11.28125 64.40625 15.921875 
L 64.40625 5.609375 
Q 59.234375 2.09375 53.4375 0.328125 
Q 47.65625 -1.421875 41.21875 -1.421875 
Q 24.65625 -1.421875 15.125 8.703125 
Q 5.609375 18.84375 5.609375 36.375 
Q 5.609375 53.953125 15.125 64.078125 
Q 24.65625 74.21875 41.21875 74.21875 
Q 47.75 74.21875 53.53125 72.484375 
Q 59.328125 70.75 64.40625 67.28125 
z
" id="DejaVuSans-67"/>
      <path d="M 19.671875 64.796875 
L 19.671875 37.40625 
L 32.078125 37.40625 
Q 38.96875 37.40625 42.71875 40.96875 
Q 46.484375 44.53125 46.484375 51.125 
Q 46.484375 57.671875 42.71875 61.234375 
Q 38.96875 64.796875 32.078125 64.796875 
z
M 9.8125 72.90625 
L 32.078125 72.90625 
Q 44.34375 72.90625 50.609375 67.359375 
Q 56.890625 61.8125 56.890625 51.125 
Q 56.890625 40.328125 50.609375 34.8125 
Q 44.34375 29.296875 32.078125 29.296875 
L 19.671875 29.296875 
L 19.671875 0 
L 9.8125 0 
z
" id="DejaVuSans-80"/>
      <path d="M 8.6875 72.90625 
L 18.609375 72.90625 
L 18.609375 28.609375 
Q 18.609375 16.890625 22.84375 11.734375 
Q 27.09375 6.59375 36.625 6.59375 
Q 46.09375 6.59375 50.34375 11.734375 
Q 54.59375 16.890625 54.59375 28.609375 
L 54.59375 72.90625 
L 64.5 72.90625 
L 64.5 27.390625 
Q 64.5 13.140625 57.4375 5.859375 
Q 50.390625 -1.421875 36.625 -1.421875 
Q 22.796875 -1.421875 15.734375 5.859375 
Q 8.6875 13.140625 8.6875 27.390625 
z
" id="DejaVuSans-85"/>
      <path d="M 48.78125 52.59375 
L 48.78125 44.1875 
Q 44.96875 46.296875 41.140625 47.34375 
Q 37.3125 48.390625 33.40625 48.390625 
Q 24.65625 48.390625 19.8125 42.84375 
Q 14.984375 37.3125 14.984375 27.296875 
Q 14.984375 17.28125 19.8125 11.734375 
Q 24.65625 6.203125 33.40625 6.203125 
Q 37.3125 6.203125 41.140625 7.25 
Q 44.96875 8.296875 48.78125 10.40625 
L 48.78125 2.09375 
Q 45.015625 0.34375 40.984375 -0.53125 
Q 36.96875 -1.421875 32.421875 -1.421875 
Q 20.0625 -1.421875 12.78125 6.34375 
Q 5.515625 14.109375 5.515625 27.296875 
Q 5.515625 40.671875 12.859375 48.328125 
Q 20.21875 56 33.015625 56 
Q 37.15625 56 41.109375 55.140625 
Q 45.0625 54.296875 48.78125 52.59375 
z
" id="DejaVuSans-99"/>
      <path d="M 44.28125 53.078125 
L 44.28125 44.578125 
Q 40.484375 46.53125 36.375 47.5 
Q 32.28125 48.484375 27.875 48.484375 
Q 21.1875 48.484375 17.84375 46.4375 
Q 14.5 44.390625 14.5 40.28125 
Q 14.5 37.15625 16.890625 35.375 
Q 19.28125 33.59375 26.515625 31.984375 
L 29.59375 31.296875 
Q 39.15625 29.25 43.1875 25.515625 
Q 47.21875 21.78125 47.21875 15.09375 
Q 47.21875 7.46875 41.1875 3.015625 
Q 35.15625 -1.421875 24.609375 -1.421875 
Q 20.21875 -1.421875 15.453125 -0.5625 
Q 10.6875 0.296875 5.421875 2 
L 5.421875 11.28125 
Q 10.40625 8.6875 15.234375 7.390625 
Q 20.0625 6.109375 24.8125 6.109375 
Q 31.15625 6.109375 34.5625 8.28125 
Q 37.984375 10.453125 37.984375 14.40625 
Q 37.984375 18.0625 35.515625 20.015625 
Q 33.0625 21.96875 24.703125 23.78125 
L 21.578125 24.515625 
Q 13.234375 26.265625 9.515625 29.90625 
Q 5.8125 33.546875 5.8125 39.890625 
Q 5.8125 47.609375 11.28125 51.796875 
Q 16.75 56 26.8125 56 
Q 31.78125 56 36.171875 55.265625 
Q 40.578125 54.546875 44.28125 53.078125 
z
" id="DejaVuSans-115"/>
     </defs>
     <g transform="translate(189.900156 327.354687)scale(0.1 -0.1)">
      <use xlink:href="#DejaVuSans-78"/>
      <use x="74.804688" xlink:href="#DejaVuSans-117"/>
      <use x="138.183594" xlink:href="#DejaVuSans-109"/>
      <use x="235.595703" xlink:href="#DejaVuSans-98"/>
      <use x="299.072266" xlink:href="#DejaVuSans-101"/>
      <use x="360.595703" xlink:href="#DejaVuSans-114"/>
      <use x="401.708984" xlink:href="#DejaVuSans-32"/>
      <use x="433.496094" xlink:href="#DejaVuSans-111"/>
      <use x="494.677734" xlink:href="#DejaVuSans-102"/>
      <use x="529.882812" xlink:href="#DejaVuSans-32"/>
      <use x="561.669922" xlink:href="#DejaVuSans-67"/>
      <use x="631.494141" xlink:href="#DejaVuSans-80"/>
      <use x="691.796875" xlink:href="#DejaVuSans-85"/>
      <use x="764.990234" xlink:href="#DejaVuSans-32"/>
      <use x="796.777344" xlink:href="#DejaVuSans-99"/>
      <use x="851.757812" xlink:href="#DejaVuSans-111"/>
      <use x="912.939453" xlink:href="#DejaVuSans-114"/>
      <use x="951.802734" xlink:href="#DejaVuSans-101"/>
      <use x="1013.326172" xlink:href="#DejaVuSans-115"/>
     </g>
    </g>
   </g>
   <g id="matplotlib.axis_2">
    <g id="ytick_1">
     <g id="line2d_25">
      <path clip-path="url(#pfbf6aa2390)" d="M 40.28125 281.195287 
L 446.06125 281.195287 
" style="fill:none;stroke:#b2b2b2;stroke-dasharray:0.8,1.32;stroke-dashoffset:0;stroke-width:0.8;"/>
     </g>
     <g id="line2d_26">
      <defs>
       <path d="M 0 0 
L 3.5 0 
" id="m49caf93198" style="stroke:#000000;stroke-width:0.8;"/>
      </defs>
      <g>
       <use style="stroke:#000000;stroke-width:0.8;" x="40.28125" xlink:href="#m49caf93198" y="281.195287"/>
      </g>
     </g>
     <g id="line2d_27">
      <defs>
       <path d="M 0 0 
L -3.5 0 
" id="m86d3976a0d" style="stroke:#000000;stroke-width:0.8;"/>
      </defs>
      <g>
       <use style="stroke:#000000;stroke-width:0.8;" x="446.06125" xlink:href="#m86d3976a0d" y="281.195287"/>
      </g>
     </g>
     <g id="text_10">
      <!-- 3.8 -->
      <defs>
       <path d="M 10.6875 12.40625 
L 21 12.40625 
L 21 0 
L 10.6875 0 
z
" id="DejaVuSans-46"/>
      </defs>
      <g transform="translate(20.878125 284.994506)scale(0.1 -0.1)">
       <use xlink:href="#DejaVuSans-51"/>
       <use x="63.623047" xlink:href="#DejaVuSans-46"/>
       <use x="95.410156" xlink:href="#DejaVuSans-56"/>
      </g>
     </g>
    </g>
    <g id="ytick_2">
     <g id="line2d_28">
      <path clip-path="url(#pfbf6aa2390)" d="M 40.28125 238.440617 
L 446.06125 238.440617 
" style="fill:none;stroke:#b2b2b2;stroke-dasharray:0.8,1.32;stroke-dashoffset:0;stroke-width:0.8;"/>
     </g>
     <g id="line2d_29">
      <g>
       <use style="stroke:#000000;stroke-width:0.8;" x="40.28125" xlink:href="#m49caf93198" y="238.440617"/>
      </g>
     </g>
     <g id="line2d_30">
      <g>
       <use style="stroke:#000000;stroke-width:0.8;" x="446.06125" xlink:href="#m86d3976a0d" y="238.440617"/>
      </g>
     </g>
     <g id="text_11">
      <!-- 3.9 -->
      <defs>
       <path d="M 10.984375 1.515625 
L 10.984375 10.5 
Q 14.703125 8.734375 18.5 7.8125 
Q 22.3125 6.890625 25.984375 6.890625 
Q 35.75 6.890625 40.890625 13.453125 
Q 46.046875 20.015625 46.78125 33.40625 
Q 43.953125 29.203125 39.59375 26.953125 
Q 35.25 24.703125 29.984375 24.703125 
Q 19.046875 24.703125 12.671875 31.3125 
Q 6.296875 37.9375 6.296875 49.421875 
Q 6.296875 60.640625 12.9375 67.421875 
Q 19.578125 74.21875 30.609375 74.21875 
Q 43.265625 74.21875 49.921875 64.515625 
Q 56.59375 54.828125 56.59375 36.375 
Q 56.59375 19.140625 48.40625 8.859375 
Q 40.234375 -1.421875 26.421875 -1.421875 
Q 22.703125 -1.421875 18.890625 -0.6875 
Q 15.09375 0.046875 10.984375 1.515625 
z
M 30.609375 32.421875 
Q 37.25 32.421875 41.125 36.953125 
Q 45.015625 41.5 45.015625 49.421875 
Q 45.015625 57.28125 41.125 61.84375 
Q 37.25 66.40625 30.609375 66.40625 
Q 23.96875 66.40625 20.09375 61.84375 
Q 16.21875 57.28125 16.21875 49.421875 
Q 16.21875 41.5 20.09375 36.953125 
Q 23.96875 32.421875 30.609375 32.421875 
z
" id="DejaVuSans-57"/>
      </defs>
      <g transform="translate(20.878125 242.239836)scale(0.1 -0.1)">
       <use xlink:href="#DejaVuSans-51"/>
       <use x="63.623047" xlink:href="#DejaVuSans-46"/>
       <use x="95.410156" xlink:href="#DejaVuSans-57"/>
      </g>
     </g>
    </g>
    <g id="ytick_3">
     <g id="line2d_31">
      <path clip-path="url(#pfbf6aa2390)" d="M 40.28125 195.685947 
L 446.06125 195.685947 
" style="fill:none;stroke:#b2b2b2;stroke-dasharray:0.8,1.32;stroke-dashoffset:0;stroke-width:0.8;"/>
     </g>
     <g id="line2d_32">
      <g>
       <use style="stroke:#000000;stroke-width:0.8;" x="40.28125" xlink:href="#m49caf93198" y="195.685947"/>
      </g>
     </g>
     <g id="line2d_33">
      <g>
       <use style="stroke:#000000;stroke-width:0.8;" x="446.06125" xlink:href="#m86d3976a0d" y="195.685947"/>
      </g>
     </g>
     <g id="text_12">
      <!-- 4.0 -->
      <defs>
       <path d="M 31.78125 66.40625 
Q 24.171875 66.40625 20.328125 58.90625 
Q 16.5 51.421875 16.5 36.375 
Q 16.5 21.390625 20.328125 13.890625 
Q 24.171875 6.390625 31.78125 6.390625 
Q 39.453125 6.390625 43.28125 13.890625 
Q 47.125 21.390625 47.125 36.375 
Q 47.125 51.421875 43.28125 58.90625 
Q 39.453125 66.40625 31.78125 66.40625 
z
M 31.78125 74.21875 
Q 44.046875 74.21875 50.515625 64.515625 
Q 56.984375 54.828125 56.984375 36.375 
Q 56.984375 17.96875 50.515625 8.265625 
Q 44.046875 -1.421875 31.78125 -1.421875 
Q 19.53125 -1.421875 13.0625 8.265625 
Q 6.59375 17.96875 6.59375 36.375 
Q 6.59375 54.828125 13.0625 64.515625 
Q 19.53125 74.21875 31.78125 74.21875 
z
" id="DejaVuSans-48"/>
      </defs>
      <g transform="translate(20.878125 199.485166)scale(0.1 -0.1)">
       <use xlink:href="#DejaVuSans-52"/>
       <use x="63.623047" xlink:href="#DejaVuSans-46"/>
       <use x="95.410156" xlink:href="#DejaVuSans-48"/>
      </g>
     </g>
    </g>
    <g id="ytick_4">
     <g id="line2d_34">
      <path clip-path="url(#pfbf6aa2390)" d="M 40.28125 152.931278 
L 446.06125 152.931278 
" style="fill:none;stroke:#b2b2b2;stroke-dasharray:0.8,1.32;stroke-dashoffset:0;stroke-width:0.8;"/>
     </g>
     <g id="line2d_35">
      <g>
       <use style="stroke:#000000;stroke-width:0.8;" x="40.28125" xlink:href="#m49caf93198" y="152.931278"/>
      </g>
     </g>
     <g id="line2d_36">
      <g>
       <use style="stroke:#000000;stroke-width:0.8;" x="446.06125" xlink:href="#m86d3976a0d" y="152.931278"/>
      </g>
     </g>
     <g id="text_13">
      <!-- 4.1 -->
      <g transform="translate(20.878125 156.730496)scale(0.1 -0.1)">
       <use xlink:href="#DejaVuSans-52"/>
       <use x="63.623047" xlink:href="#DejaVuSans-46"/>
       <use x="95.410156" xlink:href="#DejaVuSans-49"/>
      </g>
     </g>
    </g>
    <g id="ytick_5">
     <g id="line2d_37">
      <path clip-path="url(#pfbf6aa2390)" d="M 40.28125 110.176608 
L 446.06125 110.176608 
" style="fill:none;stroke:#b2b2b2;stroke-dasharray:0.8,1.32;stroke-dashoffset:0;stroke-width:0.8;"/>
     </g>
     <g id="line2d_38">
      <g>
       <use style="stroke:#000000;stroke-width:0.8;" x="40.28125" xlink:href="#m49caf93198" y="110.176608"/>
      </g>
     </g>
     <g id="line2d_39">
      <g>
       <use style="stroke:#000000;stroke-width:0.8;" x="446.06125" xlink:href="#m86d3976a0d" y="110.176608"/>
      </g>
     </g>
     <g id="text_14">
      <!-- 4.2 -->
      <g transform="translate(20.878125 113.975826)scale(0.1 -0.1)">
       <use xlink:href="#DejaVuSans-52"/>
       <use x="63.623047" xlink:href="#DejaVuSans-46"/>
       <use x="95.410156" xlink:href="#DejaVuSans-50"/>
      </g>
     </g>
    </g>
    <g id="ytick_6">
     <g id="line2d_40">
      <path clip-path="url(#pfbf6aa2390)" d="M 40.28125 67.421938 
L 446.06125 67.421938 
" style="fill:none;stroke:#b2b2b2;stroke-dasharray:0.8,1.32;stroke-dashoffset:0;stroke-width:0.8;"/>
     </g>
     <g id="line2d_41">
      <g>
       <use style="stroke:#000000;stroke-width:0.8;" x="40.28125" xlink:href="#m49caf93198" y="67.421938"/>
      </g>
     </g>
     <g id="line2d_42">
      <g>
       <use style="stroke:#000000;stroke-width:0.8;" x="446.06125" xlink:href="#m86d3976a0d" y="67.421938"/>
      </g>
     </g>
     <g id="text_15">
      <!-- 4.3 -->
      <g transform="translate(20.878125 71.221157)scale(0.1 -0.1)">
       <use xlink:href="#DejaVuSans-52"/>
       <use x="63.623047" xlink:href="#DejaVuSans-46"/>
       <use x="95.410156" xlink:href="#DejaVuSans-51"/>
      </g>
     </g>
    </g>
    <g id="ytick_7">
     <g id="line2d_43">
      <path clip-path="url(#pfbf6aa2390)" d="M 40.28125 24.667268 
L 446.06125 24.667268 
" style="fill:none;stroke:#b2b2b2;stroke-dasharray:0.8,1.32;stroke-dashoffset:0;stroke-width:0.8;"/>
     </g>
     <g id="line2d_44">
      <g>
       <use style="stroke:#000000;stroke-width:0.8;" x="40.28125" xlink:href="#m49caf93198" y="24.667268"/>
      </g>
     </g>
     <g id="line2d_45">
      <g>
       <use style="stroke:#000000;stroke-width:0.8;" x="446.06125" xlink:href="#m86d3976a0d" y="24.667268"/>
      </g>
     </g>
     <g id="text_16">
      <!-- 4.4 -->
      <g transform="translate(20.878125 28.466487)scale(0.1 -0.1)">
       <use xlink:href="#DejaVuSans-52"/>
       <use x="63.623047" xlink:href="#DejaVuSans-46"/>
       <use x="95.410156" xlink:href="#DejaVuSans-52"/>
      </g>
     </g>
    </g>
    <g id="text_17">
     <!-- SENT -->
     <defs>
      <path d="M 53.515625 70.515625 
L 53.515625 60.890625 
Q 47.90625 63.578125 42.921875 64.890625 
Q 37.9375 66.21875 33.296875 66.21875 
Q 25.25 66.21875 20.875 63.09375 
Q 16.5 59.96875 16.5 54.203125 
Q 16.5 49.359375 19.40625 46.890625 
Q 22.3125 44.4375 30.421875 42.921875 
L 36.375 41.703125 
Q 47.40625 39.59375 52.65625 34.296875 
Q 57.90625 29 57.90625 20.125 
Q 57.90625 9.515625 50.796875 4.046875 
Q 43.703125 -1.421875 29.984375 -1.421875 
Q 24.8125 -1.421875 18.96875 -0.25 
Q 13.140625 0.921875 6.890625 3.21875 
L 6.890625 13.375 
Q 12.890625 10.015625 18.65625 8.296875 
Q 24.421875 6.59375 29.984375 6.59375 
Q 38.421875 6.59375 43.015625 9.90625 
Q 47.609375 13.234375 47.609375 19.390625 
Q 47.609375 24.75 44.3125 27.78125 
Q 41.015625 30.8125 33.5 32.328125 
L 27.484375 33.5 
Q 16.453125 35.6875 11.515625 40.375 
Q 6.59375 45.0625 6.59375 53.421875 
Q 6.59375 63.09375 13.40625 68.65625 
Q 20.21875 74.21875 32.171875 74.21875 
Q 37.3125 74.21875 42.625 73.28125 
Q 47.953125 72.359375 53.515625 70.515625 
z
" id="DejaVuSans-83"/>
      <path d="M 9.8125 72.90625 
L 55.90625 72.90625 
L 55.90625 64.59375 
L 19.671875 64.59375 
L 19.671875 43.015625 
L 54.390625 43.015625 
L 54.390625 34.71875 
L 19.671875 34.71875 
L 19.671875 8.296875 
L 56.78125 8.296875 
L 56.78125 0 
L 9.8125 0 
z
" id="DejaVuSans-69"/>
      <path d="M -0.296875 72.90625 
L 61.375 72.90625 
L 61.375 64.59375 
L 35.5 64.59375 
L 35.5 0 
L 25.59375 0 
L 25.59375 64.59375 
L -0.296875 64.59375 
z
" id="DejaVuSans-84"/>
     </defs>
     <g transform="translate(14.798438 175.57625)rotate(-90)scale(0.1 -0.1)">
      <use xlink:href="#DejaVuSans-83"/>
      <use x="63.476562" xlink:href="#DejaVuSans-69"/>
      <use x="126.660156" xlink:href="#DejaVuSans-78"/>
      <use x="201.464844" xlink:href="#DejaVuSans-84"/>
     </g>
    </g>
    <g id="text_18">
     <!-- 1e7 -->
     <g transform="translate(40.28125 19.318125)scale(0.1 -0.1)">
      <use xlink:href="#DejaVuSans-49"/>
      <use x="63.623047" xlink:href="#DejaVuSans-101"/>
      <use x="125.146484" xlink:href="#DejaVuSans-55"/>
     </g>
    </g>
   </g>
   <g id="LineCollection_1">
    <path clip-path="url(#pfbf6aa2390)" d="M 58.725795 262.81768 
L 58.725795 250.671585 
" style="fill:none;stroke:#1f77b4;stroke-width:1.5;"/>
    <path clip-path="url(#pfbf6aa2390)" d="M 111.424497 268.215366 
L 111.424497 247.926284 
" style="fill:none;stroke:#1f77b4;stroke-width:1.5;"/>
    <path clip-path="url(#pfbf6aa2390)" d="M 164.123198 262.833009 
L 164.123198 250.709158 
" style="fill:none;stroke:#1f77b4;stroke-width:1.5;"/>
    <path clip-path="url(#pfbf6aa2390)" d="M 216.821899 267.131747 
L 216.821899 255.091783 
" style="fill:none;stroke:#1f77b4;stroke-width:1.5;"/>
    <path clip-path="url(#pfbf6aa2390)" d="M 269.520601 267.134544 
L 269.520601 255.161955 
" style="fill:none;stroke:#1f77b4;stroke-width:1.5;"/>
    <path clip-path="url(#pfbf6aa2390)" d="M 322.219302 268.172157 
L 322.219302 248.140968 
" style="fill:none;stroke:#1f77b4;stroke-width:1.5;"/>
    <path clip-path="url(#pfbf6aa2390)" d="M 374.918003 252.779292 
L 374.918003 252.393449 
" style="fill:none;stroke:#1f77b4;stroke-width:1.5;"/>
    <path clip-path="url(#pfbf6aa2390)" d="M 427.616705 262.732179 
L 427.616705 250.687766 
" style="fill:none;stroke:#1f77b4;stroke-width:1.5;"/>
   </g>
   <g id="LineCollection_2">
    <path clip-path="url(#pfbf6aa2390)" d="M 58.725795 266.907785 
L 58.725795 254.790377 
" style="fill:none;stroke:#aec7e8;stroke-width:1.5;"/>
    <path clip-path="url(#pfbf6aa2390)" d="M 111.424497 266.781477 
L 111.424497 254.965938 
" style="fill:none;stroke:#aec7e8;stroke-width:1.5;"/>
    <path clip-path="url(#pfbf6aa2390)" d="M 164.123198 266.929118 
L 164.123198 255.04997 
" style="fill:none;stroke:#aec7e8;stroke-width:1.5;"/>
    <path clip-path="url(#pfbf6aa2390)" d="M 216.821899 252.706649 
L 216.821899 252.298265 
" style="fill:none;stroke:#aec7e8;stroke-width:1.5;"/>
    <path clip-path="url(#pfbf6aa2390)" d="M 269.520601 262.509117 
L 269.520601 245.168249 
" style="fill:none;stroke:#aec7e8;stroke-width:1.5;"/>
    <path clip-path="url(#pfbf6aa2390)" d="M 322.219302 262.415361 
L 322.219302 245.143432 
" style="fill:none;stroke:#aec7e8;stroke-width:1.5;"/>
    <path clip-path="url(#pfbf6aa2390)" d="M 374.918003 286.719347 
L 374.918003 246.682877 
" style="fill:none;stroke:#aec7e8;stroke-width:1.5;"/>
    <path clip-path="url(#pfbf6aa2390)" d="M 427.616705 262.56119 
L 427.616705 245.147187 
" style="fill:none;stroke:#aec7e8;stroke-width:1.5;"/>
   </g>
   <g id="LineCollection_3">
    <path clip-path="url(#pfbf6aa2390)" d="M 58.725795 262.764784 
L 58.725795 250.383356 
" style="fill:none;stroke:#ff7f0e;stroke-width:1.5;"/>
    <path clip-path="url(#pfbf6aa2390)" d="M 111.424497 262.698319 
L 111.424497 250.801891 
" style="fill:none;stroke:#ff7f0e;stroke-width:1.5;"/>
    <path clip-path="url(#pfbf6aa2390)" d="M 164.123198 289.839034 
L 164.123198 35.057216 
" style="fill:none;stroke:#ff7f0e;stroke-width:1.5;"/>
    <path clip-path="url(#pfbf6aa2390)" d="M 216.821899 269.75303 
L 216.821899 248.488274 
" style="fill:none;stroke:#ff7f0e;stroke-width:1.5;"/>
    <path clip-path="url(#pfbf6aa2390)" d="M 269.520601 262.790693 
L 269.520601 250.738704 
" style="fill:none;stroke:#ff7f0e;stroke-width:1.5;"/>
    <path clip-path="url(#pfbf6aa2390)" d="M 322.219302 252.49484 
L 322.219302 252.1653 
" style="fill:none;stroke:#ff7f0e;stroke-width:1.5;"/>
    <path clip-path="url(#pfbf6aa2390)" d="M 374.918003 267.087197 
L 374.918003 254.838989 
" style="fill:none;stroke:#ff7f0e;stroke-width:1.5;"/>
    <path clip-path="url(#pfbf6aa2390)" d="M 427.616705 268.265255 
L 427.616705 248.261301 
" style="fill:none;stroke:#ff7f0e;stroke-width:1.5;"/>
   </g>
   <g id="LineCollection_4">
    <path clip-path="url(#pfbf6aa2390)" d="M 58.725795 262.676896 
L 58.725795 250.721159 
" style="fill:none;stroke:#ffbb78;stroke-width:1.5;"/>
    <path clip-path="url(#pfbf6aa2390)" d="M 111.424497 268.662118 
L 111.424497 254.951453 
" style="fill:none;stroke:#ffbb78;stroke-width:1.5;"/>
    <path clip-path="url(#pfbf6aa2390)" d="M 164.123198 252.330161 
L 164.123198 252.275253 
" style="fill:none;stroke:#ffbb78;stroke-width:1.5;"/>
    <path clip-path="url(#pfbf6aa2390)" d="M 216.821899 262.656588 
L 216.821899 250.750588 
" style="fill:none;stroke:#ffbb78;stroke-width:1.5;"/>
    <path clip-path="url(#pfbf6aa2390)" d="M 269.520601 266.769275 
L 269.520601 254.689916 
" style="fill:none;stroke:#ffbb78;stroke-width:1.5;"/>
    <path clip-path="url(#pfbf6aa2390)" d="M 322.219302 252.707425 
L 322.219302 252.279247 
" style="fill:none;stroke:#ffbb78;stroke-width:1.5;"/>
    <path clip-path="url(#pfbf6aa2390)" d="M 374.918003 267.067295 
L 374.918003 254.95375 
" style="fill:none;stroke:#ffbb78;stroke-width:1.5;"/>
    <path clip-path="url(#pfbf6aa2390)" d="M 427.616705 253.822638 
L 427.616705 245.660424 
" style="fill:none;stroke:#ffbb78;stroke-width:1.5;"/>
   </g>
   <g id="LineCollection_5">
    <path clip-path="url(#pfbf6aa2390)" d="M 58.725795 262.515204 
L 58.725795 245.041765 
" style="fill:none;stroke:#2ca02c;stroke-width:1.5;"/>
    <path clip-path="url(#pfbf6aa2390)" d="M 111.424497 266.83648 
L 111.424497 254.825198 
" style="fill:none;stroke:#2ca02c;stroke-width:1.5;"/>
    <path clip-path="url(#pfbf6aa2390)" d="M 164.123198 262.501954 
L 164.123198 245.221017 
" style="fill:none;stroke:#2ca02c;stroke-width:1.5;"/>
    <path clip-path="url(#pfbf6aa2390)" d="M 216.821899 262.520949 
L 216.821899 250.634487 
" style="fill:none;stroke:#2ca02c;stroke-width:1.5;"/>
    <path clip-path="url(#pfbf6aa2390)" d="M 269.520601 252.667653 
L 269.520601 252.486845 
" style="fill:none;stroke:#2ca02c;stroke-width:1.5;"/>
    <path clip-path="url(#pfbf6aa2390)" d="M 322.219302 266.968671 
L 322.219302 255.127166 
" style="fill:none;stroke:#2ca02c;stroke-width:1.5;"/>
    <path clip-path="url(#pfbf6aa2390)" d="M 374.918003 253.62986 
L 374.918003 245.464648 
" style="fill:none;stroke:#2ca02c;stroke-width:1.5;"/>
    <path clip-path="url(#pfbf6aa2390)" d="M 427.616705 262.768733 
L 427.616705 250.578244 
" style="fill:none;stroke:#2ca02c;stroke-width:1.5;"/>
   </g>
   <g id="line2d_46">
    <path clip-path="url(#pfbf6aa2390)" d="M 58.725795 256.744632 
L 111.424497 258.070825 
L 164.123198 256.771083 
L 216.821899 261.111765 
L 269.520601 261.148249 
L 322.219302 258.156563 
L 374.918003 252.58637 
L 427.616705 256.709973 
" style="fill:none;stroke:#1f77b4;stroke-linecap:square;stroke-width:1.5;"/>
    <defs>
     <path d="M 0 3 
C 0.795609 3 1.55874 2.683901 2.12132 2.12132 
C 2.683901 1.55874 3 0.795609 3 0 
C 3 -0.795609 2.683901 -1.55874 2.12132 -2.12132 
C 1.55874 -2.683901 0.795609 -3 0 -3 
C -0.795609 -3 -1.55874 -2.683901 -2.12132 -2.12132 
C -2.683901 -1.55874 -3 -0.795609 -3 0 
C -3 0.795609 -2.683901 1.55874 -2.12132 2.12132 
C -1.55874 2.683901 -0.795609 3 0 3 
z
" id="m27a5321675" style="stroke:#1f77b4;"/>
    </defs>
    <g clip-path="url(#pfbf6aa2390)">
     <use style="fill-opacity:0;stroke:#1f77b4;" x="58.725795" xlink:href="#m27a5321675" y="256.744632"/>
     <use style="fill-opacity:0;stroke:#1f77b4;" x="111.424497" xlink:href="#m27a5321675" y="258.070825"/>
     <use style="fill-opacity:0;stroke:#1f77b4;" x="164.123198" xlink:href="#m27a5321675" y="256.771083"/>
     <use style="fill-opacity:0;stroke:#1f77b4;" x="216.821899" xlink:href="#m27a5321675" y="261.111765"/>
     <use style="fill-opacity:0;stroke:#1f77b4;" x="269.520601" xlink:href="#m27a5321675" y="261.148249"/>
     <use style="fill-opacity:0;stroke:#1f77b4;" x="322.219302" xlink:href="#m27a5321675" y="258.156563"/>
     <use style="fill-opacity:0;stroke:#1f77b4;" x="374.918003" xlink:href="#m27a5321675" y="252.58637"/>
     <use style="fill-opacity:0;stroke:#1f77b4;" x="427.616705" xlink:href="#m27a5321675" y="256.709973"/>
    </g>
   </g>
   <g id="line2d_47">
    <defs>
     <path d="M 3 0 
L -3 -0 
" id="ma98de97a50" style="stroke:#1f77b4;"/>
    </defs>
    <g clip-path="url(#pfbf6aa2390)">
     <use style="fill:#1f77b4;stroke:#1f77b4;" x="58.725795" xlink:href="#ma98de97a50" y="262.81768"/>
     <use style="fill:#1f77b4;stroke:#1f77b4;" x="111.424497" xlink:href="#ma98de97a50" y="268.215366"/>
     <use style="fill:#1f77b4;stroke:#1f77b4;" x="164.123198" xlink:href="#ma98de97a50" y="262.833009"/>
     <use style="fill:#1f77b4;stroke:#1f77b4;" x="216.821899" xlink:href="#ma98de97a50" y="267.131747"/>
     <use style="fill:#1f77b4;stroke:#1f77b4;" x="269.520601" xlink:href="#ma98de97a50" y="267.134544"/>
     <use style="fill:#1f77b4;stroke:#1f77b4;" x="322.219302" xlink:href="#ma98de97a50" y="268.172157"/>
     <use style="fill:#1f77b4;stroke:#1f77b4;" x="374.918003" xlink:href="#ma98de97a50" y="252.779292"/>
     <use style="fill:#1f77b4;stroke:#1f77b4;" x="427.616705" xlink:href="#ma98de97a50" y="262.732179"/>
    </g>
   </g>
   <g id="line2d_48">
    <g clip-path="url(#pfbf6aa2390)">
     <use style="fill:#1f77b4;stroke:#1f77b4;" x="58.725795" xlink:href="#ma98de97a50" y="250.671585"/>
     <use style="fill:#1f77b4;stroke:#1f77b4;" x="111.424497" xlink:href="#ma98de97a50" y="247.926284"/>
     <use style="fill:#1f77b4;stroke:#1f77b4;" x="164.123198" xlink:href="#ma98de97a50" y="250.709158"/>
     <use style="fill:#1f77b4;stroke:#1f77b4;" x="216.821899" xlink:href="#ma98de97a50" y="255.091783"/>
     <use style="fill:#1f77b4;stroke:#1f77b4;" x="269.520601" xlink:href="#ma98de97a50" y="255.161955"/>
     <use style="fill:#1f77b4;stroke:#1f77b4;" x="322.219302" xlink:href="#ma98de97a50" y="248.140968"/>
     <use style="fill:#1f77b4;stroke:#1f77b4;" x="374.918003" xlink:href="#ma98de97a50" y="252.393449"/>
     <use style="fill:#1f77b4;stroke:#1f77b4;" x="427.616705" xlink:href="#ma98de97a50" y="250.687766"/>
    </g>
   </g>
   <g id="line2d_49">
    <path clip-path="url(#pfbf6aa2390)" d="M 58.725795 260.849081 
L 111.424497 260.873707 
L 164.123198 260.989544 
L 216.821899 252.502457 
L 269.520601 253.838683 
L 322.219302 253.779396 
L 374.918003 266.701112 
L 427.616705 253.854189 
" style="fill:none;stroke:#aec7e8;stroke-linecap:square;stroke-width:1.5;"/>
    <defs>
     <path d="M 0 -3 
L -3 3 
L 3 3 
z
" id="me8a7acc3a3" style="stroke:#aec7e8;stroke-linejoin:miter;"/>
    </defs>
    <g clip-path="url(#pfbf6aa2390)">
     <use style="fill-opacity:0;stroke:#aec7e8;stroke-linejoin:miter;" x="58.725795" xlink:href="#me8a7acc3a3" y="260.849081"/>
     <use style="fill-opacity:0;stroke:#aec7e8;stroke-linejoin:miter;" x="111.424497" xlink:href="#me8a7acc3a3" y="260.873707"/>
     <use style="fill-opacity:0;stroke:#aec7e8;stroke-linejoin:miter;" x="164.123198" xlink:href="#me8a7acc3a3" y="260.989544"/>
     <use style="fill-opacity:0;stroke:#aec7e8;stroke-linejoin:miter;" x="216.821899" xlink:href="#me8a7acc3a3" y="252.502457"/>
     <use style="fill-opacity:0;stroke:#aec7e8;stroke-linejoin:miter;" x="269.520601" xlink:href="#me8a7acc3a3" y="253.838683"/>
     <use style="fill-opacity:0;stroke:#aec7e8;stroke-linejoin:miter;" x="322.219302" xlink:href="#me8a7acc3a3" y="253.779396"/>
     <use style="fill-opacity:0;stroke:#aec7e8;stroke-linejoin:miter;" x="374.918003" xlink:href="#me8a7acc3a3" y="266.701112"/>
     <use style="fill-opacity:0;stroke:#aec7e8;stroke-linejoin:miter;" x="427.616705" xlink:href="#me8a7acc3a3" y="253.854189"/>
    </g>
   </g>
   <g id="line2d_50">
    <defs>
     <path d="M 3 0 
L -3 -0 
" id="m32c89897b0" style="stroke:#aec7e8;"/>
    </defs>
    <g clip-path="url(#pfbf6aa2390)">
     <use style="fill:#aec7e8;stroke:#aec7e8;" x="58.725795" xlink:href="#m32c89897b0" y="266.907785"/>
     <use style="fill:#aec7e8;stroke:#aec7e8;" x="111.424497" xlink:href="#m32c89897b0" y="266.781477"/>
     <use style="fill:#aec7e8;stroke:#aec7e8;" x="164.123198" xlink:href="#m32c89897b0" y="266.929118"/>
     <use style="fill:#aec7e8;stroke:#aec7e8;" x="216.821899" xlink:href="#m32c89897b0" y="252.706649"/>
     <use style="fill:#aec7e8;stroke:#aec7e8;" x="269.520601" xlink:href="#m32c89897b0" y="262.509117"/>
     <use style="fill:#aec7e8;stroke:#aec7e8;" x="322.219302" xlink:href="#m32c89897b0" y="262.415361"/>
     <use style="fill:#aec7e8;stroke:#aec7e8;" x="374.918003" xlink:href="#m32c89897b0" y="286.719347"/>
     <use style="fill:#aec7e8;stroke:#aec7e8;" x="427.616705" xlink:href="#m32c89897b0" y="262.56119"/>
    </g>
   </g>
   <g id="line2d_51">
    <g clip-path="url(#pfbf6aa2390)">
     <use style="fill:#aec7e8;stroke:#aec7e8;" x="58.725795" xlink:href="#m32c89897b0" y="254.790377"/>
     <use style="fill:#aec7e8;stroke:#aec7e8;" x="111.424497" xlink:href="#m32c89897b0" y="254.965938"/>
     <use style="fill:#aec7e8;stroke:#aec7e8;" x="164.123198" xlink:href="#m32c89897b0" y="255.04997"/>
     <use style="fill:#aec7e8;stroke:#aec7e8;" x="216.821899" xlink:href="#m32c89897b0" y="252.298265"/>
     <use style="fill:#aec7e8;stroke:#aec7e8;" x="269.520601" xlink:href="#m32c89897b0" y="245.168249"/>
     <use style="fill:#aec7e8;stroke:#aec7e8;" x="322.219302" xlink:href="#m32c89897b0" y="245.143432"/>
     <use style="fill:#aec7e8;stroke:#aec7e8;" x="374.918003" xlink:href="#m32c89897b0" y="246.682877"/>
     <use style="fill:#aec7e8;stroke:#aec7e8;" x="427.616705" xlink:href="#m32c89897b0" y="245.147187"/>
    </g>
   </g>
   <g id="line2d_52">
    <path clip-path="url(#pfbf6aa2390)" d="M 58.725795 256.57407 
L 111.424497 256.750105 
L 164.123198 162.448125 
L 216.821899 259.120652 
L 269.520601 256.764699 
L 322.219302 252.33007 
L 374.918003 260.963093 
L 427.616705 258.263278 
" style="fill:none;stroke:#ff7f0e;stroke-linecap:square;stroke-width:1.5;"/>
    <defs>
     <path d="M -3 3 
L 3 3 
L 3 -3 
L -3 -3 
z
" id="m8908d2a9be" style="stroke:#ff7f0e;stroke-linejoin:miter;"/>
    </defs>
    <g clip-path="url(#pfbf6aa2390)">
     <use style="fill-opacity:0;stroke:#ff7f0e;stroke-linejoin:miter;" x="58.725795" xlink:href="#m8908d2a9be" y="256.57407"/>
     <use style="fill-opacity:0;stroke:#ff7f0e;stroke-linejoin:miter;" x="111.424497" xlink:href="#m8908d2a9be" y="256.750105"/>
     <use style="fill-opacity:0;stroke:#ff7f0e;stroke-linejoin:miter;" x="164.123198" xlink:href="#m8908d2a9be" y="162.448125"/>
     <use style="fill-opacity:0;stroke:#ff7f0e;stroke-linejoin:miter;" x="216.821899" xlink:href="#m8908d2a9be" y="259.120652"/>
     <use style="fill-opacity:0;stroke:#ff7f0e;stroke-linejoin:miter;" x="269.520601" xlink:href="#m8908d2a9be" y="256.764699"/>
     <use style="fill-opacity:0;stroke:#ff7f0e;stroke-linejoin:miter;" x="322.219302" xlink:href="#m8908d2a9be" y="252.33007"/>
     <use style="fill-opacity:0;stroke:#ff7f0e;stroke-linejoin:miter;" x="374.918003" xlink:href="#m8908d2a9be" y="260.963093"/>
     <use style="fill-opacity:0;stroke:#ff7f0e;stroke-linejoin:miter;" x="427.616705" xlink:href="#m8908d2a9be" y="258.263278"/>
    </g>
   </g>
   <g id="line2d_53">
    <defs>
     <path d="M 3 0 
L -3 -0 
" id="m8e7cfb455d" style="stroke:#ff7f0e;"/>
    </defs>
    <g clip-path="url(#pfbf6aa2390)">
     <use style="fill:#ff7f0e;stroke:#ff7f0e;" x="58.725795" xlink:href="#m8e7cfb455d" y="262.764784"/>
     <use style="fill:#ff7f0e;stroke:#ff7f0e;" x="111.424497" xlink:href="#m8e7cfb455d" y="262.698319"/>
     <use style="fill:#ff7f0e;stroke:#ff7f0e;" x="164.123198" xlink:href="#m8e7cfb455d" y="289.839034"/>
     <use style="fill:#ff7f0e;stroke:#ff7f0e;" x="216.821899" xlink:href="#m8e7cfb455d" y="269.75303"/>
     <use style="fill:#ff7f0e;stroke:#ff7f0e;" x="269.520601" xlink:href="#m8e7cfb455d" y="262.790693"/>
     <use style="fill:#ff7f0e;stroke:#ff7f0e;" x="322.219302" xlink:href="#m8e7cfb455d" y="252.49484"/>
     <use style="fill:#ff7f0e;stroke:#ff7f0e;" x="374.918003" xlink:href="#m8e7cfb455d" y="267.087197"/>
     <use style="fill:#ff7f0e;stroke:#ff7f0e;" x="427.616705" xlink:href="#m8e7cfb455d" y="268.265255"/>
    </g>
   </g>
   <g id="line2d_54">
    <g clip-path="url(#pfbf6aa2390)">
     <use style="fill:#ff7f0e;stroke:#ff7f0e;" x="58.725795" xlink:href="#m8e7cfb455d" y="250.383356"/>
     <use style="fill:#ff7f0e;stroke:#ff7f0e;" x="111.424497" xlink:href="#m8e7cfb455d" y="250.801891"/>
     <use style="fill:#ff7f0e;stroke:#ff7f0e;" x="164.123198" xlink:href="#m8e7cfb455d" y="35.057216"/>
     <use style="fill:#ff7f0e;stroke:#ff7f0e;" x="216.821899" xlink:href="#m8e7cfb455d" y="248.488274"/>
     <use style="fill:#ff7f0e;stroke:#ff7f0e;" x="269.520601" xlink:href="#m8e7cfb455d" y="250.738704"/>
     <use style="fill:#ff7f0e;stroke:#ff7f0e;" x="322.219302" xlink:href="#m8e7cfb455d" y="252.1653"/>
     <use style="fill:#ff7f0e;stroke:#ff7f0e;" x="374.918003" xlink:href="#m8e7cfb455d" y="254.838989"/>
     <use style="fill:#ff7f0e;stroke:#ff7f0e;" x="427.616705" xlink:href="#m8e7cfb455d" y="248.261301"/>
    </g>
   </g>
   <g id="line2d_55">
    <path clip-path="url(#pfbf6aa2390)" d="M 58.725795 256.699027 
L 111.424497 261.806785 
L 164.123198 252.302707 
L 216.821899 256.703588 
L 269.520601 260.729596 
L 322.219302 252.493336 
L 374.918003 261.010522 
L 427.616705 249.741531 
" style="fill:none;stroke:#ffbb78;stroke-linecap:square;stroke-width:1.5;"/>
    <defs>
     <path d="M -0 4.242641 
L 4.242641 0 
L 0 -4.242641 
L -4.242641 -0 
z
" id="mfb3b0c47cb" style="stroke:#ffbb78;stroke-linejoin:miter;"/>
    </defs>
    <g clip-path="url(#pfbf6aa2390)">
     <use style="fill-opacity:0;stroke:#ffbb78;stroke-linejoin:miter;" x="58.725795" xlink:href="#mfb3b0c47cb" y="256.699027"/>
     <use style="fill-opacity:0;stroke:#ffbb78;stroke-linejoin:miter;" x="111.424497" xlink:href="#mfb3b0c47cb" y="261.806785"/>
     <use style="fill-opacity:0;stroke:#ffbb78;stroke-linejoin:miter;" x="164.123198" xlink:href="#mfb3b0c47cb" y="252.302707"/>
     <use style="fill-opacity:0;stroke:#ffbb78;stroke-linejoin:miter;" x="216.821899" xlink:href="#mfb3b0c47cb" y="256.703588"/>
     <use style="fill-opacity:0;stroke:#ffbb78;stroke-linejoin:miter;" x="269.520601" xlink:href="#mfb3b0c47cb" y="260.729596"/>
     <use style="fill-opacity:0;stroke:#ffbb78;stroke-linejoin:miter;" x="322.219302" xlink:href="#mfb3b0c47cb" y="252.493336"/>
     <use style="fill-opacity:0;stroke:#ffbb78;stroke-linejoin:miter;" x="374.918003" xlink:href="#mfb3b0c47cb" y="261.010522"/>
     <use style="fill-opacity:0;stroke:#ffbb78;stroke-linejoin:miter;" x="427.616705" xlink:href="#mfb3b0c47cb" y="249.741531"/>
    </g>
   </g>
   <g id="line2d_56">
    <defs>
     <path d="M 3 0 
L -3 -0 
" id="m8566d828c4" style="stroke:#ffbb78;"/>
    </defs>
    <g clip-path="url(#pfbf6aa2390)">
     <use style="fill:#ffbb78;stroke:#ffbb78;" x="58.725795" xlink:href="#m8566d828c4" y="262.676896"/>
     <use style="fill:#ffbb78;stroke:#ffbb78;" x="111.424497" xlink:href="#m8566d828c4" y="268.662118"/>
     <use style="fill:#ffbb78;stroke:#ffbb78;" x="164.123198" xlink:href="#m8566d828c4" y="252.330161"/>
     <use style="fill:#ffbb78;stroke:#ffbb78;" x="216.821899" xlink:href="#m8566d828c4" y="262.656588"/>
     <use style="fill:#ffbb78;stroke:#ffbb78;" x="269.520601" xlink:href="#m8566d828c4" y="266.769275"/>
     <use style="fill:#ffbb78;stroke:#ffbb78;" x="322.219302" xlink:href="#m8566d828c4" y="252.707425"/>
     <use style="fill:#ffbb78;stroke:#ffbb78;" x="374.918003" xlink:href="#m8566d828c4" y="267.067295"/>
     <use style="fill:#ffbb78;stroke:#ffbb78;" x="427.616705" xlink:href="#m8566d828c4" y="253.822638"/>
    </g>
   </g>
   <g id="line2d_57">
    <g clip-path="url(#pfbf6aa2390)">
     <use style="fill:#ffbb78;stroke:#ffbb78;" x="58.725795" xlink:href="#m8566d828c4" y="250.721159"/>
     <use style="fill:#ffbb78;stroke:#ffbb78;" x="111.424497" xlink:href="#m8566d828c4" y="254.951453"/>
     <use style="fill:#ffbb78;stroke:#ffbb78;" x="164.123198" xlink:href="#m8566d828c4" y="252.275253"/>
     <use style="fill:#ffbb78;stroke:#ffbb78;" x="216.821899" xlink:href="#m8566d828c4" y="250.750588"/>
     <use style="fill:#ffbb78;stroke:#ffbb78;" x="269.520601" xlink:href="#m8566d828c4" y="254.689916"/>
     <use style="fill:#ffbb78;stroke:#ffbb78;" x="322.219302" xlink:href="#m8566d828c4" y="252.279247"/>
     <use style="fill:#ffbb78;stroke:#ffbb78;" x="374.918003" xlink:href="#m8566d828c4" y="254.95375"/>
     <use style="fill:#ffbb78;stroke:#ffbb78;" x="427.616705" xlink:href="#m8566d828c4" y="245.660424"/>
    </g>
   </g>
   <g id="line2d_58">
    <path clip-path="url(#pfbf6aa2390)" d="M 58.725795 253.778484 
L 111.424497 260.830839 
L 164.123198 253.861485 
L 216.821899 256.577718 
L 269.520601 252.577249 
L 322.219302 261.047918 
L 374.918003 249.547254 
L 427.616705 256.673489 
" style="fill:none;stroke:#2ca02c;stroke-linecap:square;stroke-width:1.5;"/>
    <defs>
     <path d="M 0 -3 
L -0.673542 -0.927051 
L -2.85317 -0.927051 
L -1.089814 0.354102 
L -1.763356 2.427051 
L -0 1.145898 
L 1.763356 2.427051 
L 1.089814 0.354102 
L 2.85317 -0.927051 
L 0.673542 -0.927051 
z
" id="m00623f1bf4" style="stroke:#2ca02c;stroke-linejoin:bevel;"/>
    </defs>
    <g clip-path="url(#pfbf6aa2390)">
     <use style="fill-opacity:0;stroke:#2ca02c;stroke-linejoin:bevel;" x="58.725795" xlink:href="#m00623f1bf4" y="253.778484"/>
     <use style="fill-opacity:0;stroke:#2ca02c;stroke-linejoin:bevel;" x="111.424497" xlink:href="#m00623f1bf4" y="260.830839"/>
     <use style="fill-opacity:0;stroke:#2ca02c;stroke-linejoin:bevel;" x="164.123198" xlink:href="#m00623f1bf4" y="253.861485"/>
     <use style="fill-opacity:0;stroke:#2ca02c;stroke-linejoin:bevel;" x="216.821899" xlink:href="#m00623f1bf4" y="256.577718"/>
     <use style="fill-opacity:0;stroke:#2ca02c;stroke-linejoin:bevel;" x="269.520601" xlink:href="#m00623f1bf4" y="252.577249"/>
     <use style="fill-opacity:0;stroke:#2ca02c;stroke-linejoin:bevel;" x="322.219302" xlink:href="#m00623f1bf4" y="261.047918"/>
     <use style="fill-opacity:0;stroke:#2ca02c;stroke-linejoin:bevel;" x="374.918003" xlink:href="#m00623f1bf4" y="249.547254"/>
     <use style="fill-opacity:0;stroke:#2ca02c;stroke-linejoin:bevel;" x="427.616705" xlink:href="#m00623f1bf4" y="256.673489"/>
    </g>
   </g>
   <g id="line2d_59">
    <defs>
     <path d="M 3 0 
L -3 -0 
" id="m3e3d70dffc" style="stroke:#2ca02c;"/>
    </defs>
    <g clip-path="url(#pfbf6aa2390)">
     <use style="fill:#2ca02c;stroke:#2ca02c;" x="58.725795" xlink:href="#m3e3d70dffc" y="262.515204"/>
     <use style="fill:#2ca02c;stroke:#2ca02c;" x="111.424497" xlink:href="#m3e3d70dffc" y="266.83648"/>
     <use style="fill:#2ca02c;stroke:#2ca02c;" x="164.123198" xlink:href="#m3e3d70dffc" y="262.501954"/>
     <use style="fill:#2ca02c;stroke:#2ca02c;" x="216.821899" xlink:href="#m3e3d70dffc" y="262.520949"/>
     <use style="fill:#2ca02c;stroke:#2ca02c;" x="269.520601" xlink:href="#m3e3d70dffc" y="252.667653"/>
     <use style="fill:#2ca02c;stroke:#2ca02c;" x="322.219302" xlink:href="#m3e3d70dffc" y="266.968671"/>
     <use style="fill:#2ca02c;stroke:#2ca02c;" x="374.918003" xlink:href="#m3e3d70dffc" y="253.62986"/>
     <use style="fill:#2ca02c;stroke:#2ca02c;" x="427.616705" xlink:href="#m3e3d70dffc" y="262.768733"/>
    </g>
   </g>
   <g id="line2d_60">
    <g clip-path="url(#pfbf6aa2390)">
     <use style="fill:#2ca02c;stroke:#2ca02c;" x="58.725795" xlink:href="#m3e3d70dffc" y="245.041765"/>
     <use style="fill:#2ca02c;stroke:#2ca02c;" x="111.424497" xlink:href="#m3e3d70dffc" y="254.825198"/>
     <use style="fill:#2ca02c;stroke:#2ca02c;" x="164.123198" xlink:href="#m3e3d70dffc" y="245.221017"/>
     <use style="fill:#2ca02c;stroke:#2ca02c;" x="216.821899" xlink:href="#m3e3d70dffc" y="250.634487"/>
     <use style="fill:#2ca02c;stroke:#2ca02c;" x="269.520601" xlink:href="#m3e3d70dffc" y="252.486845"/>
     <use style="fill:#2ca02c;stroke:#2ca02c;" x="322.219302" xlink:href="#m3e3d70dffc" y="255.127166"/>
     <use style="fill:#2ca02c;stroke:#2ca02c;" x="374.918003" xlink:href="#m3e3d70dffc" y="245.464648"/>
     <use style="fill:#2ca02c;stroke:#2ca02c;" x="427.616705" xlink:href="#m3e3d70dffc" y="250.578244"/>
    </g>
   </g>
   <g id="line2d_61"/>
   <g id="line2d_62"/>
   <g id="line2d_63"/>
   <g id="line2d_64"/>
   <g id="line2d_65"/>
   <g id="patch_3">
    <path d="M 40.28125 302.578125 
L 40.28125 22.318125 
" style="fill:none;stroke:#000000;stroke-linecap:square;stroke-linejoin:miter;stroke-width:0.8;"/>
   </g>
   <g id="patch_4">
    <path d="M 446.06125 302.578125 
L 446.06125 22.318125 
" style="fill:none;stroke:#000000;stroke-linecap:square;stroke-linejoin:miter;stroke-width:0.8;"/>
   </g>
   <g id="patch_5">
    <path d="M 40.28125 302.578125 
L 446.06125 302.578125 
" style="fill:none;stroke:#000000;stroke-linecap:square;stroke-linejoin:miter;stroke-width:0.8;"/>
   </g>
   <g id="patch_6">
    <path d="M 40.28125 22.318125 
L 446.06125 22.318125 
" style="fill:none;stroke:#000000;stroke-linecap:square;stroke-linejoin:miter;stroke-width:0.8;"/>
   </g>
   <g id="text_19">
    <!-- 03-fosdem-stuffs.npf -->
    <defs>
     <path d="M 4.890625 31.390625 
L 31.203125 31.390625 
L 31.203125 23.390625 
L 4.890625 23.390625 
z
" id="DejaVuSans-45"/>
     <path d="M 45.40625 46.390625 
L 45.40625 75.984375 
L 54.390625 75.984375 
L 54.390625 0 
L 45.40625 0 
L 45.40625 8.203125 
Q 42.578125 3.328125 38.25 0.953125 
Q 33.9375 -1.421875 27.875 -1.421875 
Q 17.96875 -1.421875 11.734375 6.484375 
Q 5.515625 14.40625 5.515625 27.296875 
Q 5.515625 40.1875 11.734375 48.09375 
Q 17.96875 56 27.875 56 
Q 33.9375 56 38.25 53.625 
Q 42.578125 51.265625 45.40625 46.390625 
z
M 14.796875 27.296875 
Q 14.796875 17.390625 18.875 11.75 
Q 22.953125 6.109375 30.078125 6.109375 
Q 37.203125 6.109375 41.296875 11.75 
Q 45.40625 17.390625 45.40625 27.296875 
Q 45.40625 37.203125 41.296875 42.84375 
Q 37.203125 48.484375 30.078125 48.484375 
Q 22.953125 48.484375 18.875 42.84375 
Q 14.796875 37.203125 14.796875 27.296875 
z
" id="DejaVuSans-100"/>
     <path d="M 18.3125 70.21875 
L 18.3125 54.6875 
L 36.8125 54.6875 
L 36.8125 47.703125 
L 18.3125 47.703125 
L 18.3125 18.015625 
Q 18.3125 11.328125 20.140625 9.421875 
Q 21.96875 7.515625 27.59375 7.515625 
L 36.8125 7.515625 
L 36.8125 0 
L 27.59375 0 
Q 17.1875 0 13.234375 3.875 
Q 9.28125 7.765625 9.28125 18.015625 
L 9.28125 47.703125 
L 2.6875 47.703125 
L 2.6875 54.6875 
L 9.28125 54.6875 
L 9.28125 70.21875 
z
" id="DejaVuSans-116"/>
     <path d="M 54.890625 33.015625 
L 54.890625 0 
L 45.90625 0 
L 45.90625 32.71875 
Q 45.90625 40.484375 42.875 44.328125 
Q 39.84375 48.1875 33.796875 48.1875 
Q 26.515625 48.1875 22.3125 43.546875 
Q 18.109375 38.921875 18.109375 30.90625 
L 18.109375 0 
L 9.078125 0 
L 9.078125 54.6875 
L 18.109375 54.6875 
L 18.109375 46.1875 
Q 21.34375 51.125 25.703125 53.5625 
Q 30.078125 56 35.796875 56 
Q 45.21875 56 50.046875 50.171875 
Q 54.890625 44.34375 54.890625 33.015625 
z
" id="DejaVuSans-110"/>
     <path d="M 18.109375 8.203125 
L 18.109375 -20.796875 
L 9.078125 -20.796875 
L 9.078125 54.6875 
L 18.109375 54.6875 
L 18.109375 46.390625 
Q 20.953125 51.265625 25.265625 53.625 
Q 29.59375 56 35.59375 56 
Q 45.5625 56 51.78125 48.09375 
Q 58.015625 40.1875 58.015625 27.296875 
Q 58.015625 14.40625 51.78125 6.484375 
Q 45.5625 -1.421875 35.59375 -1.421875 
Q 29.59375 -1.421875 25.265625 0.953125 
Q 20.953125 3.328125 18.109375 8.203125 
z
M 48.6875 27.296875 
Q 48.6875 37.203125 44.609375 42.84375 
Q 40.53125 48.484375 33.40625 48.484375 
Q 26.265625 48.484375 22.1875 42.84375 
Q 18.109375 37.203125 18.109375 27.296875 
Q 18.109375 17.390625 22.1875 11.75 
Q 26.265625 6.109375 33.40625 6.109375 
Q 40.53125 6.109375 44.609375 11.75 
Q 48.6875 17.390625 48.6875 27.296875 
z
" id="DejaVuSans-112"/>
    </defs>
    <g transform="translate(180.691562 16.318125)scale(0.12 -0.12)">
     <use xlink:href="#DejaVuSans-48"/>
     <use x="63.623047" xlink:href="#DejaVuSans-51"/>
     <use x="127.246094" xlink:href="#DejaVuSans-45"/>
     <use x="163.330078" xlink:href="#DejaVuSans-102"/>
     <use x="198.535156" xlink:href="#DejaVuSans-111"/>
     <use x="259.716797" xlink:href="#DejaVuSans-115"/>
     <use x="311.816406" xlink:href="#DejaVuSans-100"/>
     <use x="375.292969" xlink:href="#DejaVuSans-101"/>
     <use x="436.816406" xlink:href="#DejaVuSans-109"/>
     <use x="534.228516" xlink:href="#DejaVuSans-45"/>
     <use x="570.3125" xlink:href="#DejaVuSans-115"/>
     <use x="622.412109" xlink:href="#DejaVuSans-116"/>
     <use x="661.621094" xlink:href="#DejaVuSans-117"/>
     <use x="725" xlink:href="#DejaVuSans-102"/>
     <use x="760.205078" xlink:href="#DejaVuSans-102"/>
     <use x="795.410156" xlink:href="#DejaVuSans-115"/>
     <use x="847.509766" xlink:href="#DejaVuSans-46"/>
     <use x="879.296875" xlink:href="#DejaVuSans-110"/>
     <use x="942.675781" xlink:href="#DejaVuSans-112"/>
     <use x="1006.152344" xlink:href="#DejaVuSans-102"/>
    </g>
   </g>
   <g id="legend_1">
    <g id="patch_7">
     <path d="M 325.44875 118.386875 
L 441.06125 118.386875 
L 441.06125 27.318125 
L 325.44875 27.318125 
z
" style="fill:#ffffff;stroke:#000000;stroke-linejoin:miter;"/>
    </g>
    <g id="text_20">
     <!-- FNT -->
     <defs>
      <path d="M 9.8125 72.90625 
L 51.703125 72.90625 
L 51.703125 64.59375 
L 19.671875 64.59375 
L 19.671875 43.109375 
L 48.578125 43.109375 
L 48.578125 34.8125 
L 19.671875 34.8125 
L 19.671875 0 
L 9.8125 0 
z
" id="DejaVuSans-70"/>
     </defs>
     <g transform="translate(373.584687 38.916562)scale(0.1 -0.1)">
      <use xlink:href="#DejaVuSans-70"/>
      <use x="57.519531" xlink:href="#DejaVuSans-78"/>
      <use x="132.324219" xlink:href="#DejaVuSans-84"/>
     </g>
    </g>
    <g id="line2d_66">
     <path d="M 329.44875 50.094687 
L 349.44875 50.094687 
" style="fill:none;stroke:#1f77b4;stroke-linecap:square;stroke-width:1.5;"/>
    </g>
    <g id="line2d_67">
     <g>
      <use style="fill-opacity:0;stroke:#1f77b4;" x="339.44875" xlink:href="#m27a5321675" y="50.094687"/>
     </g>
    </g>
    <g id="text_21">
     <!-- Router -->
     <defs>
      <path d="M 44.390625 34.1875 
Q 47.5625 33.109375 50.5625 29.59375 
Q 53.5625 26.078125 56.59375 19.921875 
L 66.609375 0 
L 56 0 
L 46.6875 18.703125 
Q 43.0625 26.03125 39.671875 28.421875 
Q 36.28125 30.8125 30.421875 30.8125 
L 19.671875 30.8125 
L 19.671875 0 
L 9.8125 0 
L 9.8125 72.90625 
L 32.078125 72.90625 
Q 44.578125 72.90625 50.734375 67.671875 
Q 56.890625 62.453125 56.890625 51.90625 
Q 56.890625 45.015625 53.6875 40.46875 
Q 50.484375 35.9375 44.390625 34.1875 
z
M 19.671875 64.796875 
L 19.671875 38.921875 
L 32.078125 38.921875 
Q 39.203125 38.921875 42.84375 42.21875 
Q 46.484375 45.515625 46.484375 51.90625 
Q 46.484375 58.296875 42.84375 61.546875 
Q 39.203125 64.796875 32.078125 64.796875 
z
" id="DejaVuSans-82"/>
     </defs>
     <g transform="translate(357.44875 53.594687)scale(0.1 -0.1)">
      <use xlink:href="#DejaVuSans-82"/>
      <use x="64.982422" xlink:href="#DejaVuSans-111"/>
      <use x="126.164062" xlink:href="#DejaVuSans-117"/>
      <use x="189.542969" xlink:href="#DejaVuSans-116"/>
      <use x="228.751953" xlink:href="#DejaVuSans-101"/>
      <use x="290.275391" xlink:href="#DejaVuSans-114"/>
     </g>
    </g>
    <g id="line2d_68">
     <path d="M 329.44875 64.772812 
L 349.44875 64.772812 
" style="fill:none;stroke:#aec7e8;stroke-linecap:square;stroke-width:1.5;"/>
    </g>
    <g id="line2d_69">
     <g>
      <use style="fill-opacity:0;stroke:#aec7e8;stroke-linejoin:miter;" x="339.44875" xlink:href="#me8a7acc3a3" y="64.772812"/>
     </g>
    </g>
    <g id="text_22">
     <!-- +Sanity check -->
     <defs>
      <path d="M 46 62.703125 
L 46 35.5 
L 73.1875 35.5 
L 73.1875 27.203125 
L 46 27.203125 
L 46 0 
L 37.796875 0 
L 37.796875 27.203125 
L 10.59375 27.203125 
L 10.59375 35.5 
L 37.796875 35.5 
L 37.796875 62.703125 
z
" id="DejaVuSans-43"/>
      <path d="M 34.28125 27.484375 
Q 23.390625 27.484375 19.1875 25 
Q 14.984375 22.515625 14.984375 16.5 
Q 14.984375 11.71875 18.140625 8.90625 
Q 21.296875 6.109375 26.703125 6.109375 
Q 34.1875 6.109375 38.703125 11.40625 
Q 43.21875 16.703125 43.21875 25.484375 
L 43.21875 27.484375 
z
M 52.203125 31.203125 
L 52.203125 0 
L 43.21875 0 
L 43.21875 8.296875 
Q 40.140625 3.328125 35.546875 0.953125 
Q 30.953125 -1.421875 24.3125 -1.421875 
Q 15.921875 -1.421875 10.953125 3.296875 
Q 6 8.015625 6 15.921875 
Q 6 25.140625 12.171875 29.828125 
Q 18.359375 34.515625 30.609375 34.515625 
L 43.21875 34.515625 
L 43.21875 35.40625 
Q 43.21875 41.609375 39.140625 45 
Q 35.0625 48.390625 27.6875 48.390625 
Q 23 48.390625 18.546875 47.265625 
Q 14.109375 46.140625 10.015625 43.890625 
L 10.015625 52.203125 
Q 14.9375 54.109375 19.578125 55.046875 
Q 24.21875 56 28.609375 56 
Q 40.484375 56 46.34375 49.84375 
Q 52.203125 43.703125 52.203125 31.203125 
z
" id="DejaVuSans-97"/>
      <path d="M 9.421875 54.6875 
L 18.40625 54.6875 
L 18.40625 0 
L 9.421875 0 
z
M 9.421875 75.984375 
L 18.40625 75.984375 
L 18.40625 64.59375 
L 9.421875 64.59375 
z
" id="DejaVuSans-105"/>
      <path d="M 32.171875 -5.078125 
Q 28.375 -14.84375 24.75 -17.8125 
Q 21.140625 -20.796875 15.09375 -20.796875 
L 7.90625 -20.796875 
L 7.90625 -13.28125 
L 13.1875 -13.28125 
Q 16.890625 -13.28125 18.9375 -11.515625 
Q 21 -9.765625 23.484375 -3.21875 
L 25.09375 0.875 
L 2.984375 54.6875 
L 12.5 54.6875 
L 29.59375 11.921875 
L 46.6875 54.6875 
L 56.203125 54.6875 
z
" id="DejaVuSans-121"/>
      <path d="M 54.890625 33.015625 
L 54.890625 0 
L 45.90625 0 
L 45.90625 32.71875 
Q 45.90625 40.484375 42.875 44.328125 
Q 39.84375 48.1875 33.796875 48.1875 
Q 26.515625 48.1875 22.3125 43.546875 
Q 18.109375 38.921875 18.109375 30.90625 
L 18.109375 0 
L 9.078125 0 
L 9.078125 75.984375 
L 18.109375 75.984375 
L 18.109375 46.1875 
Q 21.34375 51.125 25.703125 53.5625 
Q 30.078125 56 35.796875 56 
Q 45.21875 56 50.046875 50.171875 
Q 54.890625 44.34375 54.890625 33.015625 
z
" id="DejaVuSans-104"/>
      <path d="M 9.078125 75.984375 
L 18.109375 75.984375 
L 18.109375 31.109375 
L 44.921875 54.6875 
L 56.390625 54.6875 
L 27.390625 29.109375 
L 57.625 0 
L 45.90625 0 
L 18.109375 26.703125 
L 18.109375 0 
L 9.078125 0 
z
" id="DejaVuSans-107"/>
     </defs>
     <g transform="translate(357.44875 68.272812)scale(0.1 -0.1)">
      <use xlink:href="#DejaVuSans-43"/>
      <use x="83.789062" xlink:href="#DejaVuSans-83"/>
      <use x="147.265625" xlink:href="#DejaVuSans-97"/>
      <use x="208.544922" xlink:href="#DejaVuSans-110"/>
      <use x="271.923828" xlink:href="#DejaVuSans-105"/>
      <use x="299.707031" xlink:href="#DejaVuSans-116"/>
      <use x="338.916016" xlink:href="#DejaVuSans-121"/>
      <use x="398.095703" xlink:href="#DejaVuSans-32"/>
      <use x="429.882812" xlink:href="#DejaVuSans-99"/>
      <use x="484.863281" xlink:href="#DejaVuSans-104"/>
      <use x="548.242188" xlink:href="#DejaVuSans-101"/>
      <use x="609.765625" xlink:href="#DejaVuSans-99"/>
      <use x="664.746094" xlink:href="#DejaVuSans-107"/>
     </g>
    </g>
    <g id="line2d_70">
     <path d="M 329.44875 79.450937 
L 349.44875 79.450937 
" style="fill:none;stroke:#ff7f0e;stroke-linecap:square;stroke-width:1.5;"/>
    </g>
    <g id="line2d_71">
     <g>
      <use style="fill-opacity:0;stroke:#ff7f0e;stroke-linejoin:miter;" x="339.44875" xlink:href="#m8908d2a9be" y="79.450937"/>
     </g>
    </g>
    <g id="text_23">
     <!-- +Load-Balancer -->
     <defs>
      <path d="M 9.8125 72.90625 
L 19.671875 72.90625 
L 19.671875 8.296875 
L 55.171875 8.296875 
L 55.171875 0 
L 9.8125 0 
z
" id="DejaVuSans-76"/>
      <path d="M 19.671875 34.8125 
L 19.671875 8.109375 
L 35.5 8.109375 
Q 43.453125 8.109375 47.28125 11.40625 
Q 51.125 14.703125 51.125 21.484375 
Q 51.125 28.328125 47.28125 31.5625 
Q 43.453125 34.8125 35.5 34.8125 
z
M 19.671875 64.796875 
L 19.671875 42.828125 
L 34.28125 42.828125 
Q 41.5 42.828125 45.03125 45.53125 
Q 48.578125 48.25 48.578125 53.8125 
Q 48.578125 59.328125 45.03125 62.0625 
Q 41.5 64.796875 34.28125 64.796875 
z
M 9.8125 72.90625 
L 35.015625 72.90625 
Q 46.296875 72.90625 52.390625 68.21875 
Q 58.5 63.53125 58.5 54.890625 
Q 58.5 48.1875 55.375 44.234375 
Q 52.25 40.28125 46.1875 39.3125 
Q 53.46875 37.75 57.5 32.78125 
Q 61.53125 27.828125 61.53125 20.40625 
Q 61.53125 10.640625 54.890625 5.3125 
Q 48.25 0 35.984375 0 
L 9.8125 0 
z
" id="DejaVuSans-66"/>
      <path d="M 9.421875 75.984375 
L 18.40625 75.984375 
L 18.40625 0 
L 9.421875 0 
z
" id="DejaVuSans-108"/>
     </defs>
     <g transform="translate(357.44875 82.950937)scale(0.1 -0.1)">
      <use xlink:href="#DejaVuSans-43"/>
      <use x="83.789062" xlink:href="#DejaVuSans-76"/>
      <use x="137.751953" xlink:href="#DejaVuSans-111"/>
      <use x="198.933594" xlink:href="#DejaVuSans-97"/>
      <use x="260.212891" xlink:href="#DejaVuSans-100"/>
      <use x="323.689453" xlink:href="#DejaVuSans-45"/>
      <use x="356.148438" xlink:href="#DejaVuSans-66"/>
      <use x="424.751953" xlink:href="#DejaVuSans-97"/>
      <use x="486.03125" xlink:href="#DejaVuSans-108"/>
      <use x="513.814453" xlink:href="#DejaVuSans-97"/>
      <use x="575.09375" xlink:href="#DejaVuSans-110"/>
      <use x="638.472656" xlink:href="#DejaVuSans-99"/>
      <use x="693.453125" xlink:href="#DejaVuSans-101"/>
      <use x="754.976562" xlink:href="#DejaVuSans-114"/>
     </g>
    </g>
    <g id="line2d_72">
     <path d="M 329.44875 94.129062 
L 349.44875 94.129062 
" style="fill:none;stroke:#ffbb78;stroke-linecap:square;stroke-width:1.5;"/>
    </g>
    <g id="line2d_73">
     <g>
      <use style="fill-opacity:0;stroke:#ffbb78;stroke-linejoin:miter;" x="339.44875" xlink:href="#mfb3b0c47cb" y="94.129062"/>
     </g>
    </g>
    <g id="text_24">
     <!-- +Flow monitor -->
     <defs>
      <path d="M 4.203125 54.6875 
L 13.1875 54.6875 
L 24.421875 12.015625 
L 35.59375 54.6875 
L 46.1875 54.6875 
L 57.421875 12.015625 
L 68.609375 54.6875 
L 77.59375 54.6875 
L 63.28125 0 
L 52.6875 0 
L 40.921875 44.828125 
L 29.109375 0 
L 18.5 0 
z
" id="DejaVuSans-119"/>
     </defs>
     <g transform="translate(357.44875 97.629062)scale(0.1 -0.1)">
      <use xlink:href="#DejaVuSans-43"/>
      <use x="83.789062" xlink:href="#DejaVuSans-70"/>
      <use x="141.308594" xlink:href="#DejaVuSans-108"/>
      <use x="169.091797" xlink:href="#DejaVuSans-111"/>
      <use x="230.273438" xlink:href="#DejaVuSans-119"/>
      <use x="312.060547" xlink:href="#DejaVuSans-32"/>
      <use x="343.847656" xlink:href="#DejaVuSans-109"/>
      <use x="441.259766" xlink:href="#DejaVuSans-111"/>
      <use x="502.441406" xlink:href="#DejaVuSans-110"/>
      <use x="565.820312" xlink:href="#DejaVuSans-105"/>
      <use x="593.603516" xlink:href="#DejaVuSans-116"/>
      <use x="632.8125" xlink:href="#DejaVuSans-111"/>
      <use x="693.994141" xlink:href="#DejaVuSans-114"/>
     </g>
    </g>
    <g id="line2d_74">
     <path d="M 329.44875 108.807187 
L 349.44875 108.807187 
" style="fill:none;stroke:#2ca02c;stroke-linecap:square;stroke-width:1.5;"/>
    </g>
    <g id="line2d_75">
     <g>
      <use style="fill-opacity:0;stroke:#2ca02c;stroke-linejoin:bevel;" x="339.44875" xlink:href="#m00623f1bf4" y="108.807187"/>
     </g>
    </g>
    <g id="text_25">
     <!-- +DPI -->
     <defs>
      <path d="M 19.671875 64.796875 
L 19.671875 8.109375 
L 31.59375 8.109375 
Q 46.6875 8.109375 53.6875 14.9375 
Q 60.6875 21.78125 60.6875 36.53125 
Q 60.6875 51.171875 53.6875 57.984375 
Q 46.6875 64.796875 31.59375 64.796875 
z
M 9.8125 72.90625 
L 30.078125 72.90625 
Q 51.265625 72.90625 61.171875 64.09375 
Q 71.09375 55.28125 71.09375 36.53125 
Q 71.09375 17.671875 61.125 8.828125 
Q 51.171875 0 30.078125 0 
L 9.8125 0 
z
" id="DejaVuSans-68"/>
      <path d="M 9.8125 72.90625 
L 19.671875 72.90625 
L 19.671875 0 
L 9.8125 0 
z
" id="DejaVuSans-73"/>
     </defs>
     <g transform="translate(357.44875 112.307187)scale(0.1 -0.1)">
      <use xlink:href="#DejaVuSans-43"/>
      <use x="83.789062" xlink:href="#DejaVuSans-68"/>
      <use x="160.791016" xlink:href="#DejaVuSans-80"/>
      <use x="221.09375" xlink:href="#DejaVuSans-73"/>
     </g>
    </g>
   </g>
  </g>
 </g>
 <defs>
  <clipPath id="pfbf6aa2390">
   <rect height="280.26" width="405.78" x="40.28125" y="22.318125"/>
  </clipPath>
 </defs>
</svg>
